<svg xmlns="http://www.w3.org/2000/svg" viewBox="0 0 138 138"><defs><style>.cls-1{fill:#eaeaea;}.cls-2{fill:none;stroke:#eaeaea;stroke-miterlimit:10;stroke-width:5px;}</style></defs><title>cobife</title><g id="Camada_2" data-name="Camada 2"><g id="Camada_1-2" data-name="Camada 1"><g id="cobife"><path class="cls-1" d="M27.67,99.15c-1.66,0-3,.09-4.37,0a2,2,0,0,1-1.29-1,6.81,6.81,0,0,1-.58-4.75c.65-3.2,1.13-6.44,1.7-9.67a14.27,14.27,0,0,1,2.5-6,9.89,9.89,0,0,0,1.57-5.58c.26-5.51.33-11,.53-16.54a27.57,27.57,0,0,1,.51-5.22c.89-3.93,3.45-6,7.47-5.89,2.9.08,5.79.59,8.68.95A117,117,0,0,0,64,46.13c10.1-.43,20.2-1,30.29-1.47.52,0,1-.1,1.67-.17V39.62a41,41,0,0,1,3.64,2.19,2.61,2.61,0,0,0,3,.37,3.67,3.67,0,0,1,1.82-.51,3,3,0,0,0,3.07-1.78,8.68,8.68,0,0,1,.85-1.07l.43.16a31.48,31.48,0,0,1-.91,3.33c-.22.58-.22.93.25,1.33A12.38,12.38,0,0,1,112,50.21a9.33,9.33,0,0,0,2.24,3.45c1.22,1.39,2.54,2.66,2.49,4.72a2.84,2.84,0,0,1-3.66,2.95,9.42,9.42,0,0,0-5.08,0,6.53,6.53,0,0,1-5-.94c-1.86-1-2.54-1-4,.57A52.08,52.08,0,0,0,88.8,76.29a22,22,0,0,0-1.25,6.9c-.26,3.22-.21,6.46-.34,9.7a2.13,2.13,0,0,0,1,2.1,7.05,7.05,0,0,1,2.69,4.15c-1.71,0-3.29,0-4.87,0a1,1,0,0,1-.79-.43,13.94,13.94,0,0,1-1.3-4,20.52,20.52,0,0,0-1.3-7.14A11.85,11.85,0,0,1,82,81.87a20.91,20.91,0,0,0,.11-4.18,3,3,0,0,0-1.22-2.12c-2.37-1-4.8-2.28-7.47-1.8A64.15,64.15,0,0,0,67,75.56c-1.95.57-3.87,1.28-5.85,1.74a11.93,11.93,0,0,1-7.93-1.07c-2.05-1-4.08-2-6.07-3.12-3.61-2-7.18-1.48-9.91,1.66-.91,1-1.59,2.31-2.53,3.34s-2,1.76-3,2.65A12.7,12.7,0,0,0,30,82.43c-2.08,2.72-3,5.95-4,9.17-.09.31-.15.63-.26.92a3.06,3.06,0,0,0,.5,3.6A11.3,11.3,0,0,1,27.67,99.15Zm86.54-43.82c-.32-.36-.54-.64-.8-.88a9.19,9.19,0,0,1-2.78-4.94,9.26,9.26,0,0,0-3.51-5.29,7.3,7.3,0,0,1-2.6.44c-.46-.11-.72-1-1.13-1.67l-1.6.71c.24.49.42.84.6,1.2.73,1.52.35,2.48-1.21,3.13s-2.82-.19-3.76-1.33a2.61,2.61,0,0,0-2.72-1c-.94.15-2.19-.15-2.77.35s-.66,1.8-.9,2.76c-.56,2.19-1.31,3-3.29,1.11a1,1,0,0,0-1.64,0c-1,1-1.17,1-2.18-.09l-.71-.81c-1.44-1.77-2.14-1.85-3.8-.31a2.66,2.66,0,0,1-3.29.55c-.76-.4-1.37-1.07-2.11-1.53A3.94,3.94,0,0,0,72.18,47c-3.48,0-7,.15-10.43.18q-4.74,0-9.47-.08c-1.15,0-1.69.36-1.76,1.55a15.16,15.16,0,0,1-.45,2.83c-.45,1.81-1.31,2.35-3.07,1.79A5.82,5.82,0,0,1,45.23,52a23.54,23.54,0,0,0-2.95-2.55,2.74,2.74,0,0,0-3.55.28,2.51,2.51,0,0,1-2.93.83,2.72,2.72,0,0,0-3.13,1.2,4.35,4.35,0,0,1-3.89,2.37c0,.56,0,1,0,1.51-.12,5.07-.17,10.15-.38,15.22-.14,3.17-.66,6.25-2.74,8.9a8.42,8.42,0,0,0-1.28,3.31c-.48,2.1-.79,4.24-1.16,6.36-.3,1.71-.57,3.43-.85,5.11,1.26.4,1.72.07,2.08-1.12,1-3.16,2-6.3,3.31-9.35a8.11,8.11,0,0,1,4.47-4.79,1.7,1.7,0,0,0,.74-.59c1.17-1.65,2.32-3.33,3.68-5.3-1.79-.23-3.28-.43-4.77-.61-1.68-.2-2.44-1.15-1.85-2.71a17.72,17.72,0,0,1,1.84-3A35.18,35.18,0,0,0,33.81,64c.31-.62.58-.88,1.26-.7a23.19,23.19,0,0,0,2.33.55,2.58,2.58,0,0,0,3.26-2.06c.25-.92.26-1.92.56-2.82a2.57,2.57,0,0,1,1.14-1.5,4.13,4.13,0,0,1,5.83,3.8c.09,2.23-.07,4.46-.13,6.7a2.08,2.08,0,0,0,1.44,2.23,4.73,4.73,0,0,1,3.27,3.93,1.54,1.54,0,0,0,.69,1c2.31,1.12,4.69,1.83,7.29,1.06,1.92-.56,3.85-1.06,5.76-1.63,2.44-.74,2.62-1.15,1.68-3.5-.08-.19-.15-.37-.24-.55-.74-1.4-1.49-1.6-2.94-.94a11.91,11.91,0,0,1-2.94,1,2.91,2.91,0,0,1-3.38-1.65,4.66,4.66,0,0,1,3-6c.41-.15.83-.28,1.23-.47,2.3-1.14,2.7-3.12,1-5-.52-.61-1.1-1.16-1.62-1.76a1.63,1.63,0,0,1,0-2.62,4.64,4.64,0,0,1,6.59-.1,7.83,7.83,0,0,1,2.82,7c-.17,1.87.31,2.31,2.17,2,.95-.13,1.9-.31,2.85-.41a2.77,2.77,0,0,1,3.1,1.55c1.43,3.38.6,4.85-1.95,6.18a8.06,8.06,0,0,0-1.17.6,2.91,2.91,0,0,0-1.54,2.52l3.56,1.19c4.43,1.49,4.44,1.49,4.43,6.16a32.82,32.82,0,0,0,0,5.61c.54,3.07,1.45,6.09,2.28,9.39a3.85,3.85,0,0,0,.65-.92,3.46,3.46,0,0,0,0-1.07c.19-4.34.07-8.73.67-13a37.84,37.84,0,0,1,3-11.66c.78-1.57.38-2.35-1.24-3-.78-.31-1.6-.5-2.39-.78a4,4,0,0,1-2.86-3.51,2.08,2.08,0,0,1,2.8-2.45,26.32,26.32,0,0,1,2.67,1c1.48.56,1.85.48,2.7-.83a2.14,2.14,0,0,1,2.35-1,5.09,5.09,0,0,1,4,2.7c2.64-1.83,3.37-2.11,5.29-1,2.38,1.4,4.72,1.19,7.14.42.27-.08.65-.45.64-.68a3,3,0,0,1,2.72-3.43A2.35,2.35,0,0,0,114.21,55.33Z"/><path class="cls-1" d="M36,78c3.21-5.89,7.74-6.62,13.79-2.2-.91.9-.51,1.76.13,2.61a1.71,1.71,0,0,1,.4.73,4.34,4.34,0,0,1-.2,1c-.37-.1-.86-.09-1.08-.33A9.78,9.78,0,0,1,48,78.24c-1.1.49-2.16.93-3.18,1.46a1.49,1.49,0,0,0-.57.89c-.1.38,0,.82-.07,1.19s-.36.73-.57.75a1.06,1.06,0,0,1-.79-.56,10.36,10.36,0,0,1-.34-1.85c-.95-.13-1.92-.32-2.91-.37-.28,0-.65.31-.86.57s-.28.78-.54,1.05a1.13,1.13,0,0,1-.92.24c-.19,0-.28-.48-.4-.75a.28.28,0,0,1,0-.23C37.63,79.43,37.57,78.46,36,78Z"/><path class="cls-1" d="M70.1,75.66c1.6-.73,2.11-.64,2.74.55a10.76,10.76,0,0,1,.73,2.25,1.88,1.88,0,0,1,0,.71A23.47,23.47,0,0,0,74.82,90.7a10.45,10.45,0,0,1,.42,3.07c0,.77.32,1,1.23.76,0-1.45-.08-3,0-4.47q.38-5.67.92-11.32a17.69,17.69,0,0,1,.65-2.42c.19-.78.59-.73,1.09-.39-.43,2.12-1,4.21-1.24,6.33-.27,2.33-.24,4.7-.32,7a25.11,25.11,0,0,1,0,2.88,3.71,3.71,0,0,0,1.67,4.08c.83.56,1.27,1.73,2.06,2.88-2,0-3.6.06-5.18,0A1.58,1.58,0,0,1,75,98.2a13.23,13.23,0,0,1-.76-3.48,17.25,17.25,0,0,0-1.2-6.31,12.81,12.81,0,0,1-.63-6.72c.09-.71.14-1.42.17-2.14C72.68,77.79,72.27,76.29,70.1,75.66Z"/><path class="cls-1" d="M45.28,99.11c-1.55,0-3.06,0-4.57,0-.26,0-.64-.42-.73-.71-.3-1-.52-2-.73-3a23.92,23.92,0,0,0-3.52-8.83,20.12,20.12,0,0,1-1.89-4.38,4.72,4.72,0,0,1,0-1.67l.48,0c.16.46.29.94.49,1.38.75,1.63,1.56,3.23,2.27,4.87,1,2.22,2,4.43,2.77,6.73.39,1.16.85,1.48,2,1.1A54.16,54.16,0,0,1,40.37,89c-.38-2.31-.48-4.67-.63-7,0-.35.37-.72.56-1.09.19.36.56.73.54,1.08a26.23,26.23,0,0,0,2,11.58,6.56,6.56,0,0,0,1,1.74A5.7,5.7,0,0,1,45.28,99.11Z"/><path class="cls-1" d="M112.81,40a5.81,5.81,0,0,1-3,4.29l-1.39-1.58Z"/><circle class="cls-2" cx="69" cy="69" r="66.5"/></g></g></g></svg>