<svg xmlns="http://www.w3.org/2000/svg" viewBox="0 0 138 138"><defs><style>.cls-1{fill:#eaeaea;}.cls-2{fill:none;stroke:#eaeaea;stroke-miterlimit:10;stroke-width:5px;}</style></defs><title>dge</title><g id="Camada_2" data-name="Camada 2"><g id="Camada_1-2" data-name="Camada 1"><g id="dge"><path class="cls-1" d="M38.25,36h9.21c.68,0,1.36,0,2,0s1.23-.11,1-1H87.18l-.09.32a6,6,0,0,0,1.75.6c3.59.06,7.19,0,10.91,0a44.05,44.05,0,0,1-5,12.24c-2.45,3.94-5.43,7.36-9.82,9.18a13,13,0,0,1-4.71,1.22c-2.26,0-3.63,1.15-5,2.79.93.26,2,.5,1.78,1.74-.32,1.65-1.88.94-3,1.38.07.42.13.87.23,1.31,1.14,4.82,2.32,9.63,3.39,14.46.26,1.18.75,1.62,1.91,1.45a11.29,11.29,0,0,1,1.44,0c0,.45.09.83.09,1.21,0,4.68,0,9.36,0,14,0,.92-.24,1.24-1.21,1.23-7,0-14,0-21,0-.61,0-1.18.07-1.17-.88,0-5,0-10,0-15a3.26,3.26,0,0,1,.1-.55H60.8l4.11-17.23c-1.08-.46-2.65.3-3-1.28-.12-.55.39-1.24.66-2a6.63,6.63,0,0,0-5-2.65A15.2,15.2,0,0,1,47.8,54C42.71,49.1,40.05,42.93,38.25,36ZM61,84.15V95.32H77.7V84.15ZM80.11,56c6.57-.28,15.85-10.47,16-17.5-2.75,0-5.51,0-8.26,0-.3,0-.75.49-.85.84-.44,1.45-.72,2.94-1.15,4.4A45.31,45.31,0,0,1,80.11,56Zm-22.22.1c-.35-.57-.55-.91-.76-1.24A44.1,44.1,0,0,1,51.55,42c-.29-1.11-.3-2.62-1-3.19s-2.21-.24-3.36-.25c-1.81,0-3.63,0-5.74,0,1.27,2.75,2.34,5.27,3.57,7.72a19.53,19.53,0,0,0,5,6.25A14.89,14.89,0,0,0,57.89,56.1Z"/><path class="cls-1" d="M53.69,103V99.09H84.34c0,1.11,0,2.18,0,3.24,0,.23-.38.51-.65.61a2.73,2.73,0,0,1-1,0h-29Z"/><circle class="cls-2" cx="69" cy="69" r="66.5"/></g></g></g></svg>