<svg xmlns="http://www.w3.org/2000/svg" viewBox="0 0 138 138"><defs><style>.cls-1{fill:#eaeaea;}.cls-2{fill:none;stroke:#eaeaea;stroke-miterlimit:10;stroke-width:5px;}</style></defs><title>vendas</title><g id="Camada_2" data-name="Camada 2"><g id="Camada_1-2" data-name="Camada 1"><g id="vendas"><path class="cls-1" d="M69,41.52c1.94-1.83,3.8-3.7,5.8-5.42a21.55,21.55,0,0,1,3.68-2.44c3.06-1.7,5.85-.94,7.75,2a3.15,3.15,0,0,1,.56,1c.35,2.21,1.93,3.07,3.84,3.47,2.11.43,3.07,1.77,3.9,3.68a95.25,95.25,0,0,1,7.63,34.89A97.76,97.76,0,0,1,101,97.87c-.06.31-.07.74-.27.89-1,.69-.76,1.68-.77,2.62a1.35,1.35,0,0,1-1.48,1.5c-1.6,0-3.21.08-4.8,0a1.8,1.8,0,0,1-1.31-1,8.53,8.53,0,0,0-1.11-3.32c-.85-1.2-.93-2.93-1.35-4.43-.23-.83-.47-1.66-.68-2.4A44.57,44.57,0,0,1,87,96.9a18.6,18.6,0,0,1-2.67,2.82,3.75,3.75,0,0,0-.89,1.4,17.65,17.65,0,0,0-.38,2.61,1.54,1.54,0,0,1-1.77,1.52c-2,0-4,0-6,0h-18c-1.79,0-2.05-.22-2.33-2a7.53,7.53,0,0,1-.1-.83,3.28,3.28,0,0,0-1.78-3.16c-2.17-1.24-3-3.55-3.67-5.84-.15-.5-.26-1-.44-1.74a8.36,8.36,0,0,0-.35.83,46.58,46.58,0,0,1-1.54,5.41c-.56,1.35-1.45,2.54-1.41,4.13,0,.26-.81.75-1.27.78-1.59.1-3.2,0-4.8,0a1.37,1.37,0,0,1-1.48-1.51c0-1,.08-1.9-.79-2.73-.39-.37-.29-1.28-.38-1.95a98.08,98.08,0,0,1-1-18.76C36.57,65.44,39,53.37,44.41,42a2.86,2.86,0,0,1,1.34-1.23,25.81,25.81,0,0,1,3.48-1.28,2.25,2.25,0,0,0,1.56-1.6,11.13,11.13,0,0,1,1.7-3.12,5.06,5.06,0,0,1,6.67-1.35A31.05,31.05,0,0,1,68,40.65C68.34,41,68.69,41.24,69,41.52Zm-5.85,2.13c0,.28-.1.59-.13.91a30.67,30.67,0,0,0,1,11.16c.23.87.06,1.54-.87,1.77s-1.43-.18-1.66-1.09a34.23,34.23,0,0,1-1.18-10.32c.07-1.26.57-2.76.06-3.73s-2-1.46-3.12-2.11A1.65,1.65,0,0,0,56.12,40c-2.76.9-5.5,1.86-8.21,2.79,0,.26,0,.35.06.41,4.57,7.39,5.54,15.37,4.38,23.88-.8,5.8-1.07,11.69-1.3,17.56a22.4,22.4,0,0,0,2.17,10.83,4.41,4.41,0,0,0,4.58,2.6c1.44-.08,2.88-.14,4.32-.15,5.95,0,11.91,0,17.87,0,3.15,0,4.71-1,5.52-4.1a33.94,33.94,0,0,0,1.41-9.06c-.14-6.46-.55-12.94-1.3-19.36-.9-7.75.22-15,4.19-21.7a6.71,6.71,0,0,0,.33-.75,6.56,6.56,0,0,0-.63-.27C88,42.06,86.44,41.5,84.89,41c-3.58-1.21-3.58-1.2-6.71.91,0,0-.09,0-.11.06-.2.43-.56.86-.56,1.29,0,1.75.34,3.52.2,5.26-.2,2.57-.67,5.13-1.07,7.69-.15.93-.68,1.58-1.75,1.31s-1-1.1-.84-1.93c.12-.55.26-1.09.38-1.64a26.64,26.64,0,0,0,.45-10.29,36.76,36.76,0,0,1-5.81.9A37.91,37.91,0,0,1,63.16,43.65ZM46,45.11a2,2,0,0,0-.29.3c-.17.37-.33.73-.49,1.1A90.54,90.54,0,0,0,38.63,75.8a94.41,94.41,0,0,0,.77,20c.13.83.44,1.08,1.22,1q1.56-.08,3.12,0a1.05,1.05,0,0,0,1.25-1c.37-1.59.93-3.15,1.2-4.76,1-6,2-12,2.82-18.09a121.9,121.9,0,0,0,1.21-13.46C50.33,54.4,48.62,49.66,46,45.11Zm46.21,0a2.13,2.13,0,0,0-.33.17,1.57,1.57,0,0,0-.2.3,29,29,0,0,0-3.84,17.27c.52,5.13,1,10.27,1.84,15.35,1,5.91,2.21,11.77,3.38,17.64.07.33.49.84.76.86,1.51.08,3,0,4.61,0A94.55,94.55,0,0,0,92.24,45.14ZM80.79,100.65H57.21l.34,1.88h23ZM64.19,41l.23-.37c-2-1.57-4-3.22-6.12-4.71-1.91-1.36-3.81-.51-4.44,1.89a13.31,13.31,0,0,0,1.51-.42,3.22,3.22,0,0,1,3.39.64A54.64,54.64,0,0,0,64.19,41Zm9.45-.31.21.25,1.62-.91a46.93,46.93,0,0,0,4.24-2.32,2.53,2.53,0,0,1,2.42-.46c.7.23,1.43.38,2.24.6-1.43-2.67-2.85-3.28-4.76-1.91C77.55,37.44,75.63,39.11,73.64,40.71ZM42,100.41l1.13-.49A3.89,3.89,0,0,0,42,99.51a3.87,3.87,0,0,0-1.18.38Zm55.39-.81H94.78A1.74,1.74,0,0,0,97.43,99.6Z"/><circle class="cls-2" cx="69" cy="69" r="66.5"/></g></g></g></svg>