<svg xmlns="http://www.w3.org/2000/svg" viewBox="0 0 138 138"><defs><style>.cls-1{fill:#eaeaea;}.cls-2{fill:none;stroke:#eaeaea;stroke-miterlimit:10;stroke-width:5px;}</style></defs><title>vice</title><g id="Camada_2" data-name="Camada 2"><g id="Camada_1-2" data-name="Camada 1"><g id="vice"><path class="cls-1" d="M61.69,94.11c-1.53,1.14-3,2.17-4.94,1a3.72,3.72,0,0,1-1.6-4.82c-4.84,1.56-6.56.19-6.42-5a4.72,4.72,0,0,1-4.25.48c-2.44-1.07-3.26-3.32-1.9-5.6A36,36,0,0,1,44.82,77a1.58,1.58,0,0,0,0-2.25c-.9-1.07-1.73-2.2-2.58-3.31-1.11-1.42-1-2.33.59-4.55,1.31,1.69,2.62,3.35,3.88,5a3.45,3.45,0,0,0,2.71,1.49c2.63.16,3.76,1.45,3.8,4.1,0,1.76.27,2,1.95,2.17a3.46,3.46,0,0,1,3.49,3c.44,1.9.65,2.11,2.54,2.19a3.29,3.29,0,0,1,3,2.18c1.4,3.13,4.31,4.58,7,6.32a1.12,1.12,0,0,0,.9.21,4.17,4.17,0,0,0,1.66-1.12c.19-.25-.11-1.12-.44-1.43-1.3-1.18-2.7-2.25-4.06-3.36a9.5,9.5,0,0,1-1.58-1.28,6.75,6.75,0,0,1-.7-1.72,8.93,8.93,0,0,1,1.87-.4,2.37,2.37,0,0,1,1.14.59L78,90.67a12.21,12.21,0,0,0,1.31.85,1.89,1.89,0,0,0,2.59-.39,2.13,2.13,0,0,0,.27-2.75A5.38,5.38,0,0,0,81,87.1c-3.08-2.36-6.2-4.67-9.26-7a3.81,3.81,0,0,1-1.21-1.57c-.4-1.06.31-1.76,1.4-1.42a4.81,4.81,0,0,1,1.33.77c3.66,2.65,7.31,5.32,11,8a9.46,9.46,0,0,0,.9.61c1.17.66,2.4.54,2.91-.26a2.45,2.45,0,0,0-.41-3.41c-4.22-3.24-8.47-6.44-12.7-9.66a4.62,4.62,0,0,1-1.32-1.19,1.81,1.81,0,0,1-.06-1.57A1.83,1.83,0,0,1,75,69.92a3.64,3.64,0,0,1,1.42.85L88.89,80a13.78,13.78,0,0,0,1.18.82,2.53,2.53,0,0,0,3.4-.19,3,3,0,0,0,.38-3.84,6,6,0,0,0-1-1.07q-10.06-9.15-20.15-18.3c-2.87-2.6-6.6-1.45-7.59,2.33-.85,3.29-2.65,5.78-6.1,6.55a9,9,0,0,1-3.75-.17,2,2,0,0,1-1.53-2.79,41.27,41.27,0,0,0,1.62-7.83,26.21,26.21,0,0,1,1.5-4.29H49.43a13.33,13.33,0,0,1,1.4-2.88,3.12,3.12,0,0,1,2-.87c2.71-.13,5.44,0,8.15-.19a12.82,12.82,0,0,0,4.73-1.13,13.7,13.7,0,0,1,9.45-.94c3.4.72,6.8,1.45,10.2,2.14a2.61,2.61,0,0,1,2,1.62q4.41,9.7,8.93,19.36a3.93,3.93,0,0,1,.14,3.56,4.42,4.42,0,0,0,.18,4.2,5.55,5.55,0,0,1-3.94,8,1.39,1.39,0,0,0-1.27,1.38c-.48,3-2.15,4.43-5.12,4.56-.79,0-1,.4-1.19,1-1,2.64-2.58,4-4.65,3.71a38.13,38.13,0,0,1-3.84-.94c-.43.46-1,1.1-1.58,1.66a4.21,4.21,0,0,1-4.88.86,1.54,1.54,0,0,0-1.92.32c-.41.39-.87.72-1.3,1.07a3,3,0,0,1-5-1.49A15.48,15.48,0,0,1,61.69,94.11Z"/><path class="cls-1" d="M29.42,65.85c.25-.71.36-1.17.56-1.59Q35.12,53.33,40.29,42.4c.36-.76.86-1.43,1.27-2.17a1.23,1.23,0,0,1,1.83-.49c1.57.77,3.14,1.56,4.67,2.42,1.31.75,1.51,1.57.79,3.16-1.85,4.11-3.73,8.2-5.6,12.3-1.67,3.63-3.34,7.24-5,10.86-.93,2-1.85,2.33-3.76,1.22-1.38-.81-2.74-1.65-4-2.56A5.45,5.45,0,0,1,29.42,65.85Z"/><path class="cls-1" d="M108.58,65.92c-.28.37-.48.86-.85,1.08-1.54.93-3.11,1.8-4.71,2.63s-2.41.62-3.22-1.11c-1.84-3.91-3.62-7.83-5.46-11.73S90.75,49.29,89,45.55c-1-2-.8-2.59,1.15-3.63,1.1-.58,2.2-1.15,3.32-1.68,1.9-.9,2.73-.6,3.63,1.28,1.94,4,3.85,8.07,5.79,12.1,1.69,3.53,3.41,7.05,5.1,10.58C108.19,64.69,108.33,65.23,108.58,65.92Z"/><circle class="cls-2" cx="69" cy="69" r="66.5"/></g></g></g></svg>