<svg id="Camada_1" data-name="Camada 1" xmlns="http://www.w3.org/2000/svg" xmlns:xlink="http://www.w3.org/1999/xlink" viewBox="0 0 312 312"><defs><style>.cls-1{fill:none;}.cls-2{fill:#0d0d0d;}.cls-3{clip-path:url(#clip-path);}.cls-4{fill:url(#Novo_padrão_2);}</style><clipPath id="clip-path"><rect class="cls-1" width="312" height="312"/></clipPath><pattern id="Novo_padrão_2" data-name="Novo padrão 2" width="1415.16" height="1061.86" patternTransform="translate(80.32 147.41) rotate(45) scale(0.18)" patternUnits="userSpaceOnUse" viewBox="0 0 1415.16 1061.86"><rect class="cls-1" width="1415.16" height="1061.86"/><path class="cls-2" d="M840.16,854.75a5.11,5.11,0,0,1-.87,2.85,5,5,0,0,1-2.18,1.8,5.1,5.1,0,0,1-2.11.46H809.66a5.22,5.22,0,0,1-4.76-3.13l-7.44-17.55H750.35l-7.6,17.58a5.15,5.15,0,0,1-4.75,3.1H712.72a5.19,5.19,0,0,1-4.28-2.26,5.06,5.06,0,0,1-.5-4.78l48.39-116.73a5.18,5.18,0,0,1,4.79-3.18h25.46a5.13,5.13,0,0,1,4.28,2.27,5,5,0,0,1,.49,4.78l-8.42,20.31,8.38-7.11a5.08,5.08,0,0,1,3.36-1.24,4.94,4.94,0,0,1,1.21.14,5.12,5.12,0,0,1,3.57,3.05l37.64,91.24,2.66,6.47a1.63,1.63,0,0,1,.11.31A4.65,4.65,0,0,1,840.16,854.75Zm-6.19,0a4.74,4.74,0,0,1,.28-1.63l-39.63-96.09-19,16.18,16.69,40H755.38L786.58,738H761.12l-48.4,116.73H738l9-20.67h53.9l8.77,20.67Zm-70.89-46.65h21.51l-10.78-25.87Z"/><path class="cls-2" d="M966.6,854.75a5.1,5.1,0,0,1-.88,2.85,5,5,0,0,1-2.18,1.8,5,5,0,0,1-2.11.46H936.14a5.2,5.2,0,0,1-4.77-3.13l-7.43-17.55H876.82l-7.6,17.58a5.14,5.14,0,0,1-4.74,3.1h-25.3a5.13,5.13,0,0,1-5.16-5.11,4.74,4.74,0,0,1,.28-1.63,2.11,2.11,0,0,1,.1-.3l2.69-6.47,45.7-110.26a5.18,5.18,0,0,1,4.79-3.18H913a5.15,5.15,0,0,1,4.33,2.27,5.06,5.06,0,0,1,.49,4.78l-8.43,20.31,8.38-7.11a5.11,5.11,0,0,1,3.37-1.24,5.48,5.48,0,0,1,1.21.14,5.17,5.17,0,0,1,3.57,3.05l37.63,91.24,2.66,6.47a1,1,0,0,1,.11.31A4.68,4.68,0,0,1,966.6,854.75Zm-6.16,0a4.74,4.74,0,0,1,.28-1.63L921.1,757.06,902,773.24l16.69,40H881.8L913,738H887.58L839.86,853.13a4.67,4.67,0,0,1,.27,1.62h24.31l8.94-20.67h54l8.76,20.67Zm-70.89-46.65h21.51l-10.79-25.87Z"/><path class="cls-2" d="M1092.18,857.6a4.94,4.94,0,0,1-.67.78,5.14,5.14,0,0,1-3.62,1.48h-25.28a5.22,5.22,0,0,1-4.78-3.13l-7.43-17.55h-47.11l-7.6,17.58a5.17,5.17,0,0,1-4.75,3.1H965.65a5,5,0,0,1-2.11-.46,5.07,5.07,0,0,1-3.06-4.65,4.74,4.74,0,0,1,.28-1.63,2.11,2.11,0,0,1,.1-.3l2.69-6.47,45.68-110.26a5.14,5.14,0,0,1,4.77-3.18h25.5a5.13,5.13,0,0,1,4.29,2.27,5.06,5.06,0,0,1,.49,4.78l-8.43,20.31,8.38-7.11a5.11,5.11,0,0,1,3.37-1.24,5.48,5.48,0,0,1,1.21.14,5.17,5.17,0,0,1,3.57,3.05l37.6,91.17,2.7,6.54A5.06,5.06,0,0,1,1092.18,857.6Zm-4.33-2.82-40.29-97.72-19.06,16.18,16.69,40h-36.92L1039.46,738H1014L966.32,853.13a4.68,4.68,0,0,1,.28,1.62h24.3l8.94-20.67h54l8.77,20.67ZM1016,808.13h21.52l-10.79-25.87Z"/><path class="cls-2" d="M1208.57,755.85l-15.09,22.5,7.85-5.34a5,5,0,0,1,2.93-.9,5.16,5.16,0,0,1,2.41.58,5.1,5.1,0,0,1,2.76,4.53v77.57a4.26,4.26,0,0,1-.11,1h0a5.15,5.15,0,0,1-5.06,4.07h-23.79a5.13,5.13,0,0,1-5.15-5.11V805.42l-21.22,31.65a5.11,5.11,0,0,1-1.39,1.39,5.2,5.2,0,0,1-7.21-1.39l-21.39-31.79v49.47h0a5.14,5.14,0,0,1-5.17,5.11h-23.78a5.18,5.18,0,0,1-3.63-1.48,5.09,5.09,0,0,1-1.53-3.63V738a5.14,5.14,0,0,1,5.14-5.11h18.21a5.14,5.14,0,0,1,4.31,2.29l32,47.78,32-47.78a5.21,5.21,0,0,1,4.31-2.29h18.24a5.15,5.15,0,0,1,5.17,5.12v15A5,5,0,0,1,1208.57,755.85Zm-28.11,37.54v61.36h23.78V777.22ZM1204.21,738H1186l-36.22,54.2L1113.35,738h-18.21V854.75h23.78V788.38l30.86,45.86L1204.24,753Z"/><path class="cls-2" d="M1340.91,857.59a5.21,5.21,0,0,1-4.29,2.26h-25.28a5.2,5.2,0,0,1-4.77-3.13l-7.44-17.55H1252l-7.59,17.58a5.17,5.17,0,0,1-4.75,3.1h-25.3a5.14,5.14,0,0,1-5-4.07h0a5,5,0,0,1,.11-2.45,2.78,2.78,0,0,1,.17-.51L1258,736.09a5.14,5.14,0,0,1,4.75-3.18h25.46a5.15,5.15,0,0,1,4.3,2.27A5.06,5.06,0,0,1,1293,740l-8.44,20.31,8.38-7.11a5.21,5.21,0,0,1,3.37-1.24,5.48,5.48,0,0,1,1.21.14,5.17,5.17,0,0,1,3.57,3.05l40.29,97.71A5,5,0,0,1,1340.91,857.59Zm-4.32-2.81-40.29-97.72-19.06,16.18,16.69,40H1257L1288.17,738h-25.46l-48.4,116.73h25.3l8.94-20.67h54l8.77,20.67Zm-71.87-46.65h21.51l-10.79-25.87Z"/><path class="cls-2" d="M1415.16,738v20.35a5.14,5.14,0,0,1-5.16,5.11h-21a5.19,5.19,0,0,1-4.61-2.82l-4-8V854.75h0a5.14,5.14,0,0,1-5.17,5.11H1350.9a5.15,5.15,0,0,1-5.17-5.11V763.48h-29.57a5.15,5.15,0,0,1-5.16-5.11V737.91a5.13,5.13,0,0,1,5.27-5h59a4.63,4.63,0,0,1,1.77.32,4.7,4.7,0,0,1,1.77-.32H1410A5.14,5.14,0,0,1,1415.16,738Zm-40,0h-59v20.35H1351v96.38h24.28Zm34.8,0h-31.24L1389,758.37h21Z"/><path class="cls-2" d="M98.39,851.37h25.67L83.16,752.2,63.83,768.62l16.94,40.61H43.29L75,732.91H49.11L0,851.39H25.67l9.07-21H89.49Z"/><path class="cls-2" d="M226.73,851.37h25.66L211.5,752.2l-19.34,16.42,16.94,40.61H171.63l31.65-76.32H177.44l-49.1,118.48H154l9.07-21h54.76Z"/><path class="cls-2" d="M355.06,851.37h25.67l-40.9-99.17L320.5,768.62l17,40.61H300l31.62-76.32H305.78L256.67,851.39h25.67l9.07-21h54.76Z"/><path class="cls-2" d="M443.57,787.91l-37-55H388.09V851.37h24.12V784l31.32,46.54,55.27-82.42V732.91H480.32Zm55.23,63.46V772.68L474.67,789.1v62.27Z"/><path class="cls-2" d="M607.46,851.37h25.66L592.23,752.2l-19.34,16.42,16.94,40.61H552.36L584,732.91H558.17L509.06,851.39h25.67l9.07-21h54.76Z"/><path class="cls-2" d="M612.42,732.91v20.65h35.25v97.81h24.64V732.91Zm73.92,20.65h21.22V732.91H675.9Z"/><path class="cls-2" d="M806,1036.86h25.61l-40.89-99.17-19.34,16.42,16.94,40.61H750.85l31.66-76.32H756.67l-49.11,118.43h25.66l9.07-21h54.76Z"/><path class="cls-2" d="M934.28,1036.81H960l-41-99.12-19.33,16.42,16.94,40.61H879.18l31.66-76.32H885l-49.11,118.43h25.67l9.07-21h54.76Z"/><path class="cls-2" d="M1062.63,1036.86h25.67l-40.9-99.17-19.33,16.42L1045,994.72h-37.48l31.66-76.32h-25.84l-49.11,118.43h25.71l9.06-21h54.72Z"/><path class="cls-2" d="M1151.13,973.4l-37-55h-18.49v118.46h24.13V969.51l31.32,46.54,55.27-82.42V918.4h-18.48Zm55.23,63.41V958.12l-24.13,16.42v62.32Z"/><path class="cls-2" d="M1315,1036.86h25.68l-40.9-99.17-19.33,16.42,16.94,40.61h-37.48l31.66-76.32h-25.84l-49.11,118.43h25.67l9.07-21h54.76Z"/><path class="cls-2" d="M1320,918.4V939h35.22v97.81h24.65V918.4Zm73.9,20.6h21.21V918.4h-31.65Z"/><path class="cls-2" d="M132.58,1031.7a5.06,5.06,0,0,1-3.06,4.65,5,5,0,0,1-2.11.46H102.12a5.19,5.19,0,0,1-4.77-3.12l-7.43-17.55H42.81l-7.61,17.58a5.14,5.14,0,0,1-4.75,3.09H5.17a5.18,5.18,0,0,1-4.29-2.26,5.06,5.06,0,0,1-.5-4.78L48.78,913a5.15,5.15,0,0,1,4.78-3.18H79a5.14,5.14,0,0,1,4.31,2.27,5,5,0,0,1,.48,4.78l-8.42,20.31,8.38-7.11a4.86,4.86,0,0,1,1.39-.85,5.16,5.16,0,0,1,6.75,2.8l37.64,91.25,2.67,6.46a1.6,1.6,0,0,1,.1.31A4.68,4.68,0,0,1,132.58,1031.7Zm-6.17,0a5,5,0,0,1,.28-1.63L87.06,934l-19,16.18,16.69,40H47.83L79,915H53.56L5.17,1031.7H30.45l9-20.67h54l8.77,20.67ZM55.52,985.08H77L66.25,959.21Z"/><path class="cls-2" d="M259,1031.7a5,5,0,0,1-5.13,5.11H228.58a5.17,5.17,0,0,1-4.76-3.12l-7.44-17.55H169.27l-7.61,17.58a5.14,5.14,0,0,1-4.74,3.09H131.63a5,5,0,0,1-2.11-.46,5.1,5.1,0,0,1-2.18-1.8,5,5,0,0,1-.6-4.48,2.11,2.11,0,0,1,.1-.3l2.69-6.46,45.69-110.23A5.15,5.15,0,0,1,180,909.9h25.49a5.13,5.13,0,0,1,4.29,2.27,5.06,5.06,0,0,1,.49,4.78l-8.42,20.31,8.37-7.11a5.11,5.11,0,0,1,3.37-1.24,4.89,4.89,0,0,1,1.21.15,5.14,5.14,0,0,1,3.57,3L256,1023.31l2.66,6.46a1.6,1.6,0,0,1,.1.31A4.46,4.46,0,0,1,259,1031.7Zm-6.1,0a5,5,0,0,1,.28-1.63L213.56,934,194.5,950.19l16.69,40H174.27L205.46,915H180l-47.7,115.11a4.68,4.68,0,0,1,.28,1.62h24.3l8.94-20.67h54l8.76,20.67ZM182,985.08h21.5l-10.79-25.87Z"/><path class="cls-2" d="M384.64,1034.6a3.84,3.84,0,0,1-.67.78,5.13,5.13,0,0,1-3.61,1.48H355.07a5.17,5.17,0,0,1-4.77-3.12l-7.44-17.55H295.75l-7.59,17.58a5.19,5.19,0,0,1-4.75,3.09h-25.3a5,5,0,0,1-2.11-.46,5.15,5.15,0,0,1-2.79-6.33,1.33,1.33,0,0,1,.11-.3l2.68-6.46,45.71-110.23a5.14,5.14,0,0,1,4.77-3.18h25.46a5.13,5.13,0,0,1,4.29,2.27,5.06,5.06,0,0,1,.5,4.78l-8.43,20.31,8.37-7.11a5.11,5.11,0,0,1,3.37-1.24,4.89,4.89,0,0,1,1.21.15,5.14,5.14,0,0,1,3.57,3l37.6,91.18,2.7,6.53A5.08,5.08,0,0,1,384.64,1034.6Zm-4.34-2.9L340,934l-19.06,16.21,16.7,40H300.71L331.9,915H306.44l-47.72,115.11a4.42,4.42,0,0,1,.28,1.62h24.35l8.93-20.67h54l8.77,20.67Zm-71.85-46.62H330l-10.82-25.87Z"/><path class="cls-2" d="M501,932.81,485.9,955.3l7.85-5.34a5.12,5.12,0,0,1,2.93-.9,5.13,5.13,0,0,1,5.17,5.11v77.58a4.85,4.85,0,0,1-.1,1h0a5.16,5.16,0,0,1-5.07,4.06H472.91a5.14,5.14,0,0,1-5.17-5.11V982.4L446.53,1014a5.22,5.22,0,0,1-8.61,0l-21.39-31.79v49.49a5.13,5.13,0,0,1-5.17,5.09H387.59a5.2,5.2,0,0,1-3.64-1.48,5.09,5.09,0,0,1-1.53-3.63V915a5.14,5.14,0,0,1,5.17-5.11H405.8a5.15,5.15,0,0,1,4.3,2.29L442.17,960l32-47.78a5.19,5.19,0,0,1,4.3-2.29h18.21a5.14,5.14,0,0,1,5.17,5.11v15A5.07,5.07,0,0,1,501,932.81Zm-28.09,37.53v61.36h23.77V954.17ZM496.68,915H478.47l-36.25,54.2L405.8,915H387.59V1031.7h23.77V965.33l30.86,45.86L496.68,930Z"/><path class="cls-2" d="M633.29,1034.55a5.21,5.21,0,0,1-4.29,2.26H603.76a5.15,5.15,0,0,1-4.76-3.12l-7.48-17.56H544.41l-7.59,17.58a5.2,5.2,0,0,1-4.76,3.09H506.77a5.12,5.12,0,0,1-5-4.06h0a4.77,4.77,0,0,1,.1-2.46,2.21,2.21,0,0,1,.18-.51L550.42,913a5.14,5.14,0,0,1,4.77-3.18h25.45a5.13,5.13,0,0,1,4.29,2.27,5.06,5.06,0,0,1,.49,4.78L577,937.22l8.38-7.07a5.21,5.21,0,0,1,3.37-1.24,4.89,4.89,0,0,1,1.21.15,5.14,5.14,0,0,1,3.57,3l40.3,97.71A5,5,0,0,1,633.29,1034.55ZM629,1031.7,588.75,934l-19.06,16.18,16.69,40H549.46L580.65,915H555.19L506.8,1031.7h25.26L541,1011h54l8.76,20.67Zm-71.84-46.62h21.51l-10.79-25.87Z"/><path class="cls-2" d="M707.55,915v20.35a5.15,5.15,0,0,1-5.17,5.11h-20.9a5.19,5.19,0,0,1-4.62-2.82l-4-8V1031.7h0a5.14,5.14,0,0,1-5.16,5.1H643.4a5.13,5.13,0,0,1-5.15-5.11V940.43H608.67a5.15,5.15,0,0,1-5.16-5.11V915a5.14,5.14,0,0,1,5.16-5.11h59a4.61,4.61,0,0,1,1.76.32,4.9,4.9,0,0,1,1.77-.32h31.19A5.14,5.14,0,0,1,707.55,915Zm-39.91,0h-59v20.35h34.74v96.38h24.29Zm34.75,0H671.2l10.29,20.35h20.9Z"/><path class="cls-2" d="M840.16,500.79a5.06,5.06,0,0,1-.87,2.85,4.91,4.91,0,0,1-2.18,1.8,4.81,4.81,0,0,1-2.11.46H809.66a5.18,5.18,0,0,1-4.76-3.13l-7.44-17.55H750.35l-7.6,17.58a5.12,5.12,0,0,1-4.75,3.1H712.72a5.14,5.14,0,0,1-4.28-2.26,5.06,5.06,0,0,1-.5-4.78l48.39-116.73a5.21,5.21,0,0,1,4.79-3.18h25.46a5.16,5.16,0,0,1,4.28,2.27,5,5,0,0,1,.49,4.78l-8.42,20.31,8.38-7.11a5.18,5.18,0,0,1,3.36-1.24,6.15,6.15,0,0,1,1.21.14,5.17,5.17,0,0,1,3.57,3l37.64,91.24,2.66,6.47a1.92,1.92,0,0,1,.11.31A4.74,4.74,0,0,1,840.16,500.79Zm-6.19,0a4.82,4.82,0,0,1,.28-1.63L794.62,403.1l-19,16.18,16.69,40H755.38l31.2-75.22H761.12l-48.4,116.73H738l9-20.67h53.9l8.77,20.67Zm-70.89-46.65h21.51L773.81,428.3Z"/><path class="cls-2" d="M966.6,500.79a5.07,5.07,0,0,1-.88,2.85,4.91,4.91,0,0,1-2.18,1.8,4.81,4.81,0,0,1-2.11.46H936.14a5.17,5.17,0,0,1-4.77-3.13l-7.43-17.55H876.82l-7.6,17.58a5.14,5.14,0,0,1-4.74,3.1h-25.3a4.79,4.79,0,0,1-2.1-.46,5,5,0,0,1-2.18-1.8,5.07,5.07,0,0,1-.88-2.85,4.82,4.82,0,0,1,.28-1.63c0-.1.06-.2.1-.3l2.69-6.47,45.7-110.26a5.21,5.21,0,0,1,4.79-3.18H913a5.2,5.2,0,0,1,4.33,2.27,5.06,5.06,0,0,1,.49,4.78l-8.43,20.31,8.38-7.11a5.21,5.21,0,0,1,3.37-1.24,6.15,6.15,0,0,1,1.21.14,5.19,5.19,0,0,1,3.57,3l37.63,91.24,2.66,6.47a1.28,1.28,0,0,1,.11.31A4.72,4.72,0,0,1,966.6,500.79Zm-6.16,0a4.82,4.82,0,0,1,.28-1.63L921.1,403.1,902,419.28l16.69,40H881.8L913,384.06H887.58L839.86,499.17a4.71,4.71,0,0,1,.27,1.62h24.31l8.94-20.67h54l8.76,20.67Zm-70.89-46.65h21.51L900.27,428.3Z"/><path class="cls-2" d="M1092.18,503.64a4.18,4.18,0,0,1-.67.78,5.06,5.06,0,0,1-3.62,1.48h-25.28a5.19,5.19,0,0,1-4.78-3.13l-7.43-17.55h-47.11l-7.6,17.58a5.15,5.15,0,0,1-4.75,3.1H965.65a4.81,4.81,0,0,1-2.11-.46,5,5,0,0,1-2.18-1.8,5.07,5.07,0,0,1-.88-2.85,4.82,4.82,0,0,1,.28-1.63c0-.1.06-.2.1-.3l2.69-6.47,45.68-110.26A5.17,5.17,0,0,1,1014,379h25.5a5.18,5.18,0,0,1,4.29,2.27,5.06,5.06,0,0,1,.49,4.78l-8.43,20.31,8.38-7.11a5.21,5.21,0,0,1,3.37-1.24,6.15,6.15,0,0,1,1.21.14,5.19,5.19,0,0,1,3.57,3l37.6,91.17,2.7,6.54A5.06,5.06,0,0,1,1092.18,503.64Zm-4.33-2.82-40.29-97.72-19.06,16.18,16.69,40h-36.92l31.19-75.22H1014L966.32,499.17a4.72,4.72,0,0,1,.28,1.62h24.3l8.94-20.67h54l8.77,20.67ZM1016,454.17h21.52l-10.79-25.87Z"/><path class="cls-2" d="M1208.57,401.89l-15.09,22.5,7.85-5.34a5.19,5.19,0,0,1,2.93-.9,5.29,5.29,0,0,1,2.41.58,5.12,5.12,0,0,1,2.76,4.53v77.57a4.14,4.14,0,0,1-.11,1h0a5.13,5.13,0,0,1-5.06,4.07h-23.79a5.12,5.12,0,0,1-5.15-5.11V451.46l-21.22,31.65a5.17,5.17,0,0,1-8.6,0l-21.39-31.79v49.47h0a5.14,5.14,0,0,1-5.17,5.11h-23.78a5.14,5.14,0,0,1-3.63-1.48,5.05,5.05,0,0,1-1.53-3.63V384.06a5.14,5.14,0,0,1,5.14-5.11h18.21a5.19,5.19,0,0,1,4.31,2.29l32,47.78,32-47.78A5.23,5.23,0,0,1,1186,379h18.24a5.15,5.15,0,0,1,5.17,5.12v15A4.94,4.94,0,0,1,1208.57,401.89Zm-28.11,37.54v61.36h23.78V423.26Zm23.75-55.37H1186l-36.22,54.2-36.43-54.2h-18.21V500.79h23.78V434.42l30.86,45.86,54.46-81.21Z"/><path class="cls-2" d="M1340.91,503.63a5.16,5.16,0,0,1-4.29,2.26h-25.28a5.17,5.17,0,0,1-4.77-3.13l-7.44-17.55H1252l-7.59,17.58a5.15,5.15,0,0,1-4.75,3.1h-25.3a5.14,5.14,0,0,1-5-4.07h0a5,5,0,0,1,.11-2.45,3.39,3.39,0,0,1,.17-.51L1258,382.13a5.17,5.17,0,0,1,4.75-3.18h25.46a5.2,5.2,0,0,1,4.3,2.27A5.06,5.06,0,0,1,1293,386l-8.44,20.31,8.38-7.11a5.21,5.21,0,0,1,3.37-1.24,6.15,6.15,0,0,1,1.21.14,5.19,5.19,0,0,1,3.57,3l40.29,97.71A5,5,0,0,1,1340.91,503.63Zm-4.32-2.81L1296.3,403.1l-19.06,16.18,16.69,40H1257l31.17-75.22h-25.46l-48.4,116.73h25.3l8.94-20.67h54l8.77,20.67Zm-71.87-46.65h21.51l-10.79-25.87Z"/><path class="cls-2" d="M1415.16,384.06v20.35a5.13,5.13,0,0,1-5.16,5.11h-21a5.15,5.15,0,0,1-4.61-2.82l-4-8V500.79h0a5.14,5.14,0,0,1-5.17,5.11H1350.9a5.14,5.14,0,0,1-5.17-5.11V409.52h-29.57a5.14,5.14,0,0,1-5.16-5.11V384a5.14,5.14,0,0,1,5.27-5h59a5,5,0,0,1,1.77.32,5.13,5.13,0,0,1,1.77-.32H1410A5.14,5.14,0,0,1,1415.16,384.06Zm-40,0h-59v20.35H1351v96.38h24.28Zm34.8,0h-31.24L1389,404.41h21Z"/><path class="cls-2" d="M98.39,497.41h25.67l-40.9-99.17L63.83,414.66l16.94,40.61H43.29L75,379H49.11L0,497.43H25.67l9.07-21H89.49Z"/><path class="cls-2" d="M226.73,497.41h25.66L211.5,398.24l-19.34,16.42,16.94,40.61H171.63L203.28,379H177.44l-49.1,118.48H154l9.07-21h54.76Z"/><path class="cls-2" d="M355.06,497.41h25.67l-40.9-99.17L320.5,414.66l17,40.61H300L331.62,379H305.78L256.67,497.43h25.67l9.07-21h54.76Z"/><path class="cls-2" d="M443.57,434l-37-55H388.09V497.41h24.12V430.06l31.32,46.54,55.27-82.42V379H480.32Zm55.23,63.46V418.72l-24.13,16.42v62.27Z"/><path class="cls-2" d="M607.46,497.41h25.66l-40.89-99.17-19.34,16.42,16.94,40.61H552.36L584,379H558.17L509.06,497.43h25.67l9.07-21h54.76Z"/><path class="cls-2" d="M612.42,379V399.6h35.25v97.81h24.64V379Zm73.92,20.65h21.22V379H675.9Z"/><path class="cls-2" d="M806,682.9h25.61l-40.89-99.17-19.34,16.42,16.94,40.61H750.85l31.66-76.32H756.67L707.56,682.87h25.66l9.07-21h54.76Z"/><path class="cls-2" d="M934.28,682.85H960l-41-99.12-19.33,16.42,16.94,40.61H879.18l31.66-76.32H885L835.89,682.87h25.67l9.07-21h54.76Z"/><path class="cls-2" d="M1062.63,682.9h25.67l-40.9-99.17-19.33,16.42L1045,640.76h-37.48l31.66-76.32h-25.84L964.23,682.87h25.71l9.06-21h54.72Z"/><path class="cls-2" d="M1151.13,619.44l-37-55h-18.49V682.9h24.13V615.55l31.32,46.54,55.27-82.42V564.44h-18.48Zm55.23,63.41V604.16l-24.13,16.42V682.9Z"/><path class="cls-2" d="M1315,682.9h25.68l-40.9-99.17-19.33,16.42,16.94,40.61h-37.48l31.66-76.32h-25.84l-49.11,118.43h25.67l9.07-21h54.76Z"/><path class="cls-2" d="M1320,564.44V585h35.22v97.81h24.65V564.44Zm73.9,20.6h21.21v-20.6h-31.65Z"/><path class="cls-2" d="M132.58,677.74a5.05,5.05,0,0,1-3.06,4.65,4.81,4.81,0,0,1-2.11.46H102.12a5.17,5.17,0,0,1-4.77-3.12l-7.43-17.55H42.81L35.2,679.76a5.13,5.13,0,0,1-4.75,3.09H5.17a5.16,5.16,0,0,1-4.29-2.26,5.06,5.06,0,0,1-.5-4.78l48.4-116.73a5.17,5.17,0,0,1,4.78-3.18H79a5.16,5.16,0,0,1,4.31,2.27,5,5,0,0,1,.48,4.78l-8.42,20.31,8.38-7.11a5.35,5.35,0,0,1,1.39-.85,5.17,5.17,0,0,1,6.75,2.8l37.64,91.25,2.67,6.46a2.22,2.22,0,0,1,.1.31A4.72,4.72,0,0,1,132.58,677.74Zm-6.17,0a5.08,5.08,0,0,1,.28-1.63L87.06,580.05l-19,16.18,16.69,40H47.83L79,561H53.56L5.17,677.74H30.45l9-20.67h54l8.77,20.67ZM55.52,631.12H77L66.25,605.25Z"/><path class="cls-2" d="M259,677.74a5.05,5.05,0,0,1-3,4.7,4.74,4.74,0,0,1-2.13.41H228.58a5.16,5.16,0,0,1-4.76-3.12l-7.44-17.55H169.27l-7.61,17.58a5.11,5.11,0,0,1-4.74,3.09H131.63a4.81,4.81,0,0,1-2.11-.46,5,5,0,0,1-2.18-1.8,5,5,0,0,1-.6-4.48c0-.1.06-.2.1-.3l2.69-6.46,45.69-110.23a5.17,5.17,0,0,1,4.78-3.18h25.49a5.18,5.18,0,0,1,4.29,2.27,5.06,5.06,0,0,1,.49,4.78l-8.42,20.31,8.37-7.11a5.21,5.21,0,0,1,3.37-1.24,5.42,5.42,0,0,1,1.21.15,5.17,5.17,0,0,1,3.57,3L256,669.35l2.66,6.46a2.22,2.22,0,0,1,.1.31A4.49,4.49,0,0,1,259,677.74Zm-6.1,0a5.08,5.08,0,0,1,.28-1.63l-39.62-96.09L194.5,596.23l16.69,40H174.27L205.46,561H180L132.3,676.12a4.72,4.72,0,0,1,.28,1.62h24.3l8.94-20.67h54l8.76,20.67ZM182,631.12h21.5l-10.79-25.87Z"/><path class="cls-2" d="M384.64,680.64a3.59,3.59,0,0,1-.67.78,5,5,0,0,1-3.61,1.48H355.07a5.14,5.14,0,0,1-4.77-3.12l-7.44-17.55H295.75l-7.59,17.58a5.15,5.15,0,0,1-4.75,3.09h-25.3a4.81,4.81,0,0,1-2.11-.46,5.15,5.15,0,0,1-2.79-6.33,1.82,1.82,0,0,1,.11-.3l2.68-6.46,45.71-110.23a5.17,5.17,0,0,1,4.77-3.18h25.46a5.18,5.18,0,0,1,4.29,2.27,5.06,5.06,0,0,1,.5,4.78L328.3,583.3l8.37-7.11A5.21,5.21,0,0,1,340,575a5.42,5.42,0,0,1,1.21.15,5.17,5.17,0,0,1,3.57,3l37.6,91.18,2.7,6.53A5.07,5.07,0,0,1,384.64,680.64Zm-4.34-2.9L340,580l-19.06,16.21,16.7,40H300.71L331.9,561H306.44L258.72,676.12a4.49,4.49,0,0,1,.28,1.62h24.35l8.93-20.67h54l8.77,20.67Zm-71.85-46.62H330l-10.82-25.87Z"/><path class="cls-2" d="M501,578.85l-15.1,22.49,7.85-5.34a5.25,5.25,0,0,1,5.34-.32,5.1,5.1,0,0,1,2.76,4.53v77.58a4.71,4.71,0,0,1-.1,1h0a5.15,5.15,0,0,1-5.07,4.06H472.91a5.14,5.14,0,0,1-5.17-5.11v-49.3l-21.21,31.62a5.11,5.11,0,0,1-1.39,1.39,5.2,5.2,0,0,1-7.22-1.39l-21.39-31.79v49.49a5.12,5.12,0,0,1-5.17,5.09H387.59a5.12,5.12,0,0,1-3.64-1.48,5.05,5.05,0,0,1-1.53-3.63V561a5.15,5.15,0,0,1,5.17-5.11H405.8a5.18,5.18,0,0,1,4.3,2.29L442.17,606l32-47.78a5.21,5.21,0,0,1,4.3-2.29h18.21a5.15,5.15,0,0,1,5.17,5.11v15A5,5,0,0,1,501,578.85Zm-28.09,37.53v61.36h23.77V600.21ZM496.68,561H478.47l-36.25,54.2L405.8,561H387.59V677.74h23.77V611.37l30.86,45.86L496.68,576Z"/><path class="cls-2" d="M633.29,680.59a5.16,5.16,0,0,1-4.29,2.26H603.76a5.12,5.12,0,0,1-4.76-3.12l-7.48-17.56H544.41l-7.59,17.58a5.17,5.17,0,0,1-4.76,3.09H506.77a5.1,5.1,0,0,1-5-4.06h0a4.78,4.78,0,0,1,.1-2.46,2.59,2.59,0,0,1,.18-.51l48.42-116.73a5.17,5.17,0,0,1,4.77-3.18h25.45a5.18,5.18,0,0,1,4.29,2.27,5.06,5.06,0,0,1,.49,4.78L577,583.26l8.38-7.07a5.21,5.21,0,0,1,3.37-1.24,5.42,5.42,0,0,1,1.21.15,5.17,5.17,0,0,1,3.57,3l40.3,97.71A5,5,0,0,1,633.29,680.59ZM629,677.74l-40.25-97.69-19.06,16.18,16.69,40H549.46L580.65,561H555.19L506.8,677.74h25.26L541,657.07h54l8.76,20.67Zm-71.84-46.62h21.51l-10.79-25.87Z"/><path class="cls-2" d="M707.55,561v20.35a5.14,5.14,0,0,1-5.17,5.11h-20.9a5.16,5.16,0,0,1-4.62-2.82l-4-8V677.74h0a5.13,5.13,0,0,1-5.16,5.1H643.4a5.12,5.12,0,0,1-5.15-5.11V586.47H608.67a5.14,5.14,0,0,1-5.16-5.11V561a5.15,5.15,0,0,1,5.16-5.11h59a5,5,0,0,1,1.76.32,5.13,5.13,0,0,1,1.77-.32h31.19A5.16,5.16,0,0,1,707.55,561Zm-39.91,0h-59v20.35h34.74v96.38h24.29Zm34.75,0H671.2l10.29,20.35h20.9Z"/><path class="cls-2" d="M840.16,146.84a5.06,5.06,0,0,1-.87,2.85,5,5,0,0,1-2.18,1.8A4.81,4.81,0,0,1,835,152H809.66a5.18,5.18,0,0,1-4.76-3.13l-7.44-17.55H750.35l-7.6,17.58A5.15,5.15,0,0,1,738,152H712.72a5.14,5.14,0,0,1-4.28-2.26,5.06,5.06,0,0,1-.5-4.78L756.33,28.18A5.19,5.19,0,0,1,761.12,25h25.46a5.16,5.16,0,0,1,4.28,2.27,5,5,0,0,1,.49,4.78l-8.42,20.31,8.38-7.11A5.18,5.18,0,0,1,794.67,44a5.48,5.48,0,0,1,1.21.14,5.17,5.17,0,0,1,3.57,3.05l37.64,91.24,2.66,6.47a1.92,1.92,0,0,1,.11.31A4.74,4.74,0,0,1,840.16,146.84Zm-6.19,0a4.78,4.78,0,0,1,.28-1.63L794.62,49.15l-19,16.18,16.69,40H755.38l31.2-75.22H761.12l-48.4,116.73H738l9-20.67h53.9l8.77,20.67Zm-70.89-46.65h21.51L773.81,74.35Z"/><path class="cls-2" d="M966.6,146.84a5.07,5.07,0,0,1-.88,2.85,5,5,0,0,1-2.18,1.8,4.81,4.81,0,0,1-2.11.46H936.14a5.2,5.2,0,0,1-4.77-3.13l-7.43-17.55H876.82l-7.6,17.58a5.14,5.14,0,0,1-4.74,3.1h-25.3a4.79,4.79,0,0,1-2.1-.46,5.07,5.07,0,0,1-3.06-4.65,4.78,4.78,0,0,1,.28-1.63c0-.1.06-.2.1-.3l2.69-6.47,45.7-110.26A5.19,5.19,0,0,1,887.58,25H913a5.2,5.2,0,0,1,4.33,2.27,5.06,5.06,0,0,1,.49,4.78l-8.43,20.31,8.38-7.11A5.21,5.21,0,0,1,921.14,44a5.48,5.48,0,0,1,1.21.14,5.17,5.17,0,0,1,3.57,3.05l37.63,91.24,2.66,6.47a1.15,1.15,0,0,1,.11.31A4.72,4.72,0,0,1,966.6,146.84Zm-6.16,0a4.78,4.78,0,0,1,.28-1.63L921.1,49.15,902,65.33l16.69,40H881.8L913,30.11H887.58L839.86,145.22a4.71,4.71,0,0,1,.27,1.62h24.31l8.94-20.67h54l8.76,20.67Zm-70.89-46.65h21.51L900.27,74.35Z"/><path class="cls-2" d="M1092.18,149.69a4.18,4.18,0,0,1-.67.78,5.06,5.06,0,0,1-3.62,1.48h-25.28a5.19,5.19,0,0,1-4.78-3.13l-7.43-17.55h-47.11l-7.6,17.58a5.15,5.15,0,0,1-4.75,3.1H965.65a4.81,4.81,0,0,1-2.11-.46,5.07,5.07,0,0,1-3.06-4.65,4.78,4.78,0,0,1,.28-1.63c0-.1.06-.2.1-.3l2.69-6.47,45.68-110.26A5.15,5.15,0,0,1,1014,25h25.5a5.15,5.15,0,0,1,4.29,2.27,5.06,5.06,0,0,1,.49,4.78l-8.43,20.31,8.38-7.11A5.21,5.21,0,0,1,1047.6,44a5.48,5.48,0,0,1,1.21.14,5.17,5.17,0,0,1,3.57,3.05l37.6,91.17,2.7,6.54A5.06,5.06,0,0,1,1092.18,149.69Zm-4.33-2.82-40.29-97.72L1028.5,65.33l16.69,40h-36.92l31.19-75.22H1014L966.32,145.22a4.72,4.72,0,0,1,.28,1.62h24.3l8.94-20.67h54l8.77,20.67ZM1016,100.22h21.52l-10.79-25.87Z"/><path class="cls-2" d="M1208.57,47.94l-15.09,22.5,7.85-5.34a5.12,5.12,0,0,1,2.93-.9,5.29,5.29,0,0,1,2.41.58,5.12,5.12,0,0,1,2.76,4.53v77.57a4.2,4.2,0,0,1-.11,1h0a5.15,5.15,0,0,1-5.06,4.07h-23.79a5.13,5.13,0,0,1-5.15-5.11V97.51l-21.22,31.65a5.29,5.29,0,0,1-1.39,1.4,5.2,5.2,0,0,1-7.21-1.4l-21.39-31.79v49.47h0a5.14,5.14,0,0,1-5.17,5.11h-23.78a5.18,5.18,0,0,1-3.63-1.48,5.05,5.05,0,0,1-1.53-3.63V30.11a5.14,5.14,0,0,1,5.14-5.11h18.21a5.19,5.19,0,0,1,4.31,2.29l32,47.78,32-47.78A5.21,5.21,0,0,1,1186,25h18.24a5.15,5.15,0,0,1,5.17,5.12v15A5,5,0,0,1,1208.57,47.94Zm-28.11,37.54v61.36h23.78V69.31Zm23.75-55.37H1186l-36.22,54.2-36.43-54.2h-18.21V146.84h23.78V80.47l30.86,45.86,54.46-81.21Z"/><path class="cls-2" d="M1340.91,149.68a5.16,5.16,0,0,1-4.29,2.26h-25.28a5.17,5.17,0,0,1-4.77-3.13l-7.44-17.55H1252l-7.59,17.58a5.15,5.15,0,0,1-4.75,3.1h-25.3a5.14,5.14,0,0,1-5-4.07h0a5,5,0,0,1,.11-2.45,3.39,3.39,0,0,1,.17-.51L1258,28.18a5.17,5.17,0,0,1,4.75-3.18h25.46a5.15,5.15,0,0,1,4.3,2.27,5.06,5.06,0,0,1,.49,4.78l-8.44,20.31,8.38-7.11a5.21,5.21,0,0,1,3.37-1.24,5.48,5.48,0,0,1,1.21.14,5.17,5.17,0,0,1,3.57,3.05l40.29,97.71A5,5,0,0,1,1340.91,149.68Zm-4.32-2.81L1296.3,49.15l-19.06,16.18,16.69,40H1257l31.17-75.22h-25.46l-48.4,116.73h25.3l8.94-20.67h54l8.77,20.67Zm-71.87-46.65h21.51l-10.79-25.87Z"/><path class="cls-2" d="M1415.16,30.11V50.46a5.14,5.14,0,0,1-5.16,5.11h-21a5.19,5.19,0,0,1-4.61-2.82l-4-8V146.84h0a5.14,5.14,0,0,1-5.17,5.11H1350.9a5.14,5.14,0,0,1-5.17-5.11V55.57h-29.57a5.14,5.14,0,0,1-5.16-5.11V30a5.14,5.14,0,0,1,5.27-5h59a5,5,0,0,1,1.77.32,5.13,5.13,0,0,1,1.77-.32H1410A5.14,5.14,0,0,1,1415.16,30.11Zm-40,0h-59V50.46H1351v96.38h24.28Zm34.8,0h-31.24L1389,50.46h21Z"/><path class="cls-2" d="M98.39,143.46h25.67L83.16,44.29,63.83,60.71l16.94,40.61H43.29L75,25H49.11L0,143.48H25.67l9.07-21H89.49Z"/><path class="cls-2" d="M226.73,143.46h25.66L211.5,44.29,192.16,60.71l16.94,40.61H171.63L203.28,25H177.44l-49.1,118.48H154l9.07-21h54.76Z"/><path class="cls-2" d="M355.06,143.46h25.67l-40.9-99.17L320.5,60.71l17,40.61H300L331.62,25H305.78L256.67,143.48h25.67l9.07-21h54.76Z"/><path class="cls-2" d="M443.57,80l-37-55H388.09V143.46h24.12V76.11l31.32,46.54L498.8,40.23V25H480.32Zm55.23,63.46V64.77L474.67,81.19v62.27Z"/><path class="cls-2" d="M607.46,143.46h25.66L592.23,44.29,572.89,60.71l16.94,40.61H552.36L584,25H558.17L509.06,143.48h25.67l9.07-21h54.76Z"/><path class="cls-2" d="M612.42,25V45.65h35.25v97.81h24.64V25Zm73.92,20.65h21.22V25H675.9Z"/><path class="cls-2" d="M806,329h25.61l-40.89-99.17L771.38,246.2l16.94,40.61H750.85l31.66-76.32H756.67L707.56,328.92h25.66l9.07-21h54.76Z"/><path class="cls-2" d="M934.28,328.9H960l-41-99.12L899.72,246.2l16.94,40.61H879.18l31.66-76.32H885L835.89,328.92h25.67l9.07-21h54.76Z"/><path class="cls-2" d="M1062.63,329h25.67l-40.9-99.17-19.33,16.42L1045,286.81h-37.48l31.66-76.32h-25.84L964.23,328.92h25.71l9.06-21h54.72Z"/><path class="cls-2" d="M1151.13,265.49l-37-55h-18.49V329h24.13V261.6l31.32,46.54,55.27-82.42V210.49h-18.48Zm55.23,63.41V250.21l-24.13,16.42V329Z"/><path class="cls-2" d="M1315,329h25.68l-40.9-99.17-19.33,16.42,16.94,40.61h-37.48l31.66-76.32h-25.84l-49.11,118.43h25.67l9.07-21h54.76Z"/><path class="cls-2" d="M1320,210.49v20.6h35.22V328.9h24.65V210.49Zm73.9,20.6h21.21v-20.6h-31.65Z"/><path class="cls-2" d="M132.58,323.79a5.06,5.06,0,0,1-3.06,4.65,4.81,4.81,0,0,1-2.11.46H102.12a5.17,5.17,0,0,1-4.77-3.12l-7.43-17.55H42.81L35.2,325.81a5.13,5.13,0,0,1-4.75,3.09H5.17a5.16,5.16,0,0,1-4.29-2.26,5.06,5.06,0,0,1-.5-4.78l48.4-116.73A5.17,5.17,0,0,1,53.56,202H79a5.16,5.16,0,0,1,4.31,2.27,5,5,0,0,1,.48,4.78l-8.42,20.31,8.38-7.11a5.35,5.35,0,0,1,1.39-.85,5.16,5.16,0,0,1,6.75,2.8l37.64,91.25,2.67,6.46a1.86,1.86,0,0,1,.1.31A4.72,4.72,0,0,1,132.58,323.79Zm-6.17,0a5.08,5.08,0,0,1,.28-1.63L87.06,226.1l-19,16.18,16.69,40H47.83L79,207.06H53.56L5.17,323.79H30.45l9-20.67h54l8.77,20.67ZM55.52,277.17H77L66.25,251.3Z"/><path class="cls-2" d="M259,323.79a5.05,5.05,0,0,1-3,4.7,4.74,4.74,0,0,1-2.13.41H228.58a5.16,5.16,0,0,1-4.76-3.12l-7.44-17.55H169.27l-7.61,17.58a5.11,5.11,0,0,1-4.74,3.09H131.63a4.81,4.81,0,0,1-2.11-.46,5.05,5.05,0,0,1-2.78-6.28c0-.1.06-.2.1-.3l2.69-6.46,45.69-110.23A5.17,5.17,0,0,1,180,202h25.49a5.18,5.18,0,0,1,4.29,2.27,5.06,5.06,0,0,1,.49,4.78l-8.42,20.31,8.37-7.11a5.21,5.21,0,0,1,3.37-1.24,4.89,4.89,0,0,1,1.21.15,5.17,5.17,0,0,1,3.57,3L256,315.4l2.66,6.46a1.86,1.86,0,0,1,.1.31A4.46,4.46,0,0,1,259,323.79Zm-6.1,0a5.08,5.08,0,0,1,.28-1.63L213.56,226.1,194.5,242.28l16.69,40H174.27l31.19-75.22H180L132.3,322.17a4.72,4.72,0,0,1,.28,1.62h24.3l8.94-20.67h54l8.76,20.67ZM182,277.17h21.5L192.71,251.3Z"/><path class="cls-2" d="M384.64,326.69a3.84,3.84,0,0,1-.67.78,5,5,0,0,1-3.61,1.48H355.07a5.16,5.16,0,0,1-4.77-3.12l-7.44-17.55H295.75l-7.59,17.58a5.17,5.17,0,0,1-4.75,3.09h-25.3a4.81,4.81,0,0,1-2.11-.46,5.15,5.15,0,0,1-2.79-6.33,1.82,1.82,0,0,1,.11-.3L256,315.4l45.71-110.23a5.15,5.15,0,0,1,4.77-3.18h25.46a5.18,5.18,0,0,1,4.29,2.27,5.06,5.06,0,0,1,.5,4.78l-8.43,20.31,8.37-7.11A5.21,5.21,0,0,1,340,221a4.89,4.89,0,0,1,1.21.15,5.17,5.17,0,0,1,3.57,3l37.6,91.18,2.7,6.53A5.07,5.07,0,0,1,384.64,326.69Zm-4.34-2.9L340,226.07l-19.06,16.21,16.7,40H300.71l31.19-75.22H306.44L258.72,322.17a4.49,4.49,0,0,1,.28,1.62h24.35l8.93-20.67h54l8.77,20.67Zm-71.85-46.62H330L319.18,251.3Z"/><path class="cls-2" d="M501,224.9l-15.1,22.49,7.85-5.34a5.19,5.19,0,0,1,2.93-.9,5.29,5.29,0,0,1,2.41.58,5.09,5.09,0,0,1,2.76,4.53v77.58a4.78,4.78,0,0,1-.1,1h0a5.15,5.15,0,0,1-5.07,4.06H472.91a5.14,5.14,0,0,1-5.17-5.11v-49.3l-21.21,31.62a5.11,5.11,0,0,1-1.39,1.39,5.2,5.2,0,0,1-7.22-1.39l-21.39-31.79v49.49a5.13,5.13,0,0,1-5.17,5.09H387.59a5.16,5.16,0,0,1-3.64-1.48,5.05,5.05,0,0,1-1.53-3.63V207.06a5.15,5.15,0,0,1,5.17-5.11H405.8a5.18,5.18,0,0,1,4.3,2.29L442.17,252l32-47.78a5.19,5.19,0,0,1,4.3-2.29h18.21a5.14,5.14,0,0,1,5.17,5.11v15A5,5,0,0,1,501,224.9Zm-28.09,37.53v61.36h23.77V246.26Zm23.77-55.37H478.47l-36.25,54.2-36.42-54.2H387.59V323.79h23.77V257.42l30.86,45.86,54.46-81.2Z"/><path class="cls-2" d="M633.29,326.64A5.16,5.16,0,0,1,629,328.9H603.76a5.12,5.12,0,0,1-4.76-3.12l-7.48-17.56H544.41l-7.59,17.58a5.17,5.17,0,0,1-4.76,3.09H506.77a5.1,5.1,0,0,1-5-4.06h0a4.78,4.78,0,0,1,.1-2.46,2.59,2.59,0,0,1,.18-.51l48.42-116.73a5.15,5.15,0,0,1,4.77-3.18h25.45a5.18,5.18,0,0,1,4.29,2.27,5.06,5.06,0,0,1,.49,4.78L577,229.31l8.38-7.07a5.21,5.21,0,0,1,3.37-1.24,4.89,4.89,0,0,1,1.21.15,5.17,5.17,0,0,1,3.57,3l40.3,97.71A5,5,0,0,1,633.29,326.64ZM629,323.79,588.75,226.1l-19.06,16.18,16.69,40H549.46l31.19-75.22H555.19L506.8,323.79h25.26L541,303.12h54l8.76,20.67Zm-71.84-46.62h21.51L567.88,251.3Z"/><path class="cls-2" d="M707.55,207.06v20.35a5.14,5.14,0,0,1-5.17,5.11h-20.9a5.19,5.19,0,0,1-4.62-2.82l-4-8V323.79h0a5.13,5.13,0,0,1-5.16,5.1H643.4a5.13,5.13,0,0,1-5.15-5.11V232.52H608.67a5.14,5.14,0,0,1-5.16-5.11V207.06a5.15,5.15,0,0,1,5.16-5.11h59a5,5,0,0,1,1.76.32,5.13,5.13,0,0,1,1.77-.32h31.19A5.16,5.16,0,0,1,707.55,207.06Zm-39.91,0h-59v20.35h34.74v96.38h24.29Zm34.75,0H671.2l10.29,20.35h20.9Z"/></pattern></defs><title>aaamat_padrao2</title><g class="cls-3"><polygon class="cls-4" points="685.2 1015.43 -703.43 -373.2 -373.2 -703.43 1015.43 685.2 685.2 1015.43"/></g></svg>