<svg xmlns="http://www.w3.org/2000/svg" viewBox="0 0 501.44 133.87"><defs><style>.cls-1{fill:none;stroke:#000;stroke-width:10px;}.cls-2{fill:#fff;}.cls-3{fill:#84003f;}</style></defs><title>aaamat loja oficial</title><g id="Camada_2" data-name="Camada 2"><g id="Camada_1-2" data-name="Camada 1"><path class="cls-1" d="M69.3,73.11H31.46L25.19,87.78H7.45L41.39,5H59.25L37.37,58.33h25.9L51.56,30,64.93,18.48l28.26,69.3H75.45Z"/><path class="cls-1" d="M158,73.11H120.15l-6.27,14.67H96.15L130.08,5h17.86L126.06,58.33H152L140.25,30l13.37-11.47,28.26,69.3H164.14Z"/><path class="cls-1" d="M246.68,73.11H208.84l-6.26,14.67H184.84L218.78,5h17.85L214.75,58.33h25.9L229,30l13.36-11.47,28.26,69.3H252.83Z"/><path class="cls-1" d="M339.39,5h12.78V15.64L314,73.23,292.33,40.71V87.78H275.66V5h12.77L314,43.43Zm-3.9,82.78V44.26l16.68-11.47v55Z"/><path class="cls-1" d="M421.11,73.11H383.27L377,87.78H359.26L393.2,5h17.86L389.18,58.33h25.9L403.37,30l13.36-11.47L445,87.78H427.26Z"/><path class="cls-1" d="M472.08,5V87.78h-17V19.43H430.69V5Zm2.48,0h21.88V19.43H481.77Z"/><path class="cls-2" d="M69.3,73.11H31.46L25.19,87.78H7.45L41.39,5H59.25L37.37,58.33h25.9L51.56,30,64.93,18.48l28.26,69.3H75.45Z"/><path class="cls-2" d="M158,73.11H120.15l-6.27,14.67H96.15L130.08,5h17.86L126.06,58.33H152L140.25,30l13.37-11.47,28.26,69.3H164.14Z"/><path class="cls-2" d="M246.68,73.11H208.84l-6.26,14.67H184.84L218.78,5h17.85L214.75,58.33h25.9L229,30l13.36-11.47,28.26,69.3H252.83Z"/><path class="cls-2" d="M339.39,5h12.78V15.64L314,73.23,292.33,40.71V87.78H275.66V5h12.77L314,43.43Zm-3.9,82.78V44.26l16.68-11.47v55Z"/><path class="cls-2" d="M421.11,73.11H383.27L377,87.78H359.26L393.2,5h17.86L389.18,58.33h25.9L403.37,30l13.36-11.47L445,87.78H427.26Z"/><path class="cls-2" d="M472.08,5V87.78h-17V19.43H430.69V5Zm2.48,0h21.88V19.43H481.77Z"/><path class="cls-2" d="M138.71,127.85v-7.59l2.67-.28c0-.49,0-1,0-1.45V108.44c0-.54,0-1.07,0-1.6l-2.67-.27V99h17.48v7.61l-2.92.28c0,.52,0,1,0,1.59,0,1.43,0,2.88,0,4.3v1.85c0,1.25,0,2.58,0,4,0,.43,0,.86,0,1.29h.59l.95-4.85h8.43l-.15,3.16-.49,9.67Z"/><path class="cls-2" d="M172.52,128.51a15,15,0,0,1-5.2-.93,13.34,13.34,0,0,1-7.72-7.76,18.8,18.8,0,0,1,0-12.81,13.22,13.22,0,0,1,3.18-4.81,13.37,13.37,0,0,1,4.55-2.92,14.27,14.27,0,0,1,5.18-1,15,15,0,0,1,5.19.93,13.89,13.89,0,0,1,4.54,2.89,13.45,13.45,0,0,1,3.19,4.84,17.16,17.16,0,0,1,1.12,6.42,16.94,16.94,0,0,1-1.13,6.41,13.33,13.33,0,0,1-3.13,4.79,13.17,13.17,0,0,1-4.57,2.94A14.11,14.11,0,0,1,172.52,128.51Zm0-22.18a.5.5,0,0,0-.49.22,5.47,5.47,0,0,0-1,2.32,25.23,25.23,0,0,0,0,9.06,5.71,5.71,0,0,0,1,2.34.48.48,0,0,0,.49.22c.33,0,.39-.07.49-.19a6,6,0,0,0,1-2.37,25.23,25.23,0,0,0,0-9.06,5.62,5.62,0,0,0-1-2.34C172.91,106.4,172.85,106.33,172.52,106.33Z"/><path class="cls-2" d="M185.37,133.87a8.41,8.41,0,0,1-3.87-.87,6.65,6.65,0,0,1-3-2.93l-.37-.69,0-.78a5.48,5.48,0,0,1,1.83-4.07,6,6,0,0,1,3.91-1.42,6.25,6.25,0,0,1,1.68.22c0-1,0-2.34,0-3.88,0-1.69-.06-3.78-.1-6.26,0-1.84-.07-3.94-.11-6.31l-3-.31V99H200v7.6l-2.71.27c0,.46,0,9.22,0,9.22a41.36,41.36,0,0,1-.66,8.26,12.1,12.1,0,0,1-3.21,6.22A11,11,0,0,1,185.37,133.87Z"/><polygon class="cls-2" points="193.34 127.85 193.34 120.38 196.91 119.85 204.08 98.94 211.95 98.94 219.18 120.04 222.07 120.37 222.07 127.85 193.34 127.85"/><path class="cls-2" d="M239.2,128.51a15,15,0,0,1-5.2-.93,13.34,13.34,0,0,1-7.72-7.76,18.8,18.8,0,0,1,0-12.81,13.1,13.1,0,0,1,3.18-4.81A13.37,13.37,0,0,1,234,99.28a14.19,14.19,0,0,1,5.18-1,15,15,0,0,1,5.18.93,13.83,13.83,0,0,1,4.55,2.89,13.3,13.3,0,0,1,3.18,4.84,17.16,17.16,0,0,1,1.12,6.42,16.94,16.94,0,0,1-1.13,6.41,13.39,13.39,0,0,1-7.69,7.73A14.11,14.11,0,0,1,239.2,128.51Zm0-22.18a.51.51,0,0,0-.5.22,5.6,5.6,0,0,0-1,2.32,25.23,25.23,0,0,0,0,9.06,5.72,5.72,0,0,0,1,2.34.49.49,0,0,0,.5.22c.32,0,.38-.07.49-.19a6,6,0,0,0,1-2.37,24.64,24.64,0,0,0,0-9.06,5.76,5.76,0,0,0-1-2.34C239.58,106.4,239.52,106.33,239.2,106.33Z"/><path class="cls-2" d="M249.08,127.85v-7.59l2.66-.28c0-.52,0-1,0-1.57V106.84l-2.67-.27V99H273l.11,2.88.36,9.1h-3.53v9.16h-4.43l1.3.13v7.6Z"/><path class="cls-2" d="M269.07,127.85v-7.59l2.66-.28c0-.52,0-1,0-1.57v-10c0-.54,0-1.07,0-1.6l-2.66-.27V99h17.2v7.59l-2.64.27c0,.53,0,1.06,0,1.6,0,1.43,0,2.88,0,4.32V114c0,1.43,0,2.87,0,4.31,0,.55,0,1.1,0,1.65l2.64.28v7.59Z"/><path class="cls-2" d="M297.2,128.51a16.84,16.84,0,0,1-7.41-1.65,13.22,13.22,0,0,1-5.62-5.15,16,16,0,0,1-2.05-8.31,16.16,16.16,0,0,1,1.24-6.56,13.65,13.65,0,0,1,3.5-4.84,14.21,14.21,0,0,1,5-2.8,17.37,17.37,0,0,1,5.59-.88,16.4,16.4,0,0,1,4.41.54,15.94,15.94,0,0,1,3.9,1.59l1.48.83,0,1.71.19,8.46h-8.12l-1.14-5.15a3.09,3.09,0,0,0-1.75.55,4.33,4.33,0,0,0-1.44,2,11.69,11.69,0,0,0-.73,4.6A12,12,0,0,0,295,118a4.24,4.24,0,0,0,1.4,2,3,3,0,0,0,1.73.54,2.17,2.17,0,0,0,.36,0l1.12-5.09h8.14l-.27,10.14-1.49.83a17.46,17.46,0,0,1-3.86,1.54A18.24,18.24,0,0,1,297.2,128.51Z"/><path class="cls-2" d="M303.75,127.85v-7.59l2.66-.28c0-.52,0-1,0-1.57v-10c0-.54,0-1.07,0-1.6l-2.66-.27V99H321v7.59l-2.64.27c0,.53,0,1.06,0,1.6,0,1.43,0,2.88,0,4.32V114c0,1.43,0,2.87,0,4.31,0,.55,0,1.1,0,1.65l2.64.28v7.59Z"/><polygon class="cls-2" points="316.42 127.85 316.42 120.39 319.99 119.85 327.16 98.94 335.03 98.94 342.26 120.04 345.15 120.37 345.15 127.85 316.42 127.85"/><path class="cls-2" d="M340.65,127.85v-7.59l2.67-.28c0-.49,0-1,0-1.45V108.44c0-.54,0-1.07,0-1.6l-2.67-.27V99h17.48v7.61l-2.92.28c0,.52,0,1,0,1.59,0,1.43,0,2.88,0,4.3v1.85c0,1.25,0,2.58,0,4,0,.43,0,.86,0,1.29h.6l.94-4.85h8.43l-.15,3.16-.48,9.67Z"/><path class="cls-3" d="M141.71,103.85V102H153.2v1.88l-2.89.28c0,1.42-.05,2.85-.06,4.3s0,2.9,0,4.34v1.84c0,1.26,0,2.59,0,4s0,2.83.06,4.26h6l.94-4.83h2.82l-.35,6.82h-18V123l2.61-.28c0-1.41.07-2.8.07-4.16v-10.1c0-1.45,0-2.88-.07-4.3Z"/><path class="cls-3" d="M172.52,125.51a11.59,11.59,0,0,1-4.14-.75,10.14,10.14,0,0,1-3.54-2.26,10.8,10.8,0,0,1-2.45-3.78,14.16,14.16,0,0,1-.91-5.33,14,14,0,0,1,.91-5.25,10.7,10.7,0,0,1,2.47-3.78,10.48,10.48,0,0,1,3.55-2.28,11.31,11.31,0,0,1,4.11-.77,11.54,11.54,0,0,1,4.13.75,10.41,10.41,0,0,1,3.53,2.25,10.52,10.52,0,0,1,2.47,3.78,15.89,15.89,0,0,1,0,10.6,10.66,10.66,0,0,1-2.45,3.77,10.37,10.37,0,0,1-3.54,2.29A11.38,11.38,0,0,1,172.52,125.51Zm0-2a3.47,3.47,0,0,0,2.84-1.32,8.56,8.56,0,0,0,1.55-3.6,25.3,25.3,0,0,0,.48-5.18,25,25,0,0,0-.48-5.15,8.53,8.53,0,0,0-1.55-3.58,3.68,3.68,0,0,0-5.66,0,8.41,8.41,0,0,0-1.57,3.58,25,25,0,0,0-.48,5.15,25.3,25.3,0,0,0,.48,5.18,8.44,8.44,0,0,0,1.57,3.6A3.47,3.47,0,0,0,172.52,123.49Z"/><path class="cls-3" d="M185.37,103.85V102H197v1.88l-2.68.28q0,2,0,4.11v7.84a39.42,39.42,0,0,1-.61,7.66,9.09,9.09,0,0,1-2.39,4.7,8.11,8.11,0,0,1-5.88,2.43,5.55,5.55,0,0,1-2.51-.54,3.8,3.8,0,0,1-1.67-1.65,2.5,2.5,0,0,1,.82-1.9,2.84,2.84,0,0,1,1.93-.68,3,3,0,0,1,1.64.47,7.44,7.44,0,0,1,1.53,1.45l.73.87a6.33,6.33,0,0,0,.59-2.11,24.11,24.11,0,0,0,.18-3.22c0-1.09,0-2.48,0-4.16s-.06-3.77-.1-6.27-.1-5.48-.14-9Z"/><path class="cls-3" d="M196.34,124.85V123l2.82-.42,7.06-20.61h3.59L217,122.8l2.12.24v1.81H208.31V123l2.68-.35-1.42-4.49h-7l-1.39,4.35,2.64.42v1.88Zm9.78-17.55-2.89,8.88h5.71Z"/><path class="cls-3" d="M239.2,125.51a11.68,11.68,0,0,1-4.15-.75,10.11,10.11,0,0,1-3.53-2.26,11,11,0,0,1-2.46-3.78,14.37,14.37,0,0,1-.9-5.33,14.15,14.15,0,0,1,.9-5.25,10.72,10.72,0,0,1,2.48-3.78,10.38,10.38,0,0,1,3.55-2.28,11.31,11.31,0,0,1,4.11-.77,11.44,11.44,0,0,1,4.12.75,10.31,10.31,0,0,1,6,6,16.06,16.06,0,0,1,0,10.6,10.68,10.68,0,0,1-2.46,3.77,10.33,10.33,0,0,1-3.53,2.29A11.38,11.38,0,0,1,239.2,125.51Zm0-2a3.44,3.44,0,0,0,2.83-1.32,8.44,8.44,0,0,0,1.55-3.6,24.58,24.58,0,0,0,.49-5.18,24.28,24.28,0,0,0-.49-5.15,8.4,8.4,0,0,0-1.55-3.58,3.67,3.67,0,0,0-5.65,0,8.29,8.29,0,0,0-1.57,3.58,24.28,24.28,0,0,0-.49,5.15,24.58,24.58,0,0,0,.49,5.18,8.32,8.32,0,0,0,1.57,3.6A3.46,3.46,0,0,0,239.2,123.49Z"/><path class="cls-3" d="M252.08,103.85V102h18l.24,6h-2.89l-.69-4h-6.06c0,1.33,0,2.66-.05,4s0,2.7,0,4.07h3.86l.42-2.71h2v7.83h-2l-.45-3.06h-3.83c0,1.55,0,3,0,4.44s0,2.79.05,4.16l3.1.31v1.88h-11.7V123l2.61-.28c.05-1.41.07-2.84.07-4.28v-10c0-1.45,0-2.88-.07-4.3Z"/><path class="cls-3" d="M272.06,103.85V102h11.21v1.88l-2.61.28c0,1.42,0,2.85-.05,4.29s0,2.89,0,4.35V114c0,1.44,0,2.89,0,4.34s0,2.89.05,4.33l2.61.28v1.88H272.06V123l2.62-.28c0-1.41.06-2.84.06-4.28v-10c0-1.45,0-2.88-.06-4.3Z"/><path class="cls-3" d="M297.2,125.51a13.74,13.74,0,0,1-6.09-1.34,10.21,10.21,0,0,1-4.37-4,12.89,12.89,0,0,1-1.62-6.76,13.32,13.32,0,0,1,1-5.36,10.44,10.44,0,0,1,2.72-3.76,11.33,11.33,0,0,1,3.95-2.23,15.11,15.11,0,0,1,4.67-.73,14.08,14.08,0,0,1,3.62.44,13.88,13.88,0,0,1,3.2,1.3l.14,5.4h-2.65l-1-4.56a5.44,5.44,0,0,0-2.5-.59,6.14,6.14,0,0,0-3.43,1,7.28,7.28,0,0,0-2.56,3.29,14.69,14.69,0,0,0-1,5.8,15,15,0,0,0,.94,5.76,7.2,7.2,0,0,0,2.49,3.26,6,6,0,0,0,3.4,1,6.61,6.61,0,0,0,1.46-.17,9,9,0,0,0,1.46-.49l1-4.46h2.64l-.14,5.37a14.91,14.91,0,0,1-3.22,1.27A15.64,15.64,0,0,1,297.2,125.51Z"/><path class="cls-3" d="M306.74,103.85V102H318v1.88l-2.61.28c0,1.42,0,2.85,0,4.29s0,2.89,0,4.35V114c0,1.44,0,2.89,0,4.34s0,2.89,0,4.33L318,123v1.88H306.74V123l2.61-.28c0-1.41.07-2.84.07-4.28v-10c0-1.45,0-2.88-.07-4.3Z"/><path class="cls-3" d="M319.42,124.85V123l2.82-.42,7.06-20.61h3.59L340,122.8l2.12.24v1.81H331.39V123l2.68-.35-1.42-4.49h-7l-1.39,4.35,2.64.42v1.88Zm9.78-17.55-2.89,8.88H332Z"/><path class="cls-3" d="M343.65,103.85V102h11.49v1.88l-2.89.28c0,1.42,0,2.85-.05,4.3s0,2.9,0,4.34v1.84c0,1.26,0,2.59,0,4s0,2.83.05,4.26h6l.94-4.83H362l-.35,6.82h-18V123l2.61-.28c.05-1.41.07-2.8.07-4.16v-10.1c0-1.45,0-2.88-.07-4.3Z"/></g></g></svg>