<svg xmlns="http://www.w3.org/2000/svg" viewBox="0 0 100.02 99.5"><defs><style>.cls-1{fill:#ededed;}</style></defs><title>facebook_vinho</title><g id="Camada_2" data-name="Camada 2"><g id="Camada_1-2" data-name="Camada 1"><g id="Camada_1-2-2" data-name="Camada 1-2"><g id="Camada_1-2-2-2" data-name="Camada 1-2-2"><g id="facebook"><path class="cls-1" d="M0,51.35V47.5c.07-.3.15-.59.2-.89A102,102,0,0,1,1.87,36.5,50,50,0,0,1,99.21,58.92C95.46,78,83.74,90.74,65.33,97.16A43.86,43.86,0,0,1,51.19,99.5V65.87H61.66c.94,0,1.36-.23,1.45-1.22.16-1.79.46-3.57.68-5.35.29-2.32.57-4.65.87-7.12H51.26c0-3.73-.16-7.33.05-10.9.16-2.62,1.72-4,4.33-4.34a29.15,29.15,0,0,1,3.1-.2H65V24.27c-4-.1-7.93-.38-11.84-.25-9.07.31-15.21,6.07-16,15.11C36.82,43,37,46.88,37,50.75c0,1.15-.35,1.41-1.43,1.39-3.08-.07-6.16,0-9.24,0-.94,0-1.26.31-1.25,1.25V64.73c0,.91.31,1.17,1.18,1.16h9.24a9.12,9.12,0,0,1,1.38.07v31.7a1.69,1.69,0,0,1-.45,0C18.27,92.91,3.24,75.91.72,57.26.45,55.3.24,53.32,0,51.35Z"/></g></g></g></g></g></svg>