<svg xmlns="http://www.w3.org/2000/svg" viewBox="0 0 100 99.95"><defs><style>.cls-1{fill:#ededed;}</style></defs><title>instagram_vinho</title><g id="Camada_2" data-name="Camada 2"><g id="Camada_1-2" data-name="Camada 1"><g id="Camada_1-2-2" data-name="Camada 1-2"><g id="Camada_1-2-2-2" data-name="Camada 1-2-2"><g id="instagram"><path class="cls-1" d="M100,46.12V53.8c-.31,1.92-.56,3.85-.93,5.76A50,50,0,0,1,.17,54C-1,38.75,3.81,25.5,14.58,14.76c12.17-12.14,27-16.72,44-14A49.76,49.76,0,0,1,98.86,39.2C99.34,41.49,99.65,43.81,100,46.12ZM83,50c-.15-5-.24-10.19-.46-15.34A17.3,17.3,0,0,0,68.64,18a41.07,41.07,0,0,0-8.2-.8c-6.92-.11-13.84-.09-20.76,0a44,44,0,0,0-7.15.61c-7,1.26-12.08,5-14.15,12a31.28,31.28,0,0,0-1.2,8.5c-.05,8.79,0,17.59.3,26.38.31,10.11,7,16.91,17,17.55a264.41,264.41,0,0,0,30.32.26c10.38-.53,17.4-7.67,17.74-18C82.71,59.74,82.83,55,83,50Z"/><path class="cls-1" d="M49.84,22.86c5.09.15,10,.24,14.84.44,7.23.29,11.84,5,12,12.58.19,9.39.12,18.78,0,28.17-.06,4.6-1.69,8.53-5.92,11a13.26,13.26,0,0,1-6.65,1.76c-9.51.08-19,.22-28.54,0-7.48-.16-12.18-5-12.31-12.42-.16-9.7-.14-19.42,0-29.12.12-6.91,5-11.64,11.91-11.93C40.14,23.1,45.1,23,49.84,22.86Zm-.23,44A16.88,16.88,0,1,0,33.08,49.4,17.12,17.12,0,0,0,49.61,66.88Zm18-38.31a3.91,3.91,0,1,0,3.82,4A4,4,0,0,0,67.61,28.55Z"/><path class="cls-1" d="M50,39.12A10.92,10.92,0,1,1,39,50,10.68,10.68,0,0,1,49.48,39.12H50Z"/></g></g></g></g></g></svg>