<svg xmlns="http://www.w3.org/2000/svg" viewBox="0 0 138 138"><defs><style>.cls-1{fill:#eaeaea;}.cls-2{fill:none;stroke:#eaeaea;stroke-miterlimit:10;stroke-width:5px;}</style></defs><title>arte</title><g id="Camada_2" data-name="Camada 2"><g id="Camada_1-2" data-name="Camada 1"><g id="arte"><path class="cls-1" d="M67.69,43.13a9.54,9.54,0,0,1,.43,2c0,8.08,0,16.16,0,24.23a4.13,4.13,0,0,1-1.4,3.17,3.14,3.14,0,0,0-.85,3.72,3.31,3.31,0,0,0,3.25,2A3.2,3.2,0,0,0,72,76.39a2.64,2.64,0,0,0-.39-3.34c-1.86-1.63-1.79-3.66-1.78-5.8,0-7.24,0-14.47,0-21.71a15.32,15.32,0,0,1,.41-2.39L70.7,43A8.55,8.55,0,0,1,72,44.59q7.5,14.86,15,29.77a3,3,0,0,1,0,2.87c-1.66,3.28-3.32,6.55-4.93,9.86a2.13,2.13,0,0,1-2.17,1.32q-10.86,0-21.71,0A2.07,2.07,0,0,1,56,87.19q-2.37-4.91-4.81-9.78a3.42,3.42,0,0,1,0-3.31Q58.62,59.37,66,44.63A8.81,8.81,0,0,1,67.27,43Z"/><path class="cls-1" d="M80.21,37.32C90.39,42.47,95.92,50.75,96.84,62c2.27.44,2.41.6,2.43,2.82,0,.92,0,1.84,0,2.76A1.19,1.19,0,0,1,98,68.94c-1.43.06-2.87.1-4.31.08-.83,0-1.18-.55-1.17-1.36,0-1.16.06-2.32,0-3.48s.35-1.85,1.58-1.91a3.34,3.34,0,0,0,.69-.18C96.23,51.5,84.43,38.3,72.73,37.44c-.12.29-.28.6-.39.92a1.57,1.57,0,0,1-1.7,1.21c-.84,0-1.68,0-2.52,0-2.06.12-2.3,0-2.78-2-11.81.65-22.73,12.84-22.2,24.49a3,3,0,0,1,1.1.34c.45.36,1.06.84,1.11,1.33a25.79,25.79,0,0,1,0,3.83A1.3,1.3,0,0,1,44,68.92a41.89,41.89,0,0,1-4.19.07,1.47,1.47,0,0,1-1-1c-.12-1.47-.05-3-.05-4.43a1,1,0,0,1,1.05-1.19c.4,0,.79-.12,1.31-.19.92-11.41,6.5-19.73,17.09-25-.71,0-1-.1-1.36-.1-3.16,0-6.33,0-9.48,0a2.82,2.82,0,0,0-2.66,1.2,3.31,3.31,0,0,1-6-2.25,3,3,0,0,1,1.89-2.81,2.7,2.7,0,0,1,3.43.48c1.34,1.74,3.06,1.69,4.92,1.67,5.12-.06,10.23-.06,15.35,0,.84,0,1.29-.18,1.32-1.07s.62-1.32,1.51-1.32H71c.86,0,1.38.41,1.37,1.29s.44,1.14,1.26,1.13c5.92,0,11.84,0,17.76,0a2.68,2.68,0,0,0,1.8-.9c1.42-1.71,3.37-2,5-.68a3.51,3.51,0,0,1,.26,4.85,3.36,3.36,0,0,1-5.07-.19,3.49,3.49,0,0,0-3-1.31c-3,.06-5.91,0-8.87,0H80.31Z"/><path class="cls-1" d="M69,96.92c-4.32,0-8.63,0-12.94,0-1.9,0-2.24-.34-2.25-2.22,0-.84,0-1.68.06-2.51.1-1.38.65-2,2.05-2,5.95,0,11.9,0,17.85-.07,2.72,0,5.43,0,8.15,0,2,0,2.2.25,2.17,2.2,0,1,0,1.92,0,2.87,0,1.39-.36,1.75-1.79,1.74l-11.62,0H69Z"/><path class="cls-1" d="M56.32,98.68H81.57c0,1.8.05,3.55,0,5.29,0,.85-.71,1.21-1.51,1.22l-15.82,0c-1.92,0-3.83,0-5.75,0-1.68,0-2.12-.44-2.14-2.14C56.3,101.63,56.32,100.2,56.32,98.68Z"/><circle class="cls-2" cx="69" cy="69" r="66.5"/></g></g></g></svg>