<svg xmlns="http://www.w3.org/2000/svg" viewBox="0 0 138 138"><defs><style>.cls-1{fill:#eaeaea;}.cls-2{fill:none;stroke:#eaeaea;stroke-miterlimit:10;stroke-width:5px;}</style></defs><title>comunicas</title><g id="Camada_2" data-name="Camada 2"><g id="Camada_1-2" data-name="Camada 1"><g id="comunicas"><path class="cls-1" d="M87.68,49.21H102.2c4.13,0,6.33,2.14,6.35,6.25q0,8.22,0,16.43c0,4.15-2.12,6.29-6.29,6.33-5.68.06-11.36.08-17,0a6.82,6.82,0,0,0-5.78,2.54,30.87,30.87,0,0,1-3,3.22c-.5.45-1.49.94-1.94.73a2.8,2.8,0,0,1-1.14-1.89,15.59,15.59,0,0,1-.1-3.35c0-.78-.2-1.16-1-1.26a9.36,9.36,0,0,1-2.08-.54,4.81,4.81,0,0,1-3.24-4.85c-.08-6.12-.1-12.24,0-18.35.06-3.24,2.36-5.21,5.81-5.24C77.69,49.18,82.69,49.21,87.68,49.21ZM76.75,78.78a6.39,6.39,0,0,0,1-1c1.75-2.77,4.41-3,7.35-2.93,5.79.14,11.59.09,17.38,0,2.12,0,2.74-.76,2.75-2.91q0-8.44,0-16.91c0-1.83-.83-2.61-2.65-2.63-3.8,0-7.59-.09-11.39-.08-6,0-12,.05-18,.07-2.56,0-3.26.71-3.26,3.29V71.59c0,2.72.7,3.39,3.42,3.31,2.45-.08,2.94.35,3.2,2.76C76.66,78,76.69,78.27,76.75,78.78Z"/><path class="cls-1" d="M84.24,80.14v2.38c0,5.07,0,10.15-.1,15.22C84.08,101,82,103,78.67,103H53c-3.58,0-5.59-2-5.6-5.56q0-17.81,0-35.62c0-.59-.23-1.39.73-1.5s1.78,0,2.09,1a7.35,7.35,0,0,1,.31,2.34c0,7.76,0,15.52,0,23.27v1.63h1.33c9.2,0,18.39,0,27.59,0,1.29,0,1.59-.54,1.57-1.61s-.05-2.16,0-3.24C81.12,81.79,82.14,80.65,84.24,80.14ZM50.52,91c0,2.06,0,4,0,6s.76,2.74,2.77,2.74c3.36,0,6.71,0,10.07,0q7.19,0,14.38-.07c1.54,0,2.94-.78,3-1.85.11-2.26,0-4.53,0-6.86Z"/><path class="cls-1" d="M46.07,35.05c3.84,0,7.67,0,11.51,0,3,0,4.84,1.75,4.88,4.74q.1,6.52,0,13.07c0,3.28-.84,4.32-3.93,5.34-.78.25-1.13.58-1,1.41a4.29,4.29,0,0,1,0,1.79c-.23.67-.61,1.59-1.14,1.76s-1.4-.31-2-.71-.72-1-1.1-1.41c-2.26-2.72-5.3-3.12-8.58-3s-6.78.14-10.18.1c-3.08,0-4.79-1.47-4.91-4.55-.18-4.62-.18-9.27,0-13.9.12-3.16,1.94-4.61,5.1-4.63C38.47,35,42.27,35.05,46.07,35.05ZM54,57.11c.72-1.79,1.27-2.19,2.75-2.13,2,.09,2.69-.6,2.62-2.59,0-1.15-.06-2.31-.06-3.47,0-2.84,0-5.67,0-8.51,0-1.43-.52-2-1.9-2.1-.79-.07-1.59,0-2.39,0l-19.9-.06c-1.8,0-2.35.56-2.36,2.37q0,6,0,12c0,1.68.61,2.41,2.26,2.42,4.16,0,8.31,0,12.47,0C49.83,55,52.25,54.72,54,57.11Z"/><path class="cls-1" d="M83.89,47a3.51,3.51,0,0,1-3.71-.79,3.91,3.91,0,0,0-2.39-.72c-3.87-.09-7.74-.08-11.61-.1H64.81V42.28a2.93,2.93,0,0,1,.5-.1c4.63,0,9.25-.06,13.88,0A4.83,4.83,0,0,1,83.89,47Z"/><path class="cls-1" d="M90.12,60.58c1.1,0,2.13,0,3.16,0,2.35.12,3.13,1.11,2.7,3.42-.32,1.69-.66,3.37-1.07,5a3.21,3.21,0,0,1-3.23,2.68L81.4,72.4c-2.54.17-2.92-.26-2.85-2.79.06-2.2,0-4.39,0-6.59,0-1.76.4-2.27,2.19-2.34,3.84-.14,3.84-.14,4.66-3.92A2.64,2.64,0,0,1,88,54.59c1.11,0,1.86.83,2.07,2.25a15.39,15.39,0,0,1,.07,1.8C90.13,59.23,90.12,59.82,90.12,60.58Zm-2.24-2.12c-2.76,3.43-4.77,6.82-3.47,11.21,2.3,0,4.65.06,7,0a1.78,1.78,0,0,0,1.33-1c.54-1.86.9-3.78,1.37-5.86-1.74,0-3.29,0-4.84,0s-1.76-.43-1.62-1.84Z"/><path class="cls-1" d="M65.78,93.53c.86,0,2.62,1.35,2.31,1.8a6.23,6.23,0,0,1-2.22,2c-.64.32-2.14-1.27-2.11-2A2.57,2.57,0,0,1,65.78,93.53Z"/><path class="cls-1" d="M43.21,43.9a29.58,29.58,0,0,1,1.54-3.63,1.73,1.73,0,0,1,2.19-.78c.89.35,1,1.15,1,2,.08,2.17.71,2.75,2.87,2.67s2.55.42,2.53,2.48c0,1.63,0,3.26,0,4.9s-.52,2.25-2.21,2.12L42.79,53a2.61,2.61,0,0,1-2.44-1.83,31.89,31.89,0,0,1-1.1-5c-.18-1.26.49-1.92,1.75-2.1.43-.07.87-.07,1.31-.11Zm3.28.92c-.52,1.49-1.73,1.52-3,1.41-2-.18-2.21.07-1.68,2l0,.12c.87,3,3.52,4,6.2,2.43a.85.85,0,0,0,.34-.31C49.18,48.86,48.22,45.84,46.49,44.82Z"/><circle class="cls-2" cx="69" cy="69" r="66.5"/></g></g></g></svg>