<svg xmlns="http://www.w3.org/2000/svg" viewBox="0 0 138 138"><defs><style>.cls-1{fill:#eaeaea;}.cls-2{fill:none;stroke:#eaeaea;stroke-miterlimit:10;stroke-width:5px;}</style></defs><title>eventos</title><g id="Camada_2" data-name="Camada 2"><g id="Camada_1-2" data-name="Camada 1"><g id="eventos"><path class="cls-1" d="M63.84,40a10.16,10.16,0,0,1,1.06.06c1.44.23,2.32-.13,2.74-1.74a4.07,4.07,0,0,1,3.13-2.87,3,3,0,0,1,3.87,2.9c0,.4,0,.79,0,1.31,1.87,0,3.73,0,5.59,0,.31,0,.66-.4.88-.69.45-.61.79-1.3,1.23-1.92a3.47,3.47,0,0,1,3.9-1.38c1.32.41,1.83,1.22,1.93,3.08a5.62,5.62,0,0,0,.09.57c2.19,0,4.34.07,6.49,0a2.7,2.7,0,0,1,2.56,1.18,18.57,18.57,0,0,0,1.85,2.2,1.83,1.83,0,0,0,1.18.66c1.17-.11,1.34.53,1.35,1.45.07,4.6.22,9.19.23,13.79q0,18.47,0,37c0,1.31-.17,2.63-.27,3.94s-.54,1.87-1.92,2c-6,.37-12,.86-18,1-8.11.2-16.23.17-24.34.18-2.72,0-5.43-.17-8.15-.22a2.49,2.49,0,0,1-2.56-1.74c-.45-1.19-1.11-2.3-1.55-3.5a2,2,0,0,0-1.74-1.4c-1.84-.36-3.69-.72-5.51-1.18s-2.19-1-1.44-2.93c2.61-6.48,5.32-12.92,7.82-19.44a217.19,217.19,0,0,0,8.86-30c.28-1.24.64-2.07,2.16-1.93.36,0,.84-.66,1.19-1.07a17,17,0,0,1,2.38-2.9c2.07-1.54,4.64-.22,4.88,2.37C63.79,39.13,63.8,39.52,63.84,40ZM38.4,92.61c.77.17,1.42.36,2.08.46,2.53.39,5.06.72,7.58,1.13A73.17,73.17,0,0,0,68,94.63a162.52,162.52,0,0,0,22.11-4.16c2.27-.57,2.57-.89,2.68-3.22.18-4,.42-8.06.6-12.09Q94,61.45,94.58,47.74c.08-2.05,0-4.12,0-6.1H84.11c.37.43,1,.87,1.12,1.39.12.87-.54,1.46-1.43,1.63s-1.84,0-2.19-1.13-1.08-2-2.54-1.63a13.28,13.28,0,0,1-2.28.07l-7.11.28c.54.26.84.32,1,.51.34.36.92.93.82,1.15A2.69,2.69,0,0,1,70.26,45a3.52,3.52,0,0,1-1.42.11c-1.31,0-1.54-.25-1.19-1.49.23-.82,0-1.34-.8-1.36-2.65-.05-5.3,0-7.95,0l-.06.48a11.13,11.13,0,0,1,1.08.57c.6.41.77,1,.22,1.51a3,3,0,0,1-2.92,1c-1.22-.31-.53-1.27-.68-2a4.89,4.89,0,0,0-.73-1.34c-.26.37-.68.71-.77,1.13A260.18,260.18,0,0,1,43.3,80.82C41.74,84.71,40.09,88.56,38.4,92.61Zm41.09,4.64a10.89,10.89,0,0,0-2.09-.36c-2.67,0-5.35.21-8,.22-6.84,0-13.68,0-20.51,0H47.5C48.81,99.09,75,99.29,79.49,97.25Zm17.7-1.56.36-.06a3.42,3.42,0,0,0,.24-.65c.62-5.67,1.36-11.33,1.8-17,.32-4.25.25-8.53.36-12.8,0-.73,0-1.44-1.07-1.61,0,.46-.09.85-.1,1.24-.23,9.65-.35,19.31-2,28.86A5.72,5.72,0,0,0,97.19,95.69ZM82,99.74c-1-1.83-2.57-1.42-4-1.25a105.71,105.71,0,0,1-19.48.7c-3.41-.22-6.83-.41-10.25-.62.31,1.07.4,1.19,1.44,1.22,5.39.18,10.77.48,16.16.47S76.59,99.92,82,99.74Zm15.8-37.55-.41.09c-.25,10.48.44,21-1.59,31.4a43.5,43.5,0,0,0,.94-5.15,144.61,144.61,0,0,0,1.47-24.86A5.37,5.37,0,0,0,97.76,62.19Zm2,24.38h-.09c-.44,3-.91,6-1.3,9.07a2,2,0,0,0,1.39,2.24ZM69.35,39.69l.26.36a14.26,14.26,0,0,0,2.17-.23c.89-.22,1-.93.69-1.69a.93.93,0,0,0-1.57-.35A12.08,12.08,0,0,0,69.35,39.69ZM90.42,96.47c1.35,1.67,2.38,2,4,1.16C93.26,95.92,92.35,95.64,90.42,96.47ZM58.45,40l.26.3a8.7,8.7,0,0,0,1.77,0c.4-.08,1-.4,1-.7a1.63,1.63,0,0,0-.42-1.37c-.26-.2-1,0-1.34.24A8.6,8.6,0,0,0,58.45,40ZM99,57.43c-.51,2.52-.25,4.82.62,5.35C100.1,60.33,99.82,58,99,57.43ZM85.84,93.94l0,.24c2.35-.58,4.7-1.11,7-1.75.43-.12.75-.66,1.31-1.18ZM97.9,61.39c0-1.8.64-3.66-.47-5.35C97.23,57.85,97,59.67,97.9,61.39ZM84.81,97.6c1.2,1.46,2,1.67,3.36.92C87.23,97.64,86.29,96.93,84.81,97.6Zm3-.59c1,1.37,2,1.71,3.21,1.07C89.6,96.63,89,96.43,87.8,97Zm-4.46-57.7.19.36a5.88,5.88,0,0,0,1.81-.36c.3-.16.35-.8.52-1.23-.43,0-1-.26-1.25-.09A6.64,6.64,0,0,0,83.34,39.31ZM99.12,53.45l-.42.1c-.3,1.82-.1,2.46,1.21,3.12Zm-5.39,45.3c1,1.16,1.8,1.34,2.88.71C96,98.19,94.91,98.44,93.73,98.75Zm-11.68-.66c1.15,1.29,1.6,1.41,2.92.83C84.17,98.14,83.37,97.48,82.05,98.09Zm9,.82-.11.75,2.33.36.11-.66Zm4.76-1.34.2-.25c-.58-.82-.91-2-2.44-1.54ZM97.37,55,98,54.9l-.23-2.38-.54,0ZM87.66,99.41l0,.54,2.39.22,0-.58ZM98.9,50.85l.6-.22-.63-1.77-.57.2ZM82.29,97.32l0-.57-2.14-.16,0,.59Z"/><path class="cls-1" d="M63.09,52.83c-.42.19-.83.4-1.27.55a4.26,4.26,0,0,0-2.69,2.55c-.76,2,0,3,2.09,3a13,13,0,0,1,3,.38,2.49,2.49,0,0,1,2.14,2.14,2.64,2.64,0,0,1-1.58,2.71,7.59,7.59,0,0,1-6.35.7,3.82,3.82,0,0,1-.85-.49l.1-.31c.44,0,.88,0,1.32.12a6.86,6.86,0,0,0,5.21-.73,2.42,2.42,0,0,0,1.11-1.74,2.51,2.51,0,0,0-1.42-1.64,8.06,8.06,0,0,0-2.83-.32c-2.82-.05-3.9-1.7-2.75-4.3a5,5,0,0,1,3.54-2.95,4.66,4.66,0,0,1,1.12,0Z"/><path class="cls-1" d="M85.59,85.79a8.51,8.51,0,0,1-1.13.48c-2.59.65-5.19,1.29-7.78,1.92-1.36.33-1.71,0-1.63-1.31s.21-2.46.32-3.7c0-.19.08-.39.09-.59,0-.57-.25-1.39,0-1.66a4.77,4.77,0,0,1,1.94-.8c1.07-.31,2.16-.57,3.25-.8a6,6,0,0,1,1.2,0l.07.4c-.61.19-1.22.39-1.84.55s-1.08.25-1.63.37c-2.35.53-2.36.55-2.21,3.13l3.54-.66.13.5a21.49,21.49,0,0,1-2,.77c-2.1.59-2.16.65-2,3l4.86-1.09,4.66-1.1Z"/><path class="cls-1" d="M66.69,65.16c.14-4.4,1.24-8.63,2.27-13,1.54,1.19,3.61,11.9,2.5,13.65l-.89-5.47c-1.92-.15-2.66.39-2.95,2.14-.16.91-.29,1.83-.44,2.75ZM69.43,54.7h-.29l-1.08,5.22,2.43-.66Z"/><path class="cls-1" d="M53,89.21a44.29,44.29,0,0,0,2.29-6.58c.4-2.09,1.46-2.69,3.32-2.84,1.2-.09,2.26,0,3,1a2.45,2.45,0,0,1-.09,2.92,7.54,7.54,0,0,1-2.13,2.5,65.57,65.57,0,0,1-5.83,3A1.09,1.09,0,0,1,53,89.21Zm1.42-1.08c3-1.26,5.47-2.51,6.49-5.42A2,2,0,0,0,60.59,81c-.82-.91-3.43-.5-3.9.65C55.85,83.68,55.21,85.76,54.37,88.13Z"/><path class="cls-1" d="M69.62,74.8A6.83,6.83,0,0,1,69.77,73c.16-.48.65-.84,1-1.26a5,5,0,0,1,.63,1.4,6.78,6.78,0,0,1-.28,1.74,1.61,1.61,0,0,0,2.1-.4c.51-.46,1-.95,1.61-1.54a2.67,2.67,0,0,1-2.45,2.86,16,16,0,0,1-3.09,0c-.32,0-.68-.49-.86-.84a11.59,11.59,0,0,1-.56-1.86l-.81,2.61-.42,0a29.15,29.15,0,0,1-.06-7.23l.48,0,.48,3.25c1-.22,1.08.54,1.24,1.24s.36,1.33.54,2Z"/><path class="cls-1" d="M64.86,89.42V85.16a13.68,13.68,0,0,0-3.19,1.6A16.64,16.64,0,0,0,60,89.37c-.28-1.22,3.57-8.69,5.08-10,.39,3.45.88,6.73.34,10Zm-2.49-4.25c2.47-.41,2.93-1.3,1.94-3.52Z"/><path class="cls-1" d="M66.56,81.64c1-1.68,10.1-4,11.81-3l-7.51,1.68v8.87h-.51c-.73-2.74-.15-5.59-.43-8.46Z"/><path class="cls-1" d="M75,65.64c-1.12-1-3.53-8.74-3-9.8.4,1.12.81,2.24,1.2,3.37a18.73,18.73,0,0,0,1.4,3.46L76,52.29l.67.09C76.33,56.82,75.72,61.23,75,65.64Z"/><path class="cls-1" d="M78.36,63.6l4.84-2.36.26.36c-.23.26-.42.6-.71.75-1.3.69-2.61,1.36-4,2-1.08.49-1.55.16-1.55-1.08,0-1.75,0-3.5.08-5.26,0-.2.12-.51.28-.58,1.43-.69,2.89-1.34,4.34-2,.12-.05.31,0,.73.12a8.5,8.5,0,0,1-1,.81c-.44.26-.93.45-1.4.67-2.1,1-2.11,1-2,3.45.58-.24,1.11-.49,1.66-.69s1-.31,1.54-.46l.22.46c-.75.39-1.48.8-2.24,1.16C78.09,61.59,77.94,61.9,78.36,63.6Z"/><path class="cls-1" d="M62.87,76.47V74H60.75c.4-.34.55-.58.72-.6,1.52-.17,1.81-1.19,1.85-2.47a2.25,2.25,0,0,1,1-2.29L64,72.43l1.6.14.26.37c-2.56,0-2.11,2.23-2.7,3.67Z"/><circle class="cls-2" cx="69" cy="69" r="66.5"/></g></g></g></svg>