<svg xmlns="http://www.w3.org/2000/svg" viewBox="0 0 138 138"><defs><style>.cls-1{fill:#eaeaea;}.cls-2{fill:none;stroke:#eaeaea;stroke-miterlimit:10;stroke-width:5px;}</style></defs><title>presidente</title><g id="Camada_2" data-name="Camada 2"><g id="Camada_1-2" data-name="Camada 1"><g id="presidente"><path class="cls-1" d="M68.79,61.19l-4.3-7.51c7.06-4.06,14.06-8.11,21.17-12.21L97.89,62.64,76.73,74.84l-4.41-7.49-9.6,6Q49.6,81.69,36.47,90c-1.62,1-3.3,1.67-5.21,1a4.84,4.84,0,0,1-3.61-4.2,5.24,5.24,0,0,1,2.91-5.47c2.12-1.2,4.3-2.29,6.46-3.42L67.25,62.05C67.74,61.79,68.22,61.51,68.79,61.19Z"/><path class="cls-1" d="M65.11,106l-.23-3,.74-.19c2.51-.55,2.6-.65,2.85-3.18.3-3,1.33-4,4.4-4h29.51a13.4,13.4,0,0,1,1.55.07,2.79,2.79,0,0,1,2.78,2.64c.18,1.33.17,2.69.26,4.18h3.42V106Z"/><path class="cls-1" d="M61.53,51.08c-2.19,0-3.36-.87-3.83-2.48a3.25,3.25,0,0,1,1.72-4c3.4-2,6.83-4,10.25-6,3.25-1.87,6.5-3.75,9.77-5.59a7.94,7.94,0,0,1,2.08-.88,3.21,3.21,0,0,1,3.73,1.69A3.43,3.43,0,0,1,84.51,38a8.35,8.35,0,0,1-1.46,1Q73.3,44.64,63.53,50.23A14,14,0,0,1,61.53,51.08Z"/><path class="cls-1" d="M80.12,84.47a3.7,3.7,0,0,1-3-2.07,3.09,3.09,0,0,1,.39-3.58,6,6,0,0,1,1.64-1.36c6.6-3.82,13.19-7.64,19.83-11.37a5.91,5.91,0,0,1,3-.72,2.94,2.94,0,0,1,2.74,2.46,3.14,3.14,0,0,1-1.38,3.66c-1.71,1.1-3.49,2.09-5.25,3.11C93,77.54,88,80.48,82.85,83.37A21.62,21.62,0,0,1,80.12,84.47Z"/><circle class="cls-2" cx="69" cy="69" r="66.5"/></g></g></g></svg>