<svg xmlns="http://www.w3.org/2000/svg" viewBox="0 0 138 138"><defs><style>.cls-1{fill:#eaeaea;}.cls-2{fill:none;stroke:#eaeaea;stroke-miterlimit:10;stroke-width:5px;}</style></defs><title>secretaria</title><g id="Camada_2" data-name="Camada 2"><g id="Camada_1-2" data-name="Camada 1"><g id="secretaria"><path class="cls-1" d="M89.21,62.38c.6,0,1.11.08,1.62.08l12.35.09a4.41,4.41,0,0,1,.95.12c1.51.35,1.89,1,1.19,2.41-1.48,2.92-3,5.8-4.57,8.7-2.83,5.36-5.69,10.72-8.47,16.11a5.36,5.36,0,0,1-5.39,3.21c-2-.08-4,0-6,0q-21.82,0-43.66.08c-2,0-3.67-.43-4.53-2.42a4.26,4.26,0,0,1-.34-1.61q0-20.94,0-41.86c0-1.62.69-2.42,2.28-2.44,4.32,0,8.64,0,13,0a2,2,0,0,1,2,1.46c.65,1.71,1.37,3.41,2,5.15a1.34,1.34,0,0,0,1.57,1q15.71,0,31.42,0c1.31,0,2.7,0,3.53,1.14a6,6,0,0,1,1.14,2.9C89.33,58.42,89.21,60.35,89.21,62.38Zm-53.32-14V86.54c0,3,0,3,3,3.07a1.86,1.86,0,0,0,2-1.18c.88-1.84,1.78-3.66,2.69-5.48l8.76-17.72A4.5,4.5,0,0,1,56.6,62.4c7,0,14.06,0,21.1.06,2.28,0,4.56,0,6.83,0,.89,0,1.23-.3,1.19-1.19,0-1.16,0-2.32,0-3.48,0-1.76,0-1.76-1.78-1.76H51.55c-1.87,0-2.15-.19-2.83-1.95-.63-1.6-1.18-3.22-1.86-4.8a1.56,1.56,0,0,0-1.07-.85C42.56,48.38,39.32,48.41,35.89,48.41Z"/><circle class="cls-2" cx="69" cy="69" r="66.5"/></g></g></g></svg>