<svg xmlns="http://www.w3.org/2000/svg" viewBox="0 0 138 138"><defs><style>.cls-1{fill:#eaeaea;}.cls-2{fill:none;stroke:#eaeaea;stroke-miterlimit:10;stroke-width:5px;}</style></defs><title>tesouraria</title><g id="Camada_2" data-name="Camada 2"><g id="Camada_1-2" data-name="Camada 1"><g id="tesouraria"><path class="cls-1" d="M54,62.44c2.39-2.66,4.44-5.24,6.81-7.47s5.07-4.11,7.64-6.16a20.43,20.43,0,0,1-5.89-6.87,13.74,13.74,0,0,1-1.77-6.28c0-1.76,1.07-2.91,2.79-2.62a18.94,18.94,0,0,1,4.87,1.55,10.42,10.42,0,0,0,7.68.52,73.12,73.12,0,0,1,8.39-1.88c2-.34,2.48.22,2.11,2.26a24.15,24.15,0,0,1-6,11.81l-1,1.16s0,.07,0,.17c1.25.72,2.58,1.36,3.78,2.21,10.88,7.67,18.5,17.69,21.44,30.84,1.32,5.91.49,11.59-4,16.16a22.17,22.17,0,0,1-11.84,5.92,68.58,68.58,0,0,1-26.21,0c-.94-.17-1.19-.58-1.19-1.51,0-9.4,0-18.8,0-28.19,0-1.44.14-2.89,0-4.32-.34-4.09-2.4-6.3-6.42-7Zm23.4-4.11c-1.15,0-2.14,0-3.14,0-.22,0-.62.26-.62.38.07,1.56-1.14,1.56-2.15,1.88a7.89,7.89,0,0,0-5.85,6.89c-.51,3.58.55,6.58,3.76,8.54a16.66,16.66,0,0,0,3,1.4A1.41,1.41,0,0,1,73.55,79c0,2.43,0,4.87,0,7.31a9,9,0,0,1-.11,1c-2.74-1.2-2.84-3.75-3.45-6.13-1.34.25-2.62.59-3.91.71C65,82,64.88,82.52,65,83.42c.39,4,3.06,7.72,7.06,8.56.54.11,1.38.79,1.37,1.18-.06,1.64.86,1.7,2.06,1.59.58,0,1.17,0,1.81,0a3.9,3.9,0,0,0,.1-.69c-.2-1.31.38-1.81,1.67-2.14a9.49,9.49,0,0,0,6.79-10.39c-.61-4.18-3.11-6.63-7.08-7.64a1.54,1.54,0,0,1-1.39-1.83c.07-1.59,0-3.19,0-4.79v-2.1c1.12.56,1.12.56,2.72,4.37l5.08-.83c-.29-4.14-2.45-7.09-6.07-8.2C78,60.16,77,59.94,77.4,58.33Z"/><path class="cls-1" d="M32.66,85.43V70.07c0-2.9,1.16-4,4.09-4,5.8,0,11.6,0,17.4,0,2.91,0,4.09,1.15,4.09,4.07,0,7.92,0,15.84,0,23.76,0,2.32,0,4.64,0,7,0,3-1.2,4.14-4.18,4.15q-8.7,0-17.4,0c-2.79,0-4-1.27-4-4.06Zm3.92-8.77H54.25V71.25H36.58ZM54.26,96.1h-4v2.71h4ZM36.6,85.68h3.91V83.07H36.6Zm13.72,0h3.91V83.06H50.32Zm-2.87,6.55V89.6H43.54v2.64ZM43.55,83V85.7h3.74V83Zm-3,9.25V89.7h-3.9v2.57Zm9.82-2.58v2.52h3.91V89.69Zm-9.81,6.52h-3.9v2.53h3.9Zm3,0v2.55h3.86V96.19Z"/><path class="cls-1" d="M77.57,79.16a3.28,3.28,0,0,1,2.88,3.13c.17,2.47-.76,4.1-2.88,4.92Z"/><path class="cls-1" d="M73.41,72.13a3,3,0,0,1-2.55-2.87,3.56,3.56,0,0,1,2.55-4.12Z"/><circle class="cls-2" cx="69" cy="69" r="66.5"/></g></g></g></svg>