<svg xmlns="http://www.w3.org/2000/svg" viewBox="0 0 815.91 1010.42"><defs><style>.cls-1{fill:#131212;}.cls-2{fill:#fcfcfc;}.cls-3{fill:#fb0202;}</style></defs><title>1a_logoaaamat</title><g id="Camada_2" data-name="Camada 2"><g id="Camada_1-2" data-name="Camada 1"><path class="cls-1" d="M795.26,494.26c-1.63-1.3-.9-2.9-.6-4.64,5.59-32.1,8.25-64.59,12.88-96.8,6.38-44.56,5.06-89.36,7-134.06,0-1.51-1-3.51,1.29-4.4V207.52c-20.18-1-39.91-5.12-59.69-8.83C693.63,187,632.9,169.49,575.53,141.6c-65.82-32-121.75-75.72-161.68-138-4.27-6.69-6-2.63-8.4.88C375.87,48,338.62,83.58,294.52,112.09c-56.35,36.43-118.28,59.29-183.14,75C77.55,195.21,43.3,201.15,8.85,205.88c-3.71.51-6.66,1.13-6.84,5.75-.64,17.29-2.12,34.57-2,51.84a1029.56,1029.56,0,0,0,12.41,149.9c5.44,35.52,10,71.28,21.13,105.67.88,2.71.37,5-.22,7.69-3,13.8-5.35,27.73-4.21,41.94,2.59,32.1,19.1,57.07,40.81,79.38,2.42,2.5,5.51,4.37,8.4,2.81,5.5-3,6.61.69,8.32,4.24,13,27,28.33,52.59,44.48,77.74,13.15,20.43,26.53,40.7,39.79,61l.52,1.66h-1.78c-33-10.12-64-25.06-96.73-41,13.26,43.49,26.39,84.4,38,125.73,3.6,12.82,10,19.33,22.12,24.43,51.58,21.69,103.77,41.17,159,51.65,8,1.52,16.53,1.48,23.63,6.48,26.17,18.42,54.69,32.38,84,45,8.78,3.76,16,3.48,24.58-.71,24-11.65,45.62-26.91,67.46-41.9a51.57,51.57,0,0,1,21.85-8.91,1114.75,1114.75,0,0,0,209-54.51c4.66-1.71,7-3.85,8.27-8.65,10.16-39.24,20.6-78.42,30.94-117.6,2.56-9.72,5.1-19.46,8-30.45-29,11.73-56,23.92-85.29,34.43,1.49-2.74,2.12-4,2.88-5.26A635.65,635.65,0,0,0,753.7,631.37c2-6.31,5.16-9.11,11.39-9.65,5.72-.51,10.67-3.34,15.34-6.45,18.75-12.47,28.81-30.4,32.79-52.23.71-3.88-.09-8.18,2.69-11.6V528.06C812.72,514.53,806.19,503.06,795.26,494.26ZM155.52,336.06l2.48-2c.81-.77,1.75-2.11,2.67-.55.52.91-.71,1.47-1.66,1.66l-1.81,2q-8.52,9-17,17.87c-1,1.06-1.73,3.41-3.87,1.51-1.92-1.57-1.76-3.09.19-4.76C142.79,346.48,148.44,340.43,155.52,336.06ZM625.2,264c11.07,2.42,17.22,8.77,23,15.67C639.81,276.71,633.52,270.63,625.2,264Zm97.19,211.49c-2.31-6.66-5.36-13.26-.64-20.51,1.65,1.06,1.24,2.37,1.26,3.5A140.11,140.11,0,0,1,722.39,475.53Z"/><path class="cls-1" d="M815.83,254.35V207.51c-20.18-1-39.91-5.12-59.69-8.83C693.63,187,632.9,169.48,575.53,141.59c-65.82-32-121.75-75.72-161.68-138-4.27-6.69-6-2.63-8.4.88C375.87,48,338.62,83.57,294.52,112.08c-56.35,36.43-118.28,59.29-183.14,75C77.55,195.2,43.3,201.14,8.85,205.87c-3.71.51-6.66,1.13-6.84,5.75-.64,17.29-2.12,34.57-2,51.84a1028.06,1028.06,0,0,0,12.41,149.9c5.44,35.52,10,71.28,21.13,105.67.88,2.71.37,5-.22,7.69-3,13.8-5.35,27.73-4.21,41.94,2.59,32.1,19.1,57.07,40.81,79.38,2.42,2.5,5.51,4.37,8.4,2.81,5.5-3,6.61.69,8.32,4.24,13,27,28.33,52.59,44.48,77.74,13.15,20.43,26.53,40.7,39.79,61l.52,1.66h-1.78c-33-10.12-64-25.06-96.73-41,13.26,43.49,26.39,84.4,38,125.73,3.6,12.82,10,19.33,22.12,24.43,51.58,21.69,103.77,41.17,159,51.65,8,1.52,16.53,1.48,23.63,6.48,26.17,18.42,54.69,32.38,84,45,8.78,3.76,16,3.48,24.58-.71,24-11.65,45.62-26.91,67.46-41.9a51.78,51.78,0,0,1,21.85-8.91,1113.22,1113.22,0,0,0,209-54.51c4.66-1.71,7-3.85,8.27-8.65,10.16-39.24,20.6-78.42,30.94-117.6,2.56-9.72,5.1-19.46,8-30.45-29,11.73-56,23.92-85.29,34.43,1.49-2.74,2.12-4,2.88-5.26A635.24,635.24,0,0,0,753.7,631.36c2-6.31,5.16-9.11,11.39-9.65,5.72-.51,10.67-3.34,15.34-6.45,18.75-12.47,28.81-30.4,32.79-52.23.71-3.88-.09-8.18,2.69-11.6V528.05c-3.19-13.53-9.72-25-20.65-33.8-1.63-1.3-.9-2.9-.6-4.64,5.59-32.1,8.25-64.59,12.88-96.8,6.38-44.56,5.06-89.36,7-134.06C814.54,257.24,813.56,255.24,815.83,254.35ZM80.1,634.66c-3.73,5-3.73,5,.48,9.7-2.91,2.81-5.42,2.17-8.12-.57C41.63,612.63,26.94,576.38,36.7,532.17c1.17-5.28,4.36-8.48,8.58-11.19,11.16-7.14,23.49-11.74,35.89-16.12,10.78-3.82,21.77-7.12,32.44-11.24,5.49-2.11,6.4-.51,6.85,4.72,2.19,24.79,4.78,49.54,7.35,75.61,2.52-12.52.43-24,1.85-35.54,2.78,1.65,2.13,4.3,2.46,6.5a329.33,329.33,0,0,0,17.21,67.84,8.21,8.21,0,0,0,1.08,1.86c.09.11.18.25.26.36s.25.34.37.52h0l.18-.1h0c.51-3.88,1-7.77,1.53-11.63.68-5.11,1.33-10.2,2-15.22,3.75,5.06,5.49,10,5.24,14.44a4,4,0,0,1-.05.6c0,.21,0,.42-.07.63a5,5,0,0,1-.17,1,16.94,16.94,0,0,1-.5,1.76c-.08.16-.13.32-.21.48a1.86,1.86,0,0,1-.1.25c-.07.18-.15.34-.23.51a13.1,13.1,0,0,1-1.92,2.91,6.3,6.3,0,0,1-.48.55,13.83,13.83,0,0,1-1.69,1.56,5.94,5.94,0,0,1-.7.54c-.25.19-.5.37-.76.53a10.47,10.47,0,0,1-1,.63c-.27.18-.57.34-.87.5a.59.59,0,0,1-.05.29h0l-.06-.1h0a5.14,5.14,0,0,1-.8,3.56,1.68,1.68,0,0,1-.24.29,7,7,0,0,1-1.48,1.35l-.39.28c-.51.34-1.06.64-1.6.94-.25.14-.49.27-.73.42l-.72.42c-7.24,4.57-15.54,6.87-23.52,9.8-1.47.54-2.78,1-3.69-.79-.77-1.51-.33-2.43,1-3.63,2.34-2.13,2.35-3.84-1.31-5C102.33,618.09,89.63,621.91,80.1,634.66ZM726.05,443.23a13.26,13.26,0,0,1-.62-7.9c3-13.4-.35-26.15-3.87-38.84-1.67-5.95-1.88-11.76-1.63-18,.5-12.79-4.52-24.22-11.77-34.6-8.5-12.21-17.59-24-28.89-34.81,8.61-2.7,17-.83,26.64-3.36-10.19-4.23-18.95-5.07-27.39-7.13a27.62,27.62,0,0,1-16.14-10.2c-13-16.61-24.47-34.66-41.76-47.48-7-5.2-14.25-10.12-22.41-13.63-4.77-2.05-11.41-2.37-10.87-10.7.2-3.22-4.25-4.14-6.67-6C558.32,193.12,532.34,188.8,505,189.4c-4.63.1-9.24.5-13.86.64-2,.06-4.39,2.59-5.77-.14-1.21-2.43,1.73-3.79,3-5.36,7.39-9.09,13.29-19.2,20-28.78.82-1.18,1.58-2.47.87-5.38-8,5.91-15.37,11.72-23.07,17.12-10.72,7.54-21.59,14.83-33.78,19.89-1.31.54-2.68,2-4,.79-1.73-1.53,0-3.14.65-4.53A94.16,94.16,0,0,0,457.69,155c-5.31,3-8.67,6.74-12.06,10.31-6.66,7-15.08,11.44-23.16,16.37-3,1.85-4.3.78-4.94-2.47-1.74-8.82-3.71-17.61-5.55-26.42-.42-2.06,0-4.51-3.51-5.85-1.1,10.71-2.39,21.21-5.08,31.42-.87,3.3-2.05,6.5-2.89,9.79-.51,2-1,3.63-3.6,3.75s-4-1.1-4.84-3.45c-.94-2.78-2-5.49-2.94-8.26-5.52-16.92-15.71-31.25-25.34-45.88-1.36-2.08-2.93-4.79-5.62-2.71-2.5,1.92.26,4,1.35,5.58,9.92,14.46,20.06,28.77,25.32,45.81.5,1.62,1.14,3.2,1.58,4.84.16.6-.06,1.3-.21,3.15-14.09-18.25-26.82-36.33-42.29-54-1,4.94.73,7.45,1.93,10.15,5.13,11.54,10.14,23.13,15.23,34.69.59,1.33,1.72,2.7.63,4-1.26,1.52-2.66,0-3.95-.37-9.32-2.69-18.63-5.43-27.94-8.14a17.64,17.64,0,0,0-8.69-.23c6.64,5.9,14.93,9.22,20.78,17-15.19.2-25.85-5-33.12-17.42a117.92,117.92,0,0,0-13.32-18.17c-4.3-4.88-3.88-7.66,1.48-11.27,17.56-11.81,34.28-24.78,50.73-38.11C368.48,92.29,388,74,407.43,55.61c4.32-4.07,6.16-2.82,9,.92,30.63,40.6,69,72.26,112.82,97.66,48,27.76,99.44,46.2,153,59.7a882.84,882.84,0,0,0,94.91,18.85c4.74.66,6.6,2.81,6.64,7.64.37,46.81,0,93.57-4,140.29-2.81,32.82-7.81,65.22-14,97.53-1.19,6.22-3.52,8.63-10,8.32-10.42-.49-20.89-.13-30.87-.13C728.63,472.17,731.9,457.85,726.05,443.23Zm-3.66,32.29c-2.31-6.66-5.36-13.26-.64-20.51,1.65,1.06,1.24,2.37,1.26,3.5a140,140,0,0,1-.62,17ZM189.17,667.17c7,21.89,17.86,41.92,28.83,62.6,3.06-5.26-2.35-9.91.47-15.91,7.67,14.77,12.52,30.08,21.77,45.39.64-7.76,1.06-13.85,1.68-19.94.19-2-1.47-4.87,1.42-5.74,2.22-.66,3,2.08,4.1,3.52,14.69,20,34.2,35.17,51.91,52.15.6.58,1.7.65,2.56,1l.25-.23c-.52-6.12-5.69-10.45-7.17-18.24,21.12,17.8,42.87,31.82,63.68,47.17.56-.38,1.13-.76,1.7-1.12-2.55-7-5.09-14-7.68-21.12,3.95-1.28,5.87,1.69,8.05,3.16,13.61,9.11,29.46,15.21,39.76,28.91a1.92,1.92,0,0,0,2.55.72c1-.55.6-1.61.66-2.57.37-6.85-.67-13.9,2.85-21.19,3.17,6.76,3.21,13.28,3.87,21.74,9.13-14.39,19.82-24.51,35.14-30.24-3.83,11.19-9,19.83-18.44,27.26-12.05,9.53-24.85,9-38.36,8.73-23.14-.37-46.28-.6-69.32-3.18-25.15-2.82-50.15-6.58-74.77-12.34-8.76-2.05-13.17-10.32-18.88-16.36C204.86,779.18,188,753.82,170.48,729a483.35,483.35,0,0,1-47.82-84.26c-2.39-5.42-1.87-7.13,4.19-8.84,13.18-3.72,25.65-9.19,33.5-21.59,1.93-3.06,3.48-1.65,4.57.88,8.89,20.8,17.33,41.74,19.81,64.54A169.15,169.15,0,0,0,188.88,702C190.27,690.41,189.05,679,189.17,667.17Zm238.69,161c13.67-7,28.38-12,41.11-20.91,1.95-1.36,3.55-1.38,5,.55l15.85,21c-21.12,3.69-41,3.79-60.89,4.1-1.65,0-3.86.46-4.33-1.64s1.87-2.4,3.26-3.12Zm58.22-31.68c3.34-2.17,6.72-4.26,11.83-7.48l-13.11,23.8c-9.06-9.66-9.06-9.67,1.28-16.34Zm.74,19.86c-.4-1.64.65-2.17,1.5-2.92,12.8-11.1,25.92-21.85,37.24-35.81,1.65,8-3.85,13.3-4.32,20.87,18.08-16.42,35.51-32.27,52.93-48.11l1.14-.85c0,.59-.1,1.16-.15,1.73-3.57,16.1-5.37,32.48-7.65,48.72,2.25.94,2.72-.46,3.1-1.94.44-1.66.92-3.3,1.23-5,5.9-32.45,26.17-56.23,47.76-79.23.14-.63.44-1.3,1.15-.8.24.16,0,1.08-.08,1.65q-7.18,22.1-14.38,44.18c17.8-26.41,35.78-52.55,47.72-84.3a20.91,20.91,0,0,1,.07,12.55c-.35,1.18-1.2,2.46-.07,3.2,1.54,1,2.72-.2,3.51-1.52,3.65-6,7.26-12.09,11.34-18.9,6.31,8.51,12.36,16.82,18.62,25,1.86,2.42.43,4.11-.5,6C670,735,650.32,767.32,626.87,797.37a15.26,15.26,0,0,1-7.68,5.12c-38.22,12.9-77.66,20-117.52,25.38-4.67.55-13.67-6.67-14.85-11.54ZM672.61,666.19c-1.56-2.08-.53-4.22.27-6.25,6.07-15.58,13.91-30.56,16-47.5.75-6.19,8.61-6.89,10.22-12.82.32-1.16,2.75,1,3.89,2.14,5.46,5.44,10.42,11.44,17.1,15.53,2.74,1.65,3.58,4.08,2.3,6.88-10.1,22-20.29,44-30.92,67C684.77,682.33,678.67,674.28,672.61,666.19Zm21.18-71.91c-.13-17.35.94-34.59-2.55-51.92-1.46,44.94-7.65,88.64-30.19,129.9.56-15.15,3.85-28.82,1.87-42.78-8.22,27.12-15.45,54.58-31.38,78.74A68.13,68.13,0,0,0,629.67,689c-1.11,2.57-2,4-2.33,5.48-1.36,6.45-4.93,10.61-10.41,14.75-11.73,8.89-19.21,21.85-27.91,33.59-2.37,3.19-3.88,7.2-8.55,10,1.26-10.28,8-16.92,10.56-25.8l-58.77,54.57v-21c-9.44,11.08-16.49,22.71-28.19,31.66h0l-.49.49-.94-.52c.16-.17.36-.49.48-.46a5.24,5.24,0,0,1,1,.44c-.08-7.08,5.67-10.86,6.08-17.46-22.2,13.69-42.28,29.1-66.2,40.34,4.21-9.88,8.05-18.85,12.6-29.53-15.93,7.94-30.94,13.87-42,27.31-1.5-4.61-2.9-8.39-3.94-12.27-1.6-6-4.32-4.7-7.22-1.2-4.36,5.26-3.26,12-5,18.72a463.65,463.65,0,0,0-59-35.59c4.14,7.7,8.84,14.78,11.2,24.15-25.79-18.12-51-35.29-71.37-58.53l-1.59,1.27q4.5,9.57,9,19.08a224.5,224.5,0,0,1-48.65-52c-.43,7.14-.84,14.3-1.26,21.44l-1.55.27c-7.5-17.07-14.82-34.21-22.62-51.13-1.56-3.36-1.33-10.21-6.12-9-3,.73,1,6.66,1.09,10.41,0,2.84,1.29,5.65.61,10.77-11.6-23-16.26-46.5-24.25-70.53-2.2,7.43-2.21,7.58-1.46,14.81-6.5-15.09-13.35-30-18.14-45.81-3.23-10.7-7.52-21.18-7.07-32.67.08-1.7.44-3.49-2-3.89-3.08-.53-3.1,1.91-3.31,3.65-1,8.65-1.84,17.32-3.45,26.07-4.35-9.16-5.95-19-8-28.67-2.15-10.26-4.34-20.55-4.74-31-.39-10.1-.09-20.21-.09-31-2.63,4.94-5.12,9.63-8.08,15.22-3.92-26.92-6-52.61,5.19-77.72-8.51,4.75-12.83,13.92-23.25,18,8.87-15.81,15.62-30.8,22.21-45.86,4.07-9.31,11.49-15.57,18.92-21.91,5.74-4.87,11.42-9.79,17.13-14.7-.33-.45-.63-.89-.95-1.34-17.52,10.51-35,21.15-51.72,35.84,6.14-19.67,16.38-34.86,28.63-48.93s26.7-26,39.74-39.49c-11.55,1.7-22.14,5.27-31.36,12.34-1.76.41-3,.4-1.5-1.83,13.82-23.34,28-46.44,52.12-60.91,6.4-3.84,13.26-6.91,21.78-11.3-14.49-1.35-26.4,3.82-38.77,4.11,23.78-19.22,52.18-26.36,81.51-33.11l-13.87-6.23c26.28-.56,51.28-1.13,77.55-3.53-9.35-8.81-18-16.37-29.18-22.35,11.17-2.42,21.13.41,30.84,2.68,11.53,2.7,23.46,4.23,34.28,9.57,1,.5,2.32.42,2.56-.4.54-1.85-.67-3.07-2.2-4.14-6.92-4.89-13.77-9.88-22.13-15.89,9.9.9,17.51,4.58,26.92,6.44l-10.6-24.93c2.52-1,3.25,1.2,4.38,2.65,4,5.23,8.47,10.16,11.93,15.73,5.32,8.61,13.61,9.2,22.26,9.66,3.19.18,3.53-2,4.17-4,2-6.47,4-13,6.47-21.26,1.65,6.93,2.94,12.31,4.42,18.51,11.69-5.46,22.44-11.66,32.8-20.53-1.32,11.94-8.61,19.52-14.24,27.94.31.31.61.61.91.93a147.88,147.88,0,0,0,29.08-11.7c9.15-5.05,17.84-10.94,27.3-16.1-4.95,9.07-12.42,16.37-19.79,25,9.26.88,17.47-1,25.73-1.68,26.62-2.25,52,1,75.11,15.69a4.67,4.67,0,0,1,2,2.23c-20.24-2.27-40.4-1.82-60.77-1.19,44.49,3.19,86.5,12.25,118.36,46.87-11.88-2.68-22.24-10.16-35.81-11.86,24.81,19.42,47.23,39.68,73.5,55.59H654c33.27,14.5,52.14,40.12,61,74-9.38-13.7-19.73-26.64-30.34-39.37l-1.55,1.23c9.63,15.91,19.49,31.67,28.82,47.76,6.14,10.61,8.05,22.51,8.32,34.77-5.44-12.66-9.74-26-22.71-33.35l-1.16,1.11c7.7,14.61,17.21,28.35,21.34,44.69,2,7.81,1.89,11.09-1.72,20.68l-10.48-24.28c-3,1.18-2.11,2.41-1.76,3.86,2.94,12.06,7.35,24.06,8.11,36.27.63,10.07,7.36,17.42,8.11,27a140.9,140.9,0,0,1-.74,31.73,125.73,125.73,0,0,0-12.86-25c-1.71,31.52,1.2,62.42-12.59,90.83ZM136.52,351.78c6.27-5.31,11.92-11.36,19-15.73l2.48-2c.81-.77,1.75-2.11,2.67-.55.52.91-.71,1.47-1.66,1.66l-1.81,2q-8.52,9-17,17.87c-1,1.06-1.73,3.41-3.87,1.51C134.41,355,134.57,353.45,136.52,351.78ZM648.2,279.7c-8.39-3-14.68-9.08-23-15.67C636.27,266.45,642.42,272.8,648.2,279.7Zm-336.07-90-49.56-3.17c-.07.41-.13.82-.2,1.23,9.7,3.38,19.45,6.65,29.09,10.16A69.43,69.43,0,0,1,318,214.46a451.19,451.19,0,0,1-50.4,2.08c-16.64-.1-32.86-3.94-49.76-4.86l33.06,15.19c-39.39,6.34-68.92,31-101.72,52.24,6.72.8,11-2.77,15.67-4.39,5.29-1.82,10.44-4.08,15.8-5.68,5-1.48,10-3.12,16-2.75-16,10.11-26.17,24.73-36.84,38.87S141.69,335.68,133,352.48L42.41,233.71c12.47-1.23,24-2,35.52-3.57,55.81-7.53,108.3-25.81,158.79-50.15,15.14-7.29,30-15.21,44.79-23.12,3.4-1.82,5.14-1.92,7.54,1.5,7.23,10.31,14.95,20.29,23.08,31.33Zm-269,53.68c14.46,19.21,28.9,38.44,43.55,57.47,14.51,18.83,28.88,37.8,43.68,56.43,2.44,3.06,3.1,5.55.42,9-15.44,20-22.87,43.78-31,67.22-1.71,5-3.36,10-5,14.94.58.37,1.18.75,1.78,1.11,9.94-14.77,12.14-35.07,31.13-44.57-10,23.11-17.88,46.3-35.84,64.35,11.37-1.18,19.66-8.65,30.49-14.82a91.23,91.23,0,0,0-3.22,30c.13,2.2-2,2.54-3.57,3.08-13.06,4.62-26.1,9.28-39.2,13.74-3.59,1.23-5.91.79-7.36-4-9.66-32-16.07-64.63-21.12-97.58-7.63-49.69-10.23-99.78-11.39-150a19.33,19.33,0,0,0-.2-3.64c-.69-2.91-3.52-6.65.43-8.33s4.79,3.41,6.45,5.6ZM88.69,639.26c-2.15-5.16-.38-7.84,3.57-10,4.84-2.7,10.14-3.1,15.59-2.47,2.71.31,3.42,2.12,4.2,4.32,15,42.28,38.74,79.71,64.41,116,16,22.6,32.38,44.86,50,66.69l-30-9c-2.26-.66-3.73-2.15-5.26-3.74C146.2,754,113.69,699,88.69,639.26ZM475.6,969.45c-19,12.27-38.72,23.39-58.51,34.36-3.71,2-6.72,2.38-10.77.68a333.4,333.4,0,0,1-66.73-37.33c-.88-.65-2.23-1-2.24-3.25,14.77,1.14,29.46,1.8,44.17,2.09,4.9.1,8.49,4.49,12.53,7.1,14.21,9.15,19.14,9.47,32.14-.62,7.19-5.57,14.51-8.73,23.77-9,12.55-.36,25-2.09,39.59-3.42C483.9,963.88,479.81,966.75,475.6,969.45Zm-82.44-3.17h31.52C415.13,977.09,410.06,977.17,393.16,966.28Zm133.5-17c-59.15,9.79-118.66,14.2-178.52,10.23-42.49-2.82-83.67-13.23-124.3-25.48-34.32-10.35-67-25.17-100-38.84-3.13-1.31-4-3.59-4.94-6.56Q101.5,831,83.82,773.35c-.77-2.5-1.79-4.93-3.59-9.82,40.76,20.61,81.69,35.86,124.34,49.28-14.79,15.12-29,29.72-43.31,44.29-5.46,5.6-10.76,11.36-16.5,16.63-5.25,4.83-10.14,10.72-18.81,8.9-3-.63-2.75,2.84-3.67,4.58-1.26,2.34.25,3.35,2.37,4.2,10.41,4.13,20.8,8.32,31.12,12.68,3.36,1.42,4-.54,5.15-2.94,1.33-2.84.79-4.13-2.09-5.54-8.83-4.3-9.21-6.1-4-14.25,7.48-11.76,7.48-11.77,20.48-6.46C192.8,882,192.83,882,192.17,901c-.1,3.34.59,6.57-3.75,8.91-2.21,1.2-4.27,5.46,1.57,8.1,18.81,8.44,38.54,13.43,58.54,17.8,3.66.79,4-.78,4.78-3.34s.87-4.26-2.54-5.36c-10-3.25-10.52-5-5.92-14.62,5.53-11.52,5.53-11.5,17.63-8.64.24.06.47.11.71.15,20.47,4.73,21.44,6,21.42,27.12a7.34,7.34,0,0,1-.13,2.84c-4.24,9-4.27,9,4.91,11.18,5.92,1.41,11.85,2.81,17.81,4.09,2.41.51,5.33,2.37,6.61-1.76.12-.36,1.12-2.49,1.15-.23.07,5.57,4.12,3.7,6.77,3.89,9.49.66,19,1,28.5,1.55,2.91.16,5.77.87,6-3.89.19-4.13-1.47-4.77-5-5-7.46-.47-8.93-2.57-7.8-9.73,2.3-14.45,4-15.81,18.54-15.08,18.11.91,18.15.9,23.39,18.37,1,3.41,3.27,6.65-.49,10.48-1.53,1.57-2.35,6.5,3.58,7,20.4,1.76,40.73,2,61-1.11,2-.31,4.19-.43,3.73-3.22-.33-2.13,1-5.4-2.75-5.76-9.06-.83-10.32-8.06-11.61-14.66-2-10.31-2.18-20.83-2.13-31.34V880c.39-.06.79-.12,1.17-.16q19,34.44,38.14,68.88c1.33,2.37,1.9,5.46,6.07,5.18,4.48-.29,4.68-3.63,5.66-6.48,7.64-22.32,13.82-45.18,23.55-66.77l2.58-5.74c3.26,15.31,6.16,28.86,9,42.42.7,3.32,1.31,6.68,2,10,1,5.21.29,9.43-6.08,10-4.21.4-3.25,3.11-3.13,5.78.16,3.82,2.4,3.33,5,3,9.18-1,18.37-1.94,27.56-2.89.1.61.21,1.23.32,1.83-7.25,1.46-14.53,3-21.87,4.24ZM193.19,869c-.07,2.87-2.46,1.55-3.83,1-5.84-2.3-11.64-4.73-18.36-7.5,8-7.52,15.21-14.29,22.28-20.95C193.28,850.18,193.43,859.61,193.19,869Zm64.1,23.4,19.35-27c1.36,11.45,2.54,21.37,3.86,32.35Zm95.92,16.12c4.7-9.87,9.17-19.25,14.22-29.88,3.35,11.08,6.32,20.91,9.5,31.38-8.24-.51-15.69-1-23.72-1.5ZM756.13,756l6.32-2.65c-3,11.7-5.78,22.44-8.61,33.17-9.13,34.6-18.35,69.17-27.38,103.8-1,3.92-2.88,6-6.81,7.42-50.52,18-101.81,33.36-154.43,44-2.12.43-4.23,1.31-6.52.27,1.88-3.19,5.35-3.08,8.24-3.84,8.47-2.27,17-4.32,25.55-6.28,3-.68,4.13-1.77,3.12-5-.88-2.87-1.44-4.55-5.3-3.7-8.84,1.92-11,0-11.39-8.72-.7-14.3-.7-14.3,13.1-17.8,17.9-4.54,17.93-4.55,28.22,10.68,2,3,4.61,5.32,2.55,10-1.13,2.56.19,7.35,6.16,5.44,7.42-2.35,15.14-3.73,22.66-5.81,1.89-.52,5.71.09,4.54-3.93-.72-2.4-.14-5.61-5-5.45-6.89.21-10.45-5.68-13.86-10.65-13.1-19.08-26-38.29-39-57.47-2.59-3.83-5.19-7.65-7.76-11.5-1.61-2.4-2.7-5.09-6.71-4-3.66,1-4.76,3-5.27,6.66-3.76,26.79-7.77,53.54-11.76,80.3-.79,5.31-1.8,10.58-4.3,15.41a11.75,11.75,0,0,1-10.42,6.76c-5.17,0-6.34-4.61-7.27-8.71-1.67-7.36-3.21-14.75-4.75-22.14-2.94-14.07-5.73-28.18-8.84-42.2-1.29-5.81.59-9.12,6.44-9.73,3.54-.37,5-1.42,4.61-5.4-.51-4.69-3.33-3.84-6.23-3.53-7.28.79-14.52,1.89-21.81,2.28-4.22.24-5.61,1.92-6.59,5.9-5.91,24.15-14.55,47.47-21.92,71.19a9.55,9.55,0,0,1-1.54,2.18c-12.47-22.35-24.94-44.36-37-66.58-2.24-4.12-4.54-5.5-9.08-4.75-6.23,1-12.59,1.36-18.88,2.18-2.33.29-5.62-.52-4.93,4.12.48,3.31.88,5.65,5.06,5,4.89-.82,6.63,2.21,6.76,6.37.72,21.72.9,43.42-3.42,64.85-1,5-2,12-7.2,12.47-5.83.59-8.14-6.09-9.75-11.19-7.82-24.86-15.44-49.77-23.14-74.65-.94-3-2.12-6-2.81-9s-2.3-4.25-5.5-4.52c-3.43-.28-4.69,1.35-5.95,4q-17.13,36.35-34.44,72.57a124.19,124.19,0,0,1-7.24,12.63c-2.68,4.23-6.87,6.82-11.71,6.08-5.23-.82-8.18-5-9.49-10.07-2.54-10-3.17-20.2-4.49-30.35q-3.87-30.09-7.36-60.24c-.37-3.26-1.07-5.25-4.67-6.19-3.78-1-5.33,1-7,3.47l-46.11,65c-3.53,5-7.11,9.88-12.26,13.39-4.88,3.34-8.26,2.06-10.07-3.28-1.75-5.15-1.76-10.54-1.57-15.94.91-25.33,2-50.68,2.55-76,.13-5.42,1.23-6.24,6.55-4.94,125.41,30.86,250.78,29.13,375.55-2.88C651.52,800.29,703.92,778.17,756.13,756ZM581.56,885.29c1.45-9,2.74-18.12,4.35-28.93,6.45,9.59,12,17.81,18.28,27.09-6.88,1.7-13,3.13-19,4.73C582.48,888.88,581,888.7,581.56,885.29Zm170-264.8c-17.12,55.71-42.91,107.4-72.77,157.23a16,16,0,0,1-9.27,7.64c-11.11,3.54-22.14,7.36-33.21,11.08-.64.7-1.37,1.11-2.11.27-.11-.13.59-1,.91-1.44a589.8,589.8,0,0,0,57-93.37c10.29-21.24,19.75-42.89,29.48-64.39,4.3-9.48,9.63-18.61,10.89-29.2.7-5.78,4.15-6.17,8.71-5.24,14.57,3,14.73,3.28,10.4,17.42Zm56.5-99.22c5.27,27.43,2.08,53.92-15.84,76.9a57.43,57.43,0,0,1-21.08,16.57c-2.44,1.14-4.78,2.19-8.18.57,2.78-1.24,5.24-2,2.72-5.56-1.9-2.68-3.84-5-6.74-6.34a68.32,68.32,0,0,0-31.81-6.72c-3.39.1-5.4,2.24-3.07,4.12,5.36,4.3.76,8.07,1.23,13.59-8.15-7.33-15.15-13.65-22.21-19.9-1.58-1.41-1.52-2.8-.89-4.57,7.09-19.83,8.08-40.5,8.43-61.25,0-.63.41-1.26,1.07-3.18,3.5,7.36,3.06,14.32,4.16,20.93s0,13.41,2.87,21.31c4.72-24.63,8.06-47.8,6.23-71.41-.19-2.56.73-3.5,3.15-3.69,18.18-1.52,36.56-4,54.39.91a35.12,35.12,0,0,1,25.6,27.72ZM804.87,356c-2.67,41.89-9.09,83.31-14.07,124.9-.72,6-.94,10.1-9.47,7.21-11.34-3.84-11.81-3-9.35-15.24,15.79-78.64,18.63-158.16,16.49-238.06-.2-7.32-4.9-6-8.65-6.58-50.23-7.33-99.7-17.95-147.88-34C568.46,173,509.66,143.37,460.08,97.46a326.9,326.9,0,0,1-43.67-49.09c-3-4.15-4.47-4-8-.63-32.2,30.54-65,60.46-101.23,86.25-41.59,29.59-87.79,50.25-135.49,67.61C128.9,217.17,84.77,227,39,228.17c-5.3.15-7.63,2.07-7.58,8,.52,88.82,8.16,176.72,32.5,262.57,1.41,5,.82,7.07-4.23,9.07-7.14,2.86-13.75,7-20.88,10.76-6.15-16.64-9.63-33.78-12.68-51C13.05,393.27,3.42,318.65,5.13,243c.21-9,1.17-18,1.39-27,.11-3.91,1.73-4.8,5.27-5.06,92.36-6.68,178.42-34.72,259.35-78.57,49.67-27,93.78-61.37,127.62-107.44,3.31-4.5,6.31-9.25,9.88-14.53,2.87,4.26,5.45,8.25,8.18,12.15C445.7,63.44,483.19,95.06,525.54,121c70.36,43,146.62,70.67,227.73,85.2,15.37,2.75,30.81,5.07,46.4,5.75,5.56.27,6.76,2.3,7.07,7.38C809.49,264.9,807.78,310.42,804.87,356ZM504,792.22Zm0,0Z"/><path class="cls-2" d="M720,496.62c-.75-9.58-7.48-16.93-8.11-27-.76-12.21-5.17-24.21-8.11-36.27-.35-1.45-1.25-2.68,1.76-3.86L716,453.77c3.61-9.59,3.7-12.87,1.72-20.68-4.13-16.34-13.64-30.08-21.34-44.69-.42-.75-2.6-.82-1.17-2.22,1.08-1.06,2-.18,2.33,1.11,13,7.39,17.27,20.69,22.71,33.35-.27-12.26-2.18-24.16-8.32-34.77-9.33-16.09-19.19-31.85-28.82-47.76l1.55-1.23c10.61,12.73,21,25.67,30.34,39.37-8.81-33.85-27.68-59.47-61-74h15.09c-26.27-15.91-48.69-36.17-73.5-55.59,13.57,1.7,23.93,9.18,35.81,11.86-31.84-34.55-73.85-43.65-118.34-46.84,20.37-.63,40.53-1.08,60.77,1.19a4.67,4.67,0,0,0-2-2.23c-23-14.67-48.44-17.94-75.06-15.67-8.26.7-16.47,2.56-25.73,1.68,7.37-8.68,14.84-16,19.79-25-9.46,5.16-18.15,11-27.3,16.1a147.88,147.88,0,0,1-29.08,11.7c-.59.14-1.55.55-1.7.34-.57-.76.2-1,.79-1.27,5.63-8.42,12.92-16,14.24-27.94-10.36,8.87-21.11,15.07-32.8,20.53-1.48-6.2-2.77-11.58-4.42-18.51-2.52,8.28-4.45,14.79-6.47,21.26-.64,2-1,4.19-4.17,4-8.65-.46-16.94-1.05-22.26-9.66-3.46-5.57-7.91-10.5-11.93-15.73-1.13-1.45-1.86-3.62-4.38-2.65L372,194.69c-9.41-1.86-17-5.54-26.92-6.44,8.36,6,15.21,11,22.13,15.89,1.53,1.07,2.74,2.29,2.2,4.14-.24.82-1.54.9-2.56.4-10.82-5.34-22.75-6.87-34.28-9.57-9.71-2.27-19.67-5.1-30.84-2.68,11.21,6,19.83,13.54,29.18,22.35-26.27,2.4-51.27,3-77.55,3.53l13.87,6.23c-29.33,6.75-57.73,13.89-81.51,33.11,12.37-.29,24.28-5.46,38.77-4.11-8.52,4.39-15.38,7.46-21.78,11.3-24.13,14.47-38.3,37.57-52.12,60.91l1.5,1.83c9.22-7.07,19.81-10.64,31.36-12.34-13,13.5-27.46,25.41-39.74,39.49S121.17,388,115,407.66c16.75-14.69,34.2-25.33,51.72-35.84.67-.43,1.46-1.28,2.12-.25s-.51,1.24-1.17,1.59c-5.71,4.91-11.39,9.83-17.13,14.7-7.43,6.34-14.85,12.6-18.92,21.91-6.59,15.06-13.34,30.05-22.21,45.86,10.42-4.07,14.74-13.24,23.25-18-11.16,25.11-9.11,50.8-5.19,77.72,3-5.59,5.45-10.28,8.08-15.22,0,10.83-.3,20.94.09,31,.4,10.48,2.59,20.77,4.74,31,2.05,9.69,3.65,19.51,8,28.67,1.61-8.75,2.44-17.42,3.45-26.07.21-1.74.23-4.18,3.31-3.65,2.47.4,2.11,2.19,2,3.89-.45,11.49,3.84,22,7.07,32.67,4.79,15.78,11.64,30.72,18.14,45.81-.75-7.23-.74-7.38,1.46-14.81,8,24,12.65,47.55,24.25,70.53.68-5.12-.57-7.93-.61-10.77-.06-3.75-4.1-9.68-1.09-10.41,4.79-1.18,4.56,5.67,6.12,9,7.8,16.92,15.12,34.06,22.62,51.13l1.55-.27c.42-7.14.83-14.3,1.26-21.44a224.5,224.5,0,0,0,48.65,52l-9-19.08,1.59-1.27c20.38,23.24,45.58,40.41,71.37,58.53-2.36-9.37-7.06-16.45-11.2-24.15a463.65,463.65,0,0,1,59,35.59c1.71-6.67.61-13.46,5-18.72,2.9-3.5,5.62-4.78,7.22,1.2,1,3.88,2.44,7.66,3.94,12.27,11.08-13.44,26.09-19.37,42-27.31-4.55,10.68-8.39,19.65-12.6,29.53,24-11.24,44-26.65,66.17-40.35-.41,6.6-6.16,10.38-6.08,17.46h0c11.7-9,18.75-20.58,28.19-31.66v21L591,727.05c-2.53,8.88-9.3,15.52-10.56,25.8,4.67-2.8,6.18-6.81,8.55-10,8.7-11.74,16.18-24.7,27.91-33.59,5.48-4.14,9.05-8.3,10.41-14.75.32-1.51,1.22-2.91,2.33-5.48a68.13,68.13,0,0,1,1.87,19.19c15.93-24.16,23.16-51.62,31.38-78.74,2,14-1.31,27.63-1.87,42.78,22.54-41.26,28.73-85,30.19-129.9,3.49,17.33,2.42,34.57,2.55,51.92,13.79-28.41,10.88-59.35,12.56-90.9a125.73,125.73,0,0,1,12.86,25A141.17,141.17,0,0,0,720,496.62ZM462.81,281.06c1.95-.22,2.18,1.4,2.72,2.51-.64,1.22-1,2.1-1.55,2.93-15.44,25-24.83,52.77-35.9,79.77-.45,1.13-.82,2.3-1.29,3.41-.67,1.57-1.42,3.57-3.48,2.9-2.56-.84-1.87-3.06-1.16-4.92,3.51-9.07,6.9-18.21,10.66-27.19,7.89-18.86,15.06-38,26.09-55.4C459.91,283.49,460.54,281.31,462.81,281.06Zm-44.7,39.84c.12-2.14-.38-4.91,2.32-5.58,3.87-1,2.26,3.29,3.9,4.82,5.17-4.69,8.84-10.84,15.9-14-4.19,10.24-8.32,20.48-12.59,30.67-.51,1.23-1.43,2.84-3.28,2-1.56-.72-1.68-2.15-1.3-3.73.32-1.34,1.49-2.65.28-4.16-2.8-.59-3.12,2.52-5.87,3.73C417.69,329.8,417.86,325.33,418.11,320.9ZM344.3,251.78c1.51-1.17,2.78-.3,3.7.94,22.81,30.62,46.45,60.74,57.72,98.14.07.23.13.47.19.7s.1.47.16.7a8.59,8.59,0,0,1-.06,2.15c-.19.75-.65,1.2-1.7.78-3-1.19-8-2.82-6.59-6.31,1.69-4.14-.36-6.58-1.47-9.47-10-25.92-26.1-48.2-42.39-70.34-3.16-4.3-6.37-8.59-9.59-12.87C343.13,254.68,342.49,253.17,344.3,251.78Zm237,350.55a291,291,0,0,0-4.58,60.42c.09,5.09-1.82,7.87-5.56,10.77C536,700.74,495.86,714.74,451.75,718c-41.45,3-82.26-.67-122.1-12.91A130.46,130.46,0,0,1,287,683.14c-6.21-4.85-10.09-10.37-10.91-18.7-3-30.45-12.3-59.55-20.15-89-.37-1.36-.67-2.73-1.27-5.24,6.16,3.39,11.16,6.69,16.59,9,45.79,19.35,92.19,37.25,141.63,44.57,27.91,4.2,55.32-1.8,81.89-10.8,33.11-11.17,60.59-31.84,87.92-52.72,1.86-1.42,3.31-3.6,6.53-4-2.64,15.56-5,30.87-7.89,46.08Zm4.35-92.84c-18.24,20.64-36,41.71-57,59.73-1.78,1.54-4.55,2.77-4,5.66,1.26,6.11-3,7.94-7.13,10.15-26.92,14.43-55.69,24-84.74,32.91a45.85,45.85,0,0,1-28.69-.73c-24.82-8.46-49.37-17.72-73.7-27.54-5-2-9.22-4.29-9.28-10.61,0-2.7-2.32-4-4.24-5.61C297,557,277.25,540.4,257.27,524c-5.63-4.61-7.87-9.84-6.85-17.2,6.69-48,21.4-93.35,45.26-135.64,8.5-15.07,17.91-29.58,27-44.3,3.09-5,5-4.48,9.24-1.29,32,24.09,56.54,54.89,79.34,87.29.84,1.2,1.69,2.37,3,4.19,16.14-19,31.69-37.4,47.42-55.66,13.07-15.17,27.56-29,42.21-42.57,2.2-2,3.65-4,6.44.16,35.86,53.62,64.84,110.29,79.2,173.74,1.47,6.69.61,11.69-3.84,16.73Z"/><path class="cls-3" d="M509.19,150.37c-7.94,5.92-15.36,11.72-23.06,17.13-10.71,7.52-21.6,14.83-33.79,19.88-1.3.54-2.68,2-4,.79-1.73-1.54,0-3.15.66-4.54A94.34,94.34,0,0,0,457.68,155c-5.31,3-8.65,6.74-12,10.31-6.67,7-15.08,11.44-23.17,16.38-3,1.84-4.3.78-4.94-2.48-1.75-8.82-3.71-17.61-5.55-26.42-.43-2.07,0-4.5-3.52-5.85-1.09,10.72-2.38,21.21-5.07,31.42-.87,3.29-2.05,6.5-2.89,9.79-.51,2-1,3.64-3.6,3.75s-4-1.09-4.84-3.46c-.93-2.77-2-5.48-2.94-8.26-5.53-16.9-15.71-31.23-25.34-45.87-1.36-2.07-2.92-4.79-5.62-2.71-2.5,1.91.27,4,1.34,5.58,9.93,14.45,20.07,28.77,25.33,45.8.5,1.63,1.14,3.22,1.58,4.86.16.59-.06,1.29-.2,3.14-14.09-18.25-26.84-36.33-42.3-54-1,4.94.73,7.44,1.93,10.15,5.13,11.54,10.15,23.14,15.24,34.7.58,1.32,1.71,2.68.62,4-1.26,1.53-2.66,0-3.95-.36-9.32-2.69-18.63-5.43-27.94-8.14a17.68,17.68,0,0,0-8.7-.23c6.66,5.9,14.94,9.22,20.8,17-15.2.19-25.86-5-33.13-17.41a118,118,0,0,0-13.32-18.18c-4.31-4.88-3.88-7.67,1.47-11.26,17.57-11.82,34.28-24.79,50.74-38.12C368.48,92.28,388,74,407.43,55.61c4.32-4.07,6.16-2.82,9,.92,30.62,40.6,68.95,72.26,112.8,97.66,48,27.77,99.44,46.21,153,59.7a882.17,882.17,0,0,0,94.9,18.85c4.76.66,6.61,2.82,6.65,7.64.37,46.81,0,93.57-4,140.29a941.72,941.72,0,0,1-14,97.52c-1.18,6.22-3.51,8.64-10,8.33-10.43-.5-20.9-.13-30.87-.13,3.69-14.22,7-28.54,1.13-43.16a13.1,13.1,0,0,1-.63-7.9c3-13.4-.34-26.14-3.88-38.84-1.66-5.95-1.87-11.77-1.62-18,.5-12.79-4.53-24.21-11.76-34.59-8.5-12.21-17.59-24-28.9-34.8,8.61-2.71,17-.84,26.64-3.37-10.18-4.23-18.95-5.06-27.39-7.13a27.7,27.7,0,0,1-16.14-10.19c-13-16.63-24.47-34.68-41.76-47.49-7-5.2-14.25-10.12-22.4-13.63-4.78-2-11.42-2.37-10.88-10.69.21-3.22-4.24-4.14-6.68-6-22.34-17.47-48.32-21.78-75.68-21.18-4.62.11-9.24.5-13.86.64-2,.07-4.39,2.59-5.76-.14-1.22-2.43,1.72-3.8,3-5.36,7.39-9.09,13.3-19.21,20-28.78C509.15,154.57,509.92,153.28,509.19,150.37Z"/><path class="cls-2" d="M756.13,756c-52.21,22.22-104.61,44.34-159.58,58.43-124.77,32-250.14,33.74-375.55,2.88-5.32-1.3-6.42-.48-6.55,4.94-.6,25.35-1.64,50.7-2.55,76-.19,5.4-.18,10.79,1.57,15.94,1.81,5.34,5.19,6.62,10.07,3.28,5.15-3.51,8.73-8.43,12.26-13.39l46.11-65c1.72-2.45,3.27-4.45,7-3.47s4.3,2.93,4.67,6.19q3.5,30.15,7.36,60.24c1.32,10.15,1.95,20.39,4.49,30.35,1.31,5.06,4.26,9.25,9.49,10.07,4.84.74,9-1.85,11.71-6.08a124.19,124.19,0,0,0,7.24-12.63q17.37-36.21,34.44-72.57c1.26-2.66,2.52-4.29,5.95-4,3.2.27,4.81,1.39,5.5,4.52s1.87,6,2.81,9c7.7,24.88,15.32,49.79,23.14,74.65,1.61,5.1,3.92,11.78,9.75,11.19,5.22-.52,6.2-7.51,7.2-12.47,4.32-21.43,4.14-43.13,3.42-64.85-.13-4.16-1.87-7.19-6.76-6.37-4.18.7-4.58-1.64-5.06-5-.69-4.64,2.6-3.83,4.93-4.12,6.29-.82,12.65-1.14,18.88-2.18,4.54-.75,6.84.63,9.08,4.75,12.07,22.22,24.54,44.23,37,66.58a9.55,9.55,0,0,0,1.54-2.18c7.37-23.72,16-47,21.92-71.19,1-4,2.37-5.66,6.59-5.9,7.29-.39,14.53-1.49,21.81-2.28,2.9-.31,5.72-1.16,6.23,3.53.43,4-1.07,5-4.61,5.4-5.85.61-7.73,3.92-6.44,9.73,3.11,14,5.9,28.13,8.84,42.2,1.54,7.39,3.08,14.78,4.75,22.14.93,4.1,2.1,8.74,7.27,8.71a11.75,11.75,0,0,0,10.42-6.76c2.5-4.83,3.51-10.1,4.3-15.41,4-26.76,8-53.51,11.76-80.3.51-3.63,1.61-5.63,5.27-6.66,4-1.12,5.1,1.57,6.71,4,2.57,3.85,5.17,7.67,7.76,11.5,13,19.18,25.86,38.39,39,57.47,3.41,5,7,10.86,13.86,10.65,4.86-.16,4.28,3,5,5.45,1.17,4-2.65,3.41-4.54,3.93-7.52,2.08-15.24,3.46-22.66,5.81-6,1.91-7.29-2.88-6.16-5.44,2.06-4.71-.56-7.07-2.55-10C610,892.06,609.92,892.07,592,896.61c-13.8,3.5-13.8,3.5-13.1,17.8.43,8.76,2.55,10.64,11.39,8.72,3.86-.85,4.42.83,5.3,3.7,1,3.25-.15,4.34-3.12,5-8.55,2-17.08,4-25.55,6.28-2.89.76-6.36.65-8.24,3.84,2.29,1,4.4.16,6.52-.27,52.62-10.65,103.91-26,154.43-44,3.93-1.4,5.78-3.5,6.81-7.42,9-34.63,18.25-69.2,27.38-103.8,2.83-10.73,5.58-21.47,8.61-33.17Zm-45,139.72q-16.61,5.58-33.09,11.46c-2.9,1-4.83,1.39-6-2.34-1-3-1.23-5,2.43-6,6-1.62,6.47-5.82,4.74-10.87-7.73-22.54-15.56-45-23.14-67.61-1.32-3.89-3-3.93-6.37-2.51-8.22,3.49-12.42,8.73-12.35,17.28a21.77,21.77,0,0,0,1,4.73c2,5-1.72,5.34-4.83,6.75-4.45,2-4.91-1.22-5.85-3.88-2.59-7.33-5.21-14.65-7.55-22.06-.5-1.58-2.7-3.73-.18-5.14,1.93-1.07,4.36-3.28,6.57-1.36,2.52,2.17,4.5.84,6.71.08l55.16-19c1.82-.61,4-1,5.24-2.28,7-7.7,7.55-7.71,10.77,1.45,2.33,6.64,4.32,13.42,6.91,20,1.38,3.52,1,5.37-2.84,6.36-3,.76-5.3,2.65-7.45-2-5-11-12.85-13.89-23.84-10.27-3,1-3.73,2-2.65,5.14,7.8,22.24,15.4,44.58,23.13,66.86,1.8,5.24,5.18,8.44,11.06,6.58,3.81-1.21,4.38,1,5.47,3.68,1.39,3.36-.34,4.09-3,5Z"/><path class="cls-2" d="M38.8,518.52c-6.14-16.64-9.63-33.78-12.66-51C13.05,393.23,3.42,318.6,5.14,242.93c.21-9,1.18-18,1.4-27,.09-3.91,1.72-4.81,5.27-5.06,92.34-6.68,178.41-34.72,259.33-78.58,49.67-27,93.78-61.32,127.63-107.39,3.3-4.51,6.3-9.24,9.88-14.53,2.86,4.26,5.43,8.26,8.17,12.14C445.7,63.45,483.18,95.06,525.54,121c70.37,43,146.62,70.67,227.74,85.2,15.37,2.75,30.8,5.06,46.39,5.76,5.56.25,6.76,2.29,7.07,7.36,2.76,45.62,1,91.14-1.87,136.69-2.67,41.88-9.1,83.3-14.07,124.91-.72,5.95-.93,10.09-9.46,7.2-11.35-3.84-11.82-3-9.36-15.24,15.8-78.65,18.64-158.16,16.49-238.06-.2-7.33-4.9-6-8.64-6.58-50.23-7.33-99.71-18-147.9-34C568.46,173,509.67,143.37,460.08,97.46a328.5,328.5,0,0,1-43.67-49.09c-3-4.15-4.47-4-8-.64-32.21,30.55-65,60.47-101.23,86.26-41.6,29.6-87.79,50.25-135.49,67.6C128.89,217.17,84.76,226.91,39,228.17c-5.3.15-7.62,2.06-7.59,8C31.94,325,39.59,412.9,63.92,498.74c1.41,5,.83,7.06-4.23,9.08C52.55,510.62,45.93,514.77,38.8,518.52Z"/><path class="cls-2" d="M312.13,189.7l-49.56-3.16-.2,1.23c9.7,3.37,19.44,6.64,29.1,10.16A69.49,69.49,0,0,1,318,214.46a451.19,451.19,0,0,1-50.4,2.08c-16.64-.11-32.85-3.94-49.77-4.87l33.07,15.2c-39.38,6.34-68.92,31-101.72,52.24,6.72.8,11-2.77,15.67-4.39,5.29-1.82,10.45-4.08,15.8-5.68,5-1.48,10-3.12,16-2.75-16,10.11-26.16,24.74-36.84,38.88s-18.12,30.51-26.76,47.31L42.41,233.71c12.47-1.23,24-2,35.52-3.58,55.81-7.52,108.29-25.8,158.8-50.14,15.13-7.29,30-15.21,44.78-23.13,3.4-1.82,5.14-1.91,7.54,1.51C296.28,168.67,304,178.66,312.13,189.7Z"/><path class="cls-2" d="M437.81,879.77q19.05,34.47,38.18,68.9c1.32,2.37,1.9,5.47,6.06,5.19,4.49-.3,4.7-3.64,5.67-6.49,7.65-22.33,13.82-45.18,23.55-66.77.58-1.3,1.17-2.6,2.57-5.74,3.27,15.31,6.18,28.86,9,42.41.71,3.33,1.32,6.69,2,10,1,5.22.29,9.43-6.08,10-4.22.39-3.25,3.09-3.14,5.78.17,3.81,2.42,3.32,5,3q13.77-1.5,27.56-2.9c.1.61.21,1.23.32,1.84-7.31,1.4-14.59,3-21.93,4.18-59.14,9.8-118.66,14.2-178.52,10.23-42.49-2.82-83.66-13.23-124.29-25.48-34.32-10.35-67-25.18-100-38.84-3.14-1.3-4-3.59-4.93-6.56q-17.4-57.66-35-115.24c-.77-2.5-1.79-4.93-3.58-9.82,40.76,20.6,81.68,35.87,124.32,49.29-14.78,15.12-29,29.71-43.31,44.29-5.46,5.58-10.74,11.35-16.48,16.62-5.26,4.83-10.15,10.71-18.82,8.89-3-.62-2.75,2.85-3.68,4.59-1.25,2.34.26,3.35,2.39,4.2,10.4,4.13,20.79,8.32,31.11,12.68,3.37,1.42,4-.54,5.15-2.94,1.33-2.84.8-4.13-2.09-5.54-8.83-4.3-9.21-6.1-4-14.26,7.47-11.75,7.47-11.75,20.47-6.45,17.49,7.13,17.52,7.14,16.87,26.08-.12,3.33.57,6.56-3.75,8.9-2.22,1.2-4.28,5.47,1.56,8.09,18.81,8.46,38.54,13.44,58.54,17.8,3.66.8,4.05-.77,4.78-3.33s.87-4.25-2.53-5.36c-10-3.25-10.54-5-5.93-14.61,5.53-11.52,5.53-11.52,17.63-8.65l.71.16c20.47,4.72,21.44,6,21.43,27.11a7.34,7.34,0,0,1-.14,2.84c-4.24,9-4.27,9,4.91,11.18,5.93,1.41,11.85,2.81,17.81,4.09,2.41.52,5.33,2.36,6.61-1.76.12-.36,1.12-2.48,1.15-.24.07,5.59,4.12,3.71,6.77,3.9,9.49.67,19,1,28.49,1.55,2.93.16,5.78.87,6-3.89.19-4.13-1.47-4.77-5-5-7.47-.48-8.94-2.58-7.8-9.75,2.29-14.44,4-15.8,18.53-15.06,18.11.91,18.16.89,23.39,18.37,1,3.4,3.27,6.63-.49,10.48-1.53,1.56-2.34,6.48,3.58,7,20.4,1.75,40.73,2,61-1.11,2-.31,4.18-.43,3.73-3.22-.34-2.12,1-5.4-2.76-5.75-9-.84-10.32-8.07-11.6-14.67-2-10.31-2.18-20.83-2.14-31.33V879.88Z"/><path class="cls-3" d="M302.16,790c-.52-6.12-5.69-10.45-7.17-18.25,21.12,17.8,42.87,31.82,63.68,47.18l1.7-1.13c-2.54-7-5.09-14-7.68-21.12,3.95-1.27,5.87,1.7,8,3.16,13.62,9.15,29.47,15.26,39.77,29a1.92,1.92,0,0,0,2.55.72c1-.55.6-1.62.65-2.56.37-6.85-.66-13.91,2.86-21.2,3.16,6.76,3.22,13.27,3.88,21.74,9.12-14.38,19.81-24.5,35.14-30.24-3.84,11.2-9,19.83-18.45,27.27-12,9.53-24.85,8.94-38.37,8.72-23.14-.36-46.27-.6-69.32-3.18-25.14-2.82-50.13-6.58-74.76-12.34-8.77-2-13.17-10.32-18.88-16.36-20.94-22.16-37.76-47.52-55.33-72.32a482.61,482.61,0,0,1-47.8-84.26c-2.4-5.42-1.89-7.12,4.17-8.84,13.2-3.72,25.67-9.19,33.5-21.6,1.93-3.05,3.49-1.64,4.57.88,8.91,20.81,17.34,41.75,19.82,64.56A170.15,170.15,0,0,0,188.87,702c1.39-11.52.18-23,.3-34.78,7,21.91,17.85,41.93,28.83,62.6,3.06-5.25-2.35-9.9.46-15.91,7.67,14.78,12.53,30.08,21.77,45.4.64-7.76,1.08-13.86,1.68-19.93.2-2-1.45-4.88,1.42-5.74,2.23-.67,3,2.07,4.11,3.51,14.69,20,34.21,35.16,51.91,52.14.61.59,1.7.67,2.57,1l.81.59Z"/><path class="cls-3" d="M96.59,449.55c9.94-14.77,12.14-35.07,31.14-44.57-10,23.11-17.89,46.29-35.85,64.34,11.37-1.17,19.65-8.65,30.49-14.8a91.23,91.23,0,0,0-3.22,30c.13,2.2-2,2.53-3.57,3.08-13,4.63-26.1,9.27-39.2,13.74-3.59,1.23-5.92.79-7.36-4-9.67-32-16.07-64.65-21.12-97.59-7.63-49.69-10.24-99.78-11.4-150a17.79,17.79,0,0,0-.2-3.64c-.68-2.91-3.51-6.65.44-8.33s4.75,3.36,6.41,5.57c14.46,19.2,28.91,38.43,43.56,57.46,14.51,18.84,28.88,37.8,43.68,56.43,2.44,3.07,3.1,5.54.43,9-15.44,20-22.89,43.78-31,67.22-1.71,5-3.36,10-5,14.94Z"/><path class="cls-2" d="M151,615.5c.51,4.42-3.36,5.64-5.94,7.27-7.25,4.58-15.54,6.86-23.53,9.8-1.47.54-2.78.95-3.68-.79-.78-1.51-.34-2.43,1-3.63,2.34-2.13,2.36-3.84-1.31-5-15.19-5-27.89-1.19-37.42,11.55-3.74,5-3.74,5,.48,9.72-2.92,2.81-5.41,2.15-8.12-.58C41.64,612.63,26.94,576.38,36.7,532.18c1.17-5.29,4.36-8.49,8.58-11.2,11.17-7.14,23.49-11.74,35.88-16.12,10.79-3.82,21.78-7.12,32.45-11.24,5.49-2.11,6.4-.51,6.85,4.72,2.18,24.79,4.78,49.55,7.35,75.6,2.52-12.51.43-24,1.84-35.53,2.79,1.66,2.15,4.3,2.47,6.5a327.88,327.88,0,0,0,17.2,67.84,16.33,16.33,0,0,0,1.85,2.94Z"/><path class="cls-2" d="M575.16,751.24c-3.57,16.1-5.37,32.48-7.66,48.72,2.26.94,2.73-.47,3.12-2s.91-3.29,1.21-5c5.9-32.45,26.18-56.23,47.76-79.22a4.94,4.94,0,0,0,1.08.85q-7.18,22.08-14.38,44.16c17.8-26.4,35.77-52.54,47.72-84.29a21,21,0,0,1,.07,12.54c-.35,1.19-1.2,2.47-.07,3.21,1.54,1,2.72-.2,3.52-1.52,3.64-6,7.25-12.09,11.33-18.9,6.32,8.51,12.36,16.82,18.63,25,1.86,2.41.42,4.11-.51,6-17,34.08-36.65,66.46-60.1,96.5a15.37,15.37,0,0,1-7.69,5.13c-38.22,12.89-77.67,20-117.51,25.37-4.65.62-13.69-6.6-14.86-11.47-.4-1.65.66-2.17,1.51-2.91,12.79-11.11,25.91-21.86,37.23-35.82,1.65,8-3.84,13.31-4.32,20.88l52.93-48.12A7,7,0,0,0,575.16,751.24Z"/><path class="cls-2" d="M763,615.3c2.79-1.23,5.24-2,2.73-5.55-1.91-2.68-3.85-5-6.76-6.35a68.29,68.29,0,0,0-31.8-6.7c-3.39.1-5.4,2.23-3.07,4.11,5.36,4.3.76,8.08,1.22,13.59-8.15-7.32-15.14-13.66-22.2-19.91-1.58-1.39-1.52-2.79-.89-4.56,7.09-19.83,8.09-40.49,8.43-61.26,0-.62.41-1.25,1.08-3.17,3.49,7.36,3,14.32,4.14,20.92s0,13.41,2.88,21.32c4.72-24.63,8.06-47.79,6.23-71.41-.2-2.56.74-3.49,3.15-3.69,18.18-1.52,36.55-4,54.38.9a35.09,35.09,0,0,1,25.57,27.73c5.27,27.42,2.08,53.92-15.84,76.9a57.27,57.27,0,0,1-21.07,16.56C768.74,615.88,766.38,617,763,615.3Z"/><path class="cls-2" d="M635.14,795.27a587.88,587.88,0,0,0,57-93.37c10.29-21.24,19.74-42.89,29.48-64.39,4.3-9.48,9.63-18.61,10.89-29.19.7-5.79,4.16-6.19,8.71-5.25,14.5,3,14.67,3.29,10.33,17.42-17.12,55.71-42.92,107.4-72.78,157.22a15.9,15.9,0,0,1-9.25,7.64c-11.12,3.55-22.16,7.38-33.22,11.09Z"/><path class="cls-2" d="M226.43,813.79q-15-4.5-30-8.94c-2.25-.66-3.73-2.15-5.26-3.74C146.17,754,113.66,699,88.66,639.25c-2.15-5.14-.38-7.82,3.57-10,4.84-2.71,10.14-3.1,15.59-2.47,2.7.32,3.42,2.12,4.2,4.32,15,42.28,38.74,79.7,64.41,116C192.43,769.71,208.84,792,226.43,813.79Z"/><path class="cls-2" d="M337.35,963.91c14.77,1.15,29.47,1.79,44.17,2.1,4.9.1,8.49,4.49,12.53,7.09,14.21,9.14,19.14,9.47,32.14-.62,7.19-5.58,14.51-8.74,23.77-9,12.54-.37,25-2.09,39.6-3.42-5.66,3.81-9.75,6.68-13.95,9.39-19,12.27-38.73,23.4-58.53,34.36-3.7,2-6.71,2.37-10.76.69a334,334,0,0,1-66.73-37.35C338.7,966.52,337.36,966.17,337.35,963.91Z"/><path class="cls-3" d="M691.43,691.13c-6.65-8.81-12.76-16.85-18.81-24.94-1.57-2.09-.53-4.22.26-6.25,6.07-15.58,13.91-30.56,16-47.5.74-6.2,8.61-6.9,10.22-12.81.31-1.17,2.75,1,3.9,2.13,5.45,5.45,10.41,11.44,17.09,15.52,2.73,1.67,3.58,4.08,2.3,6.88C712.25,646.17,702.06,668.13,691.43,691.13Z"/><path class="cls-3" d="M489.83,828.8c-21.12,3.69-41,3.79-60.89,4.1-1.64,0-3.86.47-4.33-1.64s1.87-2.39,3.26-3.1c13.67-7,28.37-12,41.1-20.92,1.94-1.36,3.54-1.38,5,.56C479.06,814.52,484.13,821.25,489.83,828.8Z"/><path class="cls-2" d="M604.18,883.46c-6.87,1.69-13,3.13-19,4.71-2.68.71-4.14.53-3.6-2.88,1.45-9,2.73-18.11,4.34-28.93Z"/><path class="cls-2" d="M353.21,908.54l14.22-29.87c3.35,11.08,6.32,20.9,9.5,31.38Z"/><path class="cls-2" d="M171,862.54l22.28-21c0,8.6.15,18-.09,27.44-.07,2.87-2.45,1.55-3.83,1C183.51,867.73,177.73,865.3,171,862.54Z"/><path class="cls-2" d="M257.29,892.43l19.34-27c1.37,11.45,2.55,21.37,3.86,32.35Z"/><path class="cls-3" d="M424.68,966.29c-9.56,10.81-14.62,10.87-31.52,0Z"/><path class="cls-2" d="M497.91,789l-13.12,23.8c-9.05-9.64-9.06-9.65,1.3-16.33C489.43,794.31,492.8,792.21,497.91,789Z"/><path class="cls-2" d="M151.17,615.69c1.2-9.12,2.41-18.24,3.59-27.17,8.16,11,6.77,21.61-3.75,27Z"/><path class="cls-2" d="M157.16,337.17c-5.68,6-11.34,11.94-17,17.88-1,1.05-1.73,3.41-3.87,1.5-1.82-1.62-1.67-3.1.29-4.77,6.25-5.32,11.9-11.36,18.95-15.73Z"/><path class="cls-3" d="M625.18,264c11.09,2.4,17.23,8.77,23,15.66C639.81,276.76,633.52,270.61,625.18,264Z"/><path class="cls-2" d="M721.74,455c1.65,1,1.26,2.37,1.27,3.49a139.8,139.8,0,0,1-.62,17C720.07,468.85,717,462.25,721.74,455Z"/><path class="cls-2" d="M158,334.05c.8-.76,1.73-2.1,2.66-.53.53.9-.71,1.46-1.66,1.65Z"/><path class="cls-2" d="M159,335.17l-1.81,2-1.68-1.12,2.49-2Z"/><path class="cls-2" d="M619.59,713.82c.16-.63.44-1.3,1.16-.81.24.17,0,1.08-.08,1.66A4.94,4.94,0,0,1,619.59,713.82Z"/><path class="cls-2" d="M574.17,750.36l1.14-.84-.15,1.72A6.92,6.92,0,0,1,574.17,750.36Z"/><path class="cls-2" d="M171.44,795.54h-1.78c.42-.56.85-1.11,1.26-1.68Z"/><path class="cls-2" d="M503.55,792.76l-.94-.52c.16-.17.36-.49.48-.46a4.12,4.12,0,0,1,1,.46Z"/><path class="cls-2" d="M152,331.58c-1.75.41-3,.4-1.49-1.83Z"/><path class="cls-2" d="M636.34,796.44c-.64.7-1.38,1.11-2.11.27-.11-.12.59-.94.91-1.44Z"/><path class="cls-1" d="M589.49,492.76c-14.36-63.45-43.34-120.12-79.2-173.74-2.79-4.18-4.24-2.19-6.44-.16-14.65,13.6-29.14,27.4-42.21,42.57-15.73,18.26-31.28,36.69-47.42,55.66l-3-4.19c-22.8-32.4-47.36-63.2-79.34-87.29-4.23-3.19-6.15-3.73-9.24,1.29-9.06,14.72-18.47,29.23-27,44.3-23.86,42.29-38.57,87.6-45.26,135.64-1,7.36,1.22,12.59,6.85,17.2,20,16.36,39.77,33,59.69,49.41,1.92,1.58,4.22,2.91,4.24,5.61.06,6.32,4.25,8.57,9.28,10.61,24.33,9.82,48.88,19.08,73.7,27.54a45.85,45.85,0,0,0,28.69.73c29.05-8.88,57.82-18.48,84.74-32.91,4.14-2.21,8.39-4,7.13-10.15-.6-2.89,2.17-4.12,4-5.66,21-18,38.76-39.09,57-59.73C590.14,504.45,591,499.45,589.49,492.76Zm-90-163c7.18-6.82,7.18-7,12.19,1.18,6.61,10.76,13.1,21.61,19.64,32.41,0,.6.31,1.59.07,1.72-.84.47-.86-.39-1-.93-10.44-9.43-20.77-19-31.37-28.24-3.17-2.71-1.78-3.93.46-6.1Zm-13.67,13.45c2.85-1.58,4-8.46,8.73-4.25,16.32,14.57,33,28.91,48,44.73,7.16,7.52,11.17,18.09,14.59,28.29.91.76,1.94,2,1.1,2.83-1.3,1.36-1.65-.63-2.4-1.22l-70.3-64.72c-2.43-2.2-2.43-4.13.27-5.62ZM473.5,356c2.69-1.83,3.55-8.36,9.25-3,26,24.51,52.5,48.54,78.42,73.18,7.3,6.94,7.6,17.58,10.93,26.59.54.69,1,1.41.12,2.12a10.24,10.24,0,0,1-1.17-1.11Q532.17,418,493.29,382.11c-6.62-6.11-12.94-12.56-19.81-18.34C469.78,360.66,469.91,358.38,473.5,356ZM463.21,367.4c3-5.33,5.25-1.41,7.56.73q50.85,47.19,101.71,94.35c7.66,7.07,6.77,17.21,9.61,26.31L549.2,459.17c-29.5-26.52-58.87-53.19-88.61-79.43C453.09,373.11,461.13,371.17,463.21,367.4ZM324.6,333.76c1.45-.55,2.24.54,3,1.33,24.18,23.88,53.11,42.92,72.73,71.4,1.47,2.12,3.6,3.89,4.26,9-6.57-5.44-11.77-9.7-16.92-14l-64.92-54.37C319.17,344,320.38,335.39,324.6,333.76ZM320.06,570.1C298.65,552,278.47,535,258.31,518c-5.4-4.55-2.49-10.21-2.12-17.44,21.3,19.05,41.42,37,61.49,55C321.85,559.3,319.17,564.07,320.06,570.1Zm-6.7-25c-15.94-15.38-32.64-30-49.55-44.32-6.13-5.19-7.21-10.24-3.63-17.74,25.12,22.34,50.08,44.51,75.21,66.85-8.87,3.55-15.25,1.8-22-4.75Zm33.94,4.38c-3,.48-5-.54-7.17-2.46q-37.92-33.75-76-67.36c-6.46-5.72.22-10.84,0-17.66l98.43,85.87c-6.08.65-10.71.92-15.26,1.65ZM359.65,539c-27.19-25-55.5-48.91-83.38-73.22-10.73-9.34-10.74-9.33-5.56-23.92l118.36,104.3c-11.76,2-20.5,1.1-29.42-7.12Zm28.94.37c-36.08-33-73-65.15-110-97.19-5.49-4.75-6.49-8.68-3.3-14.63,1.35-2.52,2.1-5.37,3.52-9.11l140.47,125.8c-10.58.4-20.58,4.44-30.69-4.83Zm41.57,5.86c-2.58,0-3.94-1.7-5.52-3.12L284.09,416.44c-2.59-2.29-3.56-4.21-1.76-7.39,1.55-2.73,2.68-5.71,4.36-9.36,55.83,48.4,110.92,96.19,167.81,145.53-9.5,0-16.94-.09-24.34,0Zm34-.28c-2.35,0-4-1.55-5.65-3Q375.73,470.1,292.8,398.36c-3.28-2.84-3.85-4.93-1.38-8.34,1.41-1.95,2.27-4.27,3.85-7.33L484.9,545H464.14Zm20-7C424.43,485.85,363.92,434.67,303.7,383.18a10.3,10.3,0,0,1-1.5-14.51,10,10,0,0,1,2.07-1.94c2.82-2,3.83,1.14,5.18,2.28q34.23,28.65,68.26,57.48L514,541.66c1.57,1.33,3.78,2.21,4.44,5.34-12.44.27-23.5.4-34.32-9Zm41,27.47V551.73c3.3.73,4.91,4.33,8.72,6-3.36,2.91-5.67,5-8.77,7.71Zm13.09-12.16c-2.75,2.12-4.09-1.59-5.66-2.9Q421.86,457.19,311.32,363.86c-7.69-6.49,1.4-9.5,3.05-13.65,1.76-4.45,4.36.25,5.85,1.5q111.57,93.24,223,186.7c1.8,1.51,3.49,3.15,5.31,4.77-3.69,3.68-6.7,7.31-10.33,10.1Zm15.2-15.43c-2.68,2.21-4.29-1.18-5.93-2.54q-63.3-52.92-126.42-106c-2-1.67-6.41-2.93-4.78-6.08,2-4,5.63-7.24,9-10.39,1.09-1,2.44,1,3.46,1.92q64.89,55.54,129.73,111.15c1,.9,2.24,1.67,3.44,2.56-3.34,3.7-5.58,7-8.55,9.42Zm20.39-22.59c-2.45,3.46-5.68,6.36-8.61,9.55-2-1.61-3.31-2.66-4.6-3.76Q496.82,466.35,433,411.78c-3.92-3.34-3.39-5.17-.48-8.46,6.53-7.38,6.41-7.51,13.89-1q62.1,53.79,124.2,107.65c1.42,1.26,5.42,2.12,3.21,5.29Zm5.65-6.68c-2.77,2.2-4.15-1.49-5.71-2.84Q511.26,451.85,449,397.77c-2.21-1.92-6.77-3.66-5.46-6.66,1.77-4,5.35-7.58,8.86-10.48,2-1.7,3.63,1.64,5.08,3q45.71,40.9,91.26,82l33.12,29.79c1.58,1.42,3.6,2.6,3.77,5.74-1.88,2.27-3.6,5.4-6.16,7.42Z"/><path class="cls-1" d="M589.23,556.31c-3.22.37-4.67,2.55-6.53,4-27.33,20.88-54.81,41.55-87.92,52.72-26.57,8.94-54,14.93-81.89,10.8-49.44-7.32-95.84-25.22-141.63-44.57-5.43-2.3-10.43-5.6-16.59-9,.6,2.51.9,3.88,1.27,5.24,7.85,29.41,17.18,58.51,20.15,89,.82,8.33,4.7,13.85,10.91,18.7a130.38,130.38,0,0,0,42.65,21.89C369.49,717.27,410.3,721,451.75,718c44.11-3.2,84.22-17.2,119.45-44.42,3.74-2.9,5.65-5.68,5.56-10.77-.37-20.26.79-40.43,4.58-60.42C584.22,587.12,586.59,571.81,589.23,556.31ZM573,622.1c-.47,3.18-2.92,3.63-4.92,4.73-17.52,9.67-35.41,18.5-55.14,22.83-2.12.47-5.06.73-4.32,3.66s3.52,1.79,5.62,1.29a180.28,180.28,0,0,0,42.29-15.87c4.68-2.44,9.4-4.87,14.71-7.62,0,11.3-.18,21.54.1,31.76.1,3.6-1.9,5.18-4.24,7-34.87,26.83-74.63,39.77-118.21,43-33.37,2.48-66.18-.92-98.71-7.56-21.1-4.31-41.07-12.08-58.53-25.27-5.81-4.39-10.21-9-10.32-17.28-.1-7.42-2.13-14.82-3.49-23.45,5.75,2.36,10.42,4.14,15,6.18,16.3,7.27,33.34,12.26,50.69,16.3,1.91.45,4.44,2.24,5.34-1.26s-2-3.19-4-3.64c-22-4.93-42.87-12.74-63.43-21.77-3.47-1.52-5.24-3.41-6.17-7.19-3.64-15.07-7.72-30-11.78-45.52,2.84-.55,4.38,1.36,6.18,2.11,43.25,18.3,87.23,34.7,133.51,43.22,38.51,7.09,75.28-1.51,110.8-16.86,22.18-9.57,41.33-23.7,60.54-37.89,2.09-1.54,3.83-3.77,6.91-4.19C578.59,586.67,575.69,604.36,573,622.1Z"/><path class="cls-1" d="M406.08,352.27c.09,1.45.19,3.71-1.78,2.92-2.94-1.18-8-2.83-6.57-6.31,1.68-4.15-.38-6.58-1.49-9.46-10-25.92-26.09-48.2-42.38-70.35q-4.75-6.46-9.59-12.87c-1.15-1.51-1.78-3,0-4.42,1.52-1.16,2.79-.3,3.71.94,22.8,30.62,46.45,60.74,57.72,98.13A9.33,9.33,0,0,1,406.08,352.27Z"/><path class="cls-1" d="M465.53,283.58c-.64,1.21-1,2.09-1.55,2.91-15.44,25-24.84,52.78-35.9,79.78-.46,1.13-.81,2.3-1.29,3.41-.67,1.56-1.42,3.57-3.49,2.9-2.55-.84-1.87-3.06-1.15-4.92,3.51-9.08,6.9-18.21,10.65-27.19,7.89-18.85,15.07-38,26.11-55.41,1-1.58,1.63-3.75,3.9-4C464.77,280.84,465,282.46,465.53,283.58Z"/><path class="cls-1" d="M424.34,320.14c5.15-4.69,8.84-10.84,15.88-14-4.17,10.22-8.31,20.47-12.57,30.66-.52,1.22-1.44,2.84-3.29,2-1.56-.71-1.68-2.15-1.3-3.73.32-1.34,1.5-2.65.28-4.16-2.79-.59-3.12,2.51-5.88,3.73.23-4.82.4-9.27.65-13.72.12-2.13-.38-4.9,2.32-5.57C424.3,314.35,422.69,318.61,424.34,320.14Z"/><path class="cls-1" d="M696.35,388.41c-.43-.75-2.6-.84-1.17-2.23,1.09-1.06,2-.18,2.33,1.11Z"/><path class="cls-1" d="M434.44,199.38c-.58.13-1.54.54-1.69.34-.57-.76.21-1,.79-1.27Z"/><path class="cls-1" d="M166.75,371.82c.67-.43,1.46-1.28,2.12-.26s-.51,1.25-1.17,1.6Z"/><path class="cls-1" d="M637.38,835.09a21.77,21.77,0,0,0,1,4.73c2,5-1.74,5.34-4.83,6.75-4.45,2-4.92-1.21-5.86-3.88-2.6-7.33-5.21-14.66-7.56-22.06-.5-1.58-2.69-3.74-.18-5.13,1.94-1.07,4.37-3.28,6.59-1.36,2.5,2.16,4.49.82,6.69.07q27.6-9.48,55.17-19c1.81-.63,4.06-1,5.24-2.3,7-7.69,7.55-7.71,10.77,1.46,2.33,6.65,4.33,13.43,6.91,20,1.38,3.52,1,5.37-2.84,6.36-3,.77-5.3,2.65-7.44-2.05-5-11-12.85-13.89-23.85-10.27-3,1-3.74,2-2.65,5.14,7.8,22.25,15.4,44.58,23.12,66.86,1.81,5.23,5.18,8.44,11.07,6.58,3.81-1.21,4.38,1,5.48,3.68,1.4,3.41-.33,4.14-3,5q-16.61,5.58-33.1,11.46c-2.9,1-4.82,1.4-6-2.34-1-3-1.24-5,2.42-6,6-1.62,6.48-5.82,4.74-10.87-7.73-22.53-15.55-45-23.15-67.61-1.31-3.89-3-3.94-6.35-2.51C641.52,821.31,637.31,826.55,637.38,835.09Z"/><path class="cls-1" d="M302.16,790l.57.83-.81-.59Z"/><path class="cls-2" d="M548.51,543.18c-3.68,3.68-6.67,7.3-10.3,10.09-2.76,2.13-4.1-1.58-5.66-2.89Q421.87,457.2,311.32,363.86c-7.7-6.49,1.4-9.51,3.05-13.65,1.76-4.44,4.36.25,5.85,1.49q111.57,93.26,223,186.71C545,540,546.7,541.55,548.51,543.18Z"/><path class="cls-2" d="M518.45,547c-12.51.27-23.51.4-34.33-9C424.39,485.9,363.89,434.72,303.65,383.23a10.33,10.33,0,0,1,.58-16.45c2.82-2,3.82,1.14,5.18,2.28q34.23,28.62,68.25,57.47Q445.85,484.09,514,541.66C515.58,543,517.78,543.88,518.45,547Z"/><path class="cls-2" d="M295.25,382.7,484.9,545H464.14c-2.35,0-4-1.55-5.65-3q-82.8-71.87-165.71-143.58c-3.28-2.83-3.85-4.93-1.38-8.35C292.81,388.1,293.67,385.77,295.25,382.7Z"/><path class="cls-2" d="M286.69,399.68,454.5,545.21c-9.53,0-16.94-.08-24.34,0-2.58,0-3.94-1.7-5.53-3.12L284.08,416.44c-2.58-2.3-3.55-4.21-1.75-7.39C283.88,406.32,285,403.34,286.69,399.68Z"/><path class="cls-2" d="M278.78,418.46,419.29,544.22c-10.59.39-20.59,4.44-30.7-4.83-36.08-33-73-65.14-110-97.18-5.49-4.76-6.49-8.68-3.3-14.64C276.62,425.05,277.37,422.2,278.78,418.46Z"/><path class="cls-2" d="M565.18,524.82c-2-1.62-3.31-2.67-4.6-3.77Q496.8,466.39,432.93,411.82c-3.93-3.34-3.39-5.17-.48-8.46,6.52-7.38,6.4-7.5,13.88-1Q508.49,456.12,570.57,510c1.48,1.28,5.45,2.14,3.22,5.3C571.34,518.72,568.1,521.63,565.18,524.82Z"/><path class="cls-2" d="M561.86,528.43c-3.25,3.7-5.5,7-8.46,9.43-2.68,2.2-4.29-1.18-5.93-2.56q-63.3-52.9-126.41-106c-2-1.66-6.42-2.93-4.8-6.07,2.05-4,5.65-7.24,9-10.39,1.1-1,2.43,1,3.46,1.92q64.88,55.55,129.72,111.15C559.47,526.78,560.65,527.54,561.86,528.43Z"/><path class="cls-2" d="M585.55,501.11c-1.83,2.31-3.54,5.45-6.11,7.48-2.78,2.18-4.14-1.5-5.72-2.85q-62.52-53.85-124.8-107.93c-2.21-1.91-6.78-3.65-5.46-6.65,1.78-4.05,5.35-7.59,8.85-10.49,2-1.69,3.63,1.64,5.09,2.95q45.71,40.92,91.26,82l33.12,29.79C583.36,496.81,585.38,498,585.55,501.11Z"/><path class="cls-2" d="M582.09,488.8,549.2,459.17c-29.5-26.52-58.87-53.18-88.61-79.44-7.5-6.62.54-8.56,2.62-12.33,3-5.32,5.25-1.41,7.56.74q50.85,47.19,101.71,94.34C580.14,469.55,579.25,479.68,582.09,488.8Z"/><path class="cls-2" d="M270.71,441.88l118.36,104.3c-11.77,2-20.49,1.06-29.41-7.16-27.2-25.06-55.51-48.91-83.39-73.22C265.54,456.45,265.53,456.47,270.71,441.88Z"/><path class="cls-2" d="M571.06,453.75Q532.17,418,493.29,382.1c-6.62-6.1-12.94-12.54-19.81-18.33-3.7-3.11-3.57-5.39,0-7.81,2.7-1.82,3.56-8.35,9.26-3,26,24.51,52.5,48.55,78.42,73.18,7.31,6.93,7.6,17.58,10.93,26.6Z"/><path class="cls-2" d="M362.61,547.91c-6.13.62-10.76.88-15.3,1.61-3,.49-5-.54-7.18-2.46q-37.92-33.75-76-67.36c-6.46-5.72.21-10.85,0-17.67Z"/><path class="cls-2" d="M555.86,413.63q-35.13-32.37-70.29-64.72c-2.45-2.24-2.46-4.17.24-5.66,2.85-1.59,4-8.47,8.73-4.25,16.33,14.57,33,28.92,48,44.73,7.16,7.52,11.17,18.1,14.59,28.3Z"/><path class="cls-2" d="M404.63,415.46c-6.57-5.44-11.76-9.7-16.92-14q-32.47-27.16-64.93-54.37c-3.62-3-2.4-11.68,1.82-13.31,1.45-.56,2.24.54,3,1.34,24.17,23.87,53.09,42.91,72.72,71.4C401.84,408.62,404,410.39,404.63,415.46Z"/><path class="cls-2" d="M335.39,550c-8.87,3.51-15.25,1.76-22-4.79-15.94-15.38-32.64-30-49.55-44.32-6.13-5.19-7.2-10.24-3.63-17.73Z"/><path class="cls-2" d="M256.18,500.51c21.31,19.07,41.42,37,61.5,55,4.17,3.74,1.49,8.51,2.38,14.54C298.65,552,278.46,535,258.31,518,252.92,513.41,255.83,507.75,256.18,500.51Z"/><path class="cls-2" d="M530.36,364.18c-10.43-9.44-20.77-19-31.37-28.23-3.15-2.75-1.75-4,.49-6.15,7.19-6.83,7.19-6.95,12.19,1.18,6.62,10.76,13.1,21.6,19.65,32.4A5,5,0,0,0,530.36,364.18Z"/><path class="cls-2" d="M533.82,557.72l-8.71,7.72v-13.7C528.42,552.46,530,556.06,533.82,557.72Z"/><path class="cls-2" d="M557.17,412c.92.75,1.93,2,1.1,2.82-1.3,1.36-1.65-.64-2.41-1.22Z"/><path class="cls-2" d="M572.1,452.75c.55.68,1,1.4.12,2.11a10.14,10.14,0,0,1-1.16-1.11C571.4,453.41,571.75,453.07,572.1,452.75Z"/><path class="cls-2" d="M531.32,363.38c0,.6.29,1.61.06,1.73-.85.47-.85-.39-1-.93A5.17,5.17,0,0,1,531.32,363.38Z"/><path class="cls-2" d="M571.28,631.11c0,11.31-.19,21.55.1,31.78.1,3.6-1.92,5.17-4.25,7-34.86,26.83-74.64,39.77-118.21,43-33.37,2.47-66.18-.91-98.7-7.56-21.11-4.31-41.07-12.08-58.54-25.27-5.81-4.38-10.21-9-10.32-17.28-.1-7.42-2.13-14.81-3.5-23.46,5.76,2.37,10.43,4.15,15,6.18,16.31,7.29,33.34,12.26,50.68,16.31,1.92.45,4.46,2.23,5.35-1.26s-2-3.19-4-3.64c-22-4.94-42.89-12.75-63.45-21.78-3.46-1.53-5.24-3.41-6.16-7.19-3.65-15.07-7.73-30-11.78-45.52,2.84-.55,4.38,1.36,6.17,2.12,43.25,18.29,87.23,34.69,133.51,43.21,38.51,7.08,75.27-1.5,110.81-16.86,22.16-9.58,41.32-23.7,60.53-37.89,2.09-1.55,3.83-3.76,6.91-4.2-2.84,17.86-5.74,35.56-8.4,53.3-.48,3.17-2.92,3.62-4.92,4.73-17.52,9.67-35.41,18.5-55.14,22.84-2.12.46-5.06.72-4.32,3.65s3.51,1.78,5.62,1.29a181.14,181.14,0,0,0,42.29-15.86C561.25,636.3,566,633.87,571.28,631.11Z"/></g></g></svg>