<svg xmlns="http://www.w3.org/2000/svg" viewBox="0 0 996.31 1010.49"><defs><style>.cls-1{fill:#242021;}.cls-2{fill:#fefefe;}.cls-3{fill:#ee3e36;}.cls-4{fill:#ec3e36;}.cls-5{fill:#73706f;}.cls-6{fill:#726f6f;}.cls-7{fill:#494544;}.cls-8{fill:#4f3f3b;}.cls-9{fill:#e83f37;}.cls-10{fill:#755f59;}.cls-11{fill:#7b706d;}.cls-12{fill:#4c3d38;}.cls-13{fill:#5e5956;}.cls-14{fill:#585654;}.cls-15{fill:#757270;}.cls-16{fill:#6a605c;}.cls-17{fill:#854d3b;}.cls-18{fill:#825443;}.cls-19{fill:#ee3f37;}.cls-20{fill:#ee3f36;}.cls-21{fill:#726e6d;}.cls-22{fill:#767271;}.cls-23{fill:#918e8d;}.cls-24{fill:#776762;}.cls-25{fill:#4a4846;}.cls-26{fill:#7a7674;}.cls-27{fill:#6d5f5b;}.cls-28{fill:#5c4d49;}.cls-29{fill:#e4e3e2;}.cls-30{fill:#f37d64;}.cls-31{fill:#f7a992;}.cls-32{fill:#756560;}.cls-33{fill:#75645f;}.cls-34{fill:#5d5856;}.cls-35{fill:#f27d64;}.cls-36{fill:#f17d64;}.cls-37{fill:#71635e;}.cls-38{fill:#f5f5f5;}.cls-39{fill:#6d5f5a;}.cls-40{fill:#f7f7f7;}.cls-41{fill:#fef8f6;}.cls-42{fill:#fef9f8;}.cls-43{fill:#fefdfc;}.cls-44{fill:#fefaf9;}.cls-45{fill:#4e4b49;}.cls-46{fill:#504d4b;}.cls-47{fill:#555351;}.cls-48{fill:#70615c;}.cls-49{fill:#565451;}.cls-50{fill:#5a5755;}.cls-51{fill:#989594;}.cls-52{fill:#665d5a;}.cls-53{fill:#fdfdfd;}.cls-54{fill:#fcfcfc;}.cls-55{fill:#fcfcfb;}.cls-56{fill:#fcfbfb;}.cls-57{fill:#fbfafa;}.cls-58{fill:#f5f4f4;}</style></defs><title>2a_logoaaamat</title><g id="Camada_2" data-name="Camada 2"><g id="Camada_1-2" data-name="Camada 1"><path class="cls-1" d="M996.25,806.61c-.59,4.24-5.31,3.36-8.11,4.19q-64.68,19.85-129.53,39c-6.9,2-10.14,4.43-10,12.55.51,24.18,0,24.05-23.65,28.79-51.5,10.34-103.37,18.05-155.61,23.52A27,27,0,0,0,654.63,921c-45.28,36.26-95.3,64.39-148.69,86.81a30.57,30.57,0,0,1-23.12.86C427.51,990,378.26,960.79,333.45,923.85c-7.94-6.55-15.9-10.36-26.44-11.47-50.37-5.35-100.27-13.93-150-23.8-7.32-1.46-10.14-4-10-12.06.56-23.44.12-23.44-22.46-30.27C85.69,834.46,46.71,822.73,7.83,810.76c-2.78-.86-7.39-.18-7.81-4.65-.37-4.1,3.58-5.21,6.31-6.84,17.61-10.53,35.18-21.16,53-31.37,5-2.84,5.71-5,2.58-10-12.36-19.51-24.31-39.28-36.28-59.06-1.83-3-5.47-6.52-2.69-9.87s6.66,0,9.92.92q68.45,20.6,136.89,41.27c3.44,1,6.9,2,12,3.5-20.28-39.52-36.7-78.3-49.25-118.64-1.72-5.55-4.16-7.65-9.54-4.65-14.33,8-26,4.5-37.12-7-26-27-41.21-57.32-35-96.16,2.31-14.68,9.08-23.83,22.77-29.23,7.91-3.11,19.68-2.8,22.68-10.63,2.63-6.87-1.69-16.38-2.8-24.73C80.66,345.71,79.61,247.46,84.7,149c.2-3.66,1.41-7.38,1-10.93C82.54,110.41,98.41,98.11,121,86,201.22,43,287.79,22.21,376.61,9c128.54-19.09,254.7-7.79,378.17,32.8a906.17,906.17,0,0,1,137.36,58.59c5.4,2.82,8,6.06,8.79,12.28,10.45,76.65,12.61,153.56,8.69,230.74-1.79,35.58-5.36,71-10.49,106.23-.8,5.45.53,6.92,5.18,8.22,22.92,6.42,32.6,22.18,33.9,45.48,2.71,48.3-21.65,80-64.46,85.93-3.77.53-5.66,1.94-6.83,5.73-14.64,47.77-33.29,93.91-56.9,138-.26.49.11,1.32.27,3q55.38-16.69,110.37-33.31c15.1-4.56,30.14-9.28,45.24-13.79,2.29-.69,5-2.45,7.19-.07,2.71,3,.15,5.47-1.3,7.87-12.2,20.06-24.19,40.25-36.84,60-4,6.22-2.73,8.78,3.26,12.15,17.26,9.72,34.17,20,51.17,30.18C992.42,800.82,996.87,802.1,996.25,806.61Z"/><path class="cls-2" d="M485.18,919.27A1694.73,1694.73,0,0,1,159.59,884.5c-6.45-1.33-8.23-3.84-8.18-10.12.26-36,.41-72-.07-108-.12-8.66,3.39-8.61,9.82-7.27a1653.68,1653.68,0,0,0,203.62,29.09,1659.49,1659.49,0,0,0,263.89.21A1636.64,1636.64,0,0,0,835.53,759c5.89-1.24,9.33-1.36,9.24,6.78-.44,36.36-.3,72.72-.08,109.08,0,5.71-1.4,8.37-7.47,9.6C746.06,902.84,654.13,914.59,561.14,918,535.82,918.9,510.51,919.39,485.18,919.27Z"/><path class="cls-2" d="M102.45,253.49c-15.07-10.38-16.62-25.26-16.13-42.17.94-32.28,2.41-64.48,6.41-96.54.5-4,.94-7.52,5.26-10,52.86-29.7,107.22-55.49,166.71-69.56,13.15-3.11,17.11,6.23,24.48,11.64,10.38,4.11,16.87,13,23.58,20.93,15,17.68,32.83,32.57,47.89,50,9,10.44,25.52,16,24.18,34-.07.92,2.41,1.33,3.7,2a57.91,57.91,0,0,1,9.54,5.44c3.6,2.75,9.9,4.94,7.54,10.44-1.94,4.54-7.71,2.58-12,1.95-11.95-2.07-23.92-3.93-36-5.17-11.58.68-22.75-3.31-31.76-3.18,17.11,2.2,35.28,8.72,52.27,18.58,3.46,2,7.38,5.24,5.82,9.61-1.34,3.74-6.13,3.28-9.78,3.51-19.87,1.25-39.52-2-59.28-2.83-13.47-2.42-27.27-2.44-37.95-4.87,6.28-.41,14.2,3.46,22.1,7.06,7.59,3.47,7.46,5.12.09,10.27-41.17,7.41-76.52,28.76-113,47.43,14.1-7.63,29.61-10.87,45-14.48,3.15-.73,7.23-2.38,9.16.92,2.22,3.82-2.22,5.69-4.52,7.56-23.52,19.14-43.86,41-59.33,67.28-3.32,5.64-7.26,9.89-13.68,3.6q-29.08-28.49-57.58-57.58C103.53,257.78,103,255.61,102.45,253.49Z"/><path class="cls-2" d="M469.84,782.74l-6.54-4.1c-18.93-8.23-36.15-19.67-54.76-29.15,3.32,5.48,7.28,10.34,9.5,16.14,1.1,2.86,3.87,6.24.31,8.86-2.75,2-5.62-.32-8-1.9-13.08-8.69-26.37-17.06-39.05-26.33-7.66-5.6-15.1-11.5-22.89-16.94a71.31,71.31,0,0,1-13.5-14.15,166.11,166.11,0,0,1,12,20c.81,1.65,1.35,3.61,0,5.11-2,2.17-4.06.57-5.77-.63-3.58-2.52-6.46-5.86-9.69-8.79-15.89-12.54-28.09-28.66-42.8-43.91-1.77,5.09-.28,10.09-1.13,14.74-.46,2.46-.4,5.72-3.44,6.16s-4.28-2.55-5.22-4.86c-4.4-10.89-10.66-20.9-15-31.78-3.95-9.88-9.24-19.09-13.29-28.9,3.48,8.12,5.47,16.68,7.56,25.2.62,2.5.64,5.7-1.92,6.9-3.38,1.58-4.26-2-5.23-4.06-10.24-22.26-20.8-44.42-24.68-67.32-.19,4.51,4.34,11.17-3.37,19-4.3-14.74-10.52-27-16.88-39.11-6.54-14.83-15.14-29-15.33-43.4-1.14,4.14.84,11.57-2.09,18.32-4,8.92-6.59,4.21-8.21-1.12-5.3-17.48-10-35.22-10.82-53.47-.43-9.38-2.78-18.79-.94-28.43-.13-.41-.09-.08-.36,1-3.35,13.81,1.35,27.12,2.95,40.53,1.91,15.9,5,31.75,11.59,46.55,2.37,5.36,4.2,10.89,6.46,16.29a9.21,9.21,0,0,1,.2,3.43c-9,13.05-22.47,15.23-36.83,15.36-11.52-.9-21.58,4.29-31.25,9-12.43,6.05-21.57,4.22-31.19-5.53-27.71-28.11-42.7-59.91-32.61-100.2,1.73-6.9,5.39-11.16,11.91-14.38,16.79-8.33,35-12.71,52.34-19.25a25.15,25.15,0,0,1,8.54-4.86c23.74-8.49,24.81-7.84,26.44,13.11-1-5.1,0-14.23-2.77-22.93-1.64-7.24-2.79-14.42,2.44-20.85,7.53-2.47,9.27,2.91,9.71,8.14.57,6.6,2.64,10.75,9.6,12.67,6,1.65,8.25,7,8.16,13-.12,8.07.7,16.15-.53,24.21-1.16,7.69,1.27,13.82,8.63,17.3,9,4.24,11.75,11.43,10.5,20.85-.52,4-1.34,8.93,3.25,10.74,11,4.33,12.44,13.78,13.31,23.37.59,6.53,1.76,10.93,9.67,11.89,6.6.79,10,6.18,9.36,12.89-.5,5.53,1.16,8.48,6.94,8.58,1.09,0,2.83.17,3.09.86C251.82,606.31,261,608,268.84,612c5.05,2.52,5.55,8.26,4.37,13.7-2.21,10.12.87,15.9,9.37,23.73,8.75,8.05,21.29,14.11,25.55,26.91,1.18,3.56,4.23,4.87,7.34,6.09s6.38,2.58,8,5.6c5.33,10.07,14.46,11.5,24.41,11.23,4.21-.11,9.76.08,10.39,4.26,2,13.38,17.78,14.69,21.69,26.34,1.39,4.16,6.74,3.76,10.79,3.79,13.6.12,27.19.07,40.78,0,8.13,0,13.78,2.77,17.29,10.78,3.86,8.8,15.75,9.45,21.41,1.79,12.45-16.83,16.84-16.73,31.27,1.6,7.66-20.72,25.9-12.87,40.28-15,6.28-.93,13.17,0,19.75.62,7.88.77,14.23-.25,17.65-9.14,2.38-6.18,9.19-7.19,15.08-7.14,7.71.06,15.38-1.49,23.1-.43,3,.41,7.43.55,8-2.13,2.78-13.78,18.9-15.32,23.94-27.24,2.71-6.42,10-6.77,16.51-5.72,7.85,1.26,13.41-.65,16.38-9,2.76-7.75,9.66-10,17.12-8.75,8.47,1.38,14.41-.4,17.07-9.32,1.09-3.67,3.74-6.72,7.48-7.53,9.91-2.15,11.56-9.51,11-17.59-.61-8.94,1-16,10.22-19.62,4.93-1.92,5.42-6.62,6-11,1.5-11.8,3.61-22.95,18.64-24.51,3-.31,3.91-3.06,4.52-5.63.79-3.31,1.9-7.35,5-8.14,9.6-2.44,7.65-9.25,7.87-16.21.55-18-2.1-35.89-.32-53.89.73-7.45,2.9-13.77,9.09-17.95,6.51-4.4,8.11-10.5,8.91-17.86,1.07-9.72.23-19.84,4.66-29,8.23,1.35,7.56,8,7.29,13.54-.49,10.25-3,20.3-4.56,30.45-.41,2.6-1.48,5.32-4,6.31-14.27,5.7-13.41,18.2-12.57,29.71,1.27,17.4-1.24,35.06,3.43,52.23-.11,2.52-1.34,4.67-2.2,7l-.57,4c-1.46,24.38-11.41,45.93-22.83,66.86-1.62,3-4.64,12.54-10.14,2,1-16,3-31.79,7.85-47.13-4.52,14.47-7.37,29.49-13.39,43.59-7.5,17.59-15.45,34.9-25.36,51.26-2.41,4-4.31,8.69-9.63,10-5.29-2.79-2.77-6.91-1.33-10.34a147.34,147.34,0,0,0,7.16-19.72c-2,8.94-9.82,12.31-16.11,16.95-11.33,8.35-20.66,18.54-29.25,29.55-1.92,2.45-4,6.65-7.6,4.55-3.94-2.34-1.59-6.51-.28-9.88a31.75,31.75,0,0,1,5.36-8.5c-17.68,15.83-36.35,34.32-56.87,50.78-2.2,1.76-4.67,4.78-7.59,3-3.56-2.22-1.27-6-.57-9,.86-3.75,2.2-7.41,2.06-12.17A152.36,152.36,0,0,1,590.9,758.8c-2.87,2.31-6.49,8.55-11.55,2.09.48-6.34,6.39-9.66,8.44-15.75-17.33,9.08-33.44,19.71-50.69,28.25-3.62,1.79-7.16,3.74-10.85,5.35s-7.88,5.42-11,2c-3.61-3.94,1.75-7,3.83-10a110.52,110.52,0,0,0,10.29-17.51c-11.44,5.53-21.78,10.3-31.41,16.6-11.2,7.32-11.64,7.09-16.73-5.28a4.72,4.72,0,0,0-2.24-2.79C471.34,766.66,475.59,777,469.84,782.74Z"/><path class="cls-2" d="M798.74,575.08c13.49,14,26.46,28.5,40.68,41.69,6.62,6.15,6.74,11.78,4.67,19.29-9,32.7-25.32,62.17-39.59,92.66-12.93,27.65-31,41.79-62.14,43.1-31.39,1.32-62.58,7.09-93.88,10.7-10.63,1.22-31.6-14.18-34.22-24.76-.11-.44.81-1.13,1.25-1.71,16.82-17.36,36.72-31.39,53.26-49.07,1.45-1.55,3.55-3.2,5.72-1.3,1.65,1.45.09,3.32-.21,5-2.51,14.87-9.67,28.47-11.72,43.45-.63,4.67-2.22,9.21-1.63,14,.11,1.46,2.55,0,1.09.17-.35,0-1.12-.49-1-1.08,2.17-18.67,5.88-36.37,18.36-51.89,11.32-14.08,22.61-27.73,37.84-37.65,1.94-1.27,3.79-4.4,6.58-2.26,2.61,2,1.19,4.81-.12,7-3.48,5.76-4.6,12.34-6.78,18.55-2.78,5.49-4.9,11.36-9,16.13,24-28.38,40.8-60.86,53.66-96.22,6.06,4.76,1.86,9.73,2.72,14-1.26,3.19-.77,6.45-.3,11,9.82-9.09,14-20.57,18.85-31.51a191.83,191.83,0,0,0,11.28-33C794.67,578.85,794.49,575.12,798.74,575.08Z"/><path class="cls-3" d="M291.82,44.34,282,32.65c24.9-7.45,49.23-12,73.57-16.32A813,813,0,0,1,539.71,5.45C639.53,10.69,735.29,34,826.84,74.08c20.81,9.13,40.94,19.8,61.58,29.34,5.77,2.66,8.19,6.62,8.92,12.51a1273.75,1273.75,0,0,1,7.78,229.51c-1.78,31.5-4.51,62.88-9,94.11-.72,5-1.9,10-2.86,14.95a27.13,27.13,0,0,1-15.86.07c-2.76-3.46-2.71-7.53-2.25-11.55,5.5-48.44,8.66-97,11.16-145.72,2.66-51.55.79-102.52-8.86-153.21a98.74,98.74,0,0,0-5.81-20c-1.24-5.3-5.59-7.35-9.89-9.48C783.21,75.72,701.3,47.15,614.26,34.66c-26.39-3.78-53-6.28-79.58-8.16-29.24-1.57-58.47-1.86-87.68.18-3.83,1-7.74.89-11.64,1-7.35.44-14.86-1.27-22.05,1.6-6.54,2.82-13.45,2.89-20.38,2.82-28.14,1.1-55.42,7.74-82.95,12.77-5,.91-9.81,3-15,1.63A8.09,8.09,0,0,1,291.82,44.34Z"/><path class="cls-3" d="M332.84,916.34a1764.59,1764.59,0,0,0,319,0c-12.15,12-24.1,19.6-35.69,27.47a610.88,610.88,0,0,1-115.47,61c-3.33,1.35-6.43,2.51-10.49,1.26C431.12,988,379.78,956.32,332.84,916.34Z"/><path class="cls-3" d="M460.74,778.85l9.41,7.5c-.41.87-.83,1.74-1.24,2.62-7.79,0-15.6.28-23.38-.05-78.1-3.28-155.76-10.86-232.86-24-7.5-1.28-12.07-4.78-15.83-11.53a772.51,772.51,0,0,1-58.75-133.79c-4.42-13.4-4.46-13.4,9.15-16.64,1.78-.42,3.6-.71,5.4-1.06l1.52,1c4.74,5.93,5.93,13.28,8,20.25,6.81,22.81,14.86,45.17,23.38,67.39,2.87,7.49,7.51,11.9,15.51,13.77,39.59,9.25,79.48,16.42,120.13,18.8,4.23.33,7.2,2.84,9.93,5.75,6.58,6.74,12.84,13.89,21.21,17.38-3-2.8-3.83-7.54-6-11.56-1.47-2.71-.7-5,2.76-5.59,20.69,14.34,40.77,29.55,62.13,42.92,3.44,2.15,6.64,4.32,10.76,4.85-1.19-6.64-5.61-11.41-7.93-17.16-.66-1.65-2.09-3.41-.77-5.09,1.74-2.21,4.13-1.19,6-.11C433.1,762.53,448.58,767.88,460.74,778.85Z"/><path class="cls-2" d="M849.25,751.82c-7.1,1.52-12.91,2.36-18.47,4-9.93,3-17.76-2.31-26.09-5.84-4-1.71-1.83-4-.51-6,1.79-2.74,5-2.82,7.75-3.66q74.69-22.73,149.37-45.39a63.07,63.07,0,0,1,6.5-1c-3,5.22-5.18,9.08-7.47,12.85-10.08,16.61-19.82,33.45-30.49,49.68-4.61,7-4.66,10.32,3.3,14.69,18.87,10.33,37.11,21.79,58,34.19-7,2.06-11.77,3.39-16.47,4.82-38.23,11.57-76.53,22.92-114.62,34.93-8.45,2.67-11.19,2.27-11-7.65C849.66,809.25,849.25,781.05,849.25,751.82Z"/><path class="cls-2" d="M5.15,805.27c21-12.53,39.66-24.07,58.75-34.73,7-3.9,7.1-6.72,3-13.12-13-20.3-25.27-41.08-38.46-62.74,10,0,17.83,4,25.94,6.41q60,17.85,119.89,36c3.14.95,6.42,1.74,9.28,3.26,3.42,1.82,5.23,5.6,5.57,9,.38,3.68-4.26,3.05-6.53,4.54-8.42,5.52-17.21,2.1-25.51-.09-7.54-2-10.05-1.11-9.94,7.49.32,26-.3,52-.53,78.08,0,4.35,1.16,9.31-6.52,7C96.07,832.85,52,819.51,5.15,805.27Z"/><path class="cls-2" d="M893.5,460.59c37.19,7,43,26.47,39,63.68-4.12,38.48-32.12,59.85-70.78,60.73-21.34.49-35.87-9.58-50.22-22.35-.42-1-1.13-2.14-.91-3.14,4.54-20,4.31-40.76,8.86-60.78.88-3.88,1.77-8.93,6.76-8.65,4.16.23,4.91,5.05,5.66,8.55,2.08,9.62,4.44,19.26,2.48,25.87.89-14.51,2.63-32.38-.87-50.2-.07-14.26,1.75-15.87,15.26-16.57C863.81,457,878.56,460.1,893.5,460.59Z"/><path class="cls-2" d="M796.77,558.79c-6.58-23.5-2.91-47.63-4.22-71.45-.37-6.77,5.7-9.91,11.12-12,4.47-1.7,5.84-4.05,6.19-8.75.57-7.54,2.53-15,3.63-22.48,1-6.51,2-13.15-3.82-18.32-3-7-6.22-13.19-14-16.94-7.14-3.45-8.88-10.9-7.73-19,2.64-18.55,2.19-37.19,1.07-55.84-.25-4.21-.91-8.2-5-10.29-7.83-4-9.73-11.07-11.31-18.93-2.93-14.64-5.92-17-21-16.07-9.11.57-13.87-3.08-15.31-11.78-.25-1.44-.26-4-1-4.12-11.43-2.53-12.8-16-21.9-20.37-12.34-5.9-20-16.78-28.77-26.09-5.13-5.47-9.18-9-16.59-10.14-17.15-2.57-21.64-8.2-20.47-23.49,4.11-4.57,8.92-2,13.32-1a207.71,207.71,0,0,1,72.62,32.88,21.86,21.86,0,0,1,2.64,1.84c3.08,3.37,9.59,7,6.86,11.08-3.63,5.41-9.16-.22-13.42-2.18-9.91-4.57-19.51-9.82-30.43-13,10.79,5.49,19.31,13.82,29.75,19.24a337.55,337.55,0,0,0,47.61,27.46c2.81,1.35,7.38,2.33,6.09,6.37-1.11,3.49-5.44,3.18-8.74,2.64-6.43-1-12.51-3.52-18.93-4.92,24.91,4.71,45,17.2,60.62,37.06a66.83,66.83,0,0,1,13.18,29.91c.39,2.16.5,4.73-1.78,5.88-2.62,1.32-3.87-1.24-5.17-2.82-11.78-14.41-22.47-29.74-33.34-41,14,17.16,31.62,35.4,42.44,58.65a100.67,100.67,0,0,1,8.16,28.47c.44,3,2.15,6.7-2.4,8.43-10.27-10.43-13.55-24.66-20.05-37.13-.93-1.8-1.09-4.06-2.22-5.63,1.43,6.69,0,9.14-6.83,4.13,16,20.4,28.4,42.49,35.54,67.36a22,22,0,0,1,.1,4.37c-.25,2.87.1,6.6-3,7.68-3.91,1.37-5.66-2.5-7.32-5.1-7.49-11.72-12.11-24.8-17.7-37.46a206.14,206.14,0,0,1,20.19,81.4c3.22,12.86,1.28,25.72.42,38.75-5.67-11.22-3.07-25.43-14-33.51-4.4,21.84-3.14,45.1-8.7,67.5-1,4-1.77,7.86-5.32,10.44-1.35,2.66-3,5.07-6,6l-.79-4.21c-2.92-8.64.74-17.06,1.21-25.54.68-12.39.56-24.75.77-34.31a316.78,316.78,0,0,1-2.2,47.13C800.42,553.06,801.32,557.15,796.77,558.79Z"/><path class="cls-3" d="M121.72,463.51c-20,4.91-20.5,5-23.27-15.27A1281.07,1281.07,0,0,1,86.7,248.44c0-.63.47-1.25,1.11-2.86L100,256.3c2.77,1,4.08,3.21,4.79,5.9,1.14,5.71,2.84,11.32,2.77,17.25-.63,49.05,5.58,97.58,11.43,146.12a20.51,20.51,0,0,1,1,5.2,24.75,24.75,0,0,1-.39,6.37,8.14,8.14,0,0,0,1.21,6.79c1.66,6.05,3.83,12,2.09,18.47Z"/><path class="cls-4" d="M606.67,758.89l24.07,25.26c-41.21,2.75-80.94,5.65-121.12,5.12.41-3.17,3-3.18,4.51-4.41,21.29-12.74,43.88-23.14,65.15-35.93,1.66-1,4-2.91,5.84-.55,1.69,2.15-.07,4.08-1.46,5.78-1.61,2-3.74,3.55-4.45,6.16-.69,3.17-3.62,4.95-5,7.63,6.77-3.48,13.75-6.69,19-12.24C599.79,748.89,603.75,751.34,606.67,758.89Z"/><path class="cls-5" d="M102.5,260.37,100,256.3l2.5-2.81,64.76,69.44c21.08-35.07,43-62.83,72.61-84.08-20.84,4.91-42.06,8-60.74,19-2-2.77-.25-4.2,1.12-4.94C214.9,234,249,213.9,287.94,204.4c3.17-.78,6.47-1,9.72-1.49,2.07-1.13,2.91,0,3.31,1.84a6,6,0,0,1-4.28,3.11c-26.38,6.75-51.39,17.11-75,28.71,12.07-3,25-6.3,38-9.52,3.2-.79,6.37-1.82,9.7-1.79,2.56,0,5.73,0,6.47,2.87.82,3.15-2.33,4.53-4.62,5.15-38,10.14-60.61,39.07-84.27,68.7,12-5.67,22.36-11.83,33.89-15.46,2.43-.76,5.21-1.72,7,1s-.11,5.24-2.26,6.49c-19.07,11.17-34.16,27.39-51.76,40.42a6.5,6.5,0,0,1-3.05-.46,52.18,52.18,0,0,0-9.48-11.85C144.05,305.23,127.09,288.05,110,271,106.84,267.89,103.91,264.68,102.5,260.37Z"/><path class="cls-6" d="M291.82,44.34c.71.12,1.4.26,2.09.42,8.73,3.79,14.7,11,20.49,17.92,16.75,20,36.12,37.34,54.17,56,6.1,6.32,12.61,12.25,17.67,19.5,9.36,13.43,23.52,17.48,40.08,20.31-7.57-13.28-14.06-25.79-20.95-38.1-2.05-3.66-6.5-8.63-2.61-11.67,4.82-3.78,8.63,1.93,11.09,5.62,4,5.94,11.46,9.63,11.71,17.95a6.55,6.55,0,0,1-1.15,2.63,3.17,3.17,0,0,1-1,.36c-1.11,0-1.5.33-1,.85,6.76,6.56,9,15.8,13.78,23.51,1.52,2.42,3.2,5.29.88,8.09s-5.35,2-8.17,1.23c-6.3-1.8-12.73-3.23-16.48-4.93,7.79,2.8,16.63,8.89,25.92,14.12,1.73,1,4.07,2.46,2.59,5.11a4,4,0,0,1-4.89,1.55c-14.23-5.38-30.12-5.23-43.58-13.12.34-1.92,1.27-2.89,3.32-2.08h10.52c-6.24-7.71-14.79-10.47-22.13-15-1.85-1.15-7.18-2.34-.07-4.83,4.61-1.6-.52-3.79-1.52-4.84q-42.94-45-86.15-89.83c-2.53-2.64-4.87-5.46-7.29-8.19Z"/><path class="cls-7" d="M606.67,758.89c-4.68-5.36-8.5-6.72-14.58-.52a65.76,65.76,0,0,1-24.57,15.71c1.77-6.89,6.33-9.84,9.9-13.5,1-1,1.89-1,2.65.29,5.79,1.42,8.29-3.59,11.74-6.33,11.08-8.81,19.62-20.11,29.82-34-.24,12.5-3.19,21-5.59,31.32,25.58-20.73,48.15-42.86,72.5-63.19-4.4,9.42-12.16,17-13.75,30.52,13.36-19.64,27.85-34.45,45.54-46,5.76-3.76,5.1-11.07,9.4-16.85,5.23,7.73-.4,14-2,20.28-1.68,6.68-6.28,12.41-6.88,19.53.19,5.3-1.3,8.17-7.06,4.89l10.11-23.84c-35.28,21.68-57.73,51.74-63.64,93.17-.19-22.32,5.72-43.09,14.72-65.69-21.36,17.89-38.77,36.55-59.48,51.32l-4.15-1.72c-3.54-5.3.49-9.33,2-13.66-2.72,4.14-8.42,7.9-2,13.72Z"/><path class="cls-4" d="M800.13,572.1c5.19-5.23,8.53-5.56,12.2-2.1,2.12,2,4.82,3.35,6.94,5.35C829.52,585,841.08,591,855.7,589c6.89-.93,8.27,2.26,6.11,8.32-3,8.49-5.78,17.09-8,23.75Z"/><path class="cls-8" d="M580.07,760.87l-2.65-.29,8.89-13.64c-25.79,13.76-47.89,28-72.18,37.92l-3.9-4c-1.19-9.3,9.71-12,10.69-20.41-12.41,6.77-25.73,12.07-34.55,24.06-1.05,1.42-2.26,3.26-4.36,2.74-2.56-.63-2.75-3.13-3.14-5.23-.65-3.5-.08-7.16-.83-11.39-2.93,4.32-2,9.38-5.63,12.4l-2.57-.27c.27-6.94.51-13.88,4.08-20.16,1.27-2.22,2.37-5.21,5.08-5.24,3.63-.05,4,3.58,4.75,6.26.88,3.14,1.47,6.36,2.41,10.55A227.88,227.88,0,0,1,534.64,748c-4.66,12.87-12.15,22.08-20.32,33.28,28.27-12.29,52.82-27.67,79.58-43.37C591.75,748.53,585.31,754.36,580.07,760.87Z"/><path class="cls-9" d="M472.41,783c1.26-6.81.28-14.39,7.36-20.76,3.08,8.2.83,15.8,1.77,24.13,11.5-16.56,28.4-23.14,45.68-31.92-3.71,11.32-11.31,18.24-17,26.38-8.83,10.71-21,8.51-32.61,8.38C473.75,789.18,473.67,785.5,472.41,783Z"/><path class="cls-10" d="M834.36,476.45C830.25,445.68,822.15,416,812,386.39q13.2,25.91,26.41,51.8l1.86-.29.57-12.09a3.37,3.37,0,0,1,4.56-.06,8.34,8.34,0,0,1,1.39,4.1c.18,5.51.77,12.31-5.86,13.61-6.27,1.23-8.59-4.78-10.24-10.2.37,3.38,2.77,5.91,3.31,9,1.4,7.86,6.6,9.16,13.58,9.49,10,.48,20.44-2.65,30.08,2.51l15.63.26c-4.44,4.26-10.45.13-15.64,3,5.1,3.23,11.32-.88,15.85,3q-20.71,0-41.44.07c-16.23,0-16.23,0-15.48,15.76A1.42,1.42,0,0,1,834.36,476.45Z"/><path class="cls-11" d="M834.36,476.45l2.22,0c4.52,18.24,2.15,51.43-5.47,63.8,1.08-16.85,1.35-33.6-5.73-52-8.75,25.48-4.43,51.32-13.88,74.38l-3.62-2.08c10.51-28.33,9.41-57.91,9.4-88.87,13.8,11.22,14.59,26.89,17.93,41.86C836.86,500.75,835.3,488.61,834.36,476.45Z"/><path class="cls-12" d="M460.74,778.85c-15.52-7.74-29.66-18.12-47.51-25,3.73,10.28,10.82,17.56,12.89,29.08-27.6-17-53.35-33.73-77.23-53.25a1.85,1.85,0,0,1,.25-2.5c22.93,15.62,44.83,32.76,70.14,47.53-3.72-11.9-11.3-20-17-29.54,21.41,9.51,42.48,19.18,61,33.51Z"/><path class="cls-13" d="M152.67,598c12.18-4.37,25.7-5.57,35.66-15.16,7.52-8.18,8.16-17.46,3.86-27.2-1.11-2.5-1.08,1.3-2.17,1a3.37,3.37,0,0,1-4-.83c4-8.16,1.55-17.59,5.43-26.14-.25,19.45,10.7,35.18,16.4,52.59a1.69,1.69,0,0,1,.63,1.75c-.18.6-.37.9-.56.9-4.65-2.07-8-.84-12.34,2.3C183,596.36,169.83,605,152.9,602.7l-.26-.82Z"/><path class="cls-14" d="M798.74,575.08c-7.28,18.36-11.78,37.8-21.75,55.13-4.66,8.09-8.67,16.57-16.22,24.86a40.64,40.64,0,0,1,2.11-20.61c1.53.35,1.65,1.79,2.22,2.89.52,4.42,1.63,3.72,3.54.55a218.08,218.08,0,0,0,21-47.51c2.25-7.17,4.43-14.37,6.63-21.55Z"/><path class="cls-15" d="M796.77,558.79c5.43-20.35,3.35-41.24,4.34-61.9.17-3.6,0-7.22,1.35-10.82,5.21,25.47,1.43,50.86-1.4,76.27l-4.24,2.51Z"/><path class="cls-16" d="M156.45,452.4l3,31.48c-5.56-7-3.52-15.28-5.15-23.5-11.27.34-21.34,6.19-32.4,7.28l-.15-4.15.17-.95c8.15-6.9,18.72-7.19,28.25-10.31C152.25,451.82,154.37,451.39,156.45,452.4Z"/><path class="cls-17" d="M794,762.31c-.06-3.48,2.14-6.08,4.12-8.33,3.44-3.89,6.4.4,9.45,1.47,1.48.52,4.14,1,3.47,3.24-.95,3.24-4.22,1.94-6.51,2.25C801.06,761.4,797.9,764.19,794,762.31Z"/><path class="cls-18" d="M196.44,761.76l-12.15-1.83C191.31,752.17,191.43,752.18,196.44,761.76Z"/><path class="cls-3" d="M536.39,869.16c2.33-19.26,5.28-38.47,6.79-57.79,1.08-13.79,10.7-9.54,18.28-10.54,9.62-1.28,7.28,5.91,7.54,10.74,1.52,28.54,2.6,57.11,4.34,85.64.41,6.69-1.22,8.82-8.05,9.25-7.25.45-9.73-1.71-9.62-8.8.26-17.75.09-35.5.09-53.26l-3.21,0c-2.4,18.48-5.3,36.92-7,55.47-.74,8.24-5.68,6.49-10.58,7.1-5.79.73-8.52-.92-9.54-7.07-2.91-17.6-6.44-35.11-10.75-52.51,0,17.15-.22,34.3.12,51.44.12,6.26-1,9.32-8.3,9.21-6.55-.1-7.85-2.52-7.8-8.45.25-29.73.1-59.45.13-89.18,0-3.89-.86-9.45,5.48-7.8s16.32-6.5,18.83,6.15c4,20.1,7.74,40.25,11.59,60.39Z"/><path class="cls-19" d="M418.05,905.64c-8.86,1.58-12.35-2.56-11.52-10.94,1.09-10.92-7.38-8.1-13.2-9.5-6.57-1.57-9,1-10.28,7.31-1,5-.06,12.13-10,10.6-7.73-1.2-9.25-2.71-7.11-10.65,7.58-28.24,14.73-56.63,20.8-85.23,2.44-11.52,9.56-8.16,16.31-8,6.49.13,11.43.58,12.25,9.73,2.67,29.51,6.47,58.91,10,88.33C426.07,903.27,426.33,908.09,418.05,905.64Z"/><path class="cls-20" d="M429.34,905.4c6.5-32.51,13-64.81,19.38-97.15,1-5.3,3.43-7.7,9-6.75a38.25,38.25,0,0,0,9.81.74c5.5-.52,7.88,1.64,8.69,7,4.49,30.07,9.25,60.1,13.79,90.16.53,3.54,2.94,9.07-4.32,8.16-4.89-.61-13.4,4.09-13.37-5.92,0-13-7.16-14.49-17.49-13.38-3.88.42-6.56,1.29-6.53,5.5C448.38,907,440.75,908.35,429.34,905.4Z"/><path class="cls-19" d="M299.24,894.3q13.9-48.21,27.82-96.6c1-3.38,2.5-4.92,6.21-4.36a79.75,79.75,0,0,0,12.05.91c5.78,0,8,2.15,8.4,8.35,1.81,30,4.25,59.89,6.3,89.85.26,3.78,2.82,10.12-5,8.83-5.07-.83-12.92,2.36-12.91-8.39,0-11.86-6.33-15.71-18.28-13.63-3.52.62-4.28,3-4.5,5.25C317.93,898.36,309.89,898.52,299.24,894.3Z"/><path class="cls-20" d="M605,798.78c9.67-3.23,12.91,1.4,14.95,10,6.47,27.41,13.77,54.62,20.52,82,.87,3.53,5.55,9.21-2,10.34-5.5.83-13.16,4.91-15.66-5.67-2.57-10.86-9-13.9-19.4-10.58-6.43,2.06-4.92,7.9-4.78,12,.39,10.9-8,7.92-13,8.13-8.35.34-3.73-6.14-3.39-9.56,2.75-28,6.4-56,8.48-84.14C591.5,800.71,594.82,796.44,605,798.78Z"/><path class="cls-19" d="M675.47,890.1c3.38,9-5.09,7.29-10.66,8.77-7.57,2-7.26-3.16-7.76-8-2.46-23.66-5.18-47.31-7.41-71-.61-6.48-1.91-10.58-9.66-8.68-6,1.47-8.78-.11-9.57-7.34-.89-8.12,3.31-7.8,8.6-8.3,11.66-1.1,23.35-2.19,34.91-4,6.74-1.05,7.75,2,8.53,7.59.82,6-1,8.41-6.7,8-9.06-.7-9.9,4-8.89,11.54C670,841.91,672.52,865.2,675.47,890.1Z"/><path class="cls-21" d="M314.31,189.66c22.76-.27,45.45,4.51,71,1.43-23-18.22-48.77-22.37-73.67-28.75l.48-2.76,45.48,4.23c.17,3.07-2.06,3.36-4.2,3.68-.86-1.13,0-.2-1,.1-1.37.42.4-.12.28.21a80.26,80.26,0,0,1,32.42,15.45c2.93,2.25,5.85,5,4.52,9.22s-5.47,4.64-9.08,4.66c-16.46.12-32.94,1.2-49.38-.67-6.32-2.7-13.86.66-19.78-4C311,190.15,311.38,188.57,314.31,189.66Z"/><path class="cls-22" d="M314.31,189.66l-2.83,2c-4.76,5.17-9.06-.16-13.4-.37,4.06,1.73,8.71,2.62,12.91,4.61,2.65,1.25,5.41,3.22,4.7,6.52-.6,2.75-3.71,3.27-6.19,3.68-3.09.5-6.43,2-9.06-1.22l-2.78-2,7.07-3a185.63,185.63,0,0,0-39.53-13.38l.63-3Z"/><path class="cls-23" d="M352.93,166l4.65-2.21c12.85,1.26,25.76,2.06,38.23,5.8L393.12,172C378.9,175.54,365.56,173.16,352.93,166Z"/><path class="cls-2" d="M352.93,166l40.19,6c15.73,2.42,31.18,6.06,47,9.9l-37.51-21c.17-.5.33-1,.5-1.5l34.76,8.91-21.64-40.68,7.73,7.21c10.6,4.69,15.61,15.09,22.48,23.27,5.29,6.3,12.37,7.33,18.64,10.29,4.7,2.23,7.65-2.59,8.75-7.3a107.89,107.89,0,0,0,2.82-20.57c.09-2.42.42-5.53,3.87-5.66,2.41-.09,3.8,1.94,4.83,3.91,1.71,3.28,2.38,6.87,3.14,10.46,2.3,10.81,2.18,10.43,12.66,5.9,8.37-3.63,14.95-10.57,24.12-12.58,1.48.38,2.93,1,3.16,2.65,1.21,8.46-8.73,22.62-18.24,25.68,4.76,1.34,7.28-2.36,10.4-4,16.3-8.42,33.79-14.39,49.47-24.12,3-1.83,7.15-4.49,9.92-.87,2.4,3.13-1.34,6-3.42,8.36-2.44,2.78-4.45,5.83-6.6,8.82-1.8,2.64-4.83,4.23-6.65,8a211.26,211.26,0,0,1,63.66.09,116.16,116.16,0,0,1,33.56,10.1c3.94,1.92,9.09,4.6,7.68,9.41-1.5,5.12-7.29,3.88-11.52,3.14A178.38,178.38,0,0,0,636,187.5c-11.66-4-23.73-.92-33.53-2,3.34,0,8.73,0,14.14,0,11.21.19,22.57-.49,32.19,6.94,3.13,17.79,6.44,21,25,21.54,6.29.2,10.78.94,11.15,8.33a4,4,0,0,0,1.4,2.91c11.8,6.31,16.53,20.63,30.68,25.08,8.81,2.77,7.71,19.81,21.6,18.66.19,2.91.14,5.87.6,8.74,1,6.31,3.81,10.18,11.2,8.1a21.08,21.08,0,0,1,8.61-.63c11.78,1.8,15.87,6.78,17.37,22.65.55,5.72,1.83,10.56,7.36,12.18,7.65,2.24,8.35,7.2,8.44,14.06.27,19.83,1.93,39.61-2,59.36-1.32,6.74,2.72,13.55,9.08,14.6,11.87,2,10.53,9.78,10.34,17.76,1.42,12.17-2.74,23.95-2.53,36.07.06,3-1.42,8.23-3.35,8.85-17.25,5.55-15.52,21.25-15,33,.61,15.34.46,30.71,1,46.05.12,3.51,2.06,6.16,3,9.83-9.11.82-18.39,1.32-15.48,14.94.7,3.27-4.11,3.67-7,3.32-11.07-1.34-13.69,6.17-15.5,14.51-.84,3.9-2.46,8.11-1.73,11.78,1.27,6.41-2.83,7.45-6.89,8.63-7.19,2.08-10,5.73-8.28,13.76,2.56,11.63-1.64,18.2-13.3,22.67-4.56,1.75-6.06,5.48-6.69,9.31-1.58,9.59-8.11,10.41-15.42,8.87-9.9-2.07-16.82-1.76-19,10.93-1.34,7.76-9.63,8.35-16.2,6.67-10-2.54-13.26,2-19.47,9.67-6.93,8.61-14.85,18.06-23.77,24.63-5.61,4.14-16.52.26-25.14.84-8.85.59-17.62-1.15-19.41,11.3-.72,5-5.18,5.32-9.52,5.27-16.28-.18-32.55-1.5-48.86-.13-8.75.73-16.53,1.48-14.54,13.59.81,5-2.49,4.45-5.32,2.74-4-2.4-5.18-7-7.39-10.73-2.5-4.23-6.24-5.67-11.13-5.58-5.27.09-7.15,3.43-7.93,7.54-2.12,11.16-10.35,10.09-18.63,10.31-7.81.21-9.9-3.34-10.66-10.44-.66-6.12-6-7.45-11.7-7.39-15.05.14-30.12-.22-45.17.16-7.06.18-12.29-.89-13.6-9-.32-2-1.69-5-3.24-5.48-8.66-2.93-15.95-6.32-15.14-17.61.17-2.46-3.92-4-6.23-3-7.34,3.28-13.5-.7-20.09-2.31-2.15-.53-4.95-.47-5.5-2.88-2.08-9-8.75-11.7-16.7-13.15-1.1-.2-2.82-1.92-2.75-2.83.72-9.9-4.63-13.84-13.61-14.91-1.44-.17-3.67-2.11-3.8-3.42-1-9.17-6.28-11.92-14.8-14.63-7.29-2.31-4.29-12.29-3.54-18.46,1.84-15.32,1.75-16.17-14.14-18.13-1.77-.21-5-1-5-1.22,1.14-12-9.09-10-15.43-13-3.21-1.53-.79-4.41-.15-6.77,2.45-8.95-1.92-15-10.75-13.1-7.13,1.51-7.85-1.58-7.33-6.64.65-6.39-1.79-12.28-2.31-18.45-.38-4.57-2.87-8.51-7.1-8.56-11.28-.16-9-8.3-8-14,2-10.38-.3-16.81-11.06-20-7.62-2.25-10-10.19-8.47-16.07,2.29-8.86.11-17.45,1.39-26.09,1.06-7.22-1.94-12.6-10.06-12.42-7,.15-7.49-3.72-7.52-9.11,0-5.1,2.19-11.69-6.12-13.07-2.23-2.45-1.07-4.26,1.1-5.89,18.68-5.72,18-5.73,18.56-26.49.29-11.56,2.57-21.31,12.58-31.62,10.45-10.77,18.23-18.1,33.22-15.32,2.06.39,4.46-1,5.84-2.69,5.87-7.33,2.27-15.51,1.44-23.25-.59-5.36-3.72-9.58-10-9.88-4.72-.22-9.27-1.28-9-7.19.23-5.32,3.45-9.18,8.9-9.59,9.55-.71,11.1-6.12,10.28-14.36-.89-9,1.45-16.86,10.92-20.66a4.05,4.05,0,0,0,1.87-1.11c7.34-11.49,16.92-17.82,31.42-17.26,5.43.21,7.46-6.82,7-12.18-1.65-18.14,4.65-22.76,23.36-23.5,7-.28,11.22-3.09,12.87-9.51,1.94-7.56,6-10.58,13.61-7.61,16.81.08,33.61.18,50.42.21,2.5,0,5.69.38,6.68-2.51s-2-4.38-3.93-5.88c-12-9.37-26.06-14.38-40.34-20.12Z"/><path class="cls-24" d="M207.69,584.83l.21-2.56a111.47,111.47,0,0,1,16.37,37.05c2.89-10.21-2-18.92,1.1-27.69,5.14,28.89,17.75,54.89,31.22,80.8l-10.27-39.08,2.64-.94,34.32,73.53,1.51-.17V681.46c17.15,16,32,33.24,49,48.44a2.45,2.45,0,0,1-3.51.2l-7.08-4.58c-10.33-3.72-15.66-12.89-22.38-20.56-3-3.48-6.43-6.64-9.9-10.82-1.41,5.84-.33,10.6-.87,15.25-.39,3.48.63,8.4-3.88,9.22-3.54.64-5-3.69-6.53-6.51-6.91-13-12.33-26.57-17.66-40.21-.24-1.49-1.82.35-.51-.31.17-.09.39.11.52.61,1.32,5.31,4.43,10.11,4.5,15.79,0,1.9-.21,3.81-1.95,4.84-2.22,1.31-4.24.25-6-1.21a16.4,16.4,0,0,1-3.91-5.27,384.63,384.63,0,0,1-22.78-53.56c0-1.56-1.8.16-.46-.43.27-.12.5.17.57.89.91,10.21,2,20.4,2.62,30.63.14,2.42-.16,5.78-3.2,6.25-3.34.51-3.83-3-4.45-5.24-2.72-9.92-3.31-20.24-5.51-30.29-3.07-14-6-28-13.36-40.58C206.35,591.14,205,588,207.69,584.83Z"/><path class="cls-25" d="M765.1,637.35l-2.22-2.89V621.73c-14.44,38.9-33.27,73.22-59,103.6,1.29-9,6.09-16.41,9.93-24.24,4.11.91,5.54-2.06,7.06-4.89,21.33-28.65,34.73-61,44.73-95,1.37-4.67,1.4-9.9,6.56-16.68C771.5,604.42,767.5,620.79,765.1,637.35Z"/><path class="cls-26" d="M186.07,555.82l3.78,0c4.34,8.64,3.78,16.9-1.91,24.76-13.67-28-18.75-58-20.92-88.51a30,30,0,0,1-.89,2.88c-.69,1.78-1.8,3.14-5,3.38,2.74-11.95,3.39-24.08,11-34.45-5.83,33.94,1.81,66,11.66,98C187.09,560.19,185.3,557.64,186.07,555.82Z"/><path class="cls-27" d="M158.83,427.83c-1.62,1.2-1.54,2.88-1.28,4.6-2.16,6.56-2,13.25-1.1,20l-3.8,2c-5.67-9.5-1-19,0-29.19-11,7.44-21.49,15.48-34.69,18-3.91-1.52-2.18-3.24-.17-5,7-8.36,11.88-19.27,24.52-21.15a4.81,4.81,0,0,1,.24,4.17,20.32,20.32,0,0,1-1,1.87c6-5.07,13.09-10.62,19.6-16.88,1.78-1.7,4.14-3.82,6.68-2.24s1.62,4.71.47,6.89C165.28,416.68,164.16,423.45,158.83,427.83Z"/><path class="cls-28" d="M330.24,730.1l3.51-.2,11.67,9.77,1-.58q-8.81-15-17.63-29.91l1.3-.81,19,18.77c-.09.83-.17,1.67-.25,2.5-4.44,5.61,1.92,8.06,3.65,11.72s4.61,7.15,6.22,11.5C347.61,747.27,338.66,739,330.24,730.1Z"/><path class="cls-29" d="M187.94,580.55q1-12.39,1.91-24.76c.26-1.74.52-3.48.83-5.59,11.65,17.16,11.18,22.95-2.35,32.66Z"/><path class="cls-2" d="M163.84,545.63c-6.24-6.18-4-12-4.45-17-.62-6.94,2.69-14.08-1.7-21-.89-1.41-2.37-6.41,2.62-6.59,3.57-.12,3.51,3.09,3.52,5.66C163.87,519,163.84,531.28,163.84,545.63Z"/><path class="cls-30" d="M877.66,454.24c-11.64.14-23.3-.05-34.92.54-6.86.35-9.91-2.31-10.93-8.9-.93-6-2.71-11.91-4.18-18.15.87.27,1.53.27,1.8.6,3.82,4.54,4.2,14.44,11,13.24s2.15-10.53,4.6-15.72c-4.07-3.6-4.43-9-6.46-13.55.22-14.52.68-29.09-5.48-42.8-3.62-8.08-4.56-16.42-5-25.35-1-18.3-10.56-33-24-45.12a108.7,108.7,0,0,0-24.28-17c8.66-8.41,17.63-3.69,26-3.86-15.94,0-29.29-7.34-42.44-15.15-5-15.57-17.78-24.78-28.79-35.44l.06,0a154.68,154.68,0,0,0-46.74-26c-5.5-1.89-10.09-4.84-13.09-9.42C664,175.69,646.68,172.4,629.36,169c-18.49-3.65-37.21-1.92-55.85-2.11-2.8,0-6.38,1.94-8-1.31-1.91-3.86,2.52-5.39,4.27-7.88,6.89-9.27,13.53-18.77,22.06-26.7-9.09,9.29-21.9,12.13-32.67,18.59-9.66,5.8-20.45,9.58-30.47,14.81-2.11,1.11-4.69,3.65-6.93,1.52-2.79-2.65.23-5.42,1.41-7.8,3.24-6.51,6.46-13,7.58-20.06-1.47,1.62-3.2,3.58-5.81,4.3-8,4.47-15.41,9.84-23.69,13.81-11.53,5.52-11.66,5.69-14-6.31-.77-4-1.93-7.79-2.92-11.68-.82-3.2-2.79-5.93-4-9.15-3.58,9.82-2.68,20.13-4.6,30-1,4.95-1.8,9.37-7.57,10.69-6.43,1.47-8.53-3.49-10.39-7.64-7.42-16.49-17.74-31.21-26.1-44.34-2.23-3.15-3.14-1-2.13-2,.21-.22.53,0,.91.53,8.1,12.22,16.27,24.41,23.07,37.42,1.81,3.48,5.29,8.22,1.43,10.94-4.66,3.26-6.09-2.85-8.57-5.59-7.83-8.68-15.76-17.27-22.34-27-5.12-9.11-12.45-16.28-19.16-24l-2.27,1.6,28.42,52.64c-20.61-3.2-37.22-9.28-50-25.88-11.33-14.75-25.91-27-38.85-40.52C326,79,310,61.82,293.91,44.76c26.83-5.15,53.52-11,80.65-14.61a96.93,96.93,0,0,1,18.54-1c-.21,1.25.28,3.21-2.2,2.14.36,2,1.53.62,2.3.49,46.14-7.67,92.55-8.64,139.14-5.72,58.3,3.66,115.79,12.15,172.21,27.67,55.7,15.33,109.15,36.4,160.82,62.11,3,1.47,5.85,3.08,8,5.72,9.62,17,10.92,36.24,13.08,54.82,3.94,33.79,6.32,67.87,4.47,101.91-2.23,40.84-3.1,81.79-8.2,122.47C880.48,418.55,879.31,436.42,877.66,454.24Z"/><path class="cls-31" d="M873.35,121.6C845.54,109.48,818.41,95.87,790,85.1c-53.4-20.23-107.81-36.32-164.3-45.47-33.89-5.49-67.9-8.48-102.08-11.29-32-2.64-63.57.24-95.32.92-14.48.31-28.92,2.91-44.62,4.6,2.94-4.18,7.68-1.28,9.44-4.67,6.68,0,13.4.33,19.75-2.39C420,24,427.79,27.41,435,24.85l10.84-.37c30.2-1.59,60.41-1.47,90.61-.06,94.72,4,185.47,25.43,272.49,62.77,19.18,8.24,38,17.42,56.85,26.32C869.23,115.14,873.89,116.07,873.35,121.6Z"/><path class="cls-30" d="M536.45,24.42l-90.61.06c2.27-2.52,5.32-2,8.17-2q36.56-.06,73.12,0C530.31,22.51,533.76,21.79,536.45,24.42Z"/><path class="cls-30" d="M435,24.85c-7.11,3.69-14.75,1.51-22.15,1.95C419.93,22.64,427.59,25.21,435,24.85Z"/><path class="cls-30" d="M207.69,584.83c9.54,19.44,15.42,40,18.83,61.31,1.2,7.49.81,15.32,5.44,25.4.2-17.07-3.45-31.08-1.64-46.75,11.15,23.34,18,47.41,32.74,67.56,1.12-9.47-3.05-17.78-2.61-27.25l24.79,52.39,2-.47v-30.9l35.9,39.4c-38.09-.53-75-9-112.32-15.49-19.11-3.31-27.42-12.93-33-30.25-8.32-25.68-17.28-51.16-24.9-77.08,18.65-4.21,36.89-9.22,49.1-25.88Z"/><path class="cls-32" d="M763.35,260.47c14.53,10.48,30.44,16.77,51.34,15.2-11.37,8.36-22.5-.69-31.18,6.19,10.88,7.5,22.92,14.93,31.48,26.62,10.44,14.26,17,29.48,15.21,47.6-.2,2,.84,4.24,1.71,6.18a99.49,99.49,0,0,1,8.45,50.29c-6.17-4.13-6-9.85-4-16,0-27.06-13.56-48.49-29.2-68.85C798,315.73,788,304.39,779.24,292.07c19.24,14.36,30.83,35.46,48.84,54.83-10.09-46.11-42.25-64.3-81-75.83,12.49-2.09,22.65,8,35.68,4.1-19.48-9.53-38.38-18.85-55.36-31.46a2.63,2.63,0,0,1,1.9-2.11c12.79,2.61,22.19,11.67,33.26,17.55C762.83,259.59,763.09,260,763.35,260.47Z"/><path class="cls-33" d="M571.36,156.83c-.81,3.12-4.91,4.38-4.75,8.78,15.4,0,30.67-.43,45.91.12,16.5.59,32.64,3.54,47.59,11.11,2.6,1.31,5.77,2.4,7.42,4.55,12.26,16.05,30.69,22.28,47.6,31.16,7.15,3.75,15.4,7,19.51,15-18.26-10.35-36-21.76-56.35-27.87-9.72-2.92-19.31-6.41-29.54-7.23-10.72-3.19-21.76-4.21-32.83-5,6.08-5.81,13.17-2.27,19.89-2.13,10.62-.68,21,1.8,31.74,1.24C632.93,163.3,594,167.4,553.33,170.67l15.23-14.08A1.63,1.63,0,0,1,571.36,156.83Z"/><path class="cls-34" d="M836.35,396.53c3.32,4.84.1,11.32,4,16,1.92,4.31,4.51,8.38,4.69,13.3l-4.21,0c-8-27.15-24.33-50-41.6-74.84,8.92,1.26,10,7.3,14.19,10.71,1.77-5.48-4.36-9-2-17.14Z"/><path class="cls-32" d="M734.58,227.54c13.79,6.09,22.06,18,30.56,29.5.83,1.13-.32,2.72-1.79,3.43l.1.07c-13.9-11.78-30.05-20-45-28.06,2.61,3,9.5,3.15,10.21,9.73l-1.22,1.5L693,221c.45-.83.9-1.67,1.34-2.51,17,3.77,32.27,12.38,50.57,21.17Z"/><path class="cls-30" d="M102.5,260.37c22.52,22.06,45,44.18,67.64,66.09,2.63,2.54,1.62,4.38.58,6.73.9,6.18-5.36,8.45-7.17,13.15a24.85,24.85,0,0,1-1.83,2.57c-16.55,20.74-28.24,44.12-37.61,68.79-1.5,3.94-1.8,8.81-6.81,10.53-4.92-11.56-4.85-24.15-6-36.21-3.55-38-8.36-76-7.25-114.36C104.24,271.92,103.06,266.13,102.5,260.37Z"/><path class="cls-35" d="M117.93,443.29c12.46-8,26.3-13.65,39.63-26.23-3.73,14.58-5.39,25.88-4.91,37.38l-30.76,8.13Z"/><path class="cls-36" d="M142.3,415.92c-8.9,6.69-14.42,17.07-24.54,22.41l-.21-6.19c5.71-12.26,9.51-25.51,18.6-36A128.58,128.58,0,0,1,149,382.86c2.95-2.7,6.08-8.26,10.52-4.67,3.95,3.18.4,8.07-1.37,11.93-3.18,6.9-7.05,13.48-9.76,20.61C147.09,413.32,145.44,415.49,142.3,415.92Z"/><path class="cls-37" d="M137.51,397.73q-10,17.2-20,34.42c-.08-1.31-.17-2.62-.25-3.92,9.3-25.91,20.25-51,36.47-73.48,2.26-3.13,3.42-7.49,8.16-8.2,2.49,5.57-2,8.9-4.34,12.73-7.09,11.49-15.91,22-19.22,35.57A8.34,8.34,0,0,1,137.51,397.73Z"/><path class="cls-2" d="M137.37,395.18c-4.48-3.46-.27-6.43,1.07-8.81C146,373,154.05,359.8,161.93,346.55l-.25.05a64,64,0,0,1,11.88-13.09A317.51,317.51,0,0,1,227,288.79c-16.26,3-30.27,10.84-44.82,17.86,23.72-35.14,49.67-67.45,93.14-80.22L213.22,241c27.14-17.06,55.79-30,87.22-36.13l16.21-2c-7-6.86-15.94-7.27-23.31-12,6.57-2,12.27,1.88,18.14.79,6.56,1.58,13.59-.41,19.94,2.67-6-.76-10.43,1.43-11,7.73-1,11-7.45,13.68-17.18,12.21-1.75-.26-3.63.27-5.45.45-11,1.06-14.59,6.78-13.14,17.77,1.9,14.3-3.88,19.77-18,18.66-7.18-.56-13.09.31-14.93,8.82-.95,4.36-4.5,7-8.43,8-11.09,2.92-10.86,11.19-9.72,19.75,1.44,10.87-1.38,14.59-12.74,14.94-5.4.17-7.43,4.12-7.62,7.82-.28,5.84,4,4.41,7.77,3.34,4.65-1.31,7.22,1.26,9.62,5.2,5.56,9.14,4.57,19.32,3.7,28.8-.74,8.17-9.09,10.81-16.13,8.86-11.57-3.2-19.46-2.12-21.62,11.43-.2,1.3-1.24,3.15-2.32,3.53-19.37,6.73-14,22.43-12.78,36.13,1.4,15.62-2.55,19.53-22.62,20.08.61-8.65,6.4-15.18,9-23.51-10.49,8.91-20.05,19-33.13,25.42,1.48-5.64,8-7.88,7.6-13.81l4.07-4.53c4.8-11.8,12.75-22.18,15.52-34.94.71-3.27,3.71-5.32,6.29-7.41,15.54-12.64,31.51-24.64,40.92-29.53C188,351.33,161.47,371.66,137.37,395.18Z"/><path class="cls-38" d="M200.79,303.45q-10.69,9.92-21.4,19.83c-1.61,1.49-3.19,3.18-5.38.67s-.55-3.94,1.08-5.54C182.34,311.29,190.62,305.9,200.79,303.45Z"/><path class="cls-37" d="M173.56,333.51c-3.48,4.8-6.41,10.1-11.88,13.09,0-6.46,6.17-8.84,9-13.41Z"/><path class="cls-39" d="M424.08,132.05l29.2,32.42,2.45-1.47c-7.64-19.16-21.43-35.15-30.08-53.89a180.65,180.65,0,0,1,26.73,38c2.58,4.85,5.28,9.65,7.66,14.6,1.82,3.8,3.49,7.66,8.73,6.1,4.71-1.39,5.22-5.55,5.71-9.66,1.35-11.18,2.79-22.35,4.53-36.27,7.9,12.91,8.24,25.24,12.22,36.82,12.55-3.82,22.5-12.23,33.84-17.94a1.55,1.55,0,0,1,.63,1.53c-.11.55-.25.83-.41.83-9.62,8.09-21.07,13-32,18.82-4.46,2.37-5.14,1.22-5.8-3.41a66.12,66.12,0,0,0-7.2-21.94c-1.1,8-2.08,15.94-3.34,23.88-1.68,10.65-6.79,12.43-16.81,9.25-18.18-5.76-24.48-23-36.18-34.94Z"/><path class="cls-40" d="M611.34,754.39c-6.61-1.52-11.25-3.66-3.88-10.48,2.6-2.41,4.79-5.27,7.79-8.63,1.46,7.59-2.87,13-3.89,19.05Z"/><path class="cls-41" d="M398.63,824.91c3.85,14.35,2.91,27.59,5,40.43.33,2,1.28,5-1.73,5.31a31.09,31.09,0,0,1-10.78-.77c-3.79-1-1.78-4-1.26-6.3Z"/><path class="cls-42" d="M461.93,830.82c1.85,12.88,4.41,25.71,5.28,38.66.51,7.63-6.53,2.91-10,3.67-5.1,1.11-4.8-2.53-4.08-6.15,2.33-11.85,4.52-23.73,6.76-35.6Z"/><path class="cls-43" d="M337.75,820.94c.65,10.07,1.42,20.13,1.94,30.2.76,14.92.68,14.92-14.75,12.55q5.81-21.53,11.58-42.9Z"/><path class="cls-44" d="M606.05,824.68c3.11,13,6.16,26.08,9.37,39.08,1.51,6.12-2.84,5.49-6.33,5.68-3.76.21-8.36,1.9-7.6-5.28,1.4-13.08,2.23-26.21,3.3-39.33Z"/><path class="cls-45" d="M486.16,387.22c29.64-29.53,58.44-59.26,89.18-87,16.85-15.18,17-15.2,30.16,3.06,30.69,42.64,58.16,86.94,75.15,137.23,6.51,19.31,6.09,33.74-11.44,47.74-18.82,15-34.08,34.37-54.34,48-1.19.8-3.2,1.92-3.14,2.78.77,12-9.46,12.48-16.63,15.33-27.15,10.8-53.61,23.81-82.75,28.71-17.87,3-35.77,2.78-53.23-3.15-23.22-7.88-46.47-15.69-68.91-25.65-2.88-1.28-7.68-1.48-7.79-5.12-.29-9.74-8.14-12.33-14.25-16.58C348.61,519,329.05,505.36,309.29,492c-6.09-4.11-8.41-8.42-7.33-16.32C311,409.57,338.67,352,381,301c4.45-5.36,7.32-4.87,12.35-1C427.12,325.89,460.82,351.83,486.16,387.22Z"/><path class="cls-46" d="M300.31,532.17c38.63,21,75.8,37.14,115.49,46.75,87.48,21.2,170.14,12.4,245.48-40.37,6.29-4.4,12.05-9.57,18.08-14.34,1.55-1.23,2.77-3.81,5.36-1.75,1.94,1.54.61,3.1,0,4.83-10.74,31.26-12.15,63.91-14,96.45-.37,6.52-2,10.62-7.87,14.12-52.5,31.28-109.12,48.06-170.29,47.25a328.63,328.63,0,0,1-150.71-38.53c-6.53-3.45-10.09-7.38-11.35-15.54A358.29,358.29,0,0,0,300.31,532.17Z"/><path class="cls-47" d="M476.58,327.39C471.66,324.3,464,325,469,315.83c.93-1.71-2.31-5.85-3.88-8.72C450.71,280.92,432,258,412.4,235.6c-2-2.3-7.87-4.55-3.85-8.28,2.95-2.73,5.23,2.49,7.08,4.57,21.19,23.86,41.59,48.34,55.91,77.16C474.17,314.35,477.94,319.62,476.58,327.39Z"/><path class="cls-48" d="M525.29,143.12c-.07-.78-.14-1.56-.22-2.35l10-10.94c-1.8,13.85-8.88,23.65-14.06,36.69,26.3-13.59,52.48-22.78,74.73-40.11-6.76,11.11-15.54,20.78-24.37,30.42l-2.81-.24c1.75-6.12,8.73-8.3,11.2-15.51a715.93,715.93,0,0,1-71,33c8.51-7.35,13.29-16.82,17.54-26.64C527.1,145.65,527.85,144,525.29,143.12Z"/><path class="cls-49" d="M496.17,345.17c-3-8.25.16-12.27,2-16.4,11-24.37,24.77-47.24,38.3-70.23,1.17-2,2-5.86,5.18-4s.29,4.51-.9,6.55c-12.54,21.48-25.26,42.86-36,65.34C502.21,331.83,499.78,337.29,496.17,345.17Z"/><path class="cls-50" d="M490,299.31c.36-5.75,1.32-5.16,8-7.84,4.31-1.71,7.13-7.09,10.72-10.71,1.93-1.95,3.53-6.15,6.66-4.28,3.49,2.09.18,5.19-1.09,7.53Q508,295.54,501.4,306.86c-2.36,4-4.69,4.67-5.13-.94C495.94,301.69,485.75,306.38,490,299.31Z"/><path class="cls-51" d="M635.81,185.31c-6.53,1.66-13.65-2.17-19.89,2.13A81.17,81.17,0,0,1,588.28,185C604.16,183.17,620,181.88,635.81,185.31Z"/><path class="cls-30" d="M728.62,242.21,711.4,229.06c19.06,7.76,39.07,13.88,52.05,31.48C750.3,257.34,740.93,247,728.62,242.21Z"/><path class="cls-52" d="M137.37,395.18c22.78-29,52.93-48,84.68-64.85l1.65,2.29c-8.94,6-17.82,12.06-26.84,17.92-19.26,12.52-36.94,26.29-43.7,49.85a21.81,21.81,0,0,1-6.79,11c1.12-11.91,11.26-20.31,12.92-33.59-9.28,5.53-14.34,14.1-21.79,19.91C137.46,396.88,137.42,396,137.37,395.18Z"/><path class="cls-2" d="M196.29,319.13c5,3.09,12.15,1.07,11.19,9-.39,3.28-3.42,7.5-6,5.95C196.87,331.4,196.57,325.66,196.29,319.13Z"/><path class="cls-53" d="M608,515.5c-10.69-.55-20.1-1.26-29.52-1.41-4.53-.07-7.51-2.68-10.64-5Q464,431.19,360.19,353.4c-6.46-4.81-6-7.79-2.05-13.77,4.42-6.72,7.45-2.93,11.25-.14q116,85.35,232.07,170.68C603.46,511.64,605.31,513.31,608,515.5Z"/><path class="cls-53" d="M374.49,319.49c1.88,1.27,3.74,2.44,5.52,3.72Q505.86,414,631.6,505c2.14,1.55,9,2.72,4.36,7.4-3.89,3.9-7,12.25-15.82,5.56-20.43-15.56-41.29-30.56-62-45.78Q465,403.7,372,335.11c-2.37-1.75-8.11-2.63-5-7.79C368.79,324.34,370.48,320.78,374.49,319.49Z"/><path class="cls-53" d="M493.51,512.55c-19.13,5.57-32.6-1.79-46.34-12.49-38.41-29.92-77.72-58.69-116.65-87.94-5.37-4-4.14-21.5,1.92-24.27,3.73-1.7,5.77,2.26,8.18,4.15q66.09,51.93,132.06,104C479.48,501.39,486.25,506.79,493.51,512.55Z"/><path class="cls-53" d="M562.71,513.07c-14.76,1.38-26.48-2.42-38.11-11.38C467.12,457.38,409,413.93,351,370.34c-4.94-3.71-8.29-6.5-3.74-13,2.82-4,4.53-4.44,8.41-1.52Q458.4,433.24,561.29,510.48C561.8,510.86,562,511.69,562.71,513.07Z"/><path class="cls-53" d="M342,369.64,529,510.81c-13,2.06-24.6,4.62-36.66-5.2-48.87-39.79-98.63-78.49-148.42-117.12C336.08,382.43,334.27,377.52,342,369.64Z"/><path class="cls-53" d="M667,481.12c-1.41,4.62-5.14,6.58-7.91,9.34-3.64,3.63-6,0-8.37-1.82q-48.83-36.58-97.57-73.29c-14.06-10.56-28.32-20.88-42.1-31.8-2.41-1.91-10.53-2.94-4.75-9.08,4.2-4.47,7.23-12.06,16.41-4.7,26,20.86,52.81,40.76,79.29,61q29.25,22.4,58.47,44.84C662.72,477.41,664.86,479.34,667,481.12Z"/><path class="cls-53" d="M499.9,381.84c2.43,1.76,4.83,3.42,7.17,5.18Q575.2,438.2,643.18,489.58c3,2.27,11.5,2.59,6.4,10.48-4.68,7.24-9.1,5.35-15.06,1-38.74-28.33-77.74-56.29-116.64-84.37-8-5.79-16.13-11.47-24-17.51-2.19-1.7-7.45-2.58-5.05-6.72A27.49,27.49,0,0,1,499.9,381.84Z"/><path class="cls-53" d="M681,467.15c-.71,5.84-10.09,10.15-14.17,7q-71.16-54.4-142.19-109c-2.21-1.7-7-3.14-2.2-7.11,4-3.31,6.09-10.06,13.86-3.87,29.53,23.48,59.6,46.29,89.46,69.36q25.21,19.5,50.39,39C678,464.1,680.92,464.78,681,467.15Z"/><path class="cls-53" d="M679.53,458.83C632,422.17,585.84,386.57,539.69,351c-2.81-2.18-6.77-4.13-1.92-8.28,3.66-3.13,5.89-8.4,12.37-3,14.38,12,29.39,23.16,44.17,34.64q33.47,26,67,51.95C675.54,437.34,675.52,437.37,679.53,458.83Z"/><path class="cls-53" d="M323.47,413l135,101.41c-13.06,3.34-22.74,1.43-32.73-6.11-32.16-24.3-65.1-47.57-97.73-71.24C315.33,427.87,315.34,427.87,323.47,413Z"/><path class="cls-53" d="M670,426.87,549.41,333c5.86-11,11.67-11.62,21.19-3.78,23.47,19.32,47.4,38.18,72.25,55.66C657.13,394.94,663.9,408.44,670,426.87Z"/><path class="cls-54" d="M316.29,434.72,427.85,515.6c-13.22,3.79-23,3.77-33.18-4.77-24.42-20.44-49.82-39.73-75.13-59.09C313.59,447.19,311.31,442.89,316.29,434.72Z"/><path class="cls-53" d="M477.53,387.45q-48.42-34.89-96.87-69.74c-2.93-2.1-4.26-4.44-1-6.88s4.41-10.94,10.24-6.68C422.6,328.08,454.43,353.07,477.53,387.45Z"/><path class="cls-53" d="M647.37,382.47l-62.24-47.74c-4.64-3.56-9.6-6.81-13.75-10.88-2.35-2.31-10.25-3.14-4.18-9.35,3.89-4,7-9,14-3.24,14.75,12,30.66,22.55,45.25,34.72C637.51,355.17,642.15,368.94,647.37,382.47Z"/><path class="cls-55" d="M395.62,517.44c-7.08,4.82-12.26,2.13-17.64-1.7-20.33-14.45-40.51-29.13-61.33-42.82-8.91-5.86-9.1-12-4.55-20.89Z"/><path class="cls-56" d="M379.72,534.84c-24-16.69-46.32-32.42-68.9-47.83-5.6-3.82-4.1-8.42-3.21-14.68,23.41,16.41,46.07,32.25,68.68,48.17C380.57,523.52,379.88,528.08,379.72,534.84Z"/><path class="cls-57" d="M616.42,331.72q-16-12-32.12-24c-3.21-2.38-6.22-4.81-.88-7.82,3.59-2,6.25-10.12,11.87-2.15,7.58,10.72,15.36,21.3,23.05,31.94Z"/><path class="cls-58" d="M611.25,531.3V518.73c4.07,1.46,8.68,2.74,8.55,6.8C619.7,528.69,615.64,530.87,611.25,531.3Z"/><path class="cls-2" d="M331.24,606.85c27,7.28,52.1,17.53,79.26,19.36.73-5.59-2.72-4.53-4.92-4.9-23.55-4-46.24-11.11-68.93-18.32-4-1.28-7.23-2.28-8.4-7.23-4-17-10-33.42-17-52.06,7.25,3.57,12.62,6.24,18,8.86,53.44,25.91,109.58,42.09,169.17,42.05,63.23,0,121.34-17.87,172.21-56.62,1.73-1.32,3.55-2.51,6.16-4.35-3.65,17.71-7.18,34.46-8.09,51.56-.24,4.57-2.61,6.48-6.14,8-20.21,8.64-40.44,17.22-62.48,20.24-2.24.31-6.28-.84-6,2.86.39,5.2,4.55,2,6.84,1.74,20.62-2.4,39.67-10,58.47-18.24,5.36-2.34,6.81-2.69,7.52,4.53,1.89,19.13-5.3,29.87-23,38.8-97.16,49.08-194.16,48.77-292.11,3.19-10.42-4.85-17.83-10.51-17.85-23.07C334,618.23,332.38,613.23,331.24,606.85Z"/></g></g></svg>