<svg xmlns="http://www.w3.org/2000/svg" viewBox="0 0 999.12 1010.46"><defs><style>.cls-1{fill:#060505;}.cls-2{fill:#fcfcfc;}.cls-3{fill:#550400;}.cls-4{fill:#171715;}.cls-5{fill:#fafafa;}</style></defs><title>3a_logoaaamat</title><g id="Camada_2" data-name="Camada 2"><g id="Camada_1-2" data-name="Camada 1"><path class="cls-1" d="M999.1,806.3c-.26-1.85-.14-4.08-2.31-5.35-7.83-4.61-15.55-9.4-23.39-14-12.64-7.41-25.34-14.72-38-22.12-1.84-1.08-2.43-2.52-1.1-4.68,9.77-15.73,19.43-31.51,29.14-47.26,3.94-6.41,8-12.76,11.88-19.18,1.26-2.05,1.83-4.36.58-6.55-1.54-2.7-3.48,0-5.2.08-2.35.09-4.65,1.32-7,2L854.17,722.09c-14.55,4.38-29,9-44.38,13.72,7.65-14,14.56-27.5,20.86-41.27,9.28-20.26,18-40.73,25.34-61.78,4.74-13.63,9.45-27.28,14-41,.63-1.91.87-3.36,3.18-3.44,9.65-.28,18.43-3.45,27.11-7.46,16.12-7.46,27.44-19.25,33.86-35.72a96.07,96.07,0,0,0,5.37-50c-1.38-9-3.71-17.68-10.65-24.6a49.54,49.54,0,0,0-25-13.62c-1.79-.4-3.86-1-3.35-3.8,2.52-13.9,3.76-28,5.63-42,2.38-17.8,3.38-35.68,5.08-53.51,1.31-13.68,2-27.52,2-41.24.17-29.56.94-59.13-.55-88.72-.85-16.81-1.86-33.63-2.52-50.46-.2-5-.68-10-1.15-14.91-1.46-15.5-3.19-31-5.45-46.38-.76-5.18.34-10.87-7-14.42C881.92,94.39,867.64,86.66,852.83,80c-13.35-6-26.46-12.58-40.08-17.87-27.55-10.7-55.3-20.93-83.81-28.95-26.75-7.52-53.69-14.07-81-19.19-24.29-4.55-48.73-7.76-73.23-10.48A488.43,488.43,0,0,0,524.58.37c-20.34-.19-40.69-1-61.07.68-11.89,1-23.87,1.31-35.81,2.24-13.44,1-26.77,3-40.15,4.3-17.22,1.74-34.2,4.92-51.15,8-26.84,4.85-53.26,11.82-79.91,17.62-35.15,7.66-68.38,21.45-100.87,36.68Q123.37,85,92.55,103c-1.49.87-2.66,1.45-2.74,3.42-.23,5.47-1.5,10.85-2,16.27-1.74,18.07-3.89,36.17-4.2,54.28s-1.83,36-1.38,54c.18,7.23,1,14.36.36,21.73-.81,9.93.23,20.09.43,30.1q.69,35.85,2.44,71.63c.34,6.79.89,13.58,1.37,20.33,1.14,16.06,3.74,32,5.11,48.06,1.26,14.81,4,29.42,5.84,44.13.43,3.48-.28,3.5-2.88,4.37-10.07,3.35-20.06,7-29.49,11.92-4.64,2.43-8.59,5.46-10.24,10.67-5.76,18.19-6.56,36.78-1.69,55,6.86,25.7,22.45,45.94,42.84,62.6,2.45,2,5.37,2.65,8.71,3,8.65,1,15.78-3,23.25-5.84,2.13-.81,2.25-1,3,1.37,2.57,8.3,5.65,16.45,8.54,24.66a752.45,752.45,0,0,0,31.36,75.65c3.63,7.58,7.35,15.11,11.32,23.23-37.66-11.35-74.45-22.43-111.2-33.55-13.84-4.18-27.59-8.61-41.48-12.57-2-.57-4.68-3.06-6.66-.33-1.58,2.22-.54,4.85.78,7Q44.11,727,64.4,759.68c1.57,2.52,1.13,4-1.24,5.38C43.46,776.65,23.84,788.38,4,799.74a7.27,7.27,0,0,0-4,6c-.26,3.07,3.16,2.24,4.77,2.73,28.14,8.56,56.38,16.8,84.55,25.29,18,5.42,35.81,11.43,53.9,16.49,4.58,1.28,5.53,3,5.37,7.17-.29,8.31-.13,16.64,0,25,0,1.18-.91,2.87,1.52,3.32,7,1.32,14,3.17,21.11,4.23,17.2,2.59,34.17,6.44,51.38,9.07,14.75,2.25,29.44,5.16,44.23,7.08,16,2.07,31.88,4.61,48,5.8,4,.29,8.37.54,11.79,3.62,5.41,4.88,10.71,10,16.57,14.27,16.52,12.11,33.12,24.07,50.66,34.77a441.94,441.94,0,0,0,92.61,43.23c3.57,1.17,7.31,3.87,11.59,2.15,27.18-10.92,53.8-23,79.35-37.39a575.41,575.41,0,0,0,75.46-50.23c3.69-2.93,7.3-7.24,11.47-8,7.07-1.3,14.41-1.72,21.64-2.53,10.4-1.17,20.83-2,31.19-3.37,11.33-1.52,22.58-3.57,33.89-5.32,14.44-2.22,28.95-4,43.32-6.65,17.57-3.22,35-7.38,52.53-10.49,3.7-.67,3.74-1.91,3.71-4.62-.08-8.68,0-17.36,0-26,0-2.07.1-3.59,2.76-4.37,21.71-6.37,43.36-13,65-19.46,25.84-7.76,51.69-15.47,77.48-23.38C996.88,807.73,999.4,808.48,999.1,806.3ZM356.41,775.83c-1.87-3.38-4.76-6.38-5-10.58l-.49-.45a.54.54,0,0,1,.32.06,1.27,1.27,0,0,1,.18.39l19.46,16.58C361.6,783.44,360.48,783.13,356.41,775.83Zm256.61-2H613l.09-.08A.32.32,0,0,0,613,773.85Z"/><path class="cls-1" d="M999.09,806.29c-.26-1.85-.14-4.08-2.31-5.35-7.83-4.61-15.55-9.4-23.39-14-12.64-7.41-25.34-14.72-38-22.12-1.84-1.08-2.43-2.52-1.1-4.68,9.77-15.73,19.43-31.51,29.14-47.26,3.94-6.41,8-12.76,11.88-19.18,1.26-2.05,1.83-4.36.58-6.55-1.54-2.7-3.48,0-5.2.08-2.35.09-4.65,1.32-7,2q-54.75,16.44-109.53,32.85c-14.55,4.38-29,9-44.38,13.72,7.65-14,14.56-27.5,20.86-41.27,9.28-20.26,18-40.73,25.34-61.78,4.74-13.63,9.45-27.28,13.95-41,.63-1.91.87-3.36,3.18-3.44,9.65-.28,18.43-3.45,27.11-7.46,16.12-7.46,27.44-19.25,33.86-35.72a95.85,95.85,0,0,0,5.37-50c-1.38-9-3.71-17.68-10.65-24.6a49.61,49.61,0,0,0-25-13.62c-1.79-.4-3.86-1-3.35-3.8,2.52-13.9,3.76-28,5.63-42,2.38-17.8,3.38-35.68,5.08-53.51,1.31-13.68,2-27.52,2-41.24.17-29.56.94-59.13-.55-88.72-.85-16.81-1.86-33.63-2.52-50.46-.2-5-.68-10-1.15-14.91-1.46-15.5-3.19-31-5.45-46.38-.76-5.18.34-10.87-7-14.42C881.91,94.38,867.63,86.65,852.82,80c-13.35-6-26.46-12.58-40.08-17.87-27.55-10.7-55.3-20.93-83.81-28.95-26.75-7.52-53.69-14.07-81-19.19C623.64,9.43,599.2,6.22,574.7,3.5A490.92,490.92,0,0,0,524.57.36c-20.34-.19-40.69-1-61.07.68-11.89,1-23.87,1.31-35.81,2.24-13.44,1-26.77,3-40.15,4.3-17.22,1.74-34.2,4.92-51.15,8-26.84,4.85-53.26,11.82-79.91,17.62-35.15,7.66-68.38,21.45-100.87,36.68Q123.36,85,92.54,103c-1.49.87-2.66,1.45-2.74,3.42-.23,5.47-1.5,10.85-2,16.27-1.74,18.07-3.89,36.17-4.2,54.28s-1.83,36-1.38,54c.18,7.23,1,14.36.36,21.73-.81,9.93.23,20.09.43,30.1q.7,35.85,2.44,71.63c.34,6.79.89,13.58,1.37,20.33,1.14,16.06,3.74,32,5.11,48.06,1.26,14.81,4,29.42,5.84,44.13.43,3.48-.28,3.5-2.88,4.37-10.07,3.35-20.06,6.95-29.49,11.92-4.64,2.43-8.59,5.46-10.24,10.67-5.76,18.19-6.56,36.78-1.69,55,6.86,25.7,22.45,45.94,42.84,62.6,2.45,2,5.37,2.65,8.71,3,8.65,1,15.78-3,23.25-5.84,2.13-.81,2.25-1,3,1.37,2.57,8.3,5.65,16.45,8.54,24.66a756.17,756.17,0,0,0,31.36,75.65c3.63,7.58,7.35,15.11,11.32,23.23C144.83,722.24,108,711.16,71.29,700c-13.84-4.18-27.59-8.61-41.48-12.57-2-.57-4.68-3.06-6.66-.33-1.58,2.22-.54,4.85.78,7Q44.12,727,64.39,759.67c1.57,2.52,1.13,4-1.24,5.38C43.45,776.64,23.83,788.37,4,799.73a7.29,7.29,0,0,0-4,6c-.26,3.07,3.16,2.24,4.77,2.73,28.14,8.56,56.38,16.8,84.55,25.29,18,5.42,35.81,11.43,53.9,16.49,4.58,1.28,5.53,3,5.37,7.17-.29,8.31-.13,16.64,0,25,0,1.18-.91,2.87,1.52,3.32,7,1.32,14,3.17,21.11,4.23,17.2,2.59,34.17,6.44,51.38,9.07,14.75,2.25,29.44,5.16,44.23,7.08,16,2.07,31.88,4.61,48,5.8,4,.29,8.37.54,11.79,3.62,5.41,4.88,10.71,10,16.57,14.27,16.52,12.11,33.12,24.07,50.66,34.77a441.91,441.91,0,0,0,92.61,43.23c3.57,1.17,7.31,3.87,11.59,2.15,27.18-10.92,53.8-23,79.35-37.39a573.75,573.75,0,0,0,75.46-50.23c3.69-2.93,7.3-7.24,11.47-8,7.07-1.3,14.41-1.72,21.64-2.53,10.4-1.17,20.83-2,31.19-3.37,11.33-1.52,22.58-3.57,33.89-5.32,14.44-2.22,29-4,43.32-6.65,17.57-3.22,35-7.38,52.53-10.49,3.7-.67,3.74-1.91,3.71-4.62-.08-8.68,0-17.36,0-26,0-2.07.1-3.59,2.76-4.37,21.71-6.37,43.36-13,65-19.46,25.84-7.76,51.69-15.47,77.48-23.38C996.87,807.72,999.39,808.47,999.09,806.29ZM847.73,626.92c-6.58,30.06-19.25,57.7-33.35,84.76-8.38,16.11-17.68,31.7-27.28,47.11a11.05,11.05,0,0,1-8.46,5.57c-23.23,4-46.56,7.21-69.9,10.39-14.06,1.91-28.22,3.19-42.93,4.82,10-30.88,27.86-55.22,53.51-74.33-3,8-5.92,16.11-9.11,24.08-3.46,8.64-7.18,17.16-10.76,25.76-.68,1.63-2.58,3.18.23,4.91,3.29,2,3.68-1,4.67-2.47A438.11,438.11,0,0,0,756.13,650.9c.15-.46.42-.89,1.44-1.18q-1.52,11.07-3,22.12c-.15,1.07-.35,2.13-.54,3.2-.32,2,.06,3.48,2.25,4.17s2.74-1,3.56-2.35a257.72,257.72,0,0,0,20.24-42.74,306.13,306.13,0,0,0,12.8-45.45c.53-2.59,1.34-3.53,3.73-4.14a7.53,7.53,0,0,0,4.45-2.84c2.78-4.74,4.63-2.18,7,.32q18.81,19.54,37.77,38.91C847.51,622.67,848.36,624,847.73,626.92ZM661.36,770.34c-2,9.75-2.21,10-12.47,10.85-4.32.36-9.27,2.47-13.08-2.13-1.34-1.63-1.39-2.48,0-4q15.71-16.39,31.29-32.92a1.9,1.9,0,0,1,2.31-.43C666.43,751.17,663.39,760.6,661.36,770.34ZM864.87,591.48c-3.36,10.23-6.54,20.52-10.18,32-12.61-14.7-26.21-26.8-38.57-40.13-2.33-2.49-4.53-5.12-6.94-7.53-1.68-1.69-2.41-3.35-1.61-5.78,1-3,2-4.41,5.15-1.9,5.06,4,11,7.13,15.43,11.72,6.82,7.06,15.19,8.07,24,8.43,3.42.14,6.85.1,10.28,0C864.87,588.29,865.72,588.86,864.87,591.48ZM151.8,656.27c-5.91-15.09-11.28-30.39-16.42-45.77-1.15-3.46-.61-4.78,2.88-6.45,5.06-2.44,10.56-2.11,15.64-3.84V597c-11.77-.41-21.73,5.5-32.29,9.32-3.36,1.21-6.6,3-10,3.58-5.84,1-10.8-.45-15.65-4.87-17.8-16.22-32-34.57-38-58.34a89.22,89.22,0,0,1,1.27-49c1.58-5.18,4.59-8.24,9.11-10.54,15.72-8,32.61-12.85,49.31-18.19,2-.64,4-1.4,6-2.11v-4.32a66,66,0,0,0-15.53,4.32c-3.71,1.42-5.42.46-5.93-3.19-1.56-11.38-3.17-22.74-4.55-34.14-1.87-15.5-3.77-31-5.19-46.53-.93-10.39-1.73-20.81-2.29-31.2-1.91-34.77-2.88-69.57-2.31-104.4,0-.68.11-1.36.21-2.51,6.77,4.09,10.16,11.54,17.13,14.77.08-1.67.15-3.34.24-5-4.68-4.76-9.24-9.64-14.08-14.23A10.78,10.78,0,0,1,87.64,232c-.4-31.46,1-62.85,3.54-94.17.77-9.33,2.17-18.6,3.16-27.92.23-2.13,1.48-3,3.11-4C148.38,77,200.86,51.64,258.12,37.62c4-1,8.08-1.71,12.08-2.7,4.7-1.17,8.5-.61,11.64,3.76,2.28,3.15,5.55,5.6,8.37,8.35,1.3-.28,2.78-.06,3.79-1.18.06-.08.13-.16.19-.25a14.73,14.73,0,0,0-3.48-5c-2.41-2.44-5.31-4.62-7.28-8,9-2.18,17.59-4.39,26.27-6.35,26.83-6,53.8-11,81.12-14.36,19.46-2.39,38.92-4.36,58.51-5.39,18.73-1,37.46-2.62,56.19-1.84,23.19,1,46.39,1.49,69.54,3.88q41,4.28,81.5,11.88c25.68,4.77,50.86,11.38,75.88,18.7,54,15.84,105.57,37.65,155.77,63,8.06,4.06,10.68,9.28,11.41,17.36,1.43,15.74,3.58,31.41,5.14,47.12,1,10.38,2.07,20.81,2.21,31.23.17,13,1.08,26,1.49,38.93.58,18.23,1.09,36.46.74,54.68-.38,19.82-.87,39.67-2.22,59.44-1.63,23.66-4.07,47.26-6.46,70.86-1,10-2.93,19.89-4.17,29.87-.33,2.72-1.57,3.21-3.87,3.19-3.58,0-7.17,0-10.77.06h-2.79a7.77,7.77,0,0,1-1.12,4.34c4.45,1.12,9,.38,13.46.5a52.36,52.36,0,0,1,30.6,10.42c8.92,6.64,12.23,16.26,13.2,26.76,1.56,17,.92,33.88-6.47,49.74-9.6,20.57-26.74,31.3-48.17,36.15-12.94,2.93-25.89-.74-38.85-.27-2,.08-3.25-1.47-4.65-2.52-7.8-5.83-15.49-11.83-23.33-17.61-2.5-1.83-3.75-3.76-2.48-6.79l-4.74,1.18c-2.44,7-3.09,14.65-9,21.91v-12c-2.59-.09-3.36,3-5.74,3.28-5.25,30.31-13,59.86-26.73,87.57-.71,1.44-1.51,2.84-2.33,4.22-.14.23-.64.23-1.52.5,1.14-8.18,2.33-16.11,3.33-24.07,1.38-10.89,2.64-21.8,3.88-32.7.19-1.77.3-3.85-2.28-4.13s-2.77,1.59-3.11,3.47c-7,39.31-21.27,76.09-39.49,111.44-1.06,2.06-2.26,4.06-3.39,6.08-.48.45-.37,2-1.47,1.17-.67-.48-.08-1.47.43-2.12,3.58-10.31,7.66-20.44,9.88-31.17,1.12-5.34.47-7-4.31-10a36.8,36.8,0,0,0-1.61,4.89c-1.53,8.66-5.67,15.21-12.9,20.74-14.47,11.06-25.55,25.35-34.92,40.94-.66,1.11-.79,2.78-3,3.3,3.42-9.71,7.18-18.79,13.2-26.76,1.19-1.59,2.81-2.83.35-4.84s-3.14.56-4.1,1.57q-27.36,28.62-54.61,57.31c-1.74,1.83-3.59,3.56-5.37,5.36a3.05,3.05,0,0,1-3.5.75c-1.57-.71-.67-2.35-.43-3.35,1.43-6.14,2.49-12.31,3.35-18.54.29-2-.12-2.9-1.87-3.66-2.24-.95-2.85.6-3.62,2a136.63,136.63,0,0,1-14.26,21c-3.39,4.15-3.46,4.11-9.91,3.8,1-3.57,3.36-6.86,1.76-11.44-5,3.47-10,6.81-14.83,10.35a13.58,13.58,0,0,1-6.9,2.61c-10.64,1.12-21.33.34-32,1-.53,0-1.49.1-1.54-.07-2.22-6.5-4.94-.34-7.29-.15-1.91.14-3.82.81-5.83.84-35.79.66-71.56-.48-107.3-2a12.34,12.34,0,0,1-4.53-1.45c-3-1.3-6-5.93-9,0-.23.43-1.7.36-2.56.31-6.32-.34-12.62-.77-18.93-1.09a6,6,0,0,1-3.74-1.94c-14.47-12.5-29.62-24.34-40.78-40.17-1.33-1.88-2.34-1.67-4-.75-2,1.11-.91,2.41-.31,3.53,4.58,8.72,9.24,17.4,13.88,26.1.86.65,1.75,1.48.65,2.4-.59.5-1.13-.49-1.49-1.09-15-14.47-28.33-30.4-40.89-47a20.37,20.37,0,0,0-1.82-1.9h-4.34c8.83,13.19,19.32,25,29.74,36.93q7.86,9,16.29,17.34c.88.87,2,1.78,1.36,3.24s-2.2,1.1-3.38,1c-8.58-.71-17.17-1.34-25.73-2.36-13.33-1.59-26.64-3.55-40-5.17-20.47-2.47-40.72-6.55-61.15-9-10.32-1.26-15.66-5.8-20.55-14.67a797.72,797.72,0,0,1-44.32-93.83ZM613.39,773.44l-.44.39v.09h0c0,9.25-.43,9.81-8.37,10.6,3-3.85,5.71-7.22,8.37-10.6v-.08H613a1.23,1.23,0,0,1,.14-.31c0-.08.13-.07.23-.09Zm-242.52,8.38c-9.28,1.61-10.4,1.3-14.47-6-1.87-3.38-4.76-6.38-5-10.58l-.49-.45a.54.54,0,0,1,.32.06,1,1,0,0,1,.18.39ZM148,762v84.87L6.08,804c21.43-12.64,42-24.89,62.65-36.84,3.61-2.08,3.57-3.6,1.56-6.82-13.86-22.29-27.56-44.69-42-68.2,8.81,2.59,16.54,4.79,24.24,7.11,42.84,12.93,85.65,26,128.57,38.68,5.67,1.68,6.87,6.27,9.28,10.23,1.2,2-1.13,1.74-2,2.29-9.12,6.12-18.82,5.12-28.85,2.65C148.07,750.33,148,750.55,148,762ZM630.48,933.24a587.17,587.17,0,0,1-86.9,51.56c-14.45,7-29.11,13.5-44,19.38a10.89,10.89,0,0,1-7.36.27c-26.89-7.59-52-19.37-76.5-32.57A483.42,483.42,0,0,1,346.36,926c-4.64-3.63-9.18-7.39-14.65-11.81,14.56,1.36,28,2.65,41.44,3.84,5.55.48,11.15.93,16.69,1.11,20.16.68,40.32,1.84,60.47,2.68,29.45,1.23,58.86.82,88.28.55,23.93-.22,47.86-1.85,71.78-3.16,12.73-.7,25.42-2.07,38.14-3.12.85-.06,1.71.09,3.87.21-7.32,7.08-14.77,11.83-21.9,17Zm211-50.88c-34.52,7-69.17,13.28-104,18.25-25.49,3.65-51.09,6.57-76.73,9.13a1586.34,1586.34,0,0,1-160.16,7.8c-35.43,0-70.84-.88-106.22-3.29-23.59-1.61-47.16-3.42-70.65-5.9-24-2.53-47.91-5.72-71.77-9.3-31.28-4.69-62.37-10.38-93.37-16.54-4.07-.81-5.9-1.79-5.87-6.61.25-39.59.14-79.18.14-119.34q347,72.33,693.19.06c.08,1.55.2,3,.2,4.34,0,38.52-.09,77,.16,115.57,0,4.12-1.67,5.16-4.93,5.82Zm111.9-66.26c-32.2,9.73-64.43,19.38-96.59,29.2-4.17,1.27-5.58,1.08-5.5-4,.33-21.32.18-42.66.12-64,0-7.59-.47-15.17-.33-22.75.08-3.58-1.51-3.86-4.21-3.24a77.57,77.57,0,0,0-8.36,2c-10.54,3.73-20.4,2-29.78-3.53-1.6-.93-4.82-.92-4.52-2.92a7.35,7.35,0,0,1,5.27-6.21c6-1.69,12-3.57,18-5.38l140.77-42.54a8.38,8.38,0,0,1,2,.12c-9,14.8-17.94,29.34-26.83,43.85-5,8.14-9.77,16.39-15,24.33-2,3.1-1.33,4.25,1.53,5.93,19.87,11.6,39.63,23.36,59.43,35.07.92.54,1.81,1.12,3.31,2-13.45,4.14-26.37,8.14-39.32,12.06Z"/><path class="cls-2" d="M829.32,406.62c-8.67-21.16-17.94-42-31.16-60.87a30.46,30.46,0,0,1-2.75-4.64c-.88-1.91-2.27-4.11.39-5.71s4,.54,5.4,2.14,2.4,3.1,3.58,4.65l1-.69c-.87-2.37-1.83-4.7-2.59-7.09-.54-1.75-.93-3.8,1.25-4.68,2.36-1,3.1,1.06,3.8,2.73q7.11,17.22,14.15,34.42c1.89,4.58,3.75,9.16,6.17,15.09,1-7.51-1-13.1-2.51-18.69C819.42,338.74,807.24,317,791.87,297c-6.15-8-11.87-16.35-17.76-24.56-.75-1.05-2.78-2.27-1.13-3.5,1.39-1,3.42-1.62,5.13.68,4,5.36,8.58,10.26,12.43,15.71,8.82,12.52,17.34,25.28,26,37.92.56.82.89,2,2.47,2.06.7-5.77-1.52-11-3.41-16.09-9.32-25.18-27.3-42.51-51-54.15-5.69-2.8-12.66-2.72-18.18-6.36-2-1.34-6.22-1.68-4.6-5.27,1.36-3,4.42-.77,6.72-.19,8,2,14.94,7.3,23.58,7.07,1.23,0,2.49.45,3.61-.28.24-1-.4-1.25-1.06-1.58-30.29-15.46-56.8-36.33-82.8-57.89-1.27-1.06-3.3-1.83-1.88-4.28,1.52-2.63,3.22-1.31,5-.6a282.24,282.24,0,0,1,40,20c.43-.32.85-.65,1.29-1-22.19-23.15-49.56-37.39-80-46.1a222.55,222.55,0,0,0-63-8.61c-1.27,0-2.54-.12-3.8,0-1.92.14-3.05-.31-3-2.58s1.67-2,3-2c9.93.11,19.88,0,29.8.5,13.88.69,27.77,1.4,41.48,3.94,1.2.22,3,1.6,3.78-.33.63-1.66-1.41-2.25-2.43-3-11-8.77-24.06-12.76-37.67-15.05-22.3-3.75-44.61-2.88-66.85.6-3.38.54-4.85-1.45-7.85-3.52,5.16-.19,8.06-2.6,10.52-5.72q8.31-10.64,16.65-21.24c-1.84-1.64-2.67-.23-3.6.36-19.42,12.09-39.85,22.41-59.88,33.43-1,.58-2.69,2.63-4,0-.64-1.3-1.44-2.75.36-3.74,6.93-3.78,9-11,12.11-17.35a67.71,67.71,0,0,0,4.45-12.2c-12.89,9-26,17.28-40.49,24.21,3.27-5.19,1.85-10.45.88-15.62a62.61,62.61,0,0,0-4.64-15.36c-.92,8.66-1.81,17.32-2.75,26-1,9.37-8.54,15.36-15.29,10.8-3.85-2.61-8.53-.16-11.31-4.1s-6-7.66-8.92-11.57c-5.8-7.83-11.48-15.75-17.27-23.58-.76-1-1-2.88-3.32-2.48,5.86,12.5,11.66,24.87,17.87,38.1-11.72-1.06-21.44-6-31.75-8.67-.32.43-.63.87-1,1.31,10.58,6.86,21.17,13.7,31.7,20.63,1.35.89,4.16,1.21,2.22,4.18s-3.25.55-4.76-.23c-11.31-5.88-23.62-8.46-35.92-11.19-14.27-3.14-28.74-5-43.18-7.18-2.46-.37-5,0-8.57,0,11.24,4.25,21.4,8.62,30.62,14.86a63.59,63.59,0,0,1,12.22,10.64c2.44,2.77,1.65,4.14-1.56,5.12a40.63,40.63,0,0,1-10.61,1.77c-24.82.69-49.4-2.23-74-5-2.29-.25-4.56-.75-7.1-.2,6.63,3.16,13,6.26,19.48,9.24,1.66.76,2.67,1.41,2.19,3.58-.42,1.9-1.43,2.1-3,2.18-19.26,1-36.82,7.86-54.08,15.74a389.67,389.67,0,0,0-45.14,24.85c2,1,3.39.32,4.84-.09q26.19-7.44,52.41-14.78c1-.29,2.09-.57,3.14-.79,1.57-.31,2.55,0,3.14,1.86.69,2.21-.59,2.47-2,2.88-5,1.5-10.11,2.43-14.91,4.64-16.28,7.46-29.15,19.24-40.86,32.38A268.76,268.76,0,0,0,191.07,284l.94.68c11.74-7.67,23.79-14.77,36.93-19.84,1.6-.62,3.35-2.72,5,0,1.81,3-.8,3.66-2.45,4.82-40.3,28.43-67,67.25-85.59,112.19.32.34.66.68,1,1,21.5-28.82,48.83-51,79.37-69.52,1.48-.9,3-2.92,4.82,0s-1,3.36-2.24,4.32c-15.79,11.77-31.5,23.63-45.9,37.12a47,47,0,0,0-13.16,20,178.75,178.75,0,0,1-22.21,44.86c.42.32.86.63,1.28.93A105.46,105.46,0,0,0,173,396.67c1-1.36,1.52-3.3,4.06-1.65s.74,3,0,4.33c-9.83,17-13,35.16-10.68,54.68,1.67,14.09,2.06,28.31,3.25,42.52,2-10.21,3.75-20.48,7.23-30.31.45-1.27.08-3.89,3.22-3,2.69.73,2.24,2.43,1.87,4.13-3.62,17-2.73,34.16-.82,51.23a361.92,361.92,0,0,0,11.43,56.65c2.45-3.08,1.32-6.22,1.7-9,1-7.5,2.4-15,1.86-22.62-.34-4.59,2-7.42,5.91-9.24.25.29.65.56.61.72-3.71,15.5,2,29.53,7,43.56,4.23,11.84,8.67,23.59,14.45,34.84,2.81,5.48,4.2,11.71,6.57,18.56.72-7.09-.09-13.16-.6-19.27-.16-1.94-2.08-5.66,2.37-5.73,3.88-.08,2.61,3.29,2.67,5.28.31,12.63,4.53,24.39,8.09,36.25,4.18,13.94,9.16,27.63,14.57,41.16.56,1.41.55,3.2,3.18,4.28-2.3-9.59-4.46-18.63-6.62-27.67-.63-2.62-1.25-5.24-1.87-7.88-.37-1.57-1.88-3.1,1.14-4.18,3.37-1.22,3.16,1.34,3.79,2.9q9.09,22.5,18,45c2.47,6.17,4.88,12.36,7.3,18.54l6.45,15.08c1-5.2-.25-9.7,1.13-14V717a42.91,42.91,0,0,1,1.19-12l12.18,17.89a20.37,20.37,0,0,1,1.82,1.9c12.56,16.6,25.87,32.53,40.89,47,.28-.45.56-.88.84-1.31-4.64-8.7-9.3-17.38-13.88-26.1-.6-1.12-1.64-2.42.31-3.53,1.65-.92,2.66-1.13,4,.75,11.16,15.83,26.31,27.67,40.78,40.17a6,6,0,0,0,3.74,1.94c6.31.32,12.61.75,18.93,1.09.86.05,2.33.12,2.56-.31,3-6,6-1.34,9,0a12.34,12.34,0,0,0,4.53,1.45c35.74,1.5,71.51,2.64,107.3,2,2,0,3.92-.7,5.83-.84,2.35-.19,5.07-6.35,7.29.15,0,.17,1,.11,1.54.07,10.64-.64,21.33.14,32-1a13.58,13.58,0,0,0,6.9-2.61c4.85-3.54,9.83-6.88,14.83-10.35,1.6,4.58-.79,7.87-1.76,11.44,6.45.31,6.52.35,9.91-3.8a136.63,136.63,0,0,0,14.26-21c.77-1.43,1.38-3,3.62-2,1.75.76,2.16,1.63,1.87,3.66-.86,6.23-1.92,12.4-3.35,18.54-.24,1-1.14,2.64.43,3.35a3.05,3.05,0,0,0,3.5-.75c1.78-1.8,3.63-3.53,5.37-5.36q27.3-28.66,54.61-57.31c1-1,1.55-3.64,4.1-1.57s.84,3.25-.35,4.84c-6,8-9.78,17-13.2,26.76,2.26-.52,2.39-2.19,3-3.3,9.37-15.59,20.45-29.88,34.92-40.94,7.23-5.53,11.37-12.08,12.9-20.74a36.8,36.8,0,0,1,1.61-4.89c4.78,3,5.43,4.62,4.31,10-2.22,10.73-6.3,20.86-9.88,31.17l1,.95c1.13-2,2.33-4,3.39-6.08,18.22-35.35,32.44-72.13,39.49-111.44.34-1.88.56-3.75,3.11-3.47s2.47,2.36,2.28,4.13c-1.24,10.9-2.5,21.81-3.88,32.7-1,8-2.19,15.89-3.33,24.07.88-.27,1.38-.27,1.52-.5.82-1.38,1.62-2.78,2.33-4.22,13.76-27.71,21.48-57.26,26.73-87.57a610.55,610.55,0,0,0,3-80c0-1.31-1.36-3.47,1.46-3.7,3-.26,3.64,1.75,3.64,4.16,0,11,1.27,22,.55,33l-2.88,43.21v12.13c6-7.26,6.6-14.94,9-21.91,4.26-28.63,4.75-57.45,3.92-87.31,10.53,10,14.29,22.33,17.48,35,0-6.69.52-13.43-.09-20.07a418.44,418.44,0,0,0-22.37-102c-.76-2.16-4.13-5.57-.18-7.12,5-1.94,3.82,3.49,4.67,5.71,6.59,17.32,14.49,34.07,22.17,50.91.17.39.18,1.19,1.4.71A57.32,57.32,0,0,0,829.32,406.62ZM541.62,226.3c3.14,1.37,1.34,3.14.53,4.75-13.08,25.62-26.22,51.22-37.14,77.87-2,4.82-4.1,9.63-5,14.78-.42,2.51-2,2.15-3.56,2.05-2-.13-1.66-1.4-1.32-2.14,1.84-8.32,5-15.6,8.08-22.85,10.57-24.45,22.52-48.23,34.74-71.88.73-1.37.82-3.87,3.67-2.58Zm-50.75,52.07a77,77,0,0,0,1.58-10.13c.21-1.81-.1-3.65,2.73-3.52,3.06.13,2.24,2.06,2.07,3.8a26,26,0,0,0,.34,3.17c5.27-6.74,9.9-12.64,14.51-18.57,1.07-1.38,1.76-3.26,4.2-1.76s1.12,2.94.35,4.51c-4.86,10-9.65,20.08-14.64,30-.62,1.23-.83,4-3.63,2.6s-1.43-3.11-.51-4.93,1.61-3.58,2.4-5.38c-.29-.34-.6-.69-.89-1-1,1.24-2.11,2.46-3.11,3.72s-2,2.49-4,1.41C490.48,281.32,490.42,280.28,490.87,278.37Zm-79.45-82.88c2.28-1.71,2.9.41,3.7,1.42,23,29.65,44.91,60,59.39,95,1.85,4.47,3.21,9.14,4.72,13.51-.07.59,0,1.17-.16,1.25-1.08.57-2.66,1.75-3.26,1.39a39,39,0,0,1-6.92-5.43c-.52-.52-.89-2.82.89-3.1,4.91-.77,1.14-3.58.76-4.58-7.21-18.73-17.39-35.89-28.33-52.64-9.48-14.48-19.72-28.43-30.44-42-1.19-1.59-2.9-2.85-.34-4.82ZM682.05,534.33c-5.73,15.35-7.51,31.5-9.52,47.58-2.94,23.5-4.1,47.16-5.26,70.81a5.73,5.73,0,0,1-2.81,4.79c-37.71,26.79-78.77,46.19-124.71,53.12-71.88,10.85-138.15-5.28-199.17-44.22-2.14-1.37-4-2.71-4.33-5.72a461.92,461.92,0,0,0-29.13-116.5v-1.33l1.27.43c28.37,17.6,57.73,33.18,89.25,44.5C431.7,600,466.73,607.42,503,606.58c68-1.56,126.39-26.12,174.1-75.08,1.11-1.14,1.83-3.07,4.27-1.64s1.28,2.88.69,4.47Zm-.49-61.84c-17.68,20.8-35.25,41.69-54.6,61-4.73,4.72-9.42,9.6-15.25,12.93-3.35,1.91-2.13,4.71-2,7.09.18,3.57-1,5.33-4.3,7-24.66,12.24-49.51,24.15-75.44,33.43-24.88,8.9-49.89,9.37-74.86-1.31-22-9.42-44.41-17.83-65.69-28.87-3.2-1.66-4.84-3.55-4.37-7,.58-4.34-1.67-6.91-4.92-9.41-22.48-17.3-44.81-34.78-66.68-52.86-5.27-4.35-7.21-8.89-6.42-15.69a420.69,420.69,0,0,1,48.89-154,379.49,379.49,0,0,1,31.44-48.55c1.15-1.52,1.88-4.08,4.84-1.53,30.89,26.53,61,53.82,85,87.07,3.56,4.95,6.63,10.24,10.21,15.81,25.12-29.51,49.94-58.71,75.87-86.93,7.58-8.25,15.21-16.46,23.72-23.8,3.36-2.91,5.38-3.2,8.23,1.22,32.18,49.75,60.88,101.21,78.9,158a267.74,267.74,0,0,1,9.08,39.42c.41,2.55.27,4.77-1.64,7Z"/><path class="cls-3" d="M294,45.62c-2.08-5.21-7.61-7.54-10.77-13,9-2.17,17.59-4.4,26.28-6.34,26.81-6,53.8-11,81.11-14.38,19.46-2.38,38.92-4.35,58.51-5.38,18.73-1,37.46-2.63,56.19-1.84,23.19,1,46.39,1.48,69.54,3.88,27.36,2.85,54.47,6.85,81.5,11.88,25.68,4.77,50.87,11.37,75.87,18.7,54,15.84,105.59,37.65,155.79,63,8,4.07,10.67,9.28,11.4,17.37,1.43,15.73,3.58,31.4,5.14,47.12,1,10.38,2.07,20.81,2.21,31.23.17,13,1.08,26,1.49,38.93.58,18.23,1.09,36.46.74,54.68-.38,19.82-.87,39.67-2.23,59.44-1.62,23.66-4.06,47.27-6.46,70.86-1,10-2.92,19.89-4.15,29.87-.34,2.73-1.58,3.21-3.88,3.19-4.52-.05-9,.05-13.55.09-13,0-25.94,0-38.91-.14-3.11,0-4.86.7-4.7,4.06-2.2,3.46-2.07,7.68-3.65,11.34-1.71-.73-1.41-2.27-1.6-3.69-.54-4.08-1.09-8.17-1.84-12.23-1.83-10-3.77-19.92-5.67-29.89l.75-.26c3.84,8.09,7.69,16.17,11.56,24.32,3.54-7.88,1.39-16.22,3.23-23.69s-1.13-13-3.26-19.19c-.47-1.37-1-2.72-1.39-4.1-.26-.86-.81-1.89-.55-2.6,3.4-9.45,1.21-18.76-.53-28.09-2.57-13.77-7.46-26.91-8-41.3-.79-20-9.32-37.56-22.86-52.44a120.91,120.91,0,0,0-26.27-21.59c2.41-.17,3.24-.27,4.07-.27,7.56,0,15.14.13,22.69-.16,1.82-.07,5.07,0,5-2.87-.08-3.09-3.09-2.32-5.13-2.39-4.4-.17-8.6,1.23-13.23-.48-20.39-7.56-38.17-19.51-55.51-32.18-8.83-6.44-18.21-12.29-25.67-20.48l.08-.1c6.19.73,10.82,4.81,16,7.65,12.49,6.88,24.57,14.43,33.47,26,.92,1.19,1.89,2.29,3.59,1.12,1.93-1.33.49-2.66-.16-3.71a145.84,145.84,0,0,0-20.68-26.28,176.22,176.22,0,0,0-56.64-38c-1.47-.63-2.92-.89-3.75-2.69-4.9-10.53-13.16-17.84-23.16-23.33-15.86-8.71-33.22-11.58-51-12.2-13.47-.47-27-.55-40.91,1.6a13,13,0,0,1,1-2.48c9-12.15,17.74-24.48,27.15-36.3,2.77-3.48,3.9-6.57,3.1-10.5-19.46,23.36-48,32.85-73,47.89a284.44,284.44,0,0,0,13-34c.43-1.38,1.18-2.92-.34-3.91-1.28-.84-2.36.09-3.17,1.2-8.9,12.16-22,19-34.31,26.72-5,3.15-5.31,2.85-6.13-3.09-1.44-10.53-4.63-20.67-7.16-31-.32-1.31-.57-3-2.62-2.87s-2,1.59-2.2,3q-1.57,14.45-3.2,28.89c-.54,4.82-.8,9.68-2.26,14.33a6.11,6.11,0,0,1-5.67,4.37c-2.57.19-3.34-2-4.21-4.18A373.46,373.46,0,0,0,431.76,63c-.93-1.43-1.67-3.7-4-2.26-2.54,1.56-.3,3.25.41,4.57,7.89,14.6,16,29.09,23.81,43.71,2.48,4.61,5.64,9.16,4.56,14.92a2.56,2.56,0,0,1-2.45-1.48Q432.73,93,411.36,63.38c-1.09-1.51-1.79-4.21-4.27-2.94s-.85,3.47,0,5.18C413,78.2,419,90.75,424.83,103.34c2.82,6,5.5,12.16,8.77,19.41-15.73-4.93-29.73-9.54-43.73-14-1.47-.47-3.45-2.32-4.58.3-.9,2.08.65,3.23,2.32,4.26q8,5,16,10.14c4.77,3.08,9.49,6.24,14.24,9.37-11.34-1.71-22.1-4.6-33.19-5.71-9.28-.93-17.3-4-23-11.87-2.1-2.9-5.07-5.14-7.55-7.77C334.29,86.56,314.37,65.9,294,45.62Z"/><path class="cls-2" d="M846.19,761c0-1.39-.12-2.79-.2-4.34q-346.56,72.27-693.19-.06c0,40.16.11,79.75-.14,119.34,0,4.82,1.8,5.8,5.87,6.61,31,6.16,62.09,11.85,93.37,16.54,23.86,3.58,47.78,6.77,71.77,9.3,23.49,2.48,47.06,4.29,70.65,5.9,35.38,2.41,70.79,3.27,106.22,3.29q80.26,0,160.16-7.8c25.64-2.56,51.24-5.48,76.73-9.13,34.87-5,69.52-11.26,104-18.25,3.26-.66,4.9-1.7,4.88-5.83C846.1,838,846.2,799.47,846.19,761ZM356.78,899.76c-12.31-.59-12.62-.57-13.32-12.11-.37-5.92-1.49-8.78-8.54-9.3-13-1-13.35-1.76-16.46,11-1.44,5.9-4,6.65-9.34,5.52-8.89-1.89-8.92-1.57-6.35-10.26,8.6-29.15,17.32-58.26,25.63-87.5,1.24-4.34,3-5.32,7-4.72,5.35.83,10.74,1.37,16.14,1.86,2.28.21,2.89,1.2,3,3.41Q357.15,836.84,360,876c.44,6.12.42,12.32,1.53,18.33C362.52,899.58,360.92,900.87,356.78,899.76Zm65.06,4.42a17.53,17.53,0,0,0-3.24,0c-9.16-.24-9.16-.24-10.4-9.4-1.37-10.15-1.37-10.15-11.79-11s-10.31-.87-12.55,9c-2.06,9.09-2.06,9.08-11.55,8.32a20.88,20.88,0,0,0-3.26-.14c-3.3.24-3.71-.81-2.89-4.08q12-47.34,23.47-94.83c.83-3.43,2.25-4.62,5.81-4.2,5.55.66,11.16.91,16.75,1.11,2.26.09,3,.85,3.26,3.15q4.19,38.48,8.62,76.93c.75,6.63,1.14,13.35,2.49,19.86,1,4.59.07,6.22-4.69,5.28Zm67.36,2c-2-.17-4,0-5.95,0-8.67-.09-8.67-.09-10-8.6-1.76-10.76-1.76-10.76-12.68-10.86-9.83-.09-9.83-.09-11.76,9.62-1.79,9-1.79,9-11.62,8.71-6.71-.21-6.71-.21-5.37-6.73,6.44-31.19,13-62.35,19.19-93.58.67-3.36,1.87-4,4.89-3.85a128.51,128.51,0,0,0,15.7.12c3.8-.25,4.88,1.4,5.35,4.71,4.59,32.46,9.61,64.85,15.29,97.15.43,2.72-.37,3.59-3,3.34Zm81.31-1.79c-12.64.57-12.56.74-13-11.72-.72-19-1.56-37.92-2.89-57q-1.77,14.48-3.57,28.92c-1.52,12.36-3.07,24.72-4.55,37.08-.3,2.53-1.23,3.55-4.06,3.7-13.68.71-13.59.8-16.22-13.51-3.19-17.37-6.53-34.71-9.82-52.07a5.58,5.58,0,0,0-.46-1.17v50c0,4.7,0,9.41.25,14.1.12,2.59-.85,3.32-3.41,3.47-12.51.7-12.5.78-12.51-11.64,0-29.29,0-58.58-.2-87.88,0-4.18.93-5.92,5.33-5.48,3.41.34,6.87,0,10.3,0,9.87.1,7.24-1.66,9.13,7.78,4.11,20.4,7.73,40.9,11.55,61.36h1.4c1.55-12.09,3.13-24.17,4.63-36.27q1.86-14.76,3.53-29.57c.32-2.75,1.3-4.1,4.36-4.07,5,0,10.13-.13,15.16-.57,3.24-.29,4.31.58,4.45,4,.77,18.24,1.83,36.46,2.76,54.69.7,13.72,1.25,27.44,2.12,41.16.19,3.56-.64,4.6-4.28,4.77Zm71.43-4.74c-4.16.19-8.29.62-11.6.88-3.1.6-4.06-.39-4.45-2.63-.48-2.83-1.38-5.59-2-8.4-1.8-7.61-1.78-7.62-9.32-6.8-1.8.19-3.6.45-5.4.58-8.23.58-8.23.57-9.1,8.93C599,902.4,599,902.4,589.29,903.4c-6.45.65-6.42.65-5.77-5.58q5-47.94,9.91-95.91c.26-2.66,1-3.87,3.82-4,5.77-.25,11.54-.69,17.31-1.21,2.48-.23,3.87.33,4.56,3q12.3,48.13,24.78,96.25c.46,2,1,3.59-2,3.73ZM674.59,806c-6.15.3-7.22,2.19-6.5,7.92,3.23,26,5.94,52,9.07,78,.43,3.54-.54,4.62-3.78,4.51a27.21,27.21,0,0,0-3.25.16c-10.73,1-10.56,1-11.58-9.54-2.46-25.16-5.13-50.3-7.59-75.45-.24-2.47-1-3-3.34-2.62-2.84.48-5.89.09-8.59.9-5.63,1.72-6.53-1.27-6.48-5.67v-3.37c-2-5.09,1.08-5.83,5.25-6.23q20-1.89,39.84-4.3c3.91-.47,5.71.1,6,4.74C684.11,805,684.45,805.53,674.59,806Z"/><path class="cls-2" d="M105.27,254.64C100.59,249.88,96,245,91.19,240.4A10.76,10.76,0,0,1,87.48,232c-.4-31.45,1-62.83,3.54-94.16.77-9.33,2.17-18.6,3.16-27.92.22-2.13,1.48-3,3.12-4,50.92-29,103.4-54.27,160.67-68.3,4-1,8.07-1.71,12.07-2.7,4.7-1.17,8.49-.6,11.64,3.75,2.28,3.16,5.54,5.6,8.37,8.36l73.2,76.12c-6.57-.79-11.75-1.49-16.94-2q-13.74-1.41-27.5-2.67c-1.28-.11-2.92-.69-3.25,1.65-.3,2.14.68,3,2.5,3.32.88.18,1.78.29,2.66.5,19.85,4.73,39.33,10.45,56.64,21.76,3.51,2.3,7.13,4.59,9.71,8.31a80.16,80.16,0,0,1-18.24,1.16c-31.07-1.28-61.92-4.89-92.71-9.06-1.72-.23-4.45-2.36-5.26,1.26-.91,4.06,2.69,3,4.55,3.51,12,3.23,23.13,8.43,35.49,14.2A204.93,204.93,0,0,0,286.75,171c-36,11.92-67,33.17-98.82,52.93-3.22,2-4,4.88-2.19,8.5,5.74-3.9,11-8.37,17.56-10.65,13.61-4.7,27.27-9.17,41.21-12.82l.89,1.07c-.52.49-1,1-1.57,1.47-30.06,24.08-50.09,55.71-67.24,89.5-.69,1.35-2.07,2.72.28,4s3.07-.24,4.08-1.79c6.15-9.48,15-15.87,24.66-21.29l1.27,1c-11,10.72-21.64,21.78-30.34,34.46-2.8,4.09-4.26,3.41-7.34.34C148,296.61,126.6,275.66,105.27,254.64Z"/><path class="cls-4" d="M834.69,405.59c-.48-1.37-1-2.72-1.39-4.1-.26-.86-.82-1.89-.57-2.61,3.41-9.44,1.22-18.75-.53-28.08-2.56-13.77-7.44-26.91-8-41.3-.79-20-9.32-37.56-22.86-52.45a120.92,120.92,0,0,0-26.28-21.58c2.41-.16,3.25-.27,4.07-.27,7.58,0,15.14.13,22.71-.17,1.81-.06,5.06,0,5-2.86-.09-3.09-3.1-2.32-5.14-2.39-4.39-.16-8.6,1.23-13.23-.49-20.38-7.55-38.17-19.51-55.51-32.17-8.83-6.45-18.21-12.3-25.68-20.48l-1.4-.5c.11-.13.29-.38.31-.38.4.24.79.51,1.18.78,6.19.73,10.82,4.81,16,7.65,12.49,6.88,24.57,14.43,33.47,26,.91,1.19,1.89,2.29,3.59,1.12,1.92-1.33.49-2.66-.16-3.71a145.78,145.78,0,0,0-20.67-26.28,176.81,176.81,0,0,0-56.65-38c-1.47-.63-2.92-.88-3.75-2.68C674.29,150.11,666,142.8,656,137.31c-15.85-8.71-33.23-11.58-51-12.2-13.48-.47-27-.55-40.9,1.6a12.18,12.18,0,0,1,.94-2.48c9-12.15,17.76-24.48,27.15-36.29,2.78-3.5,3.9-6.58,3.11-10.51-19.46,23.35-48,32.85-73,47.89a286.08,286.08,0,0,0,13-33.95c.43-1.38,1.18-2.92-.34-3.92-1.28-.84-2.36.1-3.18,1.2-8.9,12.16-22,19-34.3,26.72-5,3.16-5.31,2.84-6.12-3.09-1.45-10.53-4.63-20.68-7.16-31-.33-1.32-.58-2.94-2.63-2.87s-2,1.6-2.2,3q-1.57,14.46-3.2,28.9c-.53,4.81-.81,9.67-2.26,14.32a6.14,6.14,0,0,1-5.68,4.38c-2.56.18-3.33-2.07-4.2-4.19A373.55,373.55,0,0,0,431.71,63.1c-.93-1.43-1.68-3.69-4-2.24-2.54,1.55-.29,3.24.41,4.56,7.89,14.59,16,29.1,23.81,43.71,2.48,4.61,5.64,9.15,4.57,14.92a2.62,2.62,0,0,1-2.47-1.48q-21.36-29.52-42.72-59.1c-1.08-1.51-1.79-4.21-4.27-2.94s-.85,3.47,0,5.18c5.91,12.59,11.87,25.13,17.74,37.72,2.84,6,5.51,12.16,8.78,19.41-15.69-5-29.69-9.63-43.69-14.13-1.46-.47-3.45-2.32-4.59.3-.89,2.08.66,3.23,2.32,4.26,5.38,3.32,10.69,6.72,16,10.13,4.77,3.1,9.49,6.25,14.24,9.38-11.34-1.7-22.1-4.6-33.19-5.71-9.29-.93-17.3-4-23-11.87-2.1-2.9-5.08-5.14-7.55-7.77-19.72-20.87-39.64-41.53-60-61.8a1.57,1.57,0,0,1-.2.25c-1,1.12-2.49.9-3.79,1.18l73.2,76.12c-6.57-.8-11.75-1.49-16.94-2q-13.74-1.41-27.5-2.66c-1.28-.12-2.92-.71-3.25,1.65-.3,2.13.68,3,2.5,3.32.88.17,1.78.28,2.66.49,19.85,4.73,39.32,10.46,56.63,21.76,3.53,2.29,7.13,4.58,9.71,8.31a80.66,80.66,0,0,1-18.23,1.17c-31.08-1.29-61.92-4.9-92.71-9.06-1.73-.24-4.45-2.37-5.25,1.24-.93,4.06,2.68,3,4.54,3.52,12,3.22,23.14,8.43,35.49,14.19A211.23,211.23,0,0,0,286.8,171c-36,11.91-67,33.17-98.8,52.92-3.23,2-4,4.89-2.21,8.51,5.76-3.91,11-8.37,17.57-10.66,13.61-4.68,27.27-9.16,41.21-12.8a2,2,0,0,1,2.42-.1l-1.53,1.16c-.52.49-1,1-1.57,1.47-30.06,24.09-50.1,55.71-67.24,89.5-.69,1.35-2.07,2.72.28,4s3.07-.24,4.08-1.79c6.15-9.49,15-15.87,24.65-21.29.68-.45,1.34-.89,2-1.35.43-.08,1.13-.37,1.26-.21.4.49,0,.87-.52,1.05L206.87,283c-11,10.73-21.62,21.77-30.33,34.46-2.81,4.09-4.26,3.41-7.33.34C148,296.66,126.6,275.7,105.27,254.69c-.09,1.67-.16,3.34-.24,5q25.78,26,51.57,51.93c3.83,3.85,7.61,7.74,11.53,11.48,2.08,2,2.18,3.55.53,6C150.15,357,137,387.31,127.85,419.43a22.36,22.36,0,0,0-.92,3.09c-.15,1.34-.86,3.17,1,3.78,2.09.7,2.75-1,3.24-2.64A118.82,118.82,0,0,1,147,390.6a147,147,0,0,1,20.93-25.28c-2.31,10.3-6.26,18.73-10.06,27.15-6.74,14.91-15.32,28.62-27.5,39.79-.53.49-1,1-1.52,1.54-1.07,1.2-1.58,2.66-.52,3.93s2.36,0,3.35-.53a124.57,124.57,0,0,0,23.69-16c3.13-2.7,6.79-4.74,9.79-8a103.7,103.7,0,0,0-3.63,36c.43,6.62,2,13.19.48,19.84,2.4,8.64,1.79,17.57,2.51,26.36,1.48,18.35,2.3,36.76,3.46,55.14.11,1.69-1,4.4,2.52,4.07s2-2.91,1.92-4.55c-.25-14.82-.47-29.62,1.35-44.82,3.16,4.45,2,9.49,2.6,14a361.6,361.6,0,0,0,12,58.08c1.37,4.55.2,6.66-3.63,8.83-9.67,5.49-20.33,8-30.89,10.85v3.22c12.48-2.85,24.79-6.16,35.7-13.26,1.73-1.14,2.57,0,3.23,1.52.82,1.86.67,4.21,3.42,6.34,0-3.28.28-5.73-.07-8.09-.7-5,2.48-8.26,5.27-11.39,2.55-2.86,3.58.22,4.34,2.15,3.61,9.21,6.34,18.87,10.87,27.61,9.1,17.56,12.72,36.56,16,55.63,1.6,9.34,3.35,18.72,3.71,28.26a8.64,8.64,0,0,0,2.24,5.55q-.69-10.41-1.43-20.83c-.62-8.77-1.28-17.53-1.82-26.31-.09-1.28-.6-3.28,1.53-3.42,1.8-.13,2.14,1.71,2.52,3,6.64,23.24,15.73,45.59,24.94,67.89.89,2.13,1.42,4.42,2.27,6.59.54,1.37,1.48,2.76,3.21,2.23s1.4-2.39,1.13-3.7c-1.21-5.8-2.6-11.56-3.9-17.34-1.09-4.88-2.14-9.75-2.82-14.78,6.17,10.33,9.66,21.85,14.42,32.8h4.08c-2.42-6.18-4.83-12.37-7.3-18.54l-18-45c-.63-1.56-.42-4.12-3.79-2.9-3,1.08-1.51,2.61-1.14,4.18.62,2.64,1.24,5.26,1.87,7.88,2.16,9,4.32,18.08,6.62,27.67-2.63-1.08-2.62-2.87-3.18-4.28-5.41-13.53-10.39-27.22-14.57-41.16-3.56-11.86-7.78-23.62-8.09-36.25-.06-2,1.21-5.36-2.67-5.28-4.45.07-2.53,3.79-2.37,5.73.51,6.11,1.32,12.18.6,19.27-2.37-6.85-3.76-13.08-6.57-18.56-5.78-11.25-10.22-23-14.45-34.84-5-14-10.75-28.06-7-43.56,0-.16-.36-.43-.61-.72-4,1.82-6.25,4.65-5.91,9.24.54,7.63-.82,15.12-1.86,22.62-.38,2.77.75,5.91-1.7,9a361.92,361.92,0,0,1-11.43-56.65c-1.91-17.07-2.8-34.2.82-51.23.37-1.7.82-3.4-1.87-4.13-3.14-.84-2.77,1.78-3.22,3-3.48,9.83-5.23,20.1-7.23,30.31-1.19-14.21-1.58-28.43-3.25-42.52-2.32-19.52.85-37.68,10.68-54.68.78-1.36,2.69-2.61,0-4.33s-3,.29-4.06,1.65a105.46,105.46,0,0,1-24.13,23.9l-1.32.85c-.34.27-.89.84-1,.77-.89-.63,0-1,.28-1.52l.75-1a178.75,178.75,0,0,0,22.21-44.86,47,47,0,0,1,13.16-20c14.4-13.49,30.11-25.35,45.9-37.12,1.28-1,4.15-1.27,2.24-4.32s-3.34-.92-4.82,0c-30.54,18.52-57.87,40.7-79.37,69.52-.56.82-1.23,2.16-2.22,1.19-.71-.71.73-1.48,1.23-2.2,18.63-44.94,45.29-83.76,85.59-112.19,1.65-1.16,4.26-1.87,2.45-4.82-1.67-2.71-3.42-.61-5,0-13.14,5.07-25.19,12.17-36.93,19.84-.17.54-.49,1-1.06.64-.17-.11.08-.86.12-1.32a269.06,269.06,0,0,1,33.52-47.74c11.71-13.14,24.58-24.92,40.86-32.38,4.8-2.21,9.92-3.14,14.91-4.64,1.4-.41,2.68-.67,2-2.88-.59-1.9-1.57-2.17-3.14-1.86-1,.22-2.11.5-3.14.79q-26.24,7.44-52.45,14.82c-1.45.41-2.81,1.14-4.84.09a388.69,388.69,0,0,1,45.27-24.89c17.26-7.88,34.82-14.75,54.08-15.74,1.59-.08,2.6-.28,3-2.18.48-2.17-.53-2.82-2.19-3.58-6.45-3-12.85-6.08-19.48-9.24,2.54-.55,4.81,0,7.1.2,24.58,2.74,49.16,5.66,74,5a40.63,40.63,0,0,0,10.61-1.77c3.21-1,4-2.35,1.56-5.12a63.59,63.59,0,0,0-12.22-10.64c-9.22-6.24-19.38-10.61-30.62-14.86,3.55,0,6.11-.32,8.57,0,14.44,2.14,28.91,4,43.18,7.18,12.3,2.73,24.61,5.31,35.92,11.19,1.51.78,2.89,3.14,4.76.23s-.87-3.29-2.22-4.18c-10.53-6.93-21.12-13.77-31.7-20.63l-1.57-1.17a2.45,2.45,0,0,1,2.52-.14c10.31,2.67,20,7.61,31.75,8.67-6.21-13.23-12-25.6-17.87-38.1,2.36-.4,2.56,1.47,3.32,2.48,5.79,7.83,11.47,15.75,17.27,23.58,2.9,3.91,6.11,7.6,8.92,11.57s7.46,1.49,11.31,4.1c6.75,4.56,14.27-1.43,15.29-10.8.94-8.65,1.83-17.31,2.75-26a62.61,62.61,0,0,1,4.64,15.36c1,5.17,2.39,10.43-.88,15.62,14.53-6.93,27.6-15.26,40.49-24.21a67.71,67.71,0,0,1-4.45,12.2c-3.12,6.39-5.18,13.57-12.11,17.35-1.8,1-1,2.44-.36,3.74,1.27,2.63,2.91.58,4,0,20-11,40.46-21.34,59.88-33.43.93-.59,1.76-2,3.6-.36q-8.31,10.62-16.65,21.24c-2.46,3.12-5.36,5.53-10.52,5.72,3,2.07,4.47,4.06,7.85,3.52,22.24-3.48,44.55-4.35,66.85-.6,13.61,2.29,26.62,6.28,37.67,15.05,1,.8,3.06,1.39,2.43,3-.73,1.93-2.58.55-3.78.33-13.71-2.54-27.6-3.25-41.48-3.94-9.92-.48-19.87-.39-29.8-.5-1.33,0-3-.43-3,2s1.12,2.72,3,2.58c1.26-.09,2.53,0,3.8,0a222.55,222.55,0,0,1,63,8.61c30.47,8.71,57.84,23,80,46.1.43.44,1,.91.3,1.51s-1.13-.15-1.59-.54a282.24,282.24,0,0,0-40-20c-1.81-.71-3.51-2-5,.6-1.42,2.45.61,3.22,1.88,4.28,26,21.56,52.48,42.46,82.76,57.88.66.33,1.3.63,1.06,1.58-1.12.73-2.38.26-3.61.28-8.64.23-15.62-5-23.58-7.07-2.3-.58-5.36-2.83-6.72.19-1.62,3.59,2.57,3.93,4.6,5.27,5.52,3.64,12.49,3.56,18.18,6.36,23.67,11.64,41.65,29,51,54.15,1.89,5.09,4.11,10.32,3.41,16.09-1.58,0-1.91-1.24-2.47-2.06-8.67-12.64-17.19-25.4-26-37.92-3.85-5.45-8.45-10.35-12.43-15.71-1.71-2.3-3.74-1.72-5.13-.68-1.65,1.23.38,2.45,1.13,3.5,5.89,8.21,11.61,16.56,17.76,24.56,15.42,20,27.6,41.74,34.23,66.28,1.49,5.59,3.51,11.18,2.51,18.69-2.42-5.93-4.28-10.51-6.17-15.09q-7.06-17.22-14.15-34.42c-.7-1.67-1.44-3.68-3.8-2.73-2.18.88-1.79,2.93-1.25,4.68.76,2.39,1.72,4.72,2.59,7.09,0,.43.19,1.12,0,1.27-.5.37-.83-.07-1-.58-1.18-1.55-2.29-3.17-3.58-4.65s-2.87-3.64-5.4-2.14-1.27,3.8-.39,5.71a30.46,30.46,0,0,0,2.75,4.64c13.22,18.85,22.49,39.71,31.16,60.87a57.17,57.17,0,0,1,3.89,26c-1.22.48-1.23-.32-1.4-.71-7.68-16.84-15.58-33.59-22.17-50.91-.85-2.22.34-7.65-4.67-5.71-4,1.55-.58,5,.18,7.12a418.44,418.44,0,0,1,22.37,102c.61,6.64.09,13.38.09,20.07-3.19-12.65-7-24.94-17.48-35,.83,29.86.34,58.68-3.92,87.31l4.74-1.18q.87-5.73,1.7-11.51c-1.91-14.19-.63-28.18,1.88-42.19.65-3.63-1.34-7.36-1-11.2a20.48,20.48,0,0,1,1.06-5.8c.36-.89.73-1.71,1.78-1.71,1.21,0,2.38.8,2.35,1.85-.25,8.73,6.81,16.13,4.44,25.2.7,10.08,1.44,20.16.78,30.28,2.53-.43,3.57-3.83,6.57-3.31a221.44,221.44,0,0,0,.73-62.29,27.53,27.53,0,0,1,.23-4.8h0a2.18,2.18,0,0,1-1.21-1.1c-.06-.15-.11-.31-.16-.47-.11-.7-.19-1.4-.23-2.11-.54-4.09-1.1-8.17-1.84-12.23-1.83-10-3.77-19.92-5.67-29.89l.75-.26q5.76,12.12,11.56,24.33c3.55-7.89,1.39-16.23,3.23-23.7S836.81,411.78,834.69,405.59ZM260.92,695.07c.66.88.76,1.77-.42,2.78-.11-1-.2-1.78-.24-2.57A1.18,1.18,0,0,1,260.92,695.07ZM665.53,150.93a3.93,3.93,0,0,1-.34-.68c0-.09.22-.23.34-.34.13.22.25.45.36.62Zm72.66,55.69a.51.51,0,0,1,.24.32c0,.08.07.15.1.24s.07.16.1.23-.19.25-.29.38l-.29.36a6.63,6.63,0,0,1-.55-.83c-.36-.78.24-.81.69-.7ZM777.32,250c.12,0,.22.19.33.29l-.38.26c-.11-.1-.22-.21-.32-.32.12-.08.25-.24.37-.24Z"/><path class="cls-3" d="M153.87,600.22c12.48-2.86,24.79-6.17,35.7-13.27,1.74-1.13,2.57,0,3.23,1.52.83,1.86.68,4.21,3.42,6.34,0-3.27.28-5.73-.06-8.1-.71-5,2.47-8.25,5.25-11.38,2.56-2.86,3.58.21,4.34,2.15,3.62,9.21,6.35,18.88,10.88,27.61,9.1,17.56,12.72,36.55,16,55.64,1.6,9.33,3.35,18.71,3.7,28.25a8.78,8.78,0,0,0,2.25,5.55q-.69-10.41-1.43-20.83c-.62-8.77-1.28-17.53-1.83-26.31-.08-1.29-.58-3.28,1.54-3.42,1.79-.13,2.14,1.71,2.52,3,6.63,23.25,15.73,45.59,24.94,67.89.89,2.15,1.43,4.44,2.28,6.6.53,1.38,1.47,2.76,3.2,2.23s1.41-2.39,1.13-3.7c-1.22-5.8-2.61-11.56-3.9-17.34-1.09-4.87-2.14-9.75-2.82-14.78,6.17,10.33,9.66,21.85,14.42,32.8,3.36,8.53,6.64,17.09,10.17,25.54.74,1.79,1,5.06,3.71,4.52,2.5-.49,1.31-3.37,1.34-5.18.11-7.94,0-15.87,0-23.81,0-2.41.45-4.23,3.12-1.7a27,27,0,0,1,2.33,2.8c8.83,13.19,19.32,25,29.74,36.93q7.86,9,16.29,17.34c.88.87,2,1.79,1.36,3.23s-2.2,1.12-3.37,1c-8.59-.73-17.18-1.36-25.73-2.37-13.35-1.58-26.64-3.55-40-5.16-20.47-2.48-40.71-6.56-61.15-9-10.32-1.25-15.67-5.8-20.55-14.67a801.34,801.34,0,0,1-44.16-93.88c-5.91-15.09-11.28-30.39-16.41-45.77-1.16-3.46-.62-4.78,2.87-6.45C143.31,601.62,148.81,601.94,153.87,600.22Z"/><path class="cls-3" d="M652.34,916.27c-7.28,7.09-14.73,11.84-21.86,17a587.17,587.17,0,0,1-86.9,51.56q-21.66,10.5-44,19.38a10.89,10.89,0,0,1-7.36.27c-26.89-7.59-52-19.37-76.5-32.57A484.74,484.74,0,0,1,346.31,926c-4.64-3.65-9.18-7.4-14.66-11.82,14.57,1.36,28,2.66,41.45,3.83,5.55.49,11.15.94,16.68,1.12,20.17.68,40.33,1.84,60.49,2.68,29.44,1.23,58.86.82,88.27.55,23.93-.22,47.86-1.84,71.77-3.16,12.74-.7,25.43-2.07,38.15-3.11A38.61,38.61,0,0,1,652.34,916.27Z"/><path class="cls-2" d="M665.81,779.57c10-30.89,27.85-55.23,53.51-74.33-3,8-5.93,16.11-9.11,24.07-3.45,8.64-7.18,17.18-10.76,25.77-.68,1.63-2.58,3.17.22,4.92,3.29,2,3.68-1,4.68-2.48A438.51,438.51,0,0,0,756.14,650.9c.15-.46.41-.88,1.43-1.17q-1.52,11.07-3,22.11c-.15,1.07-.36,2.13-.54,3.2-.32,2,.05,3.48,2.25,4.18s2.75-1,3.55-2.36a257.77,257.77,0,0,0,20.25-42.74,306.13,306.13,0,0,0,12.8-45.45c.53-2.6,1.34-3.53,3.74-4.14a7.53,7.53,0,0,0,4.45-2.84c2.77-4.74,4.62-2.19,7,.31q18.81,19.54,37.77,38.92c1.7,1.74,2.55,3.1,1.92,6-6.57,30.06-19.26,57.7-33.34,84.76-8.39,16.1-17.68,31.7-27.29,47.11a11,11,0,0,1-8.46,5.56c-23.23,4-46.56,7.23-69.9,10.4C694.67,776.67,680.52,777.94,665.81,779.57Z"/><path class="cls-2" d="M162,469c2.4,8.63,1.79,17.57,2.51,26.36,1.49,18.35,2.3,36.76,3.46,55.14.1,1.69-1,4.4,2.51,4.07s2-2.91,1.93-4.55c-.25-14.81-.47-29.62,1.35-44.82,3.17,4.45,2,9.5,2.59,14a361.26,361.26,0,0,0,12,58.07c1.36,4.56.19,6.66-3.65,8.84-9.67,5.49-20.32,8-30.87,10.85-11.78-.42-21.74,5.5-32.3,9.32-3.36,1.21-6.6,3-10,3.59-5.83.93-10.8-.46-15.65-4.88-17.8-16.22-32-34.57-38-58.34a89.4,89.4,0,0,1,1.26-49c1.59-5.18,4.6-8.23,9.12-10.54,15.72-8,32.61-12.85,49.31-18.18,2-.64,4-1.41,6-2.12l33.54-8.89Z"/><path class="cls-2" d="M970.28,692.82l-26.82,43.86c-5,8.13-9.77,16.38-15,24.32-2,3.1-1.33,4.25,1.54,5.93,19.86,11.6,39.62,23.36,59.42,35.07.92.55,1.81,1.12,3.31,2-13.46,4.12-26.38,8.12-39.33,12-32.2,9.74-64.42,19.39-96.59,29.21-4.17,1.27-5.58,1.08-5.5-4,.34-21.32.18-42.65.12-64,0-7.58-.47-15.17-.32-22.74.07-3.58-1.51-3.87-4.22-3.25a77.57,77.57,0,0,0-8.36,2c-10.54,3.73-20.39,2-29.78-3.53-1.6-.93-4.82-.92-4.51-2.92a7.32,7.32,0,0,1,5.25-6.21c6-1.69,12-3.56,18-5.38Q897.87,714,968.24,692.71A7.33,7.33,0,0,1,970.28,692.82Z"/><path class="cls-2" d="M148,846.88,6.09,804C27.51,791.37,48,779.12,68.73,767.17c3.61-2.09,3.57-3.61,1.57-6.82-13.88-22.29-27.57-44.7-42-68.2,8.81,2.58,16.54,4.79,24.24,7.11,42.85,12.93,85.65,26,128.57,38.68,5.67,1.68,6.86,6.26,9.28,10.23,1.2,2-1.14,1.73-2,2.29-9.13,6.12-18.83,5.12-28.86,2.65C148.05,750.28,148,750.52,148,762Z"/><path class="cls-2" d="M830.56,537.3a221.82,221.82,0,0,0,.73-62.29,28.42,28.42,0,0,1,.22-4.79c1.58-3.66,1.45-7.88,3.65-11.34,14.15,1.46,28.31.62,42.47.43,4.45,1.12,9,.37,13.47.5a52.36,52.36,0,0,1,30.6,10.42c8.93,6.65,12.24,16.26,13.2,26.76,1.57,17,.93,33.88-6.47,49.73-9.6,20.58-26.74,31.31-48.17,36.16-13,2.93-25.89-.75-38.85-.27-2,.08-3.25-1.47-4.66-2.52-7.8-5.84-15.48-11.83-23.32-17.61-2.5-1.83-3.74-3.76-2.48-6.79q.84-5.73,1.69-11.51c2.75-9.17,5.35-18.38,7.42-27.73.48-2.21.18-5.09,3.15-6.12.7,10.08,1.43,20.16.78,30.28-.2,2.1-.45,4.21-.58,6.32-.09,1.51-.63,3.2,2,3.46,2.22.22,2.83-1.12,3.18-2.69C829.31,544.25,829.87,540.77,830.56,537.3Z"/><path class="cls-3" d="M162,469,157,458c-.31-3.16-1.58-4.21-5-3.21-9.47,2.79-19,5.22-28.59,7.78a66,66,0,0,0-15.53,4.32c-3.71,1.42-5.42.46-5.92-3.19-1.57-11.37-3.19-22.74-4.56-34.14-1.87-15.5-3.77-31-5.18-46.54q-1.41-15.57-2.3-31.19C88,317,87.05,282.21,87.61,247.38c0-.68.11-1.37.21-2.51C94.59,249,98,256.42,105,259.64l51.57,51.94c3.82,3.84,7.61,7.73,11.54,11.47,2.07,2,2.17,3.55.52,6-18.51,27.88-31.66,58.2-40.81,90.32a21.18,21.18,0,0,0-.92,3.1c-.15,1.34-.86,3.16,1,3.77,2.1.71,2.76-1,3.25-2.64a118.76,118.76,0,0,1,15.84-33.05,147.55,147.55,0,0,1,20.93-25.23c-2.29,10.3-6.24,18.73-10,27.15-6.74,14.91-15.32,28.62-27.5,39.8-.53.49-1,1-1.53,1.54-1,1.19-1.56,2.65-.51,3.92s2.36,0,3.35-.52a125.21,125.21,0,0,0,23.69-16c3.13-2.71,6.79-4.75,9.79-8a103.2,103.2,0,0,0-3.63,36C161.94,455.8,163.5,462.36,162,469Z"/><path class="cls-3" d="M854.69,623.48c-12.62-14.71-26.23-26.8-38.58-40.12-2.32-2.51-4.53-5.13-6.93-7.54-1.69-1.7-2.41-3.36-1.62-5.79,1-3,2-4.4,5.15-1.89,5.06,4,11,7.12,15.43,11.71,6.82,7.07,15.2,8.08,24,8.44,3.42.14,6.85.1,10.27,0,2.36,0,3.26.53,2.4,3.15C861.5,601.71,858.32,612,854.69,623.48Z"/><path class="cls-5" d="M669.44,741.74c-3,9.43-6,18.86-8.08,28.59s-2.22,10-12.47,10.86c-4.32.36-9.27,2.48-13.08-2.13-1.34-1.62-1.39-2.48,0-4,10.48-10.93,20.87-21.94,31.29-32.92A1.88,1.88,0,0,1,669.44,741.74Z"/><path class="cls-4" d="M791.43,569.93a610.55,610.55,0,0,0,3-80c0-1.31-1.36-3.47,1.46-3.7,3-.26,3.64,1.75,3.64,4.15,0,11,1.28,22,.54,33q-1.43,21.6-2.87,43.21C794.58,566.56,793.81,569.65,791.43,569.93Z"/><path class="cls-4" d="M877.63,459.31c-14.16.19-28.32,1-42.47-.43-.16-3.36,1.59-4.1,4.7-4.06,13,.18,25.94.11,38.91.14A7.76,7.76,0,0,1,877.63,459.31Z"/><path class="cls-4" d="M123.49,462.53c9.54-2.56,19.12-5,28.59-7.78,3.39-1,4.66.05,5,3.21l-33.54,8.89Z"/><path class="cls-4" d="M299.34,722.88a27,27,0,0,0-2.33-2.8c-2.67-2.53-3.08-.71-3.12,1.7l-3.58.05V717a42.94,42.94,0,0,1,1.19-12l12.18,17.89Z"/><path class="cls-3" d="M351.38,765.21l19.49,16.61c-9.28,1.61-10.4,1.3-14.47-6-1.87-3.38-4.76-6.38-5-10.57Z"/><path class="cls-3" d="M612.87,773.88c0,9.32-.4,9.89-8.37,10.68l8.4-10.65Z"/><path class="cls-2" d="M347.23,770.45c.86.65,1.75,1.5.65,2.42-.59.49-1.13-.5-1.49-1.1Z"/><path class="cls-2" d="M719.79,722.31c-.48.45-.38,2-1.47,1.17-.67-.48-.09-1.47.43-2.12Z"/><path class="cls-3" d="M612.87,773.91a2.32,2.32,0,0,1,.18-.39c0-.07.19-.06.29-.08l-.5.44Z"/><path class="cls-3" d="M351.37,765.22l-.49-.47c.1,0,.25,0,.3.07a1.2,1.2,0,0,1,.2.39Z"/><path class="cls-4" d="M683.23,465.5a267.74,267.74,0,0,0-9.08-39.42c-18-56.82-46.72-108.28-78.9-158-2.85-4.42-4.87-4.13-8.23-1.22-8.51,7.34-16.14,15.55-23.72,23.8-25.93,28.22-50.75,57.42-75.87,86.93-3.58-5.57-6.65-10.86-10.21-15.81-24-33.25-54.12-60.54-85-87.07-3-2.55-3.69,0-4.84,1.53a379.49,379.49,0,0,0-31.44,48.55,420.69,420.69,0,0,0-48.89,154c-.79,6.8,1.15,11.34,6.42,15.69,21.87,18.08,44.2,35.56,66.68,52.86,3.25,2.5,5.5,5.07,4.92,9.41-.47,3.5,1.17,5.39,4.37,7,21.28,11,43.69,19.45,65.69,28.87,25,10.68,50,10.21,74.86,1.31,25.93-9.28,50.78-21.19,75.44-33.43,3.3-1.64,4.48-3.4,4.3-7-.13-2.38-1.35-5.18,2-7.09,5.83-3.33,10.52-8.21,15.25-12.93,19.35-19.31,36.92-40.2,54.6-61A8.05,8.05,0,0,0,683.23,465.5ZM580.16,279.65c3.56-3,6.4-6.82,10.68-9.51,9.71,15,19.55,29.79,27.72,45.59a2,2,0,0,1,.86,2.7,1.69,1.69,0,0,1-.29.41c.16-.25.33-.51.51-.76.12.14.25.3.38.44-.31.1-.6.21-.89.32h-.08c-.47-.71-.92-1.42-1.39-2.13-12.37-10.76-24.7-21.54-37.14-32.2C578.47,282.78,577.74,281.67,580.16,279.65Zm-15.29,16.14c3.29-3.07,5.87-8.59,9.42-9.2s6.89,4.89,10.24,7.78c13.12,11.32,26.11,22.77,39.23,34.08a31.25,31.25,0,0,1,7.59,9.69c5.88,11.51,11.91,23,17.07,34.84,0,.45.18,1.17,0,1.29-.57.37-.81-.17-1-.66L600,331.74c-11.61-10.29-23.1-20.72-34.74-31C563.35,299,562.63,297.91,564.87,295.79Zm-13.61,15c3-2.56,5.41-7.8,8.18-7.87,3-.08,6.12,4.45,9.07,7.09q41.31,36.8,82.58,73.61a20.31,20.31,0,0,1,5.48,7.84c3.89,9.65,7.7,19.31,10,30.08L640,397.7q-44.12-39.76-88.26-79.47c-3-2.72-3.91-4.52-.49-7.47Zm-14.72,16.77c3-2.84,5.51-6.16,8.32-9.36l101.65,91.66c6.57,5.94,13,12,19.79,17.72a18.13,18.13,0,0,1,6.44,10.8c1.26,6.47,3,12.85,3.57,19.78l-26.58-23.67Q593.42,384,537,333.67c-2.55-2.27-3.06-3.66-.44-6.14Zm-153.9-37c2.86-3.21,4.77-8.89,8-9.68,3.52-.87,6.72,4.51,9.88,7.31,26.52,23.53,52.39,47.71,73.11,76.74,2.83,3.95,5.1,8.26,7.64,12.42.29.55.73,1.18-.12,1.56-.19.08-.66-.48-1-.76-13.34-11-26.73-22-40-33.1-18.87-15.73-37.63-31.59-56.59-47.21-3.05-2.56-3.58-4.29-.89-7.32ZM352.64,520c-11.72-9.35-23.2-19-35-28.2-4.7-3.65-7.6-7.4-5.55-13.59.44-1.32.22-2.86.37-5.52,11,8.89,21.19,17.14,31.38,25.4,10.37,8.44,20.27,17.55,31.24,25.1,7.81,5.38,8.67,12.27,8.65,21.12-10.66-8.4-20.86-16.27-31-24.35Zm27.76,2.08c-20.89-17.8-42.4-34.85-63.79-52-2.6-2.09-3.6-3.84-2.69-7.2,1.12-4.1,1.45-8.42,2.3-13.77,28.86,26.2,56.73,51.53,84.84,77-8,2.56-14.09,1.46-20.58-4.07Zm30.1,3.81c-2.32.22-3.66-.9-5.17-2.27-27.54-25-55-50.15-82.76-75-4-3.56-5.87-6.83-3.84-12a61.15,61.15,0,0,0,1.8-6.92L433,524.08c-8.11.62-15.27,1-22.4,1.74Zm31.22-2.43c-2.28.17-3.68-1.17-5.2-2.45Q380.81,474,325,427.21c-2.42-2-3.38-3.67-2.14-6.82a62.74,62.74,0,0,0,3.22-11.4c.76-3.92,1.91-3.82,4.64-1.41q28.74,25.2,57.61,50.21l71.1,62c.62.55,1.24,1.11,2.65,2.35-7.43.42-13.85.77-20.25,1.25Zm28.12-1.74c-1.52,0-2.5-1.28-3.58-2.23q-66.69-58-133.46-115.94c-3.37-2.91-3.83-5.31-2.25-9.18,2.49-6.15,4.51-12.49,7-19.46L497,520.47c-9.9.44-18.47.87-27.05,1.18Zm61.7-1.57c-8.46,0-16.94-.12-25.4.07-2.77.07-4.3-1.52-6-3.08Q441.3,463.35,382.48,409.57c-13.06-11.95-26-24-39.27-35.78-3.14-2.78-3.34-5-1.73-8.63,4.14-9.23,4-9.33,11.45-2.81L529.64,516.84l2.4,2.07a8.81,8.81,0,0,1-.42,1.17Zm11.29-.25c-2.72.06-4.33-1.49-6.08-3Q466,455,395.2,393L354,357c-6.37-5.56-6.38-5.57-2.76-13,1.1-2.25,2.29-4.48,3.71-7.24l210.25,183c-8.18,0-15.22-.13-22.3,0Zm30.35.09c-1.08-.09-2.11-1.28-3-2.09q-104.7-91.11-209.45-182.18c-2.87-2.49-3.49-4.38-1.36-7.59,2.39-3.59,4.31-7.48,6.75-11.81L608.87,523.16c-12.63-1.15-24.13-2.09-35.61-3.24Zm36.52,22V525c1.09-.58,1.48.31,1.94.69,10.3,8.37,10.3,8.37-1.86,16.24Zm22.66-20.69c-8.17,8.74-8.23,8.83-17.26,1.13Q503.11,427,391.16,331.5c-6.6-5.62-13.14-11.33-19.87-16.79-2.25-1.84-2.43-3.09-.86-5.63,6.55-10.73,6.42-10.78,16.11-2.67l245.2,205.14c1.75,1.46,3.47,3,5.3,4.6-1.68,1.86-3.12,3.46-4.6,5Zm16.07-17.46c-8.06,8.78-8,8.94-17.08,1.32Q561.29,446.54,491.15,388c-3.16-2.63-3.41-4.22-.47-7a89.58,89.58,0,0,0,7.4-8.65,23.67,23.67,0,0,0,1.79-2.76c1.68,1.35,2.68,2.11,3.63,2.94L614.37,469c11.18,9.72,22.3,19.52,33.59,29.13,2.45,1.91,3,3,.55,5.63ZM663,487c-3.12,3-5.43,8.36-8.82,9-3.65.74-6.72-4.63-9.93-7.41Q576.64,430,509.17,371.19c-5.9-5.13-5.86-5.16-.55-11.27,1.89-2.18,3.79-4.37,5.58-6.63a12.55,12.55,0,0,0,1.22-2.69c2.31,1.88,3.56,2.85,4.76,3.9l79.92,70.91c20.82,18.49,41.58,37,62.52,55.41,2.7,2.28,3,3.63.47,6.1Zm12.89-15.1c-7.35,8.18-7.1,8.27-15.49.81q-68.7-61-137.52-121.95c-3.06-2.69-3.42-4.2-.43-7s5.47-6.18,8.21-9.38q72.58,64.92,144.62,129.25c3.33,2.79,3.79,4.73.69,8.19Z"/><path class="cls-1" d="M681.33,529.86c-2.44-1.43-3.16.5-4.27,1.64C629.35,580.5,571,605,503,606.58c-36.27.84-71.3-6.57-105.36-18.79-31.52-11.32-60.88-26.9-89.25-44.5-.4.3-.82.59-1.22.9a461.92,461.92,0,0,1,29.13,116.5c.34,3,2.19,4.35,4.33,5.72,61,38.94,127.29,55.07,199.17,44.22,45.94-6.93,87-26.33,124.71-53.12a5.73,5.73,0,0,0,2.81-4.79c1.16-23.65,2.32-47.31,5.26-70.81,2-16.08,3.79-32.23,9.52-47.58C682.65,532.74,683.72,531.26,681.33,529.86Zm-12.12,41.87c-1,10.06-2.32,20.09-3.2,30.16-.36,4.12-1.67,6.7-5.7,8.71-19.06,9.45-38.19,18.58-59.25,22.76-1.58.31-3.2.48-4.82.64-1.93.18-4.23-.23-3.83,3s2.52,1.83,4.12,1.65c15.93-1.85,30.67-7.62,45.18-14,7.72-3.41,15.26-7.23,23-10.91-.62,12.42-1.3,24.64-1.76,36.88-.08,2.26-1.44,3.12-2.89,4.13-36.69,25.57-76.42,43.86-120.93,50.94-69.16,11-132.69-4.47-192-40.36-4.35-2.64-6.53-5.62-7-11-.78-9.62-2.84-19.14-4.44-29.13,14.84,5,29,10.15,43.35,14.63,11.12,3.46,22.18,7.67,34.18,7,.27-.31.55-.6.83-.9.18-2.21-.68-3-3-3.32-26-3.72-50.12-13.75-74.63-22.47-3.38-1.2-2.79-4-3.26-6.17a478.79,478.79,0,0,0-16.57-58,15.66,15.66,0,0,0-1-1.9c.72-.87,1.4-.7,2,.1C363.52,582,412.13,602.56,465.87,609c78.06,9.3,146.58-12,205.15-64.75a17,17,0,0,1,1.65-1.4c.25-.17.66-.12,1.51-.24C672.53,552.4,670.18,562,669.21,571.73Z"/><path class="cls-4" d="M479.24,305.39c-.07.6,0,1.16-.16,1.25-1.08.57-2.66,1.75-3.26,1.39a39,39,0,0,1-6.92-5.44c-.52-.51-.89-2.81.89-3.09,4.92-.77,1.14-3.58.76-4.57-7.2-18.74-17.39-35.9-28.33-52.64-9.48-14.5-19.73-28.44-30.44-42-1.2-1.53-3-2.8-.35-4.76,2.27-1.71,2.9.41,3.69,1.43,23,29.64,44.92,60,59.4,95C476.37,296.35,477.73,301,479.24,305.39Z"/><path class="cls-4" d="M495.15,323.6c1.85-8.31,5-15.58,8.1-22.84,10.57-24.44,22.51-48.23,34.72-71.88.71-1.37.8-3.83,3.65-2.59,3.14,1.38,1.34,3.15.52,4.76-13.08,25.63-26.21,51.22-37.13,77.88-2,4.81-4.1,9.61-5,14.78-.42,2.5-2,2.14-3.56,2C494.44,325.63,494.87,324.35,495.15,323.6Z"/><path class="cls-4" d="M499.39,277.16c-1,1.24-2.11,2.46-3.11,3.73s-2,2.47-4,1.4c-1.84-1-1.91-2-1.44-3.92a78.3,78.3,0,0,0,1.58-10.12c.21-1.82-.1-3.66,2.73-3.53,3.07.14,2.24,2,2.08,3.81a23.84,23.84,0,0,0,.33,3.16c5.27-6.74,9.9-12.64,14.51-18.56,1.08-1.39,1.75-3.27,4.19-1.78s1.12,2.94.36,4.52c-4.86,10-9.66,20.08-14.65,30-.61,1.23-.82,4-3.62,2.6s-1.43-3.12-.51-4.92,1.61-3.59,2.4-5.39a1.4,1.4,0,0,0,.69-1.86,1.42,1.42,0,0,0-.14-.23Z"/><path class="cls-1" d="M290.31,721.83l3.58-.05c0,7.94.09,15.87,0,23.81,0,1.81,1.16,4.69-1.34,5.18-2.75.54-3-2.73-3.71-4.52-3.53-8.45-6.81-17-10.17-25.54h4.08c2.05,4.79,4.1,9.58,6.46,15.07C290.19,730.62,288.93,726.12,290.31,721.83Z"/><path class="cls-4" d="M307.13,544.19v-1.33l1.27.42Z"/><path class="cls-3" d="M537.75,870.37c1.55-12.09,3.13-24.17,4.64-36.27q1.86-14.76,3.52-29.57c.31-2.75,1.31-4.1,4.36-4.07,5,.06,10.13-.13,15.17-.57,3.23-.29,4.3.58,4.44,4,.77,18.24,1.83,36.46,2.76,54.69.7,13.72,1.25,27.45,2.12,41.16.22,3.49-.61,4.53-4.24,4.69-12.65.58-12.57.75-13-11.71-.72-19-1.56-37.92-2.88-57q-1.8,14.46-3.58,28.92c-1.52,12.36-3.07,24.72-4.55,37.08-.3,2.53-1.23,3.55-4.07,3.7-13.67.71-13.58.81-16.2-13.51-3.19-17.37-6.54-34.72-9.83-52.07a5.5,5.5,0,0,0-.46-1.16v50c0,4.7,0,9.4.25,14.09.11,2.59-.85,3.32-3.41,3.47-12.52.7-12.5.78-12.52-11.64,0-29.29,0-58.58-.19-87.87,0-4.19.93-5.93,5.33-5.49,3.4.34,6.87,0,10.3,0,9.88.1,7.23-1.66,9.13,7.78,4.1,20.4,7.73,40.9,11.56,61.36Z"/><path class="cls-3" d="M361.54,894.31c-1.11-6-1.09-12.21-1.53-18.33q-2.75-39.18-5.42-78.36c-.16-2.21-.77-3.2-3-3.41-5.4-.49-10.79-1-16.14-1.86-4-.6-5.76.38-7,4.72-8.31,29.24-17,58.35-25.63,87.5-2.57,8.69-2.54,8.37,6.35,10.26,5.33,1.13,7.9.38,9.34-5.52,3.11-12.72,3.43-11.94,16.46-11,7,.52,8.17,3.38,8.54,9.3.7,11.54,1,11.52,13.32,12.11C360.92,900.87,362.52,899.58,361.54,894.31Zm-23.32-29.85a9,9,0,0,0-2.14-.32c-10.46-1-10.44-1-7.6-11.55q5.1-18.84,10.13-37.72l.66.13c.8,15.43,1.56,30.86,2.41,46.28.19,2.73-.3,4.26-3.46,3.18Z"/><path class="cls-3" d="M426.56,898.79c-1.35-6.51-1.74-13.23-2.49-19.86q-4.36-38.46-8.62-76.93c-.25-2.3-1-3.06-3.26-3.15-5.59-.2-11.2-.45-16.75-1.11-3.56-.42-5,.77-5.81,4.2q-11.56,47.46-23.47,94.83c-.82,3.27-.41,4.32,2.89,4.08a20.88,20.88,0,0,1,3.26.14c9.49.76,9.49.77,11.55-8.32,2.24-9.83,2.24-9.83,12.55-9s10.42.89,11.79,11c1.24,9.16,1.24,9.16,10.4,9.4a17.53,17.53,0,0,1,3.24,0C426.63,905.12,427.55,903.49,426.56,898.79Zm-25.2-29.17a5.66,5.66,0,0,0-1.09-.08c-11-.56-11-.56-8.63-11q4.38-19.14,8.79-38.27H401c1.44,15.07,2.77,30.16,4.41,45.23.44,3.64-.34,5.08-4.07,4.12Z"/><path class="cls-3" d="M643.87,896q-12.45-48.12-24.78-96.25c-.69-2.7-2.08-3.26-4.56-3-5.77.52-11.54,1-17.31,1.21-2.77.13-3.56,1.34-3.82,4q-4.86,48-9.91,95.91c-.65,6.23-.68,6.23,5.77,5.58,9.73-1,9.73-1,10.78-11.19.87-8.36.87-8.35,9.1-8.93,1.8-.13,3.6-.39,5.4-.58,7.54-.82,7.52-.81,9.32,6.8.66,2.81,1.56,5.57,2,8.4.39,2.24,1.35,3.23,4.45,2.63,3.31-.26,7.44-.69,11.6-.88C644.87,899.54,644.36,897.94,643.87,896ZM616,868.39c-13.77,1.9-13.84,2-12.77-11.74,1-12.38,2.18-24.74,3.28-37.11l.55-.23q5.48,23,11,46c.4,1.86.34,2.75-2.07,3.08Z"/><path class="cls-3" d="M492.2,902.87c-5.68-32.3-10.7-64.69-15.29-97.15-.47-3.31-1.55-5-5.35-4.71a128.51,128.51,0,0,1-15.7-.12c-3-.16-4.22.49-4.89,3.85-6.23,31.23-12.75,62.39-19.19,93.58-1.34,6.52-1.34,6.52,5.37,6.73,9.83.29,9.83.29,11.62-8.71,1.93-9.71,1.93-9.71,11.76-9.62,10.92.1,10.92.1,12.68,10.86,1.37,8.51,1.37,8.51,10,8.6,2,0,4-.14,6,0C491.87,906.46,492.67,905.59,492.2,902.87ZM456,872.23c-2.12,0-2.82-.63-2.39-2.89,3-15.54,5.84-31.1,9-48.27,2.43,18.07,4.64,34.54,6.88,51.14-4.54,0-9,0-13.49,0Z"/><path class="cls-3" d="M632.55,800.86c-2-5.09,1.08-5.82,5.25-6.22q20-1.92,39.84-4.31c3.9-.47,5.71.1,6,4.74.51,9.91.87,10.46-9,11-6.15.3-7.21,2.19-6.5,7.92,3.23,26,5.94,52,9.07,78,.43,3.53-.54,4.63-3.79,4.51a27,27,0,0,0-3.24.16c-10.73,1-10.56,1-11.58-9.54-2.46-25.16-5.13-50.3-7.59-75.46-.25-2.46-1-3-3.34-2.61-2.84.48-5.89.08-8.59.91-5.63,1.71-6.53-1.28-6.48-5.69C632.57,803.14,632.55,802.06,632.55,800.86Z"/><path class="cls-3" d="M823.21,510.33c-3,1-2.67,3.91-3.15,6.12-2.07,9.35-4.67,18.56-7.42,27.73C810.73,530,812,516,814.54,502c.65-3.62-1.35-7.35-1-11.2A20.41,20.41,0,0,1,814.6,485c.36-.89.73-1.72,1.78-1.71,1.21,0,2.38.8,2.35,1.85C818.51,493.85,825.59,501.26,823.21,510.33Z"/><path class="cls-1" d="M830.56,537.3c-.66,3.47-1.25,7-2,10.4-.35,1.57-1,2.91-3.18,2.69-2.59-.26-2-2-2-3.46.13-2.11.38-4.22.58-6.32C826.52,540.19,827.55,536.78,830.56,537.3Z"/><path class="cls-2" d="M146.87,382.82c-.56.8-1.23,2.15-2.22,1.17-.71-.7.73-1.47,1.23-2.19Z"/><path class="cls-2" d="M260.5,697.85c-.1-1-.2-1.78-.23-2.57,0-.07.61-.28.65-.21C261.58,696,261.69,696.83,260.5,697.85Z"/><path class="cls-2" d="M208.34,281.43,206.87,283l-1.27-1,2-1.34Z"/><path class="cls-3" d="M707.26,196.64l-1.4-.5a3.57,3.57,0,0,1,.3-.38c.4.24.79.52,1.18.78Z"/><path class="cls-2" d="M738.63,207.41l-.57.75a6.19,6.19,0,0,1-.57-.84c-.35-.78.24-.81.7-.69C738.39,206.67,738.49,207.13,738.63,207.41Z"/><path class="cls-2" d="M244.51,209a2,2,0,0,1,2.41-.09l-1.53,1.16Z"/><path class="cls-2" d="M408.45,121.11l-1.58-1.17a2.44,2.44,0,0,1,2.51-.14Z"/><path class="cls-2" d="M147.55,421.4c-.34.28-.89.84-1,.77-.89-.63,0-1,.28-1.52C147.07,420.91,147.3,421.16,147.55,421.4Z"/><path class="cls-2" d="M777.27,250.57c-.11-.1-.21-.21-.32-.32.13-.08.26-.24.37-.23s.22.19.33.29Z"/><path class="cls-2" d="M736.37,204.75c.43.44,1.06.91.31,1.51s-1.13-.15-1.6-.53Z"/><path class="cls-2" d="M192,284.64c-.17.54-.5,1-1.06.64-.17-.11.07-.86.13-1.32Z"/><path class="cls-2" d="M665.87,150.53l-.36.4a3.89,3.89,0,0,1-.33-.68c0-.08.21-.22.33-.34Z"/><path class="cls-2" d="M207.6,280.61c.44-.09,1.13-.38,1.26-.22.4.5,0,.87-.52,1Z"/><path class="cls-2" d="M805.78,341.5c0,.44.19,1.11,0,1.27-.5.37-.83-.07-1-.57Z"/><path class="cls-2" d="M146.87,420.65l.75-1,1.28.94-1.32.84A7.07,7.07,0,0,1,146.87,420.65Z"/><path class="cls-5" d="M366.17,316.25l242.7,206.91c-12.64-1.12-24.14-2.08-35.63-3.23-1.07-.11-2.1-1.29-3-2.1Q465.54,426.72,360.8,335.65c-2.88-2.5-3.49-4.39-1.36-7.59C361.8,324.47,363.72,320.57,366.17,316.25Z"/><path class="cls-5" d="M637.12,516.07c-1.76,1.93-3.2,3.54-4.67,5.12-8.18,8.74-8.25,8.82-17.28,1.13q-112-95.43-223.93-190.9c-6.6-5.63-13.14-11.33-19.86-16.79-2.26-1.84-2.43-3.09-.88-5.63,6.56-10.73,6.43-10.78,16.12-2.67L631.87,511.47C633.58,512.94,635.28,514.47,637.12,516.07Z"/><path class="cls-5" d="M497,520.46c-9.9.45-18.47.89-27,1.19-1.52.06-2.5-1.28-3.59-2.23q-66.67-58-133.45-115.94c-3.37-2.92-3.82-5.31-2.26-9.17,2.5-6.15,4.52-12.5,7-19.47Z"/><path class="cls-5" d="M565.25,519.77c-8.26,0-15.3-.11-22.34.06-2.71.06-4.34-1.5-6.08-3L395.28,393l-41.23-36c-6.36-5.57-6.37-5.57-2.76-13,1.1-2.26,2.29-4.47,3.71-7.24Z"/><path class="cls-5" d="M531.62,520.08c-8.47,0-16.94-.12-25.4.07-2.77.06-4.3-1.52-6-3.08L382.56,409.53c-13.07-11.95-26-24-39.27-35.78-3.14-2.78-3.34-5-1.72-8.63,4.13-9.23,4-9.33,11.44-2.81L529.72,516.8l2.4,2.07Z"/><path class="cls-5" d="M515.51,350.58c2.29,1.87,3.56,2.83,4.74,3.88l79.93,70.93c20.82,18.48,41.59,37,62.51,55.4,2.64,2.31,3,3.66.4,6.13-3.11,3-5.42,8.36-8.82,9-3.65.74-6.72-4.63-9.93-7.41Q576.72,429.89,509.25,371.1c-5.89-5.13-5.86-5.15-.55-11.25,1.89-2.19,3.79-4.38,5.58-6.64A12.85,12.85,0,0,0,515.51,350.58Z"/><path class="cls-5" d="M500,369.46c1.68,1.36,2.68,2.12,3.63,3Q559,420.62,614.45,468.86c11.18,9.73,22.3,19.52,33.58,29.14,2.38,2,2.89,3.11.49,5.73-8.07,8.78-8,8.94-17.09,1.32q-70.08-58.59-140.2-117.15c-3.16-2.63-3.41-4.22-.46-7a93.66,93.66,0,0,0,7.4-8.64A25.48,25.48,0,0,0,500,369.46Z"/><path class="cls-5" d="M530.75,334.3q72.59,64.9,144.63,129.24c3.24,2.89,3.7,4.82.6,8.27-7.35,8.19-7.1,8.28-15.49.82q-68.7-61-137.52-121.95c-3.06-2.69-3.42-4.2-.43-7S528,337.48,530.75,334.3Z"/><path class="cls-5" d="M544.87,318.16l101.65,91.68c6.57,5.93,13.06,12,19.79,17.71a18.07,18.07,0,0,1,6.43,10.8c1.26,6.47,3,12.85,3.58,19.79l-26.58-23.69Q593.42,384,537,333.67c-2.55-2.27-3.06-3.62-.44-6.13C539.55,324.69,542.08,321.37,544.87,318.16Z"/><path class="cls-5" d="M462.05,522.09c-7.43.47-13.85.82-20.25,1.3-2.28.17-3.68-1.17-5.2-2.45Q380.83,474,325,427.21c-2.41-2-3.39-3.67-2.13-6.82A63.39,63.39,0,0,0,326.05,409c.75-3.91,1.9-3.81,4.64-1.41q28.74,25.2,57.61,50.21l71.1,62Z"/><path class="cls-5" d="M666.58,421.51l-26.53-23.84q-44.12-39.76-88.26-79.47c-3-2.69-3.88-4.49-.49-7.44,2.94-2.56,5.4-7.8,8.17-7.87,3-.07,6.11,4.44,9.07,7.08q41.31,36.81,82.58,73.62a20.28,20.28,0,0,1,5.48,7.83C660.49,401.07,664.3,410.74,666.58,421.51Z"/><path class="cls-5" d="M433.06,524.08c-8.2.61-15.35,1-22.48,1.74-2.32.22-3.66-.91-5.16-2.28-27.55-25-55-50.14-82.77-75-4-3.57-5.88-6.85-3.85-12a59.15,59.15,0,0,0,1.81-6.92Z"/><path class="cls-5" d="M480.21,378.12c-13.36-11-26.74-22-40-33.11-18.87-15.72-37.63-31.59-56.59-47.2-3.06-2.52-3.59-4.26-.9-7.29,2.86-3.21,4.77-8.89,8-9.69,3.52-.86,6.72,4.52,9.88,7.33,26.52,23.52,52.38,47.7,73.11,76.73,2.82,3.95,5.11,8.27,7.64,12.42Z"/><path class="cls-5" d="M647.49,373.61q-23.73-20.92-47.43-41.87c-11.61-10.29-23.1-20.72-34.74-31-2-1.74-2.68-2.84-.41-5,3.28-3.07,5.86-8.6,9.41-9.2s6.89,4.89,10.25,7.79c13.11,11.31,26.1,22.76,39.22,34.07a31.29,31.29,0,0,1,7.58,9.68c5.89,11.52,11.92,23,17.07,34.85Z"/><path class="cls-5" d="M316.3,449l84.84,77c-8,2.59-14.17,1.49-20.67-4-20.88-17.79-42.39-34.85-63.78-52-2.6-2.09-3.6-3.84-2.69-7.2C315.12,458.66,315.45,454.35,316.3,449Z"/><path class="cls-5" d="M312.5,472.62c11,8.89,21.19,17.14,31.37,25.41,10.38,8.43,20.28,17.54,31.25,25.1,7.81,5.37,8.67,12.26,8.64,21.11-10.69-8.36-20.93-16.25-31-24.31-11.73-9.35-23.21-19-35-28.19-4.7-3.65-7.6-7.41-5.55-13.6C312.57,476.82,312.35,475.27,312.5,472.62Z"/><path class="cls-5" d="M617.67,316.73C605.29,306,593,295.2,580.51,284.54c-2-1.75-2.77-2.86-.35-4.9,3.56-3,6.4-6.81,10.67-9.5,9.72,15,19.56,29.78,27.73,45.59Z"/><path class="cls-5" d="M609.78,541.87V525c1.09-.58,1.48.31,1.94.69C621.94,534,621.94,534,609.78,541.87Z"/><path class="cls-5" d="M619.05,318.88l-1.38-2.15.89-1a2.05,2.05,0,0,1,.8,2.8,1.64,1.64,0,0,1-.29.4Z"/><path class="cls-5" d="M619.07,318.93l.56-.85.39.44-1,.36Z"/><path class="cls-5" d="M481.33,377.31c.28.55.73,1.19-.12,1.56-.19.08-.66-.48-1-.75Z"/><path class="cls-5" d="M648.44,373c0,.45.2,1.17,0,1.3-.57.36-.8-.18-1-.67Z"/><path class="cls-2" d="M414.06,645.85c.18-2.21-.68-3-3-3.32-26-3.71-50.11-13.76-74.62-22.47-3.38-1.2-2.79-4-3.25-6.17a482.49,482.49,0,0,0-16.58-58,15.66,15.66,0,0,0-1-1.9l2,.09C363.52,582,412.13,602.56,465.87,609c78.06,9.3,146.59-12,205.15-64.75a17,17,0,0,1,1.65-1.4c.25-.17.66-.12,1.5-.24-1.65,9.83-4,19.39-5,29.16-1,10.06-2.32,20.09-3.2,30.15-.36,4.13-1.67,6.71-5.7,8.71-19,9.46-38.19,18.59-59.25,22.77-1.59.31-3.21.48-4.82.64-1.93.18-4.23-.23-3.82,3s2.5,1.84,4.11,1.65c15.94-1.85,30.68-7.62,45.18-14,7.71-3.41,15.25-7.23,23-10.91-.62,12.41-1.31,24.64-1.77,36.87-.09,2.28-1.44,3.13-2.89,4.14-36.69,25.56-76.42,43.87-120.93,50.94-69.16,11-132.68-4.47-192-40.36-4.36-2.64-6.54-5.62-7-11-.78-9.62-2.84-19.13-4.43-29.13,14.83,5,29,10.16,43.34,14.62,11.12,3.47,22.17,7.68,34.18,7C414,646.89,414.32,646.65,414.06,645.85Z"/><path class="cls-4" d="M317.66,554.11l-2-.09C316.34,553.15,317,553.32,317.66,554.11Z"/><path class="cls-4" d="M414.06,645.85c.26.8-.08,1-.83.9Z"/><path class="cls-2" d="M499.39,277.16l1.44-1a1.41,1.41,0,0,1-.31,2l-.24.13C500,277.85,499.69,277.51,499.39,277.16Z"/><path class="cls-5" d="M339.28,815c.79,15.43,1.54,30.86,2.4,46.29.15,2.71-.3,4.25-3.46,3.17a9.54,9.54,0,0,0-2.13-.32c-10.46-1.06-10.45-1-7.62-11.54q5.1-18.86,10.15-37.73Z"/><path class="cls-5" d="M401,820.27c1.44,15.08,2.77,30.18,4.41,45.24.39,3.64-.34,5.07-4.08,4.11a5.45,5.45,0,0,0-1.07-.08c-11-.56-11-.57-8.64-11q4.38-19.11,8.79-38.26Z"/><path class="cls-5" d="M607.06,819.31q5.46,23,11,46c.46,1.9.41,2.78-2,3.12-13.77,1.9-13.85,2-12.77-11.74,1-12.38,2.18-24.74,3.28-37.11Z"/><path class="cls-5" d="M469.57,872.21H456c-2.12,0-2.83-.62-2.39-2.89,3-15.54,5.84-31.11,9-48.27C465.12,839.13,467.33,855.61,469.57,872.21Z"/></g></g></svg>