<svg xmlns="http://www.w3.org/2000/svg" viewBox="0 0 1415.11 245.41"><defs><style>.cls-1{fill:#0d0d0d;}</style></defs><title>aaamat_padrao_1</title><g id="Camada_2" data-name="Camada 2"><g id="Camada_1-2" data-name="Camada 1"><path class="cls-1" d="M797.05,224.43H742.29l-9.07,21H707.56L756.67,127h25.84l-31.66,76.32h37.47l-16.94-40.61,19.34-16.42,40.89,99.17H806Z"/><path class="cls-1" d="M925.39,224.43H870.63l-9.07,21H835.89L885,127h25.84l-31.66,76.32h37.48l-16.94-40.61,19.33-16.42L960,245.41H934.28Z"/><path class="cls-1" d="M1053.72,224.43H999l-9.06,21H964.23L1013.34,127h25.84l-31.66,76.32H1045l-16.93-40.61,19.33-16.42,40.9,99.17h-25.67Z"/><path class="cls-1" d="M1187.88,127h18.48v15.23l-55.27,82.42-31.32-46.54v67.35h-24.13V127h18.49l37,55Zm-5.65,118.46V183.14l24.13-16.42v78.69Z"/><path class="cls-1" d="M1306.12,224.43h-54.76l-9.07,21h-25.67L1265.73,127h25.84l-31.66,76.32h37.48l-16.94-40.61,19.33-16.42,40.9,99.17H1315Z"/><path class="cls-1" d="M1379.87,127V245.41h-24.65V147.6H1320V127Zm3.59,0h31.65V147.6H1393.9Z"/><path class="cls-1" d="M839.86,120.22a1.92,1.92,0,0,0-.11-.31l-2.66-6.47L799.45,22.2a5.15,5.15,0,0,0-3.57-3.05,5.48,5.48,0,0,0-1.21-.14,5.15,5.15,0,0,0-3.36,1.24l-8.38,7.11,8.42-20.31a5,5,0,0,0-.49-4.78A5.16,5.16,0,0,0,786.58,0H761.12a5.19,5.19,0,0,0-4.79,3.18L707.94,119.91a5.07,5.07,0,0,0,.5,4.78,5.16,5.16,0,0,0,4.28,2.26H738a5.14,5.14,0,0,0,4.75-3.1l7.6-17.58h47.11l7.44,17.55a5.19,5.19,0,0,0,4.76,3.13H835a4.92,4.92,0,0,0,2.11-.46,5,5,0,0,0,2.18-1.8,5.08,5.08,0,0,0,.87-2.85A4.75,4.75,0,0,0,839.86,120.22Zm-30.19,1.62-8.77-20.67H747L738,121.84H712.72L761.12,5.11h25.46l-31.2,75.22h36.93l-16.69-40,19-16.18,39.63,96.09a4.82,4.82,0,0,0-.28,1.63ZM773.81,49.35l10.78,25.87H763.08Z"/><path class="cls-1" d="M966.32,120.22a1.28,1.28,0,0,0-.11-.31l-2.66-6.47L925.92,22.2a5.19,5.19,0,0,0-3.57-3.05,5.62,5.62,0,0,0-1.21-.14,5.18,5.18,0,0,0-3.37,1.24l-8.38,7.11,8.43-20.31a5.06,5.06,0,0,0-.49-4.78A5.18,5.18,0,0,0,913,0H887.58a5.19,5.19,0,0,0-4.79,3.18l-45.7,110.26-2.69,6.47a1.76,1.76,0,0,0-.1.3,4.82,4.82,0,0,0-.28,1.63,5.09,5.09,0,0,0,.88,2.85,5,5,0,0,0,2.18,1.8,4.84,4.84,0,0,0,2.1.46h25.3a5.14,5.14,0,0,0,4.74-3.1l7.6-17.58h47.12l7.43,17.55a5.19,5.19,0,0,0,4.77,3.13h25.29a4.86,4.86,0,0,0,2.11-.46,5,5,0,0,0,2.18-1.8,5.09,5.09,0,0,0,.88-2.85A4.76,4.76,0,0,0,966.32,120.22Zm-30.18,1.62-8.76-20.67h-54l-8.94,20.67H840.13a4.75,4.75,0,0,0-.27-1.62L887.58,5.11H913l-31.2,75.22h36.93l-16.69-40,19.06-16.18,39.62,96.09a4.82,4.82,0,0,0-.28,1.63ZM900.27,49.35l10.79,25.87H889.55Z"/><path class="cls-1" d="M1092.68,119.91l-2.7-6.54-37.6-91.17a5.19,5.19,0,0,0-3.57-3.05,5.62,5.62,0,0,0-1.21-.14,5.18,5.18,0,0,0-3.37,1.24l-8.38,7.11,8.43-20.31a5.06,5.06,0,0,0-.49-4.78A5.15,5.15,0,0,0,1039.5,0H1014a5.15,5.15,0,0,0-4.77,3.18L963.55,113.44l-2.69,6.47a1.76,1.76,0,0,0-.1.3,4.82,4.82,0,0,0-.28,1.63,5.09,5.09,0,0,0,.88,2.85,5,5,0,0,0,2.18,1.8,4.86,4.86,0,0,0,2.11.46h25.29a5.16,5.16,0,0,0,4.75-3.1l7.6-17.58h47.11l7.43,17.55a5.2,5.2,0,0,0,4.78,3.13h25.28a5.09,5.09,0,0,0,3.62-1.48,4.53,4.53,0,0,0,.67-.78A5.06,5.06,0,0,0,1092.68,119.91Zm-30.07,1.93-8.77-20.67h-54l-8.94,20.67H966.6a4.76,4.76,0,0,0-.28-1.62L1014,5.11h25.46l-31.19,75.22h36.92l-16.69-40,19.06-16.18,40.29,97.72Zm-35.88-72.49,10.79,25.87H1016Z"/><path class="cls-1" d="M1209.41,20.12v-15A5.15,5.15,0,0,0,1204.24,0H1186a5.21,5.21,0,0,0-4.31,2.29l-32,47.78L1117.66,2.29A5.18,5.18,0,0,0,1113.35,0h-18.21A5.14,5.14,0,0,0,1090,5.11V121.84a5.05,5.05,0,0,0,1.53,3.63,5.18,5.18,0,0,0,3.63,1.48h23.78a5.14,5.14,0,0,0,5.17-5.11V72.37l21.39,31.79a5.19,5.19,0,0,0,8.6,0l21.22-31.65v49.33a5.13,5.13,0,0,0,5.16,5.11h23.78a5.15,5.15,0,0,0,5.06-4.07h0a4.39,4.39,0,0,0,.11-1V44.31a5.12,5.12,0,0,0-2.76-4.53,5.28,5.28,0,0,0-2.41-.58,5.11,5.11,0,0,0-2.93.9l-7.85,5.34,15.09-22.5A5,5,0,0,0,1209.41,20.12Zm-5.17,24.19v77.53h-23.78V60.48Zm0-24.19-54.46,81.21-30.86-45.86v66.37h-23.78V5.11h18.21l36.43,54.2L1186,5.11h18.21Z"/><path class="cls-1" d="M1341.38,119.91,1301.09,22.2a5.19,5.19,0,0,0-3.57-3.05,5.62,5.62,0,0,0-1.21-.14,5.2,5.2,0,0,0-3.37,1.24l-8.38,7.11L1293,7.05a5.06,5.06,0,0,0-.49-4.78A5.16,5.16,0,0,0,1288.21,0h-25.46A5.15,5.15,0,0,0,1258,3.18l-48.4,116.73a3.39,3.39,0,0,0-.17.51,4.86,4.86,0,0,0-.11,2.45h0a5.35,5.35,0,0,0,.77,1.81,5.19,5.19,0,0,0,4.28,2.26h25.3a5.16,5.16,0,0,0,4.75-3.1l7.59-17.58h47.12l7.44,17.55a5.17,5.17,0,0,0,4.77,3.13h25.28a5.18,5.18,0,0,0,4.29-2.26A5.06,5.06,0,0,0,1341.38,119.91Zm-30.06,1.93-8.77-20.67h-54l-8.94,20.67h-25.3l48.4-116.73h25.46L1257,80.33h36.93l-16.69-40,19.06-16.18,40.29,97.72Zm-35.88-72.49,10.79,25.87h-21.51Z"/><path class="cls-1" d="M1410,0h-31.19a5,5,0,0,0-1.77.32,5,5,0,0,0-1.77-.32h-59A5.14,5.14,0,0,0,1311,5.11V25.46a5.14,5.14,0,0,0,5.16,5.11h29.57v91.27a5.14,5.14,0,0,0,5.17,5.11h24.28a5.14,5.14,0,0,0,5.17-5.11V19.75l4,8a5.17,5.17,0,0,0,4.61,2.82H1410a5.14,5.14,0,0,0,5.16-5.11V5.11A5.14,5.14,0,0,0,1410,0Zm-34.73,121.84h-24.28V25.46H1316.2V5.11h59ZM1410,25.46H1389L1378.76,5.11H1410Z"/><path class="cls-1" d="M89.49,97.48H34.74l-9.07,21H0L49.11,0H75L43.29,76.32H80.77L63.83,35.71,83.16,19.29l40.9,99.17H98.39Z"/><path class="cls-1" d="M217.83,97.48H163.07l-9.07,21H128.34L177.44,0h25.84L171.63,76.32H209.1L192.16,35.71,211.5,19.29l40.89,99.17H226.73Z"/><path class="cls-1" d="M346.17,97.48H291.41l-9.07,21H256.67L305.78,0h25.84L300,76.32h37.48L320.5,35.71l19.33-16.42,40.9,99.17H355.06Z"/><path class="cls-1" d="M480.32,0H498.8V15.23L443.53,97.65,412.21,51.11v67.35H388.09V0h18.48l37,55Zm-5.65,118.46V56.19L498.8,39.77v78.69Z"/><path class="cls-1" d="M598.56,97.48H543.8l-9.07,21H509.06L558.17,0H584L552.36,76.32h37.47L572.89,35.71l19.34-16.42,40.89,99.17H607.46Z"/><path class="cls-1" d="M672.31,0V118.46H647.67V20.65H612.42V0Zm3.59,0h31.66V20.65H686.34Z"/><path class="cls-1" d="M132.3,238.68a2.22,2.22,0,0,0-.1-.31l-2.67-6.46L91.89,140.66a5.17,5.17,0,0,0-8.14-1.95l-8.38,7.11,8.42-20.31a5,5,0,0,0-.48-4.78A5.16,5.16,0,0,0,79,118.46H53.56a5.16,5.16,0,0,0-4.78,3.18L.38,238.37a5.06,5.06,0,0,0,.5,4.78,5.17,5.17,0,0,0,4.29,2.26H30.45a5.13,5.13,0,0,0,4.75-3.09l7.61-17.58H89.92l7.43,17.55a5.18,5.18,0,0,0,4.77,3.12h25.29a4.89,4.89,0,0,0,2.11-.46,5.07,5.07,0,0,0,3.06-4.65A4.76,4.76,0,0,0,132.3,238.68Zm-30.18,1.62-8.77-20.67H39.4L30.45,240.3H5.17L53.56,123.57H79L47.83,198.79H84.75l-16.69-40,19-16.18,39.63,96.09a5.08,5.08,0,0,0-.28,1.63ZM66.25,167.81,77,193.68H55.52Z"/><path class="cls-1" d="M258.76,238.68a2.22,2.22,0,0,0-.1-.31L256,231.91l-37.63-91.25a5.16,5.16,0,0,0-3.57-3,5,5,0,0,0-1.21-.15,5.18,5.18,0,0,0-3.37,1.24l-8.37,7.11,8.42-20.31a5.06,5.06,0,0,0-.49-4.78,5.16,5.16,0,0,0-4.29-2.27H180a5.16,5.16,0,0,0-4.78,3.18L129.53,231.91l-2.69,6.46a2.11,2.11,0,0,0-.1.3,5,5,0,0,0,.6,4.48,5,5,0,0,0,2.18,1.8,4.86,4.86,0,0,0,2.11.46h25.29a5.13,5.13,0,0,0,4.74-3.09l7.61-17.58h47.11l7.44,17.55a5.16,5.16,0,0,0,4.76,3.12h25.29A4.86,4.86,0,0,0,256,245,5.07,5.07,0,0,0,259,240.3,4.53,4.53,0,0,0,258.76,238.68Zm-30.18,1.62-8.76-20.67h-54l-8.94,20.67H132.58a4.76,4.76,0,0,0-.28-1.62L180,123.57h25.46l-31.19,75.22h36.92l-16.69-40,19.06-16.18,39.62,96.09a5.08,5.08,0,0,0-.28,1.63Zm-35.87-72.49,10.79,25.87H182Z"/><path class="cls-1" d="M385.12,238.37l-2.7-6.53-37.6-91.18a5.16,5.16,0,0,0-3.57-3,5,5,0,0,0-1.21-.15,5.18,5.18,0,0,0-3.37,1.24l-8.37,7.11,8.43-20.31a5.06,5.06,0,0,0-.5-4.78,5.15,5.15,0,0,0-4.29-2.27H306.48a5.15,5.15,0,0,0-4.77,3.18L256,231.91l-2.68,6.46a1.38,1.38,0,0,0-.11.3,5,5,0,0,0,.6,4.48A5,5,0,0,0,256,245a4.89,4.89,0,0,0,2.11.46h25.3a5.18,5.18,0,0,0,4.75-3.09l7.59-17.58h47.11l7.44,17.55a5.16,5.16,0,0,0,4.77,3.12h25.29a5.09,5.09,0,0,0,3.61-1.48,3.84,3.84,0,0,0,.67-.78A5.06,5.06,0,0,0,385.12,238.37Zm-30.07,1.93-8.77-20.67h-54l-8.93,20.67H259a4.53,4.53,0,0,0-.28-1.62l47.72-115.11h25.46l-31.19,75.22h36.93l-16.7-40L340,142.58l40.3,97.72Zm-35.87-72.49L330,193.68H308.45Z"/><path class="cls-1" d="M501.85,138.59v-15a5.14,5.14,0,0,0-5.17-5.11H478.47a5.19,5.19,0,0,0-4.3,2.29l-32,47.78L410.1,120.75a5.18,5.18,0,0,0-4.3-2.29H387.59a5.15,5.15,0,0,0-5.17,5.11V240.3a5.05,5.05,0,0,0,1.53,3.63,5.18,5.18,0,0,0,3.64,1.48h23.77a5.13,5.13,0,0,0,5.17-5.11V190.83l21.39,31.79a5.2,5.2,0,0,0,8.61,0L467.74,191V240.3a5.14,5.14,0,0,0,5.17,5.11h23.77a5.16,5.16,0,0,0,5.07-4.06h0a5.16,5.16,0,0,0,.1-1V162.77a5.1,5.1,0,0,0-2.76-4.53,5.25,5.25,0,0,0-2.41-.58,5.19,5.19,0,0,0-2.93.9l-7.85,5.34L501,141.41A5.08,5.08,0,0,0,501.85,138.59Zm-5.17,24.18V240.3H472.91V178.94Zm0-24.18-54.46,81.2-30.86-45.86V240.3H387.59V123.57H405.8l36.42,54.2,36.25-54.2h18.21Z"/><path class="cls-1" d="M633.83,238.37l-40.3-97.71a5.16,5.16,0,0,0-3.57-3,5,5,0,0,0-1.21-.15,5.2,5.2,0,0,0-3.37,1.24L577,145.82l8.42-20.31a5.06,5.06,0,0,0-.49-4.78,5.15,5.15,0,0,0-4.29-2.27H555.19a5.15,5.15,0,0,0-4.77,3.18L502,238.37a2.84,2.84,0,0,0-.18.51,4.78,4.78,0,0,0-.1,2.46h0a5.11,5.11,0,0,0,5.05,4.06h25.29a5.18,5.18,0,0,0,4.76-3.09l7.59-17.58h47.11L599,242.29a5.14,5.14,0,0,0,4.76,3.12H629a5.18,5.18,0,0,0,4.29-2.26A5.06,5.06,0,0,0,633.83,238.37Zm-30.07,1.93L595,219.63H541l-8.94,20.67H506.8l48.39-116.73h25.46l-31.19,75.22h36.92l-16.69-40,19.06-16.18L629,240.3Zm-35.88-72.49,10.79,25.87H557.16Z"/><path class="cls-1" d="M702.39,118.46H671.2a5,5,0,0,0-1.77.32,4.91,4.91,0,0,0-1.76-.32h-59a5.14,5.14,0,0,0-5.16,5.11v20.35a5.14,5.14,0,0,0,5.16,5.11h29.58V240.3a5.13,5.13,0,0,0,5.16,5.11h24.29a5.13,5.13,0,0,0,5.16-5.11V138.21l4,8a5.19,5.19,0,0,0,4.62,2.82h20.9a5.15,5.15,0,0,0,5.17-5.11V123.57A5.15,5.15,0,0,0,702.39,118.46ZM667.67,240.3H643.38V143.92H608.64V123.57h59Zm34.72-96.38h-20.9L671.2,123.57h31.19Z"/></g></g></svg>