<svg xmlns="http://www.w3.org/2000/svg" viewBox="0 0 100.18 99.97"><defs><style>.cls-1{fill:#3a000e;}</style></defs><title>facebook_vinho</title><g id="Camada_2" data-name="Camada 2"><g id="Camada_1-2" data-name="Camada 1"><g id="Camada_1-2-2" data-name="Camada 1-2"><g id="facebook"><path class="cls-1" d="M0,51.85V48c.07-.3.15-.59.2-.89C.74,43.73,1,40.27,1.87,37A50,50,0,0,1,99.21,59.42C95.46,78.54,83.74,91.24,65.33,97.66A43.88,43.88,0,0,1,51.19,100V66.37H61.66c.94,0,1.36-.23,1.45-1.22.16-1.79.46-3.57.68-5.35.29-2.32.57-4.65.87-7.12H51.26c0-3.73-.16-7.33.05-10.9.16-2.62,1.72-4,4.33-4.34a26.74,26.74,0,0,1,3.1-.2H65V24.77c-4-.1-7.93-.38-11.84-.25-9.07.31-15.21,6.07-16,15.11-.34,3.85-.21,7.75-.19,11.62,0,1.15-.35,1.41-1.43,1.39-3.08-.07-6.16,0-9.24,0-.94,0-1.26.31-1.25,1.25V65.23c0,.91.31,1.17,1.18,1.16h9.24a9,9,0,0,1,1.38.07v31.7a1.69,1.69,0,0,1-.45,0C18.27,93.41,3.24,76.41.72,57.76.45,55.8.24,53.82,0,51.85Z"/></g></g></g></g></svg>