<svg xmlns="http://www.w3.org/2000/svg" viewBox="0 0 100.08 100.09"><title>linkedin</title><g id="Camada_2" data-name="Camada 2"><g id="Camada_1-2" data-name="Camada 1"><g id="linkedin"><path d="M0,50a50,50,0,1,1,50.11,50.1A50.2,50.2,0,0,1,0,50Zm54-5.47-.32-.12c0-.78,0-1.57,0-2.36C53.59,40.58,53,40,51.61,40c-2.76,0-5.52-.05-8.28,0-1.52,0-2.08.65-2.08,2.17q0,17.94,0,35.88c0,1.42.62,2,2.06,2,2.6,0,5.2,0,7.8,0,2.11,0,2.57-.47,2.57-2.63,0-6.2,0-12.4.06-18.6a10.66,10.66,0,0,1,1.94-6.07,6.1,6.1,0,0,1,6.19-2.55,5.38,5.38,0,0,1,4.95,3.9,17.6,17.6,0,0,1,.78,4.82c.09,6.28,0,12.56,0,18.84,0,1.65.57,2.27,2.21,2.3,2.68,0,5.36,0,8,0,2.1,0,2.59-.54,2.59-2.67,0-6.52,0-13-.12-19.55a44,44,0,0,0-1-8.42c-1-4.37-3.48-7.68-7.9-9.21a19.26,19.26,0,0,0-8.89-.62,11.68,11.68,0,0,0-7.89,4.31A5.73,5.73,0,0,1,54,44.52ZM35.24,60c0-5.84,0-11.68,0-17.52,0-1.84-.6-2.48-2.42-2.52-2.32,0-4.64,0-7,0-2.61,0-3.14.53-3.14,3.17v31c0,1.28,0,2.56.05,3.84.07,1.51.65,2.07,2.18,2.1,2.52,0,5,.06,7.56,0,2.29,0,2.73-.53,2.73-2.78ZM29.12,20.14a8.08,8.08,0,1,0,8,8.16A8.09,8.09,0,0,0,29.12,20.14Z"/></g></g></g></svg>