<svg xmlns="http://www.w3.org/2000/svg" viewBox="0 0 100 100"><defs><style>.cls-1{fill:#3a000e;}</style></defs><title>linkedin_vinho</title><g id="Camada_2" data-name="Camada 2"><g id="Camada_1-2" data-name="Camada 1"><g id="Camada_1-2-2" data-name="Camada 1-2"><g id="linkedin"><path class="cls-1" d="M0,49.9A50,50,0,1,1,50.11,100,50,50,0,0,1,0,49.9Zm54-5.47-.32-.12V42c-.09-1.47-.68-2.05-2.07-2.05-2.76,0-5.52,0-8.28,0-1.52,0-2.08.65-2.08,2.17V78c0,1.42.62,2,2.06,2h7.8c2.11,0,2.57-.47,2.57-2.63,0-6.2,0-12.4.06-18.6a10.66,10.66,0,0,1,1.94-6.07,6.09,6.09,0,0,1,6.19-2.55A5.39,5.39,0,0,1,66.82,54a17.47,17.47,0,0,1,.78,4.82c.09,6.28,0,12.56,0,18.84,0,1.65.57,2.27,2.21,2.3h8c2.1,0,2.59-.54,2.59-2.67,0-6.52,0-13-.12-19.55a44.21,44.21,0,0,0-1-8.42c-1-4.37-3.48-7.68-7.9-9.21a19.26,19.26,0,0,0-8.89-.62A11.7,11.7,0,0,0,54.6,43.8a5,5,0,0,1-.6.62ZM35.24,59.9V42.38c0-1.84-.6-2.48-2.42-2.52h-7c-2.61,0-3.14.53-3.14,3.17V74c0,1.28,0,2.56.05,3.84.07,1.51.65,2.07,2.18,2.1,2.52,0,5,.06,7.56,0,2.29,0,2.73-.53,2.73-2.78ZM29.12,20a8.08,8.08,0,1,0,8,8.16A8.08,8.08,0,0,0,29.12,20Z"/></g></g></g></g></svg>