<svg xmlns="http://www.w3.org/2000/svg" viewBox="0 0 825.03 295.28"><defs><style>.cls-1{fill:#0f0f0f;}</style></defs><title>pattern_waves_1</title><g id="Camada_2" data-name="Camada 2"><g id="Camada_1-2" data-name="Camada 1"><path class="cls-1" d="M560.5,294.71h-9c-1.06-1.92-2-3.84-3.18-5.74-7.51-12.64-22.8-21.23-47.18-25.56-28.25-5-56.86-8.56-87-8.4-13.55.07-27.09-.62-38.17-5.52a62.28,62.28,0,0,1-20.94-14.78c-9.38-10.05-13-21-16.74-31.8-5.57-16.33-10.7-32.7-16-49.06-5.12-15.71-18.82-28.09-47.63-35.3-15.33-3.83-28.16-9.74-37.73-17.11-7.63-5.88-14.83-12-20.49-18.44-10.63-12.07-19.87-24.46-30-36.66-8.47-10.25-22.3-18.2-39.57-24.69a51.37,51.37,0,0,0-27.34-2.53c-3.32.56-6.75,1-10,1.6-9,1.76-18,3.69-27,5.4C72.18,28.07,62.18,27.71,53,24.36c-4.37-1.58-9-3.06-12.78-5C28.1,13.18,16.37,6.8,4.5.5h21c10.73,5.77,23,10.5,36.19,14.62,9,2.83,18.46,3.19,28.36,1.62,11.62-1.83,23.17-3.79,34.88-5.44,12.56-1.77,23.43-.27,32.74,4.77,15.11,8.19,26.49,17.56,34.86,28,10.53,13.12,20.72,26.33,32.06,39.26,9,10.21,21.49,19.27,39.72,25.63,9.51,3.33,19.73,6.1,29.69,9.07,12.29,3.67,21.92,8.78,26.58,15.69a104.93,104.93,0,0,1,11.9,22.52c6.6,18.16,11.93,36.45,18.25,54.64a52.51,52.51,0,0,0,15.41,22.45c9.28,8.2,21.69,13.69,41,14,11.3.17,22.64.47,33.87,1.14,23,1.37,44.81,5.14,66.45,9.17,13.46,2.51,26.12,5.89,34.5,12.29A54.36,54.36,0,0,1,560.5,294.71Z"/><path class="cls-1" d="M561.22,295.21h-10l-.15-.26-1-1.82c-.69-1.28-1.41-2.61-2.18-3.9-7.6-12.79-22.92-21.08-46.83-25.33-33-5.87-60.63-8.56-86.88-8.39-13.24.06-27-.56-38.37-5.56a63.42,63.42,0,0,1-21.11-14.9c-9.36-10-13.11-21-16.74-31.67l-.11-.31c-3.83-11.23-7.51-22.67-11.07-33.73-1.65-5.11-3.29-10.22-5-15.33-5.52-17-21-28.4-47.27-35-15.1-3.78-28.21-9.73-37.92-17.21-9-7-15.57-12.83-20.56-18.5-6.62-7.52-12.81-15.3-18.8-22.82-3.62-4.55-7.36-9.25-11.16-13.85-7.88-9.52-20.75-17.55-39.37-24.54a51,51,0,0,0-27.07-2.51c-1.33.22-2.68.42-4,.62-2,.29-4,.6-6,1-3.94.77-7.86,1.57-11.78,2.37-5,1-10.14,2.07-15.27,3-10.87,2.05-20.9,1.46-29.8-1.78l-2.81-1a84.85,84.85,0,0,1-10-4C31.23,15.35,22.54,10.7,14.14,6.21L4.27.94,2.49,0H25.63l.11.06c9.8,5.28,21.61,10,36.09,14.59,8.64,2.7,17.85,3.23,28.15,1.6l9.85-1.58c8.18-1.32,16.63-2.68,25-3.87,12.89-1.81,23.7-.23,33.05,4.83,14.82,8,26.28,17.24,35,28.13q3.53,4.4,7,8.79c8,10,16.23,20.42,25,30.46,9.95,11.34,22.87,19.68,39.5,25.49,7,2.44,14.5,4.63,21.76,6.74,2.64.77,5.29,1.54,7.91,2.32,13.4,4,22.44,9.35,26.85,15.89a104.28,104.28,0,0,1,12,22.63c3.71,10.22,7.08,20.64,10.33,30.72,2.54,7.85,5.16,16,7.92,23.93A51.89,51.89,0,0,0,366.47,233c10.42,9.19,23.34,13.59,40.65,13.84,13.63.2,24.09.55,33.9,1.14,23.43,1.4,45.7,5.3,66.51,9.18,11.39,2.12,25.64,5.45,34.71,12.38a54.74,54.74,0,0,1,18.73,25Zm-9.42-1h8a53.65,53.65,0,0,0-18.13-23.9c-8.91-6.81-23-10.09-34.3-12.2-20.77-3.87-43-7.76-66.38-9.16-9.8-.59-20.24-.94-33.85-1.14-17.57-.25-30.69-4.73-41.3-14.09a52.81,52.81,0,0,1-15.55-22.66c-2.77-8-5.39-16.1-7.93-23.95-3.25-10.07-6.62-20.49-10.32-30.69A103.78,103.78,0,0,0,320.17,134c-4.29-6.35-13.14-11.56-26.31-15.49L286,116.2c-7.27-2.11-14.79-4.3-21.81-6.76-16.8-5.86-29.86-14.29-39.92-25.77-8.83-10.06-17.08-20.45-25.07-30.49-2.33-2.93-4.66-5.87-7-8.79-8.65-10.79-20-19.91-34.71-27.88-9.15-5-19.76-6.5-32.43-4.72-8.39,1.19-16.84,2.55-25,3.87l-9.86,1.58c-10.45,1.65-19.8,1.11-28.59-1.64C47,11.06,35.21,6.28,25.37,1H6.51l8.1,4.33c8.4,4.49,17.08,9.13,25.81,13.6a84,84,0,0,0,9.9,4l2.82,1c8.73,3.17,18.59,3.76,29.28,1.74,5.11-1,10.27-2,15.25-3,3.93-.8,7.85-1.6,11.79-2.37,2-.39,4-.69,6-1,1.34-.19,2.68-.39,4-.61a51.84,51.84,0,0,1,27.59,2.56c18.79,7,31.8,15.17,39.79,24.83,3.81,4.61,7.55,9.31,11.18,13.87,6,7.51,12.15,15.27,18.76,22.78,5,5.62,11.44,11.45,20.42,18.37,9.6,7.4,22.59,13.29,37.55,17,26.65,6.66,42.34,18.32,48,35.63q2.5,7.67,5,15.34c3.56,11.05,7.24,22.49,11.07,33.71l.11.3c3.59,10.55,7.31,21.45,16.52,31.32A62.35,62.35,0,0,0,376.22,249c11.15,4.93,24.83,5.55,37.95,5.48,26.34-.16,54,2.53,87.06,8.41,24.22,4.3,39.76,12.74,47.52,25.8.78,1.3,1.5,2.64,2.2,3.93C551.23,293.17,551.51,293.69,551.8,294.21Z"/><path class="cls-1" d="M542.5,294.71h-11c-5.29-7.27-15.23-12.33-28.07-16a243.53,243.53,0,0,0-50.17-8.38c-17-1.11-34.21-1.21-51.34-1.62-15.57-.37-28.67-3.29-39.37-9.31-11-6.21-19.53-13.2-25-21.15C325.9,221.34,321.33,203.57,315.4,186c-3.45-10.26-6.5-20.58-11.2-30.69C299,144.08,287.33,135,268.07,128.75a168.45,168.45,0,0,1-18.53-7.5,111.48,111.48,0,0,1-41.07-31.71c-9.13-11-17.75-22.1-26.89-33.09-11.34-13.63-33-19.87-59.81-22.29a25,25,0,0,0-6.43.11c-9.49,1.8-18.94,3.68-28.28,5.67-8.15,1.74-15.93,4-24.25,5.44-9,1.56-18,.73-25.37-2.58C31.25,40,25.13,37.19,19.57,34.09,12.88,30.36,6.83,26.32.5,22.41V9.89c1.12.62,2.33,1.2,3.36,1.86,12.55,8,25.53,15.83,41.8,21.94a47.58,47.58,0,0,0,24.17,2.23c5.73-.87,11.28-2.08,16.8-3.27,8-1.73,15.77-3.75,23.86-5.33,7.24-1.41,14.83-2.13,22.43-.49,22.29,4.79,40.74,11.91,50.76,23.75,8.61,10.16,16.82,20.42,24.87,30.7,14.38,18.39,34.44,34.31,68.8,44.21,14.5,4.18,23.87,10.64,30.2,18.48,6.73,8.34,9.21,17.2,12.19,26,5.6,16.59,10.87,33.21,17,49.74,4.06,10.89,11.05,21.29,24.51,30.19,10,6.64,22.31,11.17,39.07,11.58,7,.18,14,.33,21,.37a393.09,393.09,0,0,1,81.16,8.8C523.53,275.18,536.33,283.44,542.5,294.71Z"/><path class="cls-1" d="M543.34,295.21H531.25l-.15-.21c-4.89-6.71-14-11.86-27.81-15.77a242.43,242.43,0,0,0-50.07-8.36c-13.05-.85-26.48-1.12-39.47-1.37l-11.84-.25c-16.12-.38-29.07-3.45-39.61-9.37-11.38-6.4-19.84-13.57-25.16-21.31-9.82-14.29-14.7-29.38-19.43-44-.91-2.83-1.83-5.66-2.78-8.49q-1-3-2-6.08a221.73,221.73,0,0,0-9.17-24.56c-5.32-11.44-17.37-20.27-35.84-26.24a171.55,171.55,0,0,1-18.58-7.53c-16.5-7.54-29.22-17.36-41.24-31.84-4.51-5.43-9-11-13.29-16.36s-9-11.18-13.6-16.73c-10.13-12.17-29.58-19.41-59.48-22.12a25.13,25.13,0,0,0-6.28.12c-10.08,1.9-19.33,3.75-28.28,5.66-3.16.68-6.33,1.45-9.39,2.19C73,43.78,68,45,62.89,45.87c-9.2,1.59-18.31.66-25.65-2.62-5.92-2.64-12.18-5.52-17.91-8.72-4.69-2.62-9.13-5.42-13.42-8.14Q3.09,24.6.24,22.83L0,22.69V9l.74.41L1.83,10c.77.42,1.58.84,2.3,1.3C16.05,19,29.1,26.94,45.84,33.22a47.21,47.21,0,0,0,23.92,2.21c5.58-.85,11.07-2,16.39-3.19l.38-.08c3.19-.69,6.4-1.44,9.5-2.16,4.67-1.09,9.5-2.22,14.36-3.17,5.61-1.09,14.06-2.33,22.64-.49,25.32,5.45,42,13.27,51,23.91,7.61,9,15.52,18.75,24.88,30.73,16.72,21.38,38.5,35.37,68.55,44,13.5,3.89,23.46,10,30.45,18.65,6.09,7.54,8.77,15.62,11.36,23.43.31.91.61,1.81.91,2.72q2.3,6.8,4.55,13.6c3.93,11.85,8,24.12,12.48,36.12,4.69,12.56,12.41,22.08,24.32,30,11.13,7.36,23.83,11.12,38.81,11.49,6.71.17,13.86.33,21,.37a396,396,0,0,1,81.26,8.81c20.33,4.38,33.91,12.56,40.34,24.31Zm-11.59-1h9.89c-6.45-11.09-19.65-18.85-39.25-23.07a395.35,395.35,0,0,0-81.06-8.79c-7.11,0-14.26-.2-21-.37-15.18-.37-28.05-4.19-39.34-11.66-12.09-8-19.94-17.67-24.7-30.44-4.49-12-8.56-24.29-12.5-36.16-1.51-4.53-3-9.06-4.54-13.59l-.92-2.73c-2.56-7.72-5.21-15.71-11.19-23.11-6.86-8.49-16.65-14.48-30-18.32C247,117.25,225,103.15,208.15,81.59c-9.35-12-17.25-21.72-24.85-30.69-8.87-10.47-25.38-18.18-50.48-23.58-8.4-1.81-16.71-.58-22.24.5-4.85.94-9.66,2.06-14.32,3.15-3.11.73-6.32,1.48-9.52,2.17l-.38.08c-5.33,1.15-10.84,2.34-16.45,3.2a48.2,48.2,0,0,1-24.43-2.26C28.66,27.84,15,19.5,3.59,12.17c-.69-.43-1.47-.85-2.23-1.25L1,10.73v11.4q2.75,1.7,5.44,3.42c4.29,2.7,8.72,5.5,13.37,8.1,5.7,3.18,11.94,6.06,17.84,8.69,7.16,3.2,16.07,4.1,25.07,2.55,5.06-.88,10-2.08,14.81-3.24,3.07-.75,6.24-1.52,9.42-2.2,9-1.91,18.22-3.76,28.3-5.67a25.5,25.5,0,0,1,6.56-.12C152,36.39,171.66,43.74,182,56.13c4.62,5.56,9.19,11.25,13.61,16.75s8.77,10.92,13.28,16.34c11.92,14.36,24.53,24.1,40.88,31.57a169.33,169.33,0,0,0,18.48,7.49c18.74,6.06,31,15.06,36.44,26.76a224.09,224.09,0,0,1,9.21,24.68q1,3,2,6.07c.95,2.83,1.87,5.67,2.78,8.5,4.7,14.52,9.57,29.55,19.3,43.72,5.23,7.61,13.59,14.67,24.83,21,10.39,5.84,23.19,8.86,39.14,9.24l11.84.25c13,.25,26.44.52,39.52,1.37a243.11,243.11,0,0,1,50.28,8.4C517.47,282.2,526.7,287.41,531.75,294.21Z"/><path class="cls-1" d="M309.5.5h13c5.35,1.73,10.42,3.79,16.11,5.12,18,4.19,37.53,5.25,56.57,7.33,18.54,2,36.34,4.85,48,13.51a159.7,159.7,0,0,1,13.72,11.16c11.1,10.38,20.57,21.3,33,31.22,25.47,20.34,55.5,39.06,79.15,60.09,12.7,11.3,31.41,19.95,49.73,28.71s34.79,18.15,41.34,31A194.78,194.78,0,0,1,669.66,212c3.34,9.37,5.32,18.89,9.3,28.19,4.11,9.61,15.76,16.15,34.4,18.77,6.89,1,13.94,1.85,21,2.2,32.82,1.63,63.16,6.73,90.12,16.82v7.83c-1.42-.45-2.86-.88-4.25-1.35-18.5-6.31-37.82-11.75-59.77-14-13.71-1.38-27.59-2.35-41.43-3.36-25.33-1.85-42.17-8.84-47.47-22.09a202.36,202.36,0,0,1-9.09-29.28c-2.71-11.59-7.83-22.73-19.08-32.91-8.19-7.4-20.22-13.1-32.32-18.69-21.93-10.13-41.37-21.28-57.09-34.3s-32.59-26-50.06-38.6C485.72,78.18,468.44,64.86,455.68,50a179.09,179.09,0,0,0-17-16.49c-6.09-5.39-14.84-9.49-26.31-11.46-11-1.9-22.41-3.24-33.63-4.82-15.54-2.2-31.31-4-46.53-6.74C322.61,8.8,314.65,5.33,309.5.5Z"/><path class="cls-1" d="M825,286.52l-2-.63c-1-.3-1.94-.6-2.89-.92-16.32-5.57-36.18-11.58-59.66-13.94-12.45-1.25-25.24-2.18-37.61-3.08l-3.8-.28c-26.61-1.94-42.73-9.48-47.91-22.41a201.09,201.09,0,0,1-9.1-29.34c-3.14-13.44-9.16-23.82-18.94-32.65-8.46-7.66-21.62-13.73-32.18-18.62-23.9-11-42.61-22.27-57.21-34.36-15.76-13-32.59-26-50-38.58S468.3,65.46,455.3,50.34a179.81,179.81,0,0,0-16.94-16.45c-6.38-5.64-15.15-9.46-26.07-11.34-7.6-1.31-15.5-2.37-23.14-3.39-3.5-.47-7-.94-10.47-1.43-4.58-.65-9.18-1.26-13.78-1.88-10.83-1.45-22-3-32.77-4.86-9.81-1.73-17.76-5.23-23-10.13L308.24,0l14.41,0c1.69.55,3.34,1.12,5,1.7a110.43,110.43,0,0,0,11.08,3.41C352.24,8.28,366.9,9.69,381.09,11c4.64.44,9.45.9,14.14,1.42,17,1.86,36.12,4.6,48.21,13.59a165.73,165.73,0,0,1,13.77,11.2c3.94,3.69,7.74,7.51,11.41,11.19a254.57,254.57,0,0,0,21.54,20c10.57,8.43,22.11,16.73,33.28,24.76,15.75,11.32,32,23,45.89,35.35,12,10.68,29.73,19.13,46.86,27.31l2.76,1.32c17.62,8.41,34.84,18,41.57,31.24a195.51,195.51,0,0,1,9.61,23.43c1.35,3.8,2.5,7.69,3.61,11.45A151,151,0,0,0,679.42,240c4.08,9.53,15.84,15.92,34,18.47,6.63.94,13.77,1.85,21,2.2,35.08,1.74,64.61,7.25,90.28,16.85l.32.13ZM310.81,1c5.07,4.31,12.47,7.41,21.5,9,10.72,1.89,21.9,3.4,32.72,4.85,4.6.62,9.2,1.23,13.79,1.88,3.47.49,7,1,10.46,1.43,7.65,1,15.57,2.08,23.18,3.39,11.11,1.92,20,5.81,26.56,11.59a178.17,178.17,0,0,1,17,16.54c12.93,15,30.79,28.69,48.17,41.2s34.31,25.57,50.09,38.63c14.53,12,33.17,23.22,57,34.23,10.64,4.91,23.87,11,32.44,18.77,9.94,9,16,19.53,19.24,33.17a200.77,200.77,0,0,0,9.06,29.2c5,12.54,20.85,19.87,47.05,21.78l3.81.28c12.37.9,25.17,1.83,37.63,3.09,23.58,2.37,43.5,8.4,59.88,14,.94.32,1.9.62,2.86.91l.73.23v-6.8c-25.49-9.49-54.82-14.95-89.64-16.67-7.25-.35-14.41-1.27-21.07-2.21-18.54-2.6-30.57-9.19-34.79-19.07a149.56,149.56,0,0,1-5.71-16.82c-1.11-3.75-2.26-7.62-3.6-11.4a196.14,196.14,0,0,0-9.56-23.31C653,175.93,636,166.43,618.52,158.09l-2.77-1.32c-17.19-8.2-35-16.69-47.08-27.46-13.82-12.29-30.08-24-45.81-35.29-11.18-8-22.74-16.34-33.32-24.79-8-6.42-15-13.37-21.63-20.08-3.67-3.68-7.46-7.49-11.39-11.17a160.27,160.27,0,0,0-13.68-11.12C431,18,412,15.3,395.12,13.45c-4.68-.51-9.49-1-14.13-1.41-14.22-1.36-28.92-2.77-42.49-5.94a110.82,110.82,0,0,1-11.18-3.44c-1.62-.56-3.25-1.13-4.9-1.66Z"/><path class="cls-1" d="M289.5.5h10a23.78,23.78,0,0,0,1.85,2.1c10.28,9.45,26.9,14.13,46.37,16.55,14.89,1.85,29.94,3.36,44.77,5.32,17.14,2.26,32,6.47,41.23,14.79a89.73,89.73,0,0,1,10.72,10.86C457.09,66.4,473.77,81.38,494,95.46c17.55,12.21,33.7,25,49.58,37.83,15.08,12.2,31.51,23.68,53,33,6,2.61,11.57,5.51,17.63,8.09,20.58,8.77,33.14,20.1,38.48,33.52,2.8,7,4.11,14.24,5.87,21.38,2.23,9.05,4.79,18.05,10.89,26.68s17.73,14.13,34.89,16.26c7.27.9,14.67,1.66,22.09,2,28.54,1.47,55.7,5.07,80.19,13.19,5.88,2,11.89,3.79,17.84,5.68,0,.86.65,1.74-2.51,1.63-6.14-.22-12.32-.06-18.49-.06a9.72,9.72,0,0,0-1.7-.88,235.8,235.8,0,0,0-49.73-10.49c-14.87-1.48-29.94-2.39-44.88-3.69-22.07-1.93-37.52-8.07-44.46-19.45a21.67,21.67,0,0,1-2.36-4c-3.38-10.34-7.64-20.64-9.72-31.06-3.91-19.58-17.23-36.18-49-48-30.71-11.47-53.11-26.79-72.93-43.41-13.35-11.18-28.45-21.82-43.51-32.42-14.53-10.22-28.35-20.6-37.51-32.48-4.41-5.71-8.66-11.46-13.13-17.17C425.92,40.58,411,33.08,388.44,30.13c-10.81-1.41-21.7-2.65-32.55-4q-8.49-1.06-16.95-2.21C314.57,20.65,299,12.29,289.5.5Z"/><path class="cls-1" d="M822.52,295.28H822c-4.32-.15-8.75-.12-13-.09l-5.43,0h-.12l-.11-.06-.54-.31a5.45,5.45,0,0,0-1.08-.54A237.59,237.59,0,0,0,752,283.84c-8.82-.88-17.86-1.57-26.61-2.24-6-.45-12.19-.92-18.26-1.45-23-2-38.11-8.64-44.85-19.69-.24-.4-.52-.8-.79-1.2a12.11,12.11,0,0,1-1.61-2.88c-1-2.95-2-5.94-3-8.84-2.56-7.28-5.2-14.8-6.7-22.28-4.35-21.74-19.81-36.89-48.65-47.66-33.88-12.66-56.86-29.89-73.08-43.49-13.37-11.21-28.68-22-43.48-32.4-13.21-9.3-28.11-20.25-37.62-32.58-1.84-2.39-3.65-4.78-5.47-7.18-2.48-3.28-5.05-6.67-7.66-10-8.89-11.34-24.31-18.52-45.83-21.33-6.7-.88-13.56-1.7-20.19-2.5-4.12-.5-8.24-1-12.35-1.51-5.93-.73-11.9-1.53-17-2.2C315.73,21.31,299.45,13.59,289.11.81L288.45,0h11.28l.15.17.57.69a12.18,12.18,0,0,0,1.23,1.37c9.19,8.44,23.83,13.66,46.1,16.42,6.4.8,12.92,1.54,19.24,2.26,8.39.95,17.07,1.94,25.54,3.06,19.71,2.6,33.28,7.48,41.5,14.92a89.51,89.51,0,0,1,10.78,10.93c12.3,15.84,28.48,30.64,49.44,45.23,16.56,11.52,31.81,23.47,49.61,37.86,13.19,10.66,29.79,22.91,52.92,32.93,2.89,1.25,5.71,2.59,8.43,3.88,3,1.41,6,2.87,9.2,4.21,20.22,8.61,33.26,20,38.76,33.8a112,112,0,0,1,4.69,16.38c.39,1.69.78,3.37,1.19,5.06,2.24,9.07,4.76,17.93,10.82,26.51s17.65,14,34.54,16.05c8.56,1.06,15.56,1.71,22.06,2,32.67,1.68,58.19,5.88,80.32,13.22,4,1.33,8.18,2.64,12.2,3.9l5.63,1.77.37.12,0,.39a2,2,0,0,0,0,.35,1.42,1.42,0,0,1-.29,1.21C824.36,295.11,823.7,295.28,822.52,295.28Zm-8.19-1.13c2.56,0,5.14,0,7.68.12,1.59.06,1.92-.16,2-.23s0-.25,0-.43,0-.07,0-.1l-5.29-1.67c-4-1.26-8.18-2.57-12.21-3.9-22-7.31-47.49-11.5-80.06-13.17-6.52-.33-13.55-1-22.13-2-17.18-2.13-29-7.66-35.24-16.46s-8.7-17.68-11-26.85q-.61-2.53-1.2-5.08a111.8,111.8,0,0,0-4.64-16.24c-5.4-13.55-18.26-24.74-38.22-33.24-3.17-1.35-6.26-2.81-9.24-4.23-2.72-1.28-5.53-2.62-8.39-3.86-23.24-10.07-39.92-22.37-53.16-33.08-17.78-14.37-33-26.3-49.55-37.81-21-14.65-37.29-29.52-49.66-45.44a88.89,88.89,0,0,0-10.66-10.8c-8.06-7.3-21.46-12.09-41-14.67-8.46-1.11-17.14-2.1-25.53-3.06-6.31-.72-12.84-1.46-19.24-2.25C325.17,16.86,310.35,11.56,301,3a12.9,12.9,0,0,1-1.34-1.48c-.13-.16-.26-.33-.4-.49h-8.71c10.2,12.08,26.06,19.42,48.45,22.43,5.05.67,11,1.47,16.94,2.2l12.35,1.51c6.63.79,13.49,1.62,20.2,2.5,21.79,2.84,37.43,10.15,46.49,21.7,2.61,3.33,5.18,6.72,7.67,10,1.81,2.39,3.62,4.78,5.47,7.17,9.42,12.22,24.24,23.12,37.4,32.38,14.82,10.42,30.14,21.21,43.54,32.44,16.17,13.55,39,30.72,72.79,43.32,29.2,10.91,44.86,26.29,49.28,48.4,1.48,7.41,4.12,14.9,6.67,22.15,1,2.9,2.07,5.9,3,8.86a10.81,10.81,0,0,0,1.49,2.62c.28.42.56.83.81,1.25,6.57,10.77,21.4,17.23,44.09,19.21,6.06.53,12.26,1,18.24,1.46,8.76.66,17.81,1.35,26.64,2.23A238.83,238.83,0,0,1,802,293.35a6.36,6.36,0,0,1,1.28.63l.39.23,5.29,0C810.71,294.17,812.52,294.15,814.33,294.15Z"/><path class="cls-1" d="M824.5,262.36v7.83c-1.61-.41-3.31-.74-4.83-1.23-15.82-5.07-32.25-9.45-50.64-11.36-12.56-1.3-25.26-2.24-37.83-3.52C714,252.33,697.93,249.15,690,240.3a47.25,47.25,0,0,1-9.44-16.36c-3.42-9.81-4.78-19.82-8.38-29.61-4-10.94-9.26-21.9-23.54-30.63a347.52,347.52,0,0,0-32.82-17.41c-16.55-7.81-31.75-16.17-43.08-26.21-14.39-12.75-30.84-24.74-48.25-36.38-18.59-12.42-35.41-25.41-49.24-39.45-6.38-6.48-13.25-12.85-20.58-19C444,16.23,428.27,10.94,408.41,9c-13.73-1.38-27.54-2.58-41.13-4.26-8.11-1-15.86-2.77-23.78-4.2h41C392.65,1.33,400.75,2.3,409,3c22.78,1.87,40.88,7.55,53.62,17.65,4.11,3.26,8.44,6.49,11.79,10a342.5,342.5,0,0,0,61.16,50c15,9.71,27.73,20.37,41.48,30.6,6.21,4.62,12.1,9.36,18.7,13.82,11.39,7.7,26.22,13.53,40.59,19.6,15.39,6.51,28.44,14.16,34.09,24.22,5.14,9.13,8.8,18.52,12.16,27.88s4.7,18.78,8.37,28c4.46,11.25,17.91,18.56,39.59,21.44,5.8.77,11.61,1.57,17.5,2.12,19.36,1.8,38.69,3.64,56.37,8.46C811.13,258.55,817.79,260.48,824.5,262.36Z"/><path class="cls-1" d="M825,270.83l-.62-.16-1.55-.37c-1.11-.26-2.25-.53-3.31-.86C805.6,265,788.71,260.15,769,258.1c-6.47-.67-13.09-1.25-19.49-1.82-6-.53-12.24-1.08-18.34-1.7-15.79-1.61-33.09-4.53-41.55-14a47.54,47.54,0,0,1-9.55-16.52c-1.64-4.73-2.83-9.57-4-14.25a143.46,143.46,0,0,0-4.39-15.36c-3.69-10.05-8.84-21.51-23.33-30.37a344.06,344.06,0,0,0-32.78-17.39c-20-9.44-33.32-17.55-43.19-26.29-12.91-11.43-28.22-23-48.2-36.33C503.7,70.43,487.57,57.5,474.86,44.6c-6.43-6.53-13.34-12.93-20.55-19C444,16.9,428.57,11.48,408.36,9.45c-3.59-.36-7.19-.7-10.8-1-10-1-20.3-2-30.34-3.2-5.61-.7-11.14-1.77-16.48-2.82-2.44-.47-4.88-.95-7.33-1.39l.09-1h41c2.6.26,5.15.54,7.69.81C397.68,1.4,403.36,2,409,2.48c23.31,1.92,41.45,7.89,53.89,17.76L465,21.86a97.78,97.78,0,0,1,9.77,8.38,340.34,340.34,0,0,0,61.07,49.88c10.36,6.71,19.79,14,28.92,21,4.09,3.16,8.33,6.43,12.59,9.6,1.92,1.42,3.8,2.86,5.69,4.3,4.15,3.16,8.44,6.43,13,9.51,10,6.78,23,12.2,35.48,17.45l5,2.1c18.44,7.79,29.35,15.56,34.34,24.43,5.23,9.32,8.95,18.95,12.19,28,1.55,4.31,2.69,8.72,3.79,13a126,126,0,0,0,4.57,15c4.43,11.16,17.61,18.27,39.19,21.13l1.77.24c5.13.68,10.43,1.39,15.71,1.88,18.93,1.76,38.51,3.58,56.46,8.47,4.64,1.27,9.31,2.59,13.83,3.88l6.31,1.78.36.11ZM348.86,1l2.07.4c5.33,1,10.84,2.12,16.41,2.81,10,1.23,20.35,2.23,30.32,3.19l10.8,1.06c20.41,2,36.06,7.55,46.5,16.37,7.22,6.1,14.16,12.52,20.61,19.07,12.66,12.85,28.74,25.74,49.16,39.38,20,13.39,35.37,25,48.31,36.42,9.79,8.68,23,16.74,43,26.13a348.24,348.24,0,0,1,32.87,17.44c14.77,9,20,20.68,23.75,30.89A145,145,0,0,1,677,209.62c1.14,4.66,2.33,9.48,4,14.16A46.54,46.54,0,0,0,690.34,240c8.24,9.17,25.31,12,40.91,13.62,6.09.62,12.31,1.17,18.33,1.7,6.4.57,13,1.15,19.5,1.83,19.94,2.06,37.59,7.16,50.75,11.37,1,.33,2.14.59,3.23.85l.94.22v-6.81l-6-1.68c-4.51-1.28-9.18-2.61-13.81-3.87-17.87-4.87-37.4-6.69-56.29-8.45-5.3-.49-10.62-1.2-15.76-1.88l-1.76-.24c-22-2.91-35.42-10.23-40-21.75a126,126,0,0,1-4.61-15.15c-1.1-4.24-2.23-8.63-3.76-12.89-3.22-9-6.92-18.56-12.12-27.81-4.88-8.67-15.64-16.3-33.86-24l-5-2.1c-12.56-5.27-25.55-10.71-35.66-17.55-4.57-3.09-8.88-6.37-13-9.54-1.88-1.43-3.76-2.87-5.68-4.29-4.26-3.18-8.5-6.44-12.6-9.6-9.11-7-18.53-14.29-28.85-21a341.18,341.18,0,0,1-61.25-50,96.13,96.13,0,0,0-9.67-8.29L462.26,21C450,11.28,432,5.38,408.9,3.48,403.27,3,397.58,2.4,392.08,1.81q-3.81-.42-7.63-.81Z"/><path class="cls-1" d="M.5,34.93c8.07,4.84,15.93,9.79,24.27,14.51,11.12,6.29,24.52,7.35,39.13,3.75,9.16-2.26,18.45-4.53,26.91-7.42,24.92-8.5,72.19-3.23,86.88,14,8,9.36,15.57,18.81,23.09,28.27C210,99.52,219.85,110.85,236,120.23a156.62,156.62,0,0,0,24.77,12c21.95,8.1,33.57,19.37,38.72,32.62,5,12.93,8.62,26,13.22,39,4.84,13.67,9.69,27.35,19.86,40.3,6.85,8.71,16.85,16.34,29.78,22.93,10.79,5.49,23.71,8.12,38.71,8.34,14.65.21,29.4.12,43.9,1,24.26,1.51,47.33,5.08,66.31,13.71,2.8,1.27,4.86,3,7.26,4.51h-19a29.38,29.38,0,0,0-3.62-1.69,200.3,200.3,0,0,0-52.24-9.68c-13.91-.7-27.94-.78-41.92-1-16.12-.25-30.25-2.76-42-8.82-14.73-7.62-26.72-16.18-34.6-26.21-12.41-15.8-17.69-32.53-23.71-49.17-4-10.91-7.19-21.92-12.24-32.69-4.89-10.43-14-19.89-30.61-26.86-26.38-11-44.51-25.19-57.28-41.38-8.42-10.67-16.68-21.39-25.9-31.87-7.51-8.54-20.43-14-38.61-15.67-18.54-1.7-36-.61-52.26,4.83a299.08,299.08,0,0,1-29.9,8.3c-12.94,2.85-25.3,1.73-35.3-3.73C12.79,55.51,6.76,51.68.5,48Z"/><path class="cls-1" d="M520.23,295.21l-20.94,0c-.39-.18-.76-.38-1.13-.57a16.3,16.3,0,0,0-2.44-1.09,200.51,200.51,0,0,0-52.11-9.66c-11.36-.57-23-.73-34.25-.88l-7.64-.11c-17.37-.26-31.17-3.17-42.2-8.87-15.95-8.26-27.32-16.88-34.77-26.36-11.27-14.35-16.76-29.7-22.08-44.55-.57-1.58-1.13-3.16-1.71-4.75-1.13-3.12-2.22-6.3-3.27-9.38a228.91,228.91,0,0,0-8.94-23.27c-5.45-11.63-15.38-20.34-30.36-26.61-24.82-10.39-43.62-24-57.47-41.53l-3.71-4.7c-7-9-14.32-18.22-22.18-27.15-7.61-8.65-20.48-13.87-38.27-15.5-19.88-1.83-36.9-.25-52.06,4.8A297.88,297.88,0,0,1,54.75,63.3c-13.39,3-25.72,1.64-35.65-3.78C14.57,57,10.22,54.41,6,51.86L.25,48.4,0,48.25V34.05l.76.45c2.49,1.49,5,3,7.43,4.5C13.63,42.32,19.26,45.75,25,49c10.83,6.12,23.87,7.37,38.76,3.69l.75-.18c8.81-2.18,17.91-4.42,26.12-7.22,24.94-8.51,72.73-3.09,87.42,14.12C186.24,69,194,78.64,201.18,87.7c8.78,11,18.72,22.6,35,32.1a158.12,158.12,0,0,0,24.69,12c20.6,7.6,33.37,18.36,39,32.91,3,7.6,5.45,15.38,7.87,22.91,1.7,5.28,3.45,10.74,5.35,16.1,4.75,13.4,9.66,27.26,19.79,40.15,6.69,8.53,16.65,16.19,29.6,22.79,10.51,5.35,23.1,8.06,38.5,8.29l10.09.11c11.13.11,22.64.22,33.83.92,28.65,1.79,49.78,6.16,66.49,13.75a31.84,31.84,0,0,1,5.12,3.08c.72.49,1.44,1,2.2,1.46Zm-20.62-1h17.22l-.82-.57a33.21,33.21,0,0,0-5-3c-16.6-7.54-37.62-11.88-66.14-13.66-11.16-.7-22.66-.81-33.78-.92L401,276c-15.55-.23-28.28-3-38.93-8.4-13.08-6.66-23.15-14.42-29.94-23.06-10.23-13-15.17-27-19.95-40.44-1.9-5.37-3.65-10.84-5.35-16.13-2.41-7.51-4.91-15.27-7.85-22.85-5.55-14.26-18.12-24.84-38.44-32.33a158.25,158.25,0,0,1-24.84-12.09c-16.47-9.59-26.48-21.23-35.33-32.34-7.2-9-14.92-18.69-23.08-28.25-14.47-17-61.67-22.24-86.34-13.82-8.25,2.81-17.37,5.06-26.2,7.24l-.76.18c-15.13,3.74-28.42,2.46-39.48-3.79-5.78-3.27-11.42-6.7-16.87-10L1,35.81V47.68L6.52,51c4.2,2.54,8.55,5.17,13.06,7.63,9.71,5.3,21.8,6.58,35,3.68A294.71,294.71,0,0,0,84.39,54c15.28-5.1,32.44-6.68,52.46-4.85,18.05,1.66,31.15,7,38.93,15.84S191,83.24,198,92.21l3.7,4.7c13.75,17.42,32.42,30.91,57.08,41.23,15.21,6.37,25.31,15.24,30.88,27.1a232.89,232.89,0,0,1,9,23.38c1.05,3.07,2.14,6.25,3.27,9.36.57,1.59,1.14,3.17,1.7,4.76,5.29,14.77,10.76,30,21.93,44.27,7.35,9.36,18.62,17.89,34.44,26.08,10.89,5.63,24.55,8.5,41.75,8.76l7.64.11c11.26.15,22.91.31,34.29.88A201.67,201.67,0,0,1,496,292.55a16.71,16.71,0,0,1,2.59,1.15Z"/><path class="cls-1" d="M567.5,294.71c-3.66-7-6.68-14.16-11.13-21-6.17-9.56-18.66-16.29-36.86-20-23.77-4.79-47.73-9.34-72.85-11.75-10.44-1-21.19-1.41-31.81-1.49-22.7-.18-37.28-6.17-46.61-16.51-7.88-8.75-11.78-18.07-14.86-27.5-4.53-13.86-8.45-27.78-13.13-41.63a146.33,146.33,0,0,0-8.55-19.54c-5.72-11.21-19-19.37-39.56-23.66-35.81-7.47-57.21-21.81-71.57-39.62C209.47,58.25,199.65,44.2,188,30.57c-6-7-14.44-13.44-22.31-20C158.08,4.3,146.37,2.69,133,4c-9.65.93-19.28,2-28.76,3.33-13.12,1.83-25.7,1.78-37.59-2C61.84,3.76,57.21,2.1,52.5.5h115c3.05,2.27,6.78,4.38,9,6.85,7.66,8.47,15.13,17,22.06,25.63C210,47.15,220,61.61,232.16,75.59c9.48,10.91,23.64,20.18,44.65,25.91,8.4,2.29,17.09,4.29,25.66,6.41,18.49,4.58,31.07,11.83,36.33,22.25,3.17,6.29,6.48,12.59,8.68,19,5.39,15.73,10,31.53,15.28,47.27,2.91,8.66,7.28,17.11,16,24.79,7.2,6.33,17.26,10.17,31.53,10.92,12.09.64,24.33,1,36.17,2.32,28.29,3.1,55,8.78,81.66,14.48,17.29,3.69,27.94,10.66,34.49,19.55a24.25,24.25,0,0,1,3.08,4.4c3,7.26,5.87,14.55,8.78,21.83Z"/><path class="cls-1" d="M575.24,295.21h-8l-.14-.27c-1.13-2.17-2.22-4.39-3.27-6.53A139.4,139.4,0,0,0,556,273.94c-6.1-9.44-18.39-16.09-36.54-19.75-22.75-4.59-47.11-9.28-72.8-11.74-9.52-.91-19.9-1.4-31.76-1.49-21.65-.17-37-5.62-47-16.68-8.17-9.07-12-18.66-15-27.67-2-6.16-3.93-12.43-5.79-18.5-2.32-7.59-4.73-15.44-7.33-23.13a143.77,143.77,0,0,0-8.52-19.47c-5.77-11.3-19-19.17-39.22-23.4-32.61-6.8-55.44-19.45-71.86-39.79-4.55-5.65-9-11.44-13.23-17-6.13-8-12.47-16.35-19.34-24.38-4.89-5.72-11.56-11.17-18-16.43-1.42-1.16-2.84-2.32-4.24-3.48C158.45,5.26,147.57,3.07,133,4.48c-10.87,1-20.27,2.14-28.74,3.32-14.92,2.09-26.94,1.44-37.81-2-3.3-1.06-6.57-2.19-9.74-3.28L52.34,1,49.48,0H167.67l.13.1c.95.71,2,1.41,3,2.1A34.94,34.94,0,0,1,176.89,7c9,10,16.06,18.15,22.08,25.66,4.37,5.44,8.61,11,12.71,16.4,6.59,8.65,13.39,17.59,20.86,26.19,10.3,11.87,25.24,20.53,44.4,25.76,5.88,1.6,12,3.09,17.93,4.52,2.58.63,5.16,1.25,7.72,1.89,19.18,4.75,31.52,12.32,36.65,22.51l1,1.92A139,139,0,0,1,348,149c2.87,8.36,5.55,16.89,8.15,25.14,2.29,7.26,4.65,14.76,7.13,22.13,3.51,10.43,8.41,18,15.89,24.58s17.67,10.08,31.23,10.8l8.1.4c9.28.44,18.88.9,28.09,1.91,28.56,3.14,55.58,8.91,81.72,14.49,16.15,3.45,27.53,9.91,34.79,19.74.3.41.62.81.94,1.22a14.72,14.72,0,0,1,2.19,3.29c2.24,5.36,4.41,10.82,6.5,16.1l2.28,5.73Zm-7.44-1h6l-2-5c-2.09-5.28-4.25-10.73-6.49-16.08a14,14,0,0,0-2-3.06c-.33-.41-.66-.83-1-1.24-7.1-9.64-18.29-16-34.19-19.37-26.11-5.57-53.11-11.34-81.62-14.46-9.18-1-18.76-1.47-28-1.91-2.71-.13-5.42-.26-8.11-.41-13.79-.73-24.21-4.34-31.84-11s-12.61-14.4-16.18-25c-2.48-7.38-4.85-14.89-7.13-22.15-2.6-8.24-5.28-16.76-8.15-25.12a136.68,136.68,0,0,0-7.68-17l-1-1.92c-5-9.91-17.11-17.31-36-22-2.56-.64-5.14-1.26-7.71-1.88-5.94-1.44-12.07-2.93-18-4.54-19.35-5.28-34.45-14-44.88-26.06-7.49-8.63-14.31-17.59-20.9-26.24-4.1-5.39-8.34-11-12.7-16.38-6-7.49-13-15.63-22-25.61A34.12,34.12,0,0,0,170.23,3c-1-.65-2-1.33-2.9-2H55.5l1.57.54c3.16,1.09,6.43,2.22,9.71,3.27,10.73,3.43,22.6,4.07,37.37,2,8.48-1.19,17.9-2.27,28.78-3.33,14.82-1.43,25.95.84,33.07,6.74,1.4,1.16,2.81,2.31,4.23,3.47,6.49,5.3,13.19,10.77,18.14,16.56,6.89,8,13.23,16.37,19.37,24.43,4.27,5.59,8.67,11.37,13.22,17,16.26,20.15,38.91,32.69,71.28,39.44,20.57,4.29,34,12.34,39.91,23.92a144.56,144.56,0,0,1,8.58,19.61c2.6,7.71,5,15.56,7.34,23.16,1.86,6.06,3.78,12.33,5.78,18.48,2.91,8.91,6.71,18.38,14.77,27.31,9.76,10.84,24.89,16.18,46.24,16.35,11.88.09,22.3.58,31.84,1.5,25.75,2.46,50.13,7.16,72.9,11.75,18.43,3.72,30.94,10.51,37.19,20.19a137.82,137.82,0,0,1,7.9,14.57C565.69,290,566.73,292.13,567.8,294.21Z"/><path class="cls-1" d="M281.5.5c2.8,3.15,5.52,6.31,8.41,9.44,8.84,9.55,23.14,15.82,42.65,18.65,14.43,2.09,29.05,3.81,43.59,5.7,1.77.23,3.53.5,5.3.74,23.77,3.19,39.71,10.9,48.16,22.85,3.91,5.54,7.57,11.13,11.28,16.71,8.06,12.12,20.37,23,36,32.85A447.93,447.93,0,0,1,525.76,143c17.91,15,39.71,28.07,67.56,38.28,2.72,1,5.17,2.2,7.9,3.19,26.38,9.58,38,23.45,42.39,39.46,3,10.83,5.85,21.67,9.2,32.46,1,3.23,3.28,6.37,5.21,9.5,7.09,11.52,22.86,17.8,45.13,19.92,16,1.53,32.28,2.54,48.22,4.31,8.61,1,16.77,3,25.13,4.59h-49c-9.49-.86-19.06-1.51-28.44-2.62-20-2.36-36.53-7.4-43.7-18.07a94.64,94.64,0,0,1-10.92-20.49c-3.53-9.9-5-20-8.24-29.91-4.79-14.57-17.74-26.64-42.15-34.84-2-.66-3.71-1.48-5.65-2.15-26-9-47.6-20.31-65-33.82C508.06,140.92,492.9,129,474.5,118.24,456.88,108,443.42,96.36,435.72,83.05c-3.27-5.64-6.69-11.27-10.06-16.9-8.1-13.57-24.45-22.65-51.55-26-12.31-1.51-24.53-3.2-36.81-4.78C303.66,31.05,279.78,17.79,274.5.5Z"/><path class="cls-1" d="M776.5,295.21h-49c-3-.27-6-.52-9-.77-6.43-.54-13.08-1.09-19.53-1.85-23.21-2.74-37.62-8.72-44.06-18.29-5.26-7.83-8.75-14.37-11-20.61a157.07,157.07,0,0,1-4.48-16c-1.1-4.58-2.25-9.31-3.76-13.91-5-15.27-19.1-26.89-41.84-34.53-1-.35-2-.75-3-1.13s-1.75-.7-2.67-1c-25.75-8.93-47.67-20.33-65.15-33.89l-2.25-1.75c-14.31-11.11-29.11-22.6-46.58-32.79-18.54-10.82-31.64-22.71-39-35.36-2.34-4-4.8-8.14-7.17-12.09l-2.89-4.81C416.8,52.28,400.06,43.86,374,40.67c-7.71-1-15.53-2-23.08-3-4.57-.6-9.14-1.21-13.72-1.8C303.56,31.54,279.33,18,274,.65l-.2-.65h7.9l.15.17,2.63,3c1.87,2.13,3.8,4.32,5.77,6.46,8.76,9.46,23,15.68,42.36,18.49,9.87,1.43,20,2.71,29.81,3.95l13.77,1.75,2.89.41,2.42.34c23.6,3.16,39.92,10.92,48.49,23.05,3.22,4.55,6.31,9.21,9.3,13.71l2,3C449,85.88,461.06,96.89,477.16,107a451.48,451.48,0,0,1,48.92,35.6c19.3,16.14,41.35,28.64,67.41,38.19,1.35.5,2.65,1.05,3.91,1.58s2.62,1.11,4,1.61c23.76,8.63,37.73,21.65,42.7,39.8l1.38,5c2.45,9,5,18.31,7.81,27.43a32.7,32.7,0,0,0,3.92,7.4c.42.66.84,1.32,1.25,2,6.69,10.87,21.75,17.5,44.75,19.68,6.47.62,13.08,1.16,19.47,1.68,9.46.78,19.24,1.58,28.75,2.63,6,.67,11.79,1.87,17.43,3,2.53.53,5.15,1.07,7.74,1.56ZM275.19,1c5.59,16.7,29.31,29.65,62.18,33.89,4.58.59,9.15,1.2,13.72,1.8,7.55,1,15.36,2,23.08,3,26.33,3.23,43.32,11.81,51.92,26.21L429,70.7c2.38,4,4.84,8.06,7.18,12.11,7.23,12.49,20.22,24.27,38.61,35,17.52,10.22,32.34,21.73,46.68,32.86l2.25,1.75c17.39,13.49,39.22,24.84,64.87,33.73.94.33,1.84.69,2.71,1s1.93.77,2.94,1.11c23,7.75,37.34,19.58,42.47,35.17,1.53,4.64,2.67,9.39,3.78,14a159,159,0,0,0,4.45,15.91c2.19,6.15,5.65,12.63,10.86,20.38,6.26,9.32,20.44,15.16,43.35,17.86,6.43.76,13.07,1.31,19.49,1.84,3,.25,6,.5,8.93.77h43.85l-2.74-.57c-5.62-1.16-11.42-2.37-17.34-3-9.5-1.06-19.27-1.86-28.72-2.63-6.4-.52-13-1.07-19.49-1.68-23.33-2.22-38.64-9-45.5-20.16l-1.25-2a33.26,33.26,0,0,1-4-7.65c-2.83-9.13-5.37-18.45-7.83-27.45l-1.37-5c-5-18.07-18.32-30.5-42.08-39.13-1.4-.51-2.74-1.08-4-1.63s-2.54-1.07-3.86-1.56c-26.18-9.59-48.33-22.14-67.71-38.37a450.92,450.92,0,0,0-48.82-35.52c-16.21-10.2-28.37-21.31-36.15-33l-2-3c-3-4.5-6.06-9.15-9.27-13.69-8.41-11.89-24.5-19.51-47.81-22.64L379,35.19l-2.88-.41L362.31,33c-9.8-1.24-19.94-2.51-29.82-4-19.59-2.84-34-9.17-42.95-18.8-2-2.15-3.92-4.35-5.79-6.48L281.28,1Z"/><path class="cls-1" d="M824.5,255.06c-7.64-2.09-15.2-4.28-23-6.25-15.29-3.89-32-5.2-48.35-7.25-6.14-.77-12.27-1.62-18.25-2.67-19.4-3.41-32-10.43-36.37-20.74-3.78-9-5.37-18.16-8.2-27.23-2.93-9.41-5.52-18.88-9.49-28.19-4.48-10.51-16.86-18.54-34.1-24.14C617.5,129.06,596.11,116,578,100.82,565.49,90.4,551,80.56,536.16,71a276.61,276.61,0,0,1-45.37-35.78c-3.42-3.38-6.78-6.78-10.39-10.1C469.06,14.71,455.69,5.31,433.5.5h23c16.16,6.92,27.2,15.85,36.8,25.37,11.94,11.84,23.86,23.75,41,33.83a458.66,458.66,0,0,1,60,42.57,132.77,132.77,0,0,0,37.31,21.55c10.55,4.05,22,7.51,33.26,11,16.23,5,26.28,12.37,28.76,22,3.24,12.56,5,25.22,8,37.8a68,68,0,0,0,6.56,17.84c6.57,11.7,23.24,17.93,44.93,21.15,15.83,2.35,31.72,4.65,47.27,7.45,8.39,1.51,16.11,4,24.13,6.12Z"/><path class="cls-1" d="M825,255.72l-.63-.18q-3.58-1-7.15-2c-5.14-1.43-10.47-2.91-15.8-4.27-11.86-3-24.83-4.5-37.37-5.94-3.65-.42-7.29-.84-10.91-1.29-7.16-.9-13-1.75-18.28-2.68-19.69-3.46-32.39-10.73-36.74-21a126.25,126.25,0,0,1-5.48-17.45c-.85-3.23-1.72-6.57-2.73-9.83-.6-1.91-1.18-3.83-1.76-5.75a219.13,219.13,0,0,0-7.72-22.39c-4.17-9.78-15.86-18-33.79-23.87-26.4-8.58-48.31-20.61-69-37.86C564,89.81,548.16,79.3,535.89,71.43a279.15,279.15,0,0,1-45.46-35.85l-1.8-1.78c-2.75-2.74-5.6-5.57-8.57-8.3C469.93,16.19,456.47,6,433.39,1l-4.55-1L456.7,0c17.48,7.49,28.49,17.08,36.95,25.47l.46.46c11.59,11.49,23.58,23.38,40.44,33.3,20,11.78,39.09,25.32,60,42.61a131.41,131.41,0,0,0,37.16,21.47c9.55,3.67,20,6.9,30.07,10l3.17,1c16.83,5.24,26.62,12.77,29.1,22.39,1.76,6.86,3.12,13.86,4.43,20.62,1.1,5.64,2.23,11.48,3.59,17.19a67.87,67.87,0,0,0,6.51,17.72c5.88,10.49,20.46,17.32,44.56,20.9l5,.75c13.93,2.06,28.34,4.19,42.25,6.7,5.8,1.05,11.37,2.6,16.75,4.1,2.42.68,4.93,1.38,7.42,2l.37.1ZM437.79,1c20.78,5.33,33.35,14.94,42.94,23.76,3,2.75,5.85,5.58,8.61,8.33l1.8,1.78a277.48,277.48,0,0,0,45.29,35.71c12.3,7.9,28.17,18.43,41.87,29.86,20.56,17.16,42.38,29.13,68.65,37.67,18.48,6,30,14.23,34.4,24.43A217.89,217.89,0,0,1,689.1,185q.87,2.88,1.76,5.74c1,3.29,1.9,6.64,2.75,9.88A125.63,125.63,0,0,0,699,218c4.21,10,16.66,17,36,20.44,5.29.92,11.08,1.77,18.22,2.67q5.43.68,10.9,1.28c12.58,1.45,25.58,2.94,37.51,6,5.34,1.36,10.67,2.85,15.82,4.28l6.51,1.81v-6.79c-2.37-.61-4.75-1.28-7.06-1.92-5.36-1.5-10.9-3-16.66-4.09-13.89-2.5-28.29-4.63-42.22-6.7l-5-.74c-24.43-3.63-39.25-10.63-45.3-21.4a68.76,68.76,0,0,1-6.6-18c-1.37-5.73-2.5-11.58-3.6-17.23-1.31-6.75-2.66-13.73-4.42-20.56-2.38-9.26-12-16.56-28.43-21.68l-3.17-1c-10.1-3.14-20.54-6.37-30.12-10.06a132.19,132.19,0,0,1-37.45-21.63C573.05,85.4,554,71.89,534,60.13c-17-10-29-21.91-40.63-33.45l-.46-.46C484.57,17.91,473.67,8.42,456.4,1Z"/><path class="cls-1" d="M824.5,239.93c-18.84-6-39.92-9-60.63-12.49-20.51-3.48-37.7-9.19-45.13-20.3a44.61,44.61,0,0,1-7.07-17.22c-1.83-10.8-2.09-21.68-3.2-32.52a42.87,42.87,0,0,0-2.16-10.6c-2.56-6.87-9.92-12.05-22-15.26-7.41-2-14.91-3.86-22.38-5.76-26.66-6.8-46.74-17.32-62.83-30.12-17.81-14.15-35.65-28.26-57.61-40.87-9.23-5.29-16.71-11.45-24.36-17.43a186.11,186.11,0,0,1-14.34-13.11C494.07,15.85,485.23,7.5,472.5.5h15c4.73,4,9.68,7.84,14.16,11.88C513.5,23,523.9,34.19,538.89,43.83c10.69,6.88,22.43,13.34,32.57,20.44,12.13,8.49,23.2,17.4,34.45,26.22,18.59,14.57,42.35,25.8,74.19,32,7.47,1.45,14.77,3.18,22.06,4.89,14.08,3.3,20.94,9.13,21.3,17.07.16,3.65-.18,7.3-.16,10.95.05,10.77-1,21.59.54,32.3,2.14,14.56,15.45,25.65,42.36,31.49,19.48,4.23,38.87,8.6,58.3,12.9Z"/><path class="cls-1" d="M825,240.62l-.65-.21c-16.11-5.11-34.18-8.1-51.66-11l-8.9-1.48c-24.43-4.14-38.88-10.66-45.46-20.51A45.53,45.53,0,0,1,711.17,190c-1.18-7-1.72-14.17-2.23-21.08-.29-3.77-.58-7.66-1-11.48A42.28,42.28,0,0,0,705.84,147c-2.52-6.77-9.8-11.8-21.63-15-5.83-1.55-11.81-3.07-17.6-4.54l-4.78-1.22c-24.79-6.32-45.4-16.2-63-30.21-17.33-13.78-35.25-28-57.55-40.82-8.13-4.67-15-10.07-21.63-15.29l-2.79-2.19a146.1,146.1,0,0,1-11.77-10.62l-2.61-2.52C494.41,16.87,485.26,8.09,472.26.94L470.55,0h17.13l.14.12Q490,2,492.31,3.81c3.24,2.67,6.6,5.42,9.68,8.19,2.84,2.56,5.64,5.19,8.35,7.73,8.59,8.05,17.46,16.37,28.82,23.68,4.23,2.72,8.7,5.42,13,8,6.6,4,13.43,8.12,19.57,12.42,10.21,7.15,19.82,14.71,29.12,22l5.35,4.21c20,15.66,44.18,26.1,74,31.92,6.95,1.35,13.84,3,20.51,4.53l1.57.36c14,3.28,21.31,9.18,21.69,17.54.09,2.16,0,4.35-.06,6.46,0,1.48-.11,3-.1,4.51,0,3.23-.07,6.51-.16,9.68-.2,7.41-.4,15.08.69,22.55,2.21,15,16.33,25.5,42,31.07,13.48,2.93,27.13,6,40.33,8.91l18,4,.39.09ZM474.41,1c12.24,7,21,15.44,28.75,22.89l2.61,2.52A145.84,145.84,0,0,0,517.47,37l2.79,2.2c6.61,5.19,13.44,10.57,21.51,15.2,22.37,12.84,40.31,27.11,57.67,40.91s38,23.74,62.64,30l4.78,1.22c5.79,1.47,11.78,3,17.61,4.54,12.16,3.25,19.67,8.49,22.3,15.58A42.78,42.78,0,0,1,709,157.35c.4,3.84.69,7.73,1,11.5.52,6.89,1.05,14,2.23,21a44.42,44.42,0,0,0,7,17c6.42,9.61,20.65,16,44.79,20.08l8.9,1.49c17.28,2.86,35.14,5.81,51.15,10.82v-6.74l-17.59-3.91c-13.2-2.94-26.85-6-40.32-8.9C740,214,725.62,203.3,723.34,187.79c-1.1-7.55-.9-15.26-.7-22.72.09-3.16.18-6.43.16-9.64,0-1.52.05-3.06.1-4.55.08-2.1.15-4.26.06-6.38-.35-7.86-7.39-13.45-20.92-16.61l-1.57-.37C693.81,126,686.93,124.35,680,123c-30-5.85-54.29-16.35-74.4-32.11l-5.35-4.21c-9.29-7.31-18.89-14.87-29.08-22-6.11-4.28-12.92-8.4-19.51-12.38-4.32-2.62-8.8-5.32-13-8-11.44-7.36-20.35-15.71-29-23.79-2.71-2.54-5.5-5.16-8.34-7.71-3.06-2.77-6.41-5.51-9.65-8.16-1.46-1.2-2.91-2.39-4.35-3.59Z"/><path class="cls-1" d="M.5,61l8.93,4.82c13.42,7.28,26.76,8.79,44.3,4.43C63.31,67.87,72.52,65,81.41,62c15.75-5.4,32.77-7.27,51.39-6.38,17.61.84,30.8,5.26,38.64,13.28a264.26,264.26,0,0,1,20.05,23.82c9.73,12.59,19.52,25.15,35.89,35.9a164.81,164.81,0,0,0,20,11.63c19.29,9.13,30.42,20.63,36,33.57,5.47,12.61,9.31,25.41,14.24,38.08,5.9,15.16,12.16,30.29,25.79,44.22,8.71,8.9,20.76,16.51,34.22,23.6,12.13,6.38,26.92,8.88,43.72,9.25,15.62.33,31.3.65,46.78,1.7,8,.55,15.6,2.67,23.38,4.09h-87a80.41,80.41,0,0,1-31.68-10.32c-9.61-5.63-19.07-11.38-27.52-17.49-15.89-11.47-23.79-24.81-29.81-38.38-6.95-15.64-12.39-31.46-19.27-47.11-5.56-12.63-14.11-24.73-31.52-34.4-25.18-14-42.68-30.23-55.39-48.12a227.06,227.06,0,0,0-20.91-25c-5.94-6.22-15.93-10.55-29.68-11.57-19.14-1.41-37.46-.21-54.34,5.23-12,3.87-24,7.8-36.59,11.16S22.3,81.73,10.57,77.16C7,75.76,3.84,74.05.5,72.49Z"/><path class="cls-1" d="M471.5,295.21h-87a80.51,80.51,0,0,1-31.94-10.39c-8.64-5.06-18.67-11.1-27.55-17.51-16.65-12-24.5-26.25-30-38.59-3.55-8-6.76-16.16-9.86-24.06-3-7.57-6-15.39-9.41-23-6.76-15.36-16.41-25.9-31.3-34.16-23.63-13.12-41.8-28.91-55.56-48.27A226,226,0,0,0,168,74.2c-6.22-6.51-16.37-10.46-29.36-11.42-20.8-1.54-38.51.17-54.14,5.2l-2.89.93c-10.9,3.52-22.17,7.15-33.73,10.24-13,3.49-26,3-37.54-1.53-2.47-1-4.77-2.09-7-3.18-1-.5-2.06-1-3.11-1.5L0,72.81V60.17l3.78,2,5.88,3.18c13.57,7.36,26.71,8.67,44,4.38,8.5-2.12,17.54-4.83,27.63-8.29,15.29-5.24,32.16-7.34,51.58-6.41,18,.86,31.1,5.38,39,13.43,7.33,7.51,13.43,15.25,20.09,23.86,9.49,12.29,19.3,25,35.76,35.79a162.18,162.18,0,0,0,19.91,11.59c18.3,8.67,30.16,19.74,36.27,33.83,3.29,7.58,6,15.34,8.68,22.85,1.77,5,3.6,10.18,5.57,15.25,6.28,16.17,12.56,30.64,25.68,44.05,7.67,7.83,18.5,15.3,34.09,23.5,11.16,5.88,25,8.8,43.5,9.2l1.45,0c14.92.32,30.35.65,45.35,1.67a117.38,117.38,0,0,1,16.23,2.64c2.36.5,4.8,1,7.21,1.45Zm-347.07-234q6.91,0,14.33.54c13.24,1,23.61,5,30,11.73a228,228,0,0,1,21,25.09c13.68,19.24,31.74,34.93,55.23,48,15.09,8.38,24.88,19.07,31.74,34.64,3.37,7.67,6.45,15.51,9.42,23.08,3.1,7.89,6.3,16.05,9.84,24,5.43,12.21,13.2,26.3,29.65,38.18,8.85,6.39,18.86,12.41,27.48,17.46a79.43,79.43,0,0,0,31.49,10.25h81.83l-2.22-.47a116.35,116.35,0,0,0-16.09-2.62c-15-1-30.39-1.35-45.3-1.67l-1.45,0c-18.68-.41-32.64-3.36-43.95-9.31-15.68-8.26-26.59-15.78-34.34-23.69-13.25-13.54-19.57-28.11-25.89-44.39-2-5.08-3.81-10.26-5.58-15.28-2.65-7.49-5.38-15.24-8.66-22.78-6-13.86-17.71-24.76-35.78-33.32a165.76,165.76,0,0,1-20-11.66c-16.6-10.9-26.46-23.67-36-36-6.64-8.59-12.72-16.31-20-23.78-7.69-7.87-20.58-12.29-38.31-13.13-19.3-.92-36,1.16-51.2,6.35-10.12,3.48-19.19,6.2-27.72,8.32-17.5,4.36-30.86,3-44.66-4.47L3.3,63.09,1,61.85V72.17c1,.45,1.9.91,2.84,1.37,2.2,1.08,4.47,2.2,6.91,3.15,11.31,4.41,24.07,4.93,36.91,1.5C59.2,75.1,70.46,71.47,81.34,68L84.23,67C96.27,63.15,109.52,61.24,124.43,61.24Z"/><path class="cls-1" d="M588.5,294.71h-7c-.39-1.2-.78-2.4-1.16-3.6-3-9.6-5.9-19.19-13-28.29-6.71-8.58-17.15-15.21-33.83-18.87-7-1.54-14-3.18-21.16-4.63-31.26-6.39-62-13.73-96.27-14.82-16.39-.52-27.45-5.31-34.25-12.86-3-3.29-6.05-6.66-7.52-10.17-4.41-10.51-8.1-21.1-12-31.67-5.05-13.81-9.62-27.67-15.1-41.43-4.21-10.54-14.77-18.91-34-23.71-5.71-1.42-11.37-2.93-17.28-4.07C272,96,253.3,88.17,240.92,76.48c-5.14-4.86-10.54-9.72-14.34-14.87-10.45-14.18-20-28.53-30.13-42.77C192.07,12.68,187.17,6.61,182.5.5h11c4.7,7.69,9.44,15.36,14.09,23.06,9.3,15.41,18.94,30.73,33.69,45,12.9,12.51,30.94,21.79,57.23,26.41,7.7,1.35,15.06,3.26,22.4,5.1,15.13,3.79,25.84,9.68,30.73,18.2,2,3.48,4.5,6.93,5.78,10.49,4.64,13,8.6,26,13.33,39A291.47,291.47,0,0,0,383.22,198c5.63,11.33,19.91,17.72,42.83,19a220.44,220.44,0,0,1,32,3.9c28.38,6,56.37,12.42,84.35,18.88,13.37,3.09,22.86,8.49,28.12,15.54a95.53,95.53,0,0,1,10.9,18.05C584.54,280.43,586.2,287.6,588.5,294.71Z"/><path class="cls-1" d="M589.19,295.21h-8.05l-.48-1.48c-.27-.82-.54-1.65-.79-2.47l-.13-.41c-2.88-9.25-5.85-18.82-12.81-27.72-7.2-9.2-18.17-15.32-33.54-18.69-2.3-.5-4.59-1-6.88-1.53-4.66-1-9.48-2.12-14.28-3.1-4.12-.84-8.22-1.7-12.33-2.56C473.3,231.69,445.79,226,416,225c-15.62-.49-27.27-4.88-34.61-13l-.24-.27c-2.9-3.22-5.9-6.54-7.36-10-3.56-8.47-6.7-17.14-9.73-25.51-.75-2.06-1.49-4.12-2.25-6.18-1.73-4.73-3.43-9.54-5.07-14.2-3.16-8.93-6.43-18.17-10-27.21-4.41-11.07-15.75-19-33.69-23.41l-3.23-.81c-4.54-1.15-9.24-2.33-14-3.26-24.69-4.79-43.27-12.94-55.23-24.23l-1.81-1.7c-4.53-4.26-9.21-8.65-12.6-13.25-6.4-8.69-12.57-17.59-18.54-26.2C203.86,30.27,200,24.64,196,19.13c-3-4.23-6.31-8.48-9.51-12.6Q184.3,3.67,182.1.8l-.61-.8h12.29l.15.24q2.19,3.58,4.39,7.17c3.25,5.29,6.5,10.59,9.7,15.89,9.83,16.29,19.15,30.92,33.61,44.94,13.78,13.37,32.42,22,57,26.28,7,1.22,13.75,2.92,20.3,4.57l2.13.54c15.86,4,26.3,10.17,31,18.43.58,1,1.19,2,1.81,3a42.45,42.45,0,0,1,4,7.57c2.18,6.1,4.25,12.32,6.24,18.32,2.25,6.78,4.58,13.78,7.09,20.64a293,293,0,0,0,12.44,30.21c5.55,11.15,19.82,17.46,42.41,18.75a220.48,220.48,0,0,1,32.07,3.91c27.79,5.83,55.65,12.26,82.59,18.48l1.77.41c13.18,3,23,8.47,28.41,15.72a96.8,96.8,0,0,1,11,18.15A118.78,118.78,0,0,1,587,288.1c.62,2.12,1.27,4.31,2,6.45Zm-7.33-1h5.95c-.62-1.95-1.2-3.92-1.76-5.83A118.22,118.22,0,0,0,581,273.63a96.26,96.26,0,0,0-10.85-18c-5.26-7-14.88-12.35-27.83-15.34l-1.77-.41c-26.94-6.22-54.8-12.65-82.57-18.47A220,220,0,0,0,426,217.55c-23-1.31-37.54-7.81-43.25-19.31a291.36,291.36,0,0,1-12.49-30.3c-2.51-6.88-4.84-13.89-7.09-20.67-2-6-4.06-12.21-6.24-18.3a41.45,41.45,0,0,0-3.92-7.38c-.62-1-1.25-2-1.83-3-4.6-8-14.83-14-30.41-18l-2.13-.54c-6.54-1.64-13.3-3.34-20.23-4.56-24.76-4.34-43.57-13-57.5-26.54C226.39,54.85,217,40.17,207.16,23.82c-3.2-5.3-6.45-10.6-9.69-15.89Q195.34,4.47,193.22,1h-9.71q1.89,2.46,3.81,4.92c3.2,4.12,6.52,8.39,9.54,12.63,3.92,5.52,7.82,11.14,11.59,16.58,6,8.6,12.13,17.5,18.53,26.18,3.33,4.52,8,8.88,12.48,13.11l1.81,1.7c11.82,11.16,30.23,19.23,54.73,24,4.81.93,9.52,2.12,14.07,3.27l3.23.81c18.28,4.54,29.84,12.62,34.38,24,3.61,9.06,6.88,18.3,10,27.25,1.64,4.65,3.35,9.46,5.07,14.19.76,2.06,1.5,4.11,2.25,6.17,3,8.37,6.17,17,9.71,25.48,1.4,3.33,4.34,6.59,7.18,9.75l.25.27c7.15,7.94,18.55,12.21,33.9,12.7,29.83.95,57.38,6.71,84,12.27q6.16,1.29,12.33,2.56c4.81,1,9.63,2.06,14.3,3.11l6.87,1.52c15.61,3.43,26.77,9.66,34.12,19,7.07,9.05,10.07,18.71,13,28.05l.12.4c.26.82.52,1.64.79,2.46Z"/><path class="cls-1" d="M267.5.5c5.39,10.56,12.46,20.73,26.67,29.05,10.74,6.28,25.28,9.06,40.44,11.16,14.14,2,28.34,3.83,42.31,6.08,20.2,3.26,33.49,10.47,40.3,20.79A171.8,171.8,0,0,1,429.37,88.5c7.06,15,20.89,27.93,40.88,39.39a408.89,408.89,0,0,1,39.47,25.83,247.73,247.73,0,0,0,72,37.09c3.95,1.28,7.54,2.86,11.44,4.18,23.31,7.88,33.55,19.93,38.26,33.45,4.06,11.7,6.05,23.59,10.36,35.25,2.33,6.32,7.12,12.44,11.71,18.46,3.85,5.06,11.31,8.72,20.37,11.45a27.91,27.91,0,0,1,2.66,1.11h-19c-4.36-4-10-7.72-12.79-12a107.08,107.08,0,0,1-11.15-22.37c-3.48-9.73-4.77-19.67-8.43-29.37-4.17-11.07-12-21.4-30-28.62-5.15-2.06-10.38-4.1-15.92-5.85-27.39-8.64-51.36-19.27-70.38-32.77-13.73-9.76-28-19.24-45-27.56C445.1,127,433.27,115.77,427,102.78c-4.58-9.51-9.58-19-14.89-28.39-6.31-11.19-20-18.93-41.62-22.38Q350,48.74,329.15,46c-26.42-3.44-45.36-11.39-55.38-24.69C268.6,14.47,264.23,7.45,259.5.5Z"/><path class="cls-1" d="M679,295.21H657.31l-.15-.13c-1.34-1.23-2.84-2.46-4.29-3.64-3.26-2.67-6.63-5.43-8.58-8.44a108.63,108.63,0,0,1-11.21-22.47c-1.67-4.7-2.86-9.51-4-14.16a131.83,131.83,0,0,0-4.41-15.2c-3.13-8.31-9.63-20.29-29.74-28.34-4.7-1.87-10.18-4-15.89-5.83-29.39-9.28-52.46-20-70.52-32.85-12.3-8.73-27.25-18.83-44.9-27.51-18.38-9-30.5-20-37-33.64-4.35-9-9.36-18.58-14.87-28.36-6.4-11.35-20.29-18.79-41.27-22.13-14.11-2.25-28-4.27-41.34-6C301.9,43,283.15,34.61,273.37,21.63c-3.57-4.73-6.81-9.62-9.94-14.35-1.44-2.17-2.87-4.34-4.34-6.5L258.55,0h9.26l.14.27c4.81,9.42,11.72,20.21,26.47,28.84,10.87,6.37,25.77,9.1,40.26,11.11l7.75,1.06c11.38,1.56,23.15,3.18,34.57,5,19.89,3.21,33.56,10.28,40.64,21a173.87,173.87,0,0,1,12.18,21c6.86,14.6,20.17,27.41,40.68,39.16A409.17,409.17,0,0,1,510,153.31a246,246,0,0,0,71.83,37c2.12.69,4.15,1.47,6.12,2.23,1.73.66,3.51,1.34,5.33,2,20.74,7,33,17.73,38.57,33.76,1.92,5.53,3.4,11.2,4.84,16.68,1.6,6.1,3.25,12.42,5.52,18.56,2.21,6,6.7,11.85,11,17.54l.59.79c3.43,4.49,10.19,8.28,20.12,11.28a13.2,13.2,0,0,1,1.9.76l.81.36Zm-21.29-1h16.38l-.38-.13c-10.27-3.1-17-6.9-20.62-11.63l-.6-.78c-4.38-5.75-8.92-11.69-11.18-17.8s-3.94-12.53-5.55-18.66c-1.43-5.46-2.91-11.1-4.82-16.6-5.46-15.71-17.51-26.24-37.94-33.14-1.83-.62-3.63-1.31-5.36-2-2-.75-4-1.53-6.08-2.21a247.1,247.1,0,0,1-72.12-37.16A407.06,407.06,0,0,0,470,128.32c-20.7-11.86-34.14-24.81-41.1-39.61A172.15,172.15,0,0,0,416.8,67.86c-6.91-10.49-20.36-17.41-40-20.57-11.41-1.84-23.17-3.46-34.55-5l-7.75-1.06c-14.59-2-29.61-4.78-40.63-11.23-14.83-8.68-21.84-19.5-26.72-29h-6.75q1.94,2.87,3.82,5.73c3.12,4.71,6.35,9.59,9.91,14.3,9.61,12.76,28.14,21,55.05,24.49,13.33,1.73,27.25,3.75,41.37,6,21.3,3.39,35.42,11,42,22.63,5.52,9.8,10.54,19.36,14.9,28.41,6.44,13.4,18.41,24.25,36.58,33.18,17.71,8.71,32.71,18.84,45,27.6,18,12.76,40.95,23.46,70.24,32.71,5.74,1.81,11.25,4,16,5.86,15.59,6.23,25.22,15.42,30.31,28.9A133.62,133.62,0,0,1,630,246.13a141.24,141.24,0,0,0,4,14.06,106.91,106.91,0,0,0,11.1,22.27c1.86,2.87,5.17,5.58,8.38,8.2C654.91,291.82,656.37,293,657.69,294.21Z"/><path class="cls-1" d="M232.5.5h7c.42.84.85,1.68,1.25,2.52,5.35,11,11.13,22,20,32.43,11.07,13,28.29,22.33,55.32,26.14,11.72,1.66,23.34,3.53,34.89,5.5,19.08,3.24,34.39,8.82,41,19.27a113.57,113.57,0,0,1,8.55,15.5c5,11.78,9.48,23.63,14.22,35.44,4.68,11.63,16.21,20.76,35.87,27A180.76,180.76,0,0,1,468.48,171c8,3.52,15.83,7.2,23.14,11.11,21.77,11.64,47.28,20.52,74.59,28.13,17,4.74,30.55,11.21,37,20.93,3.32,5,6.61,10,8.39,15.22,4.12,12,7.13,24,11,36,1.34,4.16,3.87,8.22,5.86,12.33h-8c-2.09-5.27-4.52-10.5-6.21-15.8-3.55-11.13-5.79-22.39-10.3-33.41-4.75-11.63-14.24-22.1-35.49-28.32-5.22-1.54-10.32-3.19-15.64-4.62-23.2-6.24-44.82-13.67-64.16-22.85A254.82,254.82,0,0,0,445,173.33c-18-4.84-29.93-12.28-34.44-22.71-3.21-7.45-6.18-14.92-9.35-22.38-4.94-11.59-9.5-23.24-15.09-34.75-4.81-9.91-17.47-16.41-35.87-19.76-12.4-2.26-24.88-4.45-37.5-6.34-23.24-3.49-40.27-10.86-51.56-21.89-3.91-3.82-8-7.69-10.44-11.79C244.24,22.71,238.54,11.58,232.5.5Z"/><path class="cls-1" d="M629.3,295.21h-9.14l-.12-.32c-.66-1.64-1.34-3.27-2-4.9-1.5-3.57-3-7.26-4.21-10.92-1.3-4.09-2.45-8.27-3.56-12.3a180.43,180.43,0,0,0-6.72-21.08c-5.62-13.74-16.8-22.65-35.17-28q-2.79-.81-5.56-1.67c-3.27-1-6.65-2-10.07-2.94-24.9-6.69-45.92-14.18-64.24-22.88a252.16,252.16,0,0,0-43.59-16.34c-18.64-5-30.34-12.75-34.76-23-1.77-4.09-3.49-8.26-5.15-12.28-1.39-3.37-2.78-6.74-4.21-10.1-1.34-3.13-2.64-6.27-3.95-9.41-3.47-8.32-7.05-16.93-11.13-25.32-4.6-9.48-16.55-16-35.51-19.49-11.07-2-24.19-4.34-37.48-6.34-23-3.44-40.4-10.85-51.84-22l-.69-.67c-3.68-3.6-7.49-7.31-9.83-11.23-4.69-7.88-9-16-13.2-23.78q-2.53-4.72-5.09-9.44l-.4-.74h8.15l.54,1.09c.29.57.58,1.14.85,1.71,4.85,10,10.78,21.56,20,32.33,11.86,13.92,29.85,22.42,55,26,10.32,1.46,21.41,3.2,34.9,5.49,21.88,3.72,35.39,10.1,41.32,19.5A115.57,115.57,0,0,1,401,101.67c3.33,7.78,6.45,15.72,9.46,23.4,1.58,4,3.16,8,4.77,12,4.71,11.72,16.67,20.72,35.55,26.74a183.45,183.45,0,0,1,17.93,6.67c9,4,16.57,7.6,23.16,11.13,19.53,10.44,43.2,19.37,74.5,28.09,19.19,5.34,31.4,12.26,37.32,21.13,3.58,5.36,6.69,10.22,8.45,15.34,2.34,6.78,4.35,13.7,6.29,20.39,1.49,5.13,3,10.43,4.7,15.63a55.68,55.68,0,0,0,3.85,8.39c.67,1.26,1.36,2.57,2,3.87Zm-8.46-1h6.86c-.53-1-1.08-2.1-1.62-3.13a55.55,55.55,0,0,1-3.92-8.55c-1.68-5.21-3.22-10.52-4.71-15.65-1.94-6.68-4-13.59-6.28-20.35-1.72-5-4.79-9.8-8.33-15.1C597.05,222.76,585,216,566.08,210.7,534.71,202,511,193,491.38,182.53c-6.57-3.51-14.12-7.14-23.1-11.09a178.67,178.67,0,0,0-17.82-6.63c-19.18-6.12-31.35-15.31-36.18-27.33-1.61-4-3.19-8-4.77-12-3-7.68-6.12-15.61-9.45-23.38a113.56,113.56,0,0,0-8.52-15.43c-5.76-9.15-19.06-15.38-40.64-19-13.48-2.29-24.56-4-34.87-5.49-25.41-3.59-43.61-12.2-55.63-26.31-9.25-10.86-15.22-22.49-20.1-32.54-.27-.57-.56-1.14-.84-1.7L239.19,1h-5.85c1.58,2.9,3.13,5.81,4.69,8.71,4.18,7.81,8.5,15.88,13.18,23.74,2.27,3.81,6,7.47,9.67,11l.69.68c11.28,11,28.54,18.33,51.29,21.75,13.31,2,26.43,4.32,37.51,6.34,19.29,3.51,31.48,10.25,36.23,20,4.09,8.42,7.68,17,11.15,25.38,1.31,3.13,2.61,6.27,3.95,9.4,1.43,3.36,2.82,6.73,4.21,10.1,1.66,4,3.38,8.19,5.14,12.27,4.31,10,15.78,17.51,34.11,22.43a253,253,0,0,1,43.75,16.41c18.28,8.67,39.24,16.14,64.08,22.82,3.43.92,6.82,1.95,10.11,2.95,1.84.56,3.68,1.12,5.54,1.67,18.69,5.47,30.07,14.57,35.82,28.61a186.33,186.33,0,0,1,6.76,21.2c1.1,4,2.24,8.18,3.54,12.25,1.16,3.63,2.7,7.29,4.18,10.84C619.58,291.13,620.22,292.67,620.84,294.21Z"/><path class="cls-1" d="M202.5.5h8c1.72,3.35,3.5,6.7,5.15,10.06C223.42,26.4,232.17,42,246.33,56.74c13,13.52,31.89,23.31,60.36,27.72,10,1.55,19.68,3.79,29.2,6.05,14.08,3.35,24.4,8.68,29.24,16.55,1.53,2.48,3.51,4.91,4.45,7.45,5.15,14,10.06,28,15,42,3.48,9.81,6.31,19.7,13.35,29.08,4.8,6.39,13.13,10.77,25.69,12.9,3.32.57,6.73,1,10,1.7,13.42,2.81,27.15,5.29,40.09,8.61,23.88,6.13,46.91,13.18,71,19.07,22.92,5.61,37,14.62,42.85,27.11,3.88,8.25,6.27,16.69,9,25.06,1.6,4.87,2.64,9.78,3.94,14.68h-6c-.73-2.23-1.41-4.46-2.21-6.68-3.59-10-6.26-20-11.08-29.85-5.63-11.45-18.6-20.05-40.22-25-22.08-5-43.75-10.59-65.33-16.2-17.16-4.46-35.41-7-53.89-9.29C407.93,206,398,202,392.76,195.1c-2.75-3.63-5.6-7.29-7.18-11.08-3.52-8.48-6.24-17-9.33-25.57-4.91-13.55-9.51-27.14-14.91-40.64-4.53-11.33-17.4-19.31-38.11-23.71-5.39-1.15-10.7-2.44-16.25-3.34-25.05-4-45.16-11.36-58.3-23.39A163.45,163.45,0,0,1,236.29,54.9C220.88,37.47,212.32,18.88,202.5.5Z"/><path class="cls-1" d="M601.15,295.21h-7l-.12-.35c-.23-.7-.45-1.4-.67-2.1-.48-1.5-1-3-1.53-4.56-1.08-3-2.09-6-3.07-9a162,162,0,0,0-8-20.8c-5.74-11.67-19.16-20-39.88-24.71-22.52-5.14-44.63-10.82-65.35-16.21-17.38-4.51-36.14-7.12-53.82-9.27-14.54-1.77-24.14-6-29.34-12.81l-.41-.53c-2.61-3.44-5.32-7-6.84-10.66-2.41-5.8-4.48-11.75-6.48-17.49-.94-2.7-1.88-5.4-2.86-8.1q-2.08-5.77-4.13-11.55c-3.4-9.55-6.91-19.42-10.77-29.07-4.46-11.17-17.17-19-37.75-23.41l-4.41-1c-3.83-.85-7.8-1.73-11.82-2.37-26.82-4.31-46-12-58.56-23.52a165.31,165.31,0,0,1-12.43-12.51c-13.06-14.78-21.35-30.63-29.36-46-1.49-2.85-3-5.69-4.49-8.53L201.67,0h9.14l.13.27,1.65,3.19C213.76,5.71,215,8,216.1,10.34c7.44,15.15,16.29,31.21,30.59,46.06C260.61,70.84,280.26,79.86,306.76,84c10,1.54,19.52,3.74,29.25,6,14.94,3.56,24.88,9.2,29.55,16.78.46.74,1,1.48,1.46,2.23a26.24,26.24,0,0,1,3,5.31c4.34,11.78,8.58,23.78,12.68,35.38l2.33,6.61c.46,1.3.91,2.6,1.36,3.9,2.88,8.35,5.86,17,11.92,25.05,4.87,6.48,13.17,10.64,25.37,12.71,1.09.19,2.19.36,3.28.53,2.22.36,4.52.72,6.71,1.18q5.63,1.17,11.3,2.3c9.57,1.92,19.47,3.91,28.8,6.3C484.41,211,495,214,505.29,216.83c12.84,3.57,26.12,7.27,39.5,10.54C567.83,233,582,242,588,254.76a163.54,163.54,0,0,1,7.39,20l1.67,5.15c1.12,3.37,2,6.81,2.8,10.14.37,1.52.75,3,1.15,4.56Zm-6.29-1h5c-.34-1.32-.67-2.63-1-3.95-.83-3.31-1.68-6.74-2.78-10.07-.57-1.71-1.12-3.43-1.67-5.15a162.4,162.4,0,0,0-7.34-19.85c-5.88-12.5-19.79-21.28-42.52-26.85-13.4-3.28-26.68-7-39.53-10.54-10.26-2.86-20.87-5.81-31.46-8.53-9.31-2.39-19.2-4.37-28.76-6.29-3.78-.76-7.55-1.52-11.31-2.31-2.16-.45-4.44-.81-6.65-1.16l-3.3-.53c-12.46-2.12-21-6.41-26-13.1-6.16-8.2-9.16-16.9-12.06-25.32-.45-1.3-.9-2.6-1.36-3.9l-2.33-6.61c-4.1-11.59-8.34-23.59-12.68-35.36a25.37,25.37,0,0,0-2.92-5.1c-.51-.76-1-1.51-1.48-2.27C360.19,100,350.45,94.49,335.78,91c-9.71-2.31-19.24-4.51-29.17-6C279.88,80.82,260.05,71.7,246,57.09,231.57,42.15,222.67,26,215.2,10.78c-1.12-2.29-2.33-4.61-3.49-6.86L210.19,1h-6.86c1.39,2.6,2.75,5.2,4.11,7.8,8,15.28,16.24,31.08,29.22,45.77A165.29,165.29,0,0,0,249,67c12.43,11.38,31.42,19,58,23.27,4.05.65,8,1.53,11.88,2.38l4.39,1c20.94,4.44,33.88,12.52,38.48,24,3.87,9.68,7.38,19.56,10.78,29.11q2.06,5.78,4.13,11.55c1,2.7,1.92,5.4,2.86,8.11,2,5.73,4.07,11.66,6.47,17.44,1.47,3.54,4.13,7,6.71,10.43l.4.53c5,6.54,14.61,10.72,28.67,12.43,17.71,2.15,36.51,4.76,53.95,9.3,20.71,5.38,42.82,11.06,65.32,16.19,21,4.8,34.68,13.29,40.56,25.25a162.79,162.79,0,0,1,8,20.93c1,2.95,2,6,3.06,9,.56,1.53,1,3.09,1.54,4.6C594.48,293,594.67,293.62,594.86,294.21Z"/><path class="cls-1" d="M824.5,224.81Q800.86,218.9,777.2,213c-24.81-6.11-38.74-16.44-40.54-30.53-1.14-9,.6-18,1.36-27,.45-5.47,1.69-10.92,2.21-16.38.67-7-5.15-12.17-17.64-14.87s-25.39-5.23-38.23-7.64c-26.22-4.93-47.36-13.37-63.56-25.1-15.39-11.13-30-22.56-45.42-33.67-7.12-5.12-15.3-9.86-23.28-14.63-14.88-8.9-26.61-18.88-37.57-29.15-4.85-4.55-10-9-15-13.51h12c12.47,11.39,24.37,23,40.39,33.17C561,39.45,570.57,45,579,51,593.79,61.54,607.77,72.35,622.25,83A151.72,151.72,0,0,0,652,100.12c17.88,7.75,39.23,11.54,60.95,15,10,1.62,19.93,3.41,29.51,5.59,10.63,2.41,16.16,6.88,15.33,13.07a134.27,134.27,0,0,1-2.64,13.72c-2.26,9.3-5.61,18.55-4.42,28,1.66,13.12,12.11,23.56,34.31,30.26,13,3.91,26.31,7.46,39.48,11.17Z"/><path class="cls-1" d="M825,225.45l-.62-.16-14.61-3.65q-16.32-4.08-32.69-8.14c-25.33-6.23-39.09-16.65-40.92-30.95-.86-6.73-.09-13.6.65-20.24.25-2.27.52-4.61.71-6.9.24-2.87.7-5.77,1.14-8.58.41-2.56.83-5.21,1.07-7.81.65-6.79-5.31-11.75-17.25-14.33-10.92-2.37-22.71-4.72-38.21-7.64-26-4.89-47.43-13.36-63.77-25.18-7.38-5.35-14.7-10.85-21.79-16.18-7.66-5.76-15.59-11.72-23.62-17.5-6.14-4.41-13.19-8.61-20-12.67l-3.25-1.93c-15.81-9.46-27.9-20.07-37.65-29.21-3.34-3.13-6.88-6.27-10.3-9.3-1.58-1.4-3.16-2.8-4.72-4.21l-1-.87h13.5l.15.13,4.46,4.09c10.71,9.86,21.8,20.06,35.86,29,2.89,1.84,5.88,3.69,8.77,5.48,6.2,3.84,12.61,7.8,18.39,11.91,9,6.4,17.86,13,26.42,19.44,5.48,4.1,11.15,8.35,16.8,12.49a151.59,151.59,0,0,0,29.64,17.1c17.63,7.64,38.83,11.47,60.83,15,11.61,1.88,21,3.65,29.54,5.59,11.14,2.52,16.57,7.23,15.72,13.62a132.41,132.41,0,0,1-2.66,13.78c-.44,1.82-.92,3.63-1.4,5.45-1.94,7.3-4,14.86-3,22.37,1.7,13.52,13.13,23.56,33.95,29.84,8.94,2.7,18.22,5.27,27.2,7.75,4.1,1.14,8.2,2.27,12.28,3.42l.36.1ZM500.81,1l3.75,3.33c3.42,3,7,6.18,10.31,9.32,9.71,9.1,21.76,19.67,37.48,29.08l3.25,1.93c6.83,4.07,13.9,8.28,20.07,12.72,8,5.78,16,11.75,23.65,17.51,7.07,5.33,14.39,10.83,21.77,16.17,16.21,11.74,37.53,20.15,63.36,25,15.52,2.91,27.31,5.27,38.25,7.64,15.79,3.42,18.52,10.26,18,15.41-.25,2.63-.67,5.29-1.08,7.87-.44,2.79-.9,5.67-1.14,8.5-.19,2.31-.45,4.66-.7,6.93-.74,6.58-1.5,13.39-.66,20,1.77,13.85,15.28,24,40.17,30.11q16.38,4,32.7,8.14l14,3.5v-6.81l-11.9-3.31c-9-2.49-18.28-5.06-27.23-7.76-21.24-6.41-32.9-16.73-34.66-30.68-1-7.7,1.06-15.35,3-22.75.48-1.8,1-3.61,1.4-5.43a133,133,0,0,0,2.64-13.67c1-7.32-7.59-10.85-14.95-12.52-8.52-1.93-17.89-3.7-29.48-5.57-22.06-3.57-43.34-7.4-61.07-15.09A152.79,152.79,0,0,1,622,83.36c-5.65-4.14-11.32-8.38-16.81-12.49-8.56-6.4-17.41-13-26.4-19.43-5.75-4.09-12.15-8-18.33-11.87-2.9-1.79-5.89-3.64-8.79-5.48-14.14-9-25.25-19.24-36-29.13l-4.31-4Z"/><path class="cls-1" d="M614.5,294.71h-7a22.84,22.84,0,0,1-1.27-2.78c-3.32-11.07-6.45-22.15-9.93-33.2-5.4-17.13-20.88-30-53.09-37.18-18.86-4.18-36.56-10-54-15.67s-34.85-11.56-54.67-14.94c-18.33-3.14-29.92-9.55-34.11-19.35-4.31-10.07-8.05-20.21-12.09-30.32-4.93-12.31-9.58-24.65-15-36.91C369.24,95,357.76,88.58,340.77,85,330,82.7,319.15,80.39,308,78.68c-25.38-3.89-43.11-12.32-55.49-24.22A123.42,123.42,0,0,1,228.5,22c-3.73-7.1-6.69-14.31-10-21.47h7c1.7,3.54,3.43,7.07,5.11,10.61,6.11,12.83,13.33,25.45,25,37.27,11.81,12,29.13,20.54,54.44,24.36,10.7,1.62,21.24,3.55,31.74,5.5,20,3.7,34.13,10.45,39.08,21.5s9.24,22.2,13.9,33.3c4.47,10.67,8.58,21.4,13.74,32,3.62,7.4,13.28,12.53,26.51,15.72,16.05,3.87,31.72,8.07,45.69,13.81,6.15,2.52,12.12,5.24,18.78,7.33,19.09,6,38.18,12,57.85,17.46,18.66,5.17,31.85,12.53,38,23a98.84,98.84,0,0,1,8.22,17.94C607.56,271.73,610.89,283.23,614.5,294.71Z"/><path class="cls-1" d="M615.18,295.21h-8l-.13-.29c-.14-.29-.28-.58-.43-.87a12.4,12.4,0,0,1-.87-2c-1.18-3.92-2.33-7.85-3.48-11.78-2.07-7-4.2-14.28-6.45-21.41-5.73-18.19-23-30.24-52.71-36.84-19.23-4.26-37.73-10.33-54.05-15.69l-1.9-.62c-16.54-5.43-33.64-11-52.7-14.3-18.68-3.19-30.28-9.8-34.49-19.64-2.82-6.58-5.43-13.3-8-19.8-1.37-3.51-2.73-7-4.14-10.53q-2-5-3.94-10c-3.48-8.84-7.08-18-11-26.94s-14.8-15.4-32.24-19.09l-.48-.1c-10.47-2.22-21.29-4.51-32.26-6.19-24.35-3.74-42.59-11.7-55.76-24.36A123.06,123.06,0,0,1,228.06,22.2c-2.58-4.91-4.83-10-7-14.83-1-2.22-2-4.44-3-6.66L217.72,0h8.09l1.76,3.63c1.17,2.42,2.34,4.84,3.49,7.26,5.41,11.37,12.6,24.67,24.88,37.14,12.49,12.67,30.2,20.6,54.16,24.22,10.59,1.6,21.06,3.51,31.75,5.49,21.48,4,34.76,11.32,39.44,21.8,3.19,7.12,6.15,14.39,9,21.43,1.59,3.89,3.23,7.92,4.89,11.88,1.16,2.78,2.3,5.56,3.44,8.34,3.19,7.77,6.48,15.8,10.29,23.61,3.36,6.87,12.17,12.07,26.18,15.45,15.2,3.67,31.27,7.88,45.76,13.84,1.39.56,2.76,1.14,4.14,1.72,4.65,2,9.46,4,14.6,5.59l1.85.58c18.17,5.71,36.95,11.62,56,16.88,19.8,5.48,32.34,13.08,38.34,23.24a99.72,99.72,0,0,1,8.27,18c2.82,8.1,5.35,16.35,7.8,24.34,1,3.36,2.07,6.73,3.13,10.1Zm-7.36-1h6q-1.49-4.72-2.92-9.46c-2.45-8-5-16.22-7.8-24.3a98.45,98.45,0,0,0-8.18-17.85c-5.86-9.92-18.21-17.37-37.75-22.78-19-5.26-37.84-11.17-56-16.88l-1.85-.58c-5.19-1.63-10-3.66-14.69-5.63L480.49,195c-14.43-5.93-30.45-10.13-45.62-13.79-14.31-3.45-23.34-8.83-26.83-16-3.83-7.84-7.13-15.89-10.32-23.67-1.14-2.78-2.28-5.56-3.45-8.33-1.66-4-3.3-8-4.89-11.9-2.86-7-5.82-14.29-9-21.4-4.55-10.15-17.57-17.29-38.71-21.21-10.68-2-21.14-3.9-31.72-5.49-24.18-3.66-42.08-11.67-54.72-24.51-12.39-12.58-19.63-26-25.07-37.41-1.15-2.42-2.32-4.84-3.49-7.26L225.19,1h-5.91q1.36,3,2.68,6c2.17,4.86,4.42,9.89,7,14.78A122.07,122.07,0,0,0,252.87,54.1c13,12.51,31.07,20.38,55.21,24.09,11,1.68,21.83,4,32.31,6.2l.49.1c17.77,3.76,28.85,10.38,32.94,19.67,3.95,9,7.56,18.12,11,27q2,5,3.94,10c1.41,3.51,2.77,7,4.14,10.54,2.53,6.49,5.14,13.2,7.95,19.76,4.07,9.51,15.42,15.92,33.74,19.05,19.13,3.27,36.27,8.9,52.84,14.34l1.9.62c16.3,5.35,34.78,11.41,54,15.67,30.12,6.68,47.61,19,53.46,37.51,2.25,7.13,4.38,14.4,6.45,21.43,1.15,3.93,2.3,7.85,3.48,11.77a11.36,11.36,0,0,0,.8,1.82C607.61,293.8,607.72,294,607.82,294.21Z"/><path class="cls-1" d="M646.5,294.71h-10c-3.4-5.9-7.81-11.69-10-17.7-4.09-11.42-6.62-23-10.28-34.46-5.07-15.86-17.67-29.07-46.6-37-28.5-7.81-53.9-17.88-74.86-30.76a247,247,0,0,0-40.67-19.93c-19.44-7.47-30.65-17.55-35.75-29.74s-10.74-24.52-16-36.79C396,73.66,378.74,64.69,350.9,61c-9.35-1.23-18.51-2.85-27.88-4-27.35-3.46-46.64-11.91-57.54-25.37a184.49,184.49,0,0,1-13.12-18.81c-2.51-4-3.94-8.2-5.86-12.31h7c5,11,11.51,21.74,22.09,31.7,10.2,9.58,25.93,15.4,45.9,18.33l38.94,5.68c24.5,3.58,40.41,11.69,47,24.54,4.67,9.14,9.66,18.27,13.09,27.54,6,16.24,19.86,29.77,44.86,40.3a163.93,163.93,0,0,1,27.34,14.77c22.93,15.34,49.56,28.33,82.41,37.7,23.32,6.65,37.89,16.84,43.53,30.27,3.48,8.29,5.68,16.74,7.92,25.16C630.08,269.69,634.1,282.78,646.5,294.71Z"/><path class="cls-1" d="M647.74,295.21H636.21l-.14-.25c-1.05-1.83-2.23-3.68-3.36-5.46-2.53-4-5.15-8.13-6.65-12.32-2.37-6.63-4.25-13.41-6.07-20-1.31-4.77-2.68-9.69-4.22-14.51C610,224.76,595.34,213.11,569.52,206c-29.75-8.15-55-18.52-75-30.81a246.08,246.08,0,0,0-40.59-19.89c-18.83-7.24-30.61-17.06-36-30-3-7.23-6.25-14.55-9.38-21.64-2.19-5-4.46-10.09-6.63-15.15-6.14-14.28-23.32-23.37-51.07-27-4.44-.59-8.91-1.27-13.23-1.93-4.78-.73-9.73-1.49-14.65-2.11C295.47,54,276,45.41,265.09,31.93a185.43,185.43,0,0,1-13.16-18.86,60.17,60.17,0,0,1-4.2-8.54c-.54-1.26-1.09-2.55-1.68-3.82L245.72,0h8.1l.14.29c5.77,12.85,12.76,22.87,22,31.54,9.62,9.05,25,15.18,45.62,18.2q15.53,2.28,31.05,4.53l7.89,1.16c24.86,3.62,40.8,12,47.36,24.81L410.18,85c3.9,7.53,7.92,15.32,10.8,23.1,6.27,16.93,20.85,30,44.58,40A163.42,163.42,0,0,1,493,163c24.87,16.62,51.78,28.93,82.27,37.63,23.4,6.67,38.15,16.95,43.86,30.56,3.37,8,5.58,16.33,7.71,24.35l.23.87c3.71,13.94,7.77,26.42,19.8,38Zm-11-1h8.48c-11.53-11.51-15.52-23.85-19.18-37.59l-.24-.87c-2.12-8-4.32-16.25-7.66-24.23-5.59-13.31-20.13-23.4-43.21-30-30.59-8.73-57.6-21.08-82.55-37.76a163.33,163.33,0,0,0-27.26-14.73c-24-10.11-38.75-23.38-45.12-40.58-2.86-7.73-6.88-15.49-10.76-23L407,81c-6.41-12.53-22.09-20.7-46.61-24.27l-7.9-1.16-31-4.53c-21.15-3.1-36.25-9.14-46.17-18.46C266,23.86,259,13.83,253.18,1h-5.9c.47,1,.93,2.11,1.37,3.14a59.84,59.84,0,0,0,4.13,8.4A185.34,185.34,0,0,0,265.86,31.3c10.75,13.27,30,21.75,57.22,25.19,4.93.63,9.88,1.39,14.67,2.12,4.32.66,8.78,1.34,13.22,1.92,28.11,3.7,45.56,13,51.85,27.62,2.17,5,4.43,10.18,6.62,15.14,3.14,7.09,6.37,14.42,9.4,21.65,5.3,12.69,16.9,22.33,35.46,29.47a247.6,247.6,0,0,1,40.75,20c19.93,12.25,45.08,22.58,74.74,30.7,26.17,7.17,41.09,19,46.93,37.32,1.55,4.84,2.92,9.78,4.24,14.55,1.81,6.54,3.68,13.31,6,19.9,1.47,4.09,4.06,8.17,6.56,12.12C634.64,290.68,635.77,292.45,636.79,294.21Z"/><path class="cls-1" d="M824.5,209.16c-38.68-10.57-61.26-19.94-58.35-44.63,1.16-9.85,5-19.6,7.66-29.4a16.61,16.61,0,0,0,.53-2.85c.74-9-3.67-13-19.94-16.12-12.44-2.43-25.19-4.58-38.1-6.17-38.4-4.73-67.66-16-89.92-32.76-17-12.86-34.68-25.5-52.33-38.14-12.33-8.83-25.39-17.4-37.61-26.27C531.13,9,527.11,4.62,522.5.5h12c5.76,4.78,11.07,9.72,17.38,14.29C562.29,22.33,573.5,29.57,584.1,37c19.9,14,39.37,28.23,59.5,42.16,13.56,9.39,30.7,16.78,51.85,21,15,3,30.79,5,46.2,7.53,10.47,1.71,21.1,3.23,31.27,5.34,13.92,2.9,19,7.31,18,15a78.41,78.41,0,0,1-3.63,14.45c-2.77,8.22-5.46,16.41-4.81,24.83,1.21,15.56,17.47,25.89,42,33.42Z"/><path class="cls-1" d="M825,209.81l-.63-.17c-36.33-9.93-61.8-19-58.72-45.17.8-6.78,2.91-13.6,4.94-20.2.94-3,1.91-6.18,2.74-9.27a16.53,16.53,0,0,0,.51-2.76c.74-8.89-3.83-12.53-19.54-15.59-13.79-2.69-26.24-4.71-38.06-6.17-37.49-4.62-67-15.36-90.16-32.85-17.42-13.14-36-26.42-52.32-38.13-5.7-4.09-11.66-8.18-17.42-12.14-6.7-4.6-13.62-9.36-20.19-14.14a97.35,97.35,0,0,1-9.79-8.45C525,3.48,523.6,2.15,522.17.87l-1-.87h13.49l.14.12c1.79,1.48,3.53,3,5.27,4.47,3.81,3.27,7.75,6.66,12.08,9.8,5.89,4.26,12.15,8.51,18.2,12.61,4.63,3.14,9.42,6.39,14,9.63,7.93,5.59,15.92,11.3,23.64,16.82,11.68,8.34,23.74,17,35.85,25.34,14.29,9.89,31.67,16.93,51.67,20.92,10,2,20.53,3.59,30.7,5.13,5.09.77,10.34,1.56,15.48,2.4,2.56.42,5.13.82,7.71,1.23,7.81,1.24,15.89,2.51,23.58,4.11,14.16,3,19.49,7.47,18.38,15.6a77.76,77.76,0,0,1-3.65,14.54c-2.55,7.56-5.44,16.13-4.78,24.63,1.08,13.93,14.71,24.72,41.68,33l.35.11ZM523.8,1c1.11,1,2.19,2,3.25,3a96.16,96.16,0,0,0,9.69,8.37c6.56,4.77,13.48,9.53,20.17,14.12,5.76,4,11.72,8.07,17.43,12.16,16.37,11.71,34.91,25,52.34,38.14,23,17.38,52.37,28.07,89.68,32.66,11.84,1.46,24.32,3.48,38.14,6.17,16.18,3.16,21.12,7.21,20.34,16.66a16.59,16.59,0,0,1-.55,2.94c-.83,3.11-1.8,6.26-2.74,9.31-2,6.55-4.12,13.33-4.9,20C763.92,187.74,783,197.25,824,208.5v-7.32c-27.16-8.39-40.91-19.43-42-33.75-.67-8.7,2.25-17.38,4.84-25a77.15,77.15,0,0,0,3.6-14.36c1-7.47-4.08-11.67-17.59-14.48-7.67-1.59-15.74-2.87-23.54-4.1-2.58-.41-5.15-.81-7.71-1.23-5.13-.84-10.39-1.63-15.47-2.4-10.18-1.54-20.71-3.13-30.75-5.14-20.13-4-37.64-11.11-52-21.08-12.11-8.38-24.18-17-35.86-25.35-7.72-5.52-15.71-11.23-23.64-16.81-4.59-3.24-9.38-6.49-14-9.62-6.06-4.11-12.32-8.36-18.22-12.63-4.37-3.17-8.33-6.56-12.15-9.85-1.69-1.45-3.39-2.91-5.12-4.35Z"/><path class="cls-1" d="M359.5,294.71h-14c-31.05-16.7-54.11-35.78-64.67-58.64-6.63-14.35-13-28.73-20.61-42.94-7.82-14.66-17.65-29-35.09-41.47A173.63,173.63,0,0,1,184,109.87a251,251,0,0,0-19.91-24.7c-6.12-6.68-16.88-10.58-31.5-11.18a147.43,147.43,0,0,0-55.21,7.85C65,86.11,52.29,90.08,39.27,93.73a61.38,61.38,0,0,1-30.83.74C5.73,93.82,3.14,93,.5,92.31V82.92a10.13,10.13,0,0,1,1.76.41c13.68,6.17,28.55,6.57,44,2.19,9.92-2.82,19.63-5.88,29.05-9.13a153,153,0,0,1,41.31-8.53c26.54-1.64,42.34,2.47,53.76,15.06a220.45,220.45,0,0,1,15.24,19.23c10.28,14.17,21.75,28,39.36,40.22,7.69,5.34,15.87,10.55,22.38,16.27,11.28,9.92,18,20.88,23.11,32.06,6.29,13.85,11.74,27.81,18.17,41.64,6.95,14.95,17,29.33,35.59,41.53C335.25,281.12,347.69,287.78,359.5,294.71Z"/><path class="cls-1" d="M361.34,295.21h-16l-.11-.06c-33.74-18.15-55-37.4-64.89-58.87l-3.27-7.12c-5.41-11.77-11-23.95-17.32-35.79-6.94-13-16.52-28.09-34.94-41.31a173.32,173.32,0,0,1-41.29-41.9,253.68,253.68,0,0,0-19.86-24.65c-6.08-6.62-16.85-10.43-31.16-11a146.58,146.58,0,0,0-55,7.82c-12.15,4.22-25,8.22-38.09,11.9A62.12,62.12,0,0,1,8.32,95c-1.86-.45-3.69-1-5.45-1.47l-2.5-.7L0,92.69V82.3l.61.13.56.11a5.76,5.76,0,0,1,1.3.33C15.6,88.8,30.28,89.53,46.11,85c9.79-2.78,19.56-5.84,29-9.11a152.77,152.77,0,0,1,41.44-8.56c27.15-1.67,42.83,2.73,54.16,15.22A227.34,227.34,0,0,1,186,101.86c9.75,13.45,21.26,27.62,39.23,40.1,1.68,1.16,3.37,2.31,5.07,3.47a180.25,180.25,0,0,1,17.36,12.84c9.78,8.6,17.16,18.84,23.24,32.23,2.9,6.39,5.67,12.9,8.34,19.2,3.13,7.37,6.36,15,9.82,22.43,8.25,17.74,19.5,30.87,35.41,41.32,7.6,5,16,9.79,24.15,14.43,3.66,2.09,7.45,4.25,11.11,6.39Zm-15.71-1h12c-3.15-1.84-6.38-3.68-9.51-5.46-8.15-4.65-16.58-9.45-24.2-14.46-16.07-10.56-27.44-23.82-35.76-41.74-3.47-7.46-6.71-15.09-9.84-22.46-2.67-6.29-5.44-12.8-8.33-19.18-6-13.26-13.32-23.39-23-31.89a180.25,180.25,0,0,0-17.26-12.76l-5.08-3.48C206.59,130.22,195,116,185.21,102.44A220.55,220.55,0,0,0,170,83.25C158.9,71,143.45,66.7,116.65,68.36a152.35,152.35,0,0,0-41.18,8.5C66,80.14,56.2,83.21,46.38,86c-16.05,4.55-31,3.81-44.32-2.22A5,5,0,0,0,1,83.52v8.41l2.14.6c1.76.5,3.57,1,5.42,1.45a61,61,0,0,0,30.58-.73c13.11-3.68,25.9-7.67,38-11.88a147.73,147.73,0,0,1,55.4-7.88c14.58.6,25.6,4.52,31.85,11.34a254.32,254.32,0,0,1,20,24.75,172.14,172.14,0,0,0,41.06,41.67c18.58,13.34,28.24,28.54,35.23,41.65C267,204.77,272.6,217,278,228.75l3.27,7.11C291.1,257.1,312.15,276.19,345.63,294.21Z"/><path class="cls-1" d="M824.5,191.94c-12.78-5-20.34-11.78-24.06-19.77-4.36-9.35-2.06-18.65,1.2-27.92,2.47-7,5.71-13.93,4.78-21.14-.74-5.71-5.54-10.25-15.69-12.31-13.29-2.69-27-4.83-40.75-6.88-21.11-3.15-42.49-5.81-61.85-11.53C668.23,86.5,653.41,77.81,640,68.48,617.69,53,596,37.29,574.11,21.65,565.38,15.41,556.83,9.1,548.29,2.8A9.12,9.12,0,0,1,546.5.5h12a33.31,33.31,0,0,0,2.94,2.69c6,4.47,12.3,8.87,18.22,13.38,22.78,17.34,45.9,34.51,72,50.59a197.55,197.55,0,0,0,75.59,27.76c12.75,2,25.67,3.67,38.37,5.73,13.62,2.21,27.39,4.31,40.48,7.22,10.94,2.42,16.51,7.51,16.61,13.76a35.78,35.78,0,0,1-1.82,11.64c-2.89,8.9-7,17.69-6.59,26.81.36,7,2.8,13.8,10.18,19.86Z"/><path class="cls-1" d="M825,192.68l-.68-.27c-12.19-4.78-20.37-11.52-24.34-20-4.61-9.9-1.8-19.8,1.19-28.29.39-1.11.8-2.22,1.21-3.33,2.12-5.72,4.31-11.64,3.54-17.59s-6-10-15.29-11.88c-13.84-2.8-28.28-5-40.72-6.88l-8.66-1.27c-18-2.62-36.52-5.32-53.26-10.27-21.15-6.26-36.28-15.63-48.3-24-17.28-12-34.5-24.35-51.14-36.29L573.82,22.06c-8.9-6.36-17.89-13-25.83-18.86a5.54,5.54,0,0,1-1.41-1.68A6.93,6.93,0,0,0,546.1.8l-.6-.8h13.2l.14.13c.31.29.61.58.9.88a17.89,17.89,0,0,0,2,1.78c2.39,1.77,4.81,3.52,7.23,5.28,3.65,2.64,7.42,5.37,11,8.1,21.72,16.54,45.17,34.07,72,50.56a197.37,197.37,0,0,0,75.41,27.7c5.63.87,11.39,1.7,17,2.51,7,1,14.32,2.06,21.41,3.22l5.47.88c11.65,1.88,23.69,3.82,35,6.34,10.85,2.4,16.89,7.46,17,14.24a36.1,36.1,0,0,1-1.85,11.81c-.62,1.92-1.31,3.86-2,5.74-2.43,6.8-4.94,13.83-4.58,20.89.41,8,3.58,14.23,10,19.5l.18.15ZM547.43,1a4.62,4.62,0,0,0,1.15,1.39c7.94,5.86,16.93,12.5,25.82,18.86q7.38,5.27,14.73,10.55C605.77,43.73,623,56.07,640.26,68.07c12,8.3,27,17.63,48,23.84,16.68,4.93,35.21,7.63,53.12,10.24l8.66,1.27c12.46,1.86,26.91,4.08,40.78,6.89,12.25,2.48,15.51,8.29,16.08,12.73.81,6.2-1.43,12.23-3.59,18.07-.41,1.1-.82,2.2-1.21,3.31-2.92,8.31-5.67,18-1.22,27.54,3.78,8.11,11.55,14.58,23.11,19.25v-11c-6.53-5.43-9.76-11.81-10.18-20.07-.36-7.26,2.18-14.38,4.63-21.28.67-1.87,1.36-3.81,2-5.71a35.2,35.2,0,0,0,1.8-11.48c-.1-6.27-5.86-11-16.21-13.29-11.33-2.51-23.35-4.45-35-6.32l-5.48-.89c-7.08-1.15-14.36-2.2-21.39-3.21-5.58-.81-11.34-1.64-17-2.52a198,198,0,0,1-75.77-27.83C624.57,51.06,601.1,33.52,579.36,17c-3.58-2.73-7.34-5.46-11-8.09q-3.64-2.64-7.24-5.29A17.63,17.63,0,0,1,559,1.72L558.3,1Z"/><path class="cls-1" d="M333.5,294.71h-12c-1.59-1.11-3.23-2.2-4.75-3.33-10.12-7.53-21-14.82-30.13-22.66-14.33-12.3-20.62-26.31-28.13-40-12-21.9-25.57-43.52-44.44-64.1-12.72-13.86-26.06-27.55-35.64-42.15a271,271,0,0,0-18.36-24.75c-5.67-6.81-16-11.15-30.55-11.84a177,177,0,0,0-21.84.58c-15.11,1.16-27.27,5.69-39.77,9.88-11.59,3.89-23.34,7.74-35.63,11-9.9,2.6-20.77,3.84-31.76,1.15v-7.82C14.58,104.39,28.17,103,41,99.1c13.39-4,26.35-8.45,39.35-12.82,14.79-5,30.93-7,48.42-6.69,14.84.29,26,3.85,32.68,10.58a138.87,138.87,0,0,1,15,17.88c10.06,14.27,19.86,28.59,35,41.67a198.16,198.16,0,0,1,27.27,28.07c14.81,19.06,23.42,39.08,33.89,58.8,8.16,15.37,19.19,30,37.82,42.77C317.93,284.54,325.79,289.59,333.5,294.71Z"/><path class="cls-1" d="M335.16,295.21H321.34l-.13-.09c-.49-.35-1-.7-1.5-1-1.09-.74-2.21-1.51-3.26-2.3-3.06-2.27-6.24-4.57-9.32-6.79-7.11-5.11-14.45-10.41-20.83-15.89-12.46-10.7-19-22.82-25.24-34.55q-1.49-2.79-3-5.57c-10.58-19.26-24.13-41.93-44.37-64l-5.6-6.07c-10.76-11.62-21.88-23.64-30.08-36.14a274.63,274.63,0,0,0-18.33-24.71c-5.8-7-16.25-11-30.2-11.66A178,178,0,0,0,107.7,87c-13.64,1-25.09,4.92-36.16,8.68l-3.49,1.18c-11.18,3.75-23.14,7.69-35.66,11C20.47,110.94,10,111.32.38,109l-.38-.1V100l.63.16c12.54,3.32,25.69,2.82,40.19-1.54,11.75-3.54,23.37-7.45,34.59-11.23l4.74-1.59c14.5-4.88,30.38-7.07,48.59-6.72,15.13.3,26.24,3.91,33,10.73a140.53,140.53,0,0,1,15,17.94l1.42,2c9.4,13.34,19.11,27.14,33.53,39.57a197.45,197.45,0,0,1,27.34,28.13c11.41,14.7,19.28,30.2,26.88,45.19,2.28,4.49,4.64,9.14,7.05,13.69,9.53,17.95,21.5,31.48,37.66,42.59,5.17,3.55,10.58,7.1,15.82,10.54l7.29,4.8Zm-13.5-1h10.18q-2.94-1.95-5.9-3.88c-5.24-3.44-10.66-7-15.84-10.56-16.3-11.2-28.37-24.85-38-42.94-2.42-4.56-4.78-9.21-7.06-13.71-7.59-15-15.43-30.4-26.78-45a196.11,196.11,0,0,0-27.21-28c-14.5-12.5-24.26-26.35-33.69-39.75l-1.42-2a139.87,139.87,0,0,0-14.92-17.81c-6.59-6.63-17.47-10.14-32.33-10.43-18.08-.35-33.86,1.83-48.25,6.66l-4.74,1.6C64.5,92.13,52.88,96,41.11,99.58,26.67,103.93,13.54,104.49,1,101.3v6.79c9.35,2.21,19.53,1.8,31.13-1.24,12.49-3.28,24.44-7.21,35.6-11l3.49-1.18C82.35,90.94,93.86,87,107.63,86a179.74,179.74,0,0,1,21.89-.58c14.24.67,24.93,4.83,30.92,12a272.74,272.74,0,0,1,18.39,24.8c8.16,12.43,19.25,24.42,30,36,1.87,2,3.74,4.05,5.6,6.08,20.31,22.14,33.9,44.87,44.51,64.19,1,1.85,2,3.72,3,5.58,6.23,11.64,12.68,23.69,25,34.26,6.35,5.46,13.68,10.74,20.76,15.84,3.08,2.22,6.27,4.52,9.33,6.8,1,.77,2.15,1.54,3.23,2.27Z"/><path class="cls-1" d="M.5,122.56v-6.78c6.09-.11,12.45.31,18.2-.48a138.74,138.74,0,0,0,21.54-4.68c12.91-4,25.34-8.33,37.85-12.62a132.77,132.77,0,0,1,34.36-6.56c20.76-1.4,35.78,2.51,45.14,12.25a103.62,103.62,0,0,1,10.09,12.73c8.92,12.71,16.59,25.68,26.59,38.15,23.15,28.83,46.42,57.63,63.15,87.68,10.47,18.82,26.83,35.84,51.33,50.7a8.57,8.57,0,0,1,1.75,1.76h-11a41,41,0,0,0-3.59-2.77c-18.69-11.78-32.2-25-41.69-39.47-9.7-14.78-19.35-29.6-30.66-44.05C204.11,183.57,185,158.7,169.81,133a175.85,175.85,0,0,0-16.47-23.71c-7.42-8.89-21.62-12.47-40-12-17,.48-31,4.58-44.81,9.36-12.74,4.41-25.8,8.6-39.16,12.48A86.13,86.13,0,0,1,.5,122.56Z"/><path class="cls-1" d="M311.68,295.21H299.33l-.14-.11c-.38-.29-.74-.6-1.11-.9a23.81,23.81,0,0,0-2.43-1.84c-18.19-11.46-31.88-24.42-41.85-39.62L252.64,251c-9.16-14-18.62-28.39-29.47-42.25-19.84-25.35-38.88-50.19-53.79-75.45A173.37,173.37,0,0,0,153,109.63c-7-8.36-20.31-12.33-39.64-11.78-17.83.5-32.41,5.08-44.67,9.33-13.23,4.58-26.41,8.78-39.18,12.49a86.67,86.67,0,0,1-29,3.39L0,123v-7.75H.49c1.88,0,3.82,0,5.69,0a89.51,89.51,0,0,0,12.45-.47,140.29,140.29,0,0,0,21.47-4.66c10.77-3.3,21.39-7,31.66-10.5l6.17-2.12a132.84,132.84,0,0,1,34.49-6.59c21.24-1.43,36.13,2.63,45.53,12.4a103.16,103.16,0,0,1,10.13,12.8c3.12,4.43,6.13,9,9,13.35,5.42,8.19,11,16.66,17.54,24.76l1.4,1.74c22.31,27.79,45.39,56.53,61.8,86,11,19.79,27.74,36.31,51.15,50.51a5.34,5.34,0,0,1,1.37,1.29c.15.18.31.37.48.55Zm-12-1h9.74a3.82,3.82,0,0,0-.91-.83c-23.57-14.3-40.42-30.94-51.52-50.88-16.37-29.42-39.41-58.12-61.7-85.88l-1.4-1.74c-6.53-8.14-12.16-16.63-17.6-24.83-2.9-4.39-5.91-8.92-9-13.34a103.56,103.56,0,0,0-10-12.68c-9.18-9.54-23.81-13.5-44.74-12.09a131.27,131.27,0,0,0-34.23,6.54l-6.18,2.12c-10.27,3.54-20.9,7.2-31.69,10.5a141.06,141.06,0,0,1-21.62,4.7,90.35,90.35,0,0,1-12.6.48c-1.7,0-3.46,0-5.17,0v5.82a85.83,85.83,0,0,0,28.19-3.38c12.76-3.7,25.92-7.9,39.13-12.48,12.34-4.27,27-8.88,45-9.38,19.65-.55,33.25,3.53,40.43,12.13a174.54,174.54,0,0,1,16.52,23.79c14.9,25.24,33.14,49,53.72,75.34,10.87,13.89,20.35,28.34,29.52,42.32l1.15,1.76c9.9,15.08,23.49,27.94,41.55,39.33a23.7,23.7,0,0,1,2.54,1.91Z"/><path class="cls-1" d="M288.5,294.71h-11a37.72,37.72,0,0,0-3-2.36c-14.65-9.54-24.41-20.42-32.95-31.71q-15.47-20.46-32-40.7c-7.53-9.17-17.72-17.83-23.74-27.24-10.05-15.7-17.8-31.8-26.34-47.76-4.51-8.43-7.72-17.09-15.87-24.88s-23-11.72-40-10.77c-13.44.76-24.45,4.23-35.46,7.9-13.74,4.58-27.46,9.19-41.57,13.45A86.46,86.46,0,0,1,.5,134.56v-5.74c8.18-1.07,17-1.44,24.4-3.37,13.61-3.58,26.26-8.14,39.48-12.15,9.88-3,19.51-6.51,30.13-8.51,26.72-5.05,47.54,0,58,13.72,5.25,6.92,9.19,14.13,13.13,21.29,12,21.79,23.79,43.59,42.23,64.21,13.87,15.51,26.82,31.21,36.94,47.51,9.42,15.17,22.48,29.32,42.2,41.65A7.51,7.51,0,0,1,288.5,294.71Z"/><path class="cls-1" d="M289.67,295.21H277.32l-.13-.11-.93-.77a19.24,19.24,0,0,0-2-1.56c-15.65-10.19-25.5-21.81-33.08-31.83-11-14.57-21.48-27.87-32-40.68-2.94-3.58-6.35-7.15-9.64-10.6-5.14-5.37-10.44-10.93-14.13-16.69-7.51-11.72-13.83-23.87-19.95-35.61-2.08-4-4.24-8.13-6.41-12.18-.94-1.76-1.83-3.55-2.7-5.29-3.29-6.57-6.68-13.36-13.08-19.47-8.07-7.72-22.52-11.59-39.64-10.63-13,.74-23.71,4-35.32,7.87l-2.8.94c-12.6,4.2-25.63,8.55-38.79,12.51A87.06,87.06,0,0,1,.49,135.06H0v-6.67l.44-.06c2.55-.34,5.2-.61,7.77-.87A111.8,111.8,0,0,0,24.77,125c8.68-2.28,17.12-5,25.27-7.66,4.63-1.49,9.41-3,14.19-4.49,2.4-.73,4.78-1.49,7.17-2.25a195.6,195.6,0,0,1,23-6.27c26.63-5,47.94,0,58.48,13.91,5.19,6.84,9.16,14,13,21l1,1.76c11.49,20.92,23.37,42.56,41.37,62.69,16.85,18.84,28.26,33.51,37,47.57,10.39,16.73,24.14,30.31,42,41.5a4.66,4.66,0,0,1,1.19,1.14c.13.16.26.32.4.47Zm-12-1h9.74a2.91,2.91,0,0,0-.68-.62c-18-11.27-31.89-24.94-42.36-41.81-8.71-14-20.08-28.64-36.89-47.44-18.08-20.21-30-41.9-41.51-62.87l-1-1.76c-3.81-6.94-7.76-14.12-12.91-20.9-10.3-13.56-31.25-18.49-57.49-13.53a192.88,192.88,0,0,0-22.91,6.25q-3.58,1.14-7.18,2.24c-4.77,1.45-9.55,3-14.17,4.5-8.17,2.64-16.62,5.38-25.33,7.67a113.1,113.1,0,0,1-16.71,2.52c-2.41.24-4.91.5-7.31.8v4.81h.35a85.94,85.94,0,0,0,25.08-3.91c13.15-4,26.17-8.31,38.76-12.51l2.81-.94c11.67-3.89,22.41-7.17,35.58-7.92,17.4-1,32.11,3,40.38,10.9,6.52,6.24,10,13.11,13.28,19.75.87,1.73,1.76,3.52,2.7,5.27,2.17,4.06,4.32,8.19,6.4,12.19,6.11,11.72,12.43,23.84,19.91,35.54,3.64,5.67,8.91,11.19,14,16.53,3.31,3.46,6.73,7,9.69,10.65,10.53,12.82,21,26.14,32,40.72,7.53,10,17.31,21.49,32.82,31.59a19.22,19.22,0,0,1,2.11,1.63Z"/><path class="cls-1" d="M266.5,294.71h-11c-10.41-7.52-18.75-15.66-24.9-24.31q-20.39-28.66-50.15-55c-7.72-6.83-14.62-14.21-18.59-21.81-7.16-13.72-11.42-27.84-17.74-41.69a74.11,74.11,0,0,0-12.35-19.44c-6.67-7.38-18.85-11.61-35.13-10.7A98.32,98.32,0,0,0,76,125.3c-10.52,3-20.33,6.61-30.42,10C31.53,140,17.38,144.58.5,146V140.3c1.64-.12,3.31-.19,4.93-.37,15.28-1.75,28.23-6,41.22-10.28,12.53-4.11,24.65-8.69,37.85-12.1,18.63-4.82,37.43-2.67,49.2,5.09,4.15,2.74,7.84,6,9.62,9.33,5.91,11,11.39,22.12,16.05,33.31,7.42,17.82,17,35.15,34.67,51.09a235.58,235.58,0,0,1,38,43.28,123.66,123.66,0,0,0,27.31,29.48C261.76,291,264.12,292.85,266.5,294.71Z"/><path class="cls-1" d="M268,295.21H255.34l-.13-.1c-10.44-7.53-18.85-15.75-25-24.42-13.49-19-30.34-37.43-50.08-54.88-9-8-15.16-15.17-18.7-21.95a244.62,244.62,0,0,1-10.62-24.44c-2.22-5.68-4.52-11.55-7.13-17.27a73.27,73.27,0,0,0-12.27-19.31c-6.92-7.66-19.26-11.4-34.73-10.54a98.74,98.74,0,0,0-20.55,3.48c-7.55,2.13-14.87,4.66-22,7.1-2.8,1-5.61,1.94-8.44,2.89C30.09,141,16.83,145.13.54,146.54l-.54,0v-6.74l.46,0,1.59-.1c1.1-.07,2.23-.15,3.32-.27,15.08-1.72,28.13-6,40.74-10.14l.38-.12c3.56-1.17,7.14-2.39,10.6-3.57,8.76-3,17.81-6.08,27.28-8.54,18.51-4.79,37.51-2.81,49.6,5.16,3.32,2.19,7.7,5.61,9.79,9.51,6.57,12.26,11.83,23.17,16.07,33.35,6.53,15.68,15.73,34,34.55,50.91a237.81,237.81,0,0,1,38.09,43.38,122.5,122.5,0,0,0,27.2,29.37c1.66,1.28,3.3,2.57,4.95,3.86Zm-12.29-1h9.39l-1.05-.83c-1.64-1.28-3.29-2.57-4.95-3.85a123.62,123.62,0,0,1-27.41-29.6,236.87,236.87,0,0,0-37.93-43.19c-19-17.06-28.23-35.49-34.8-51.27-4.23-10.16-9.47-21-16-33.27-2-3.72-6.24-7-9.46-9.14-11.86-7.82-30.56-9.75-48.8-5-9.43,2.44-18.47,5.53-27.2,8.51C54,127.73,50.36,129,46.8,130.12l-.38.12c-12.66,4.16-25.75,8.45-40.94,10.18-1.11.13-2.26.2-3.37.27L1,140.77v4.72c15.93-1.44,29-5.51,44.41-10.67,2.83-.95,5.63-1.92,8.44-2.88,7.09-2.45,14.42-5,22-7.12a99.44,99.44,0,0,1,20.76-3.52c15.78-.87,28.4,3,35.53,10.87a74.25,74.25,0,0,1,12.44,19.56c2.62,5.75,4.92,11.63,7.15,17.32a243.12,243.12,0,0,0,10.58,24.35c3.48,6.67,9.52,13.75,18.47,21.66,19.8,17.5,36.7,36,50.23,55.05C237.09,278.66,245.38,286.76,255.66,294.21Z"/><path class="cls-1" d="M244.5,294.71h-11c-6.44-7-13.76-13.73-19.14-20.9a230.13,230.13,0,0,0-45.94-46.41c-10.3-7.8-20.1-15.94-24.69-25.17-5.37-10.82-9.16-21.86-13.31-32.84-3-7.93-5.22-15.95-12.3-23.26C108.76,136.46,91.58,131.56,70,138c-10,3-19.56,6.28-29.36,9.4C28,151.41,15.3,155.39.5,157v-5.74c2.74-.32,5.55-.54,8.22-1,15.89-2.66,29.41-7.62,43.35-12.19,8.87-2.9,17.64-6,27.09-8.26,16.16-3.89,32.42-1.68,42.24,6a42.5,42.5,0,0,1,12,14.15,165.6,165.6,0,0,1,10.19,27.06c5.11,17.63,16.57,33.86,35.7,48.69Q200.39,242.1,214,260.56C222.63,272.32,231.88,283.92,244.5,294.71Z"/><path class="cls-1" d="M245.85,295.21H233.28l-.15-.16c-2-2.17-4.13-4.36-6.19-6.48a155.09,155.09,0,0,1-13-14.46,230.9,230.9,0,0,0-45.84-46.32c-9.49-7.18-20-15.66-24.84-25.34a271.1,271.1,0,0,1-11-26.72c-.77-2-1.53-4.11-2.31-6.16-.41-1.09-.8-2.17-1.2-3.26-2.43-6.69-5-13.6-11-19.84-10.43-10.77-28.23-13.77-47.61-8-6.5,1.93-13,4.05-19.18,6.09-3.39,1.11-6.77,2.22-10.18,3.31-11.75,3.75-25.07,8-40.24,9.64l-.55.06v-6.74l.44-.05,2.61-.29c1.86-.19,3.77-.4,5.58-.7,13.52-2.27,25.53-6.27,37.15-10.14l6.14-2,4.61-1.52c7.22-2.4,14.68-4.87,22.52-6.76,16.46-4,32.81-1.61,42.66,6.13a42.72,42.72,0,0,1,12.12,14.33,167.39,167.39,0,0,1,10.22,27.14c5.26,18.14,16.88,34,35.53,48.43a179.64,179.64,0,0,1,34.79,34.91c8.29,11.26,17.72,23.18,30.46,34.07Zm-12.13-1h9.44c-12.3-10.72-21.49-22.35-29.6-33.35A178.18,178.18,0,0,0,179,226.14c-18.83-14.58-30.56-30.59-35.88-48.94a166.36,166.36,0,0,0-10.15-27,41.82,41.82,0,0,0-11.85-14c-9.62-7.56-25.64-9.84-41.81-6-7.8,1.88-15.24,4.35-22.44,6.74l-4.61,1.52-6.14,2c-11.65,3.88-23.7,7.9-37.29,10.18-1.84.31-3.77.51-5.64.71L1,151.7v4.73c14.84-1.67,27.93-5.84,39.49-9.53,3.41-1.09,6.79-2.2,10.17-3.31,6.24-2.05,12.69-4.16,19.2-6.1,19.75-5.86,37.92-2.76,48.62,8.29,6.19,6.39,8.74,13.4,11.21,20.19.4,1.08.79,2.16,1.2,3.24.78,2.06,1.54,4.12,2.3,6.17a272.23,272.23,0,0,0,11,26.63c4.71,9.48,15.14,17.87,24.55,25a232,232,0,0,1,46,46.51,156.75,156.75,0,0,0,12.89,14.37C229.67,290,231.75,292.08,233.72,294.21Z"/><path class="cls-1" d="M.5,167.43v-5.22c13.84-1.9,26.19-5.46,38.37-9.25,10.14-3.15,20.1-6.52,30.69-9.2,14.2-3.6,27.17-1.82,35.69,5.11a41.08,41.08,0,0,1,11.12,13.23c4.22,8.65,7.1,17.48,10.16,26.27,4.54,13,12.46,25.35,26.79,36.42,8,6.19,15.71,12.48,23.52,18.73,20,16,29.62,34.49,46.66,51.19h-11c-8.61-10.26-17.18-20.52-25.86-30.76-9.89-11.67-24-22-37.88-32.44-16.46-12.31-27.53-25.68-32.7-40.47-3-8.45-6.84-16.81-10.73-25.16-2.14-4.59-6.14-8.83-12.57-12.28-7.09-3.81-15.5-5-25.05-2.86-4.75,1-9.37,2.26-13.91,3.54-11.56,3.26-22.87,6.78-34.63,9.84C13.34,165.63,6.75,166.35.5,167.43Z"/><path class="cls-1" d="M224.73,295.21H212.27l-.15-.18-7.91-9.42c-5.86-7-11.93-14.23-18-21.33-9.48-11.19-23.07-21.35-36.21-31.18l-1.59-1.19c-17-12.71-27.74-26-32.87-40.7-3-8.56-6.92-17-10.71-25.11-2.24-4.8-6.4-8.86-12.35-12.06-7.24-3.89-15.56-4.83-24.72-2.82-4.21.93-8.61,2.05-13.87,3.54-4.13,1.16-8.24,2.36-12.34,3.56-7.25,2.12-14.75,4.32-22.31,6.28A127.59,127.59,0,0,1,6.47,167c-2,.3-3.94.6-5.89.94L0,168v-6.25l.43-.06c14.21-1.94,26.71-5.62,38.29-9.23,2.37-.73,4.73-1.48,7.09-2.23,7.62-2.42,15.5-4.92,23.63-7,14.4-3.64,27.57-1.75,36.12,5.21a41.41,41.41,0,0,1,11.26,13.4,204,204,0,0,1,9,23l1.14,3.29c5,14.39,13.73,26.22,26.62,36.19,5.79,4.47,11.52,9.08,17,13.53l6.49,5.2c11.68,9.34,20,19.7,28,29.73,5.72,7.15,11.63,14.54,18.72,21.49Zm-12-1h9.55a241.57,241.57,0,0,1-17.93-20.73c-8-10-16.22-20.3-27.82-29.57-2.17-1.73-4.32-3.47-6.48-5.2-5.54-4.45-11.26-9.05-17-13.52-13-10.09-21.87-22.08-26.95-36.65l-1.14-3.3a203.5,203.5,0,0,0-9-22.92,40.33,40.33,0,0,0-11-13.07c-8.3-6.75-21.15-8.57-35.24-5-8.1,2-16,4.55-23.57,7L39,153.44c-11.51,3.58-23.91,7.23-38,9.21v4.18c1.76-.29,3.54-.56,5.32-.83,4.29-.65,8.73-1.33,12.72-2.36,7.55-2,15-4.16,22.28-6.28,4.11-1.2,8.21-2.4,12.35-3.57,5.27-1.48,9.7-2.61,13.93-3.54,9.4-2.07,17.94-1.09,25.4,2.91,6.15,3.3,10.45,7.51,12.78,12.51,3.81,8.16,7.74,16.6,10.75,25.21,5.07,14.49,15.71,27.65,32.53,40.23l1.59,1.19c13.18,9.86,26.82,20.06,36.37,31.33,6,7.1,12.09,14.34,18,21.33Q208.85,289.6,212.73,294.21Z"/><path class="cls-1" d="M.5,172.64c7.32-1.37,14.89-2.46,21.92-4.17,11.61-2.82,22.71-6.19,34.3-9,16.07-3.93,26.85-2.17,34.26,6.32,5.12,5.87,8.23,12.25,11.59,18.49,5,9.27,8.48,18.78,14.32,27.89,6.1,9.53,17.62,17.71,28.84,25.78,20.74,14.94,37.22,31,49.9,48.21,2.13,2.89,4.57,5.72,6.87,8.58h-10c-6.59-7.87-12.87-15.82-19.83-23.6-11.18-12.49-26.47-23.68-41.77-34.84s-28-23.16-33.26-36.93a81.28,81.28,0,0,0-7.55-15.1A65.82,65.82,0,0,0,79,170.67c-5.32-4.84-12.61-6-22.68-4.15-7.51,1.38-14.64,3.31-22,4.88-11.21,2.38-22.5,4.66-33.76,7Z"/><path class="cls-1" d="M203.54,295.21H192.27l-.15-.18c-2.05-2.44-4.06-4.89-6.07-7.34-4.41-5.35-9-10.88-13.76-16.24-11.25-12.58-26.72-23.86-41.68-34.77-18.21-13.28-28.84-25.09-33.44-37.16a80.29,80.29,0,0,0-7.5-15,65,65,0,0,0-11-13.47c-5-4.6-12.13-5.87-22.27-4-4.52.82-9,1.87-13.29,2.89-2.84.67-5.78,1.36-8.71,2-7.83,1.66-15.83,3.3-23.56,4.89L.6,178.87,0,179v-6.76l.41-.08c2.27-.42,4.57-.82,6.87-1.22,5-.87,10.19-1.77,15-3,5.89-1.42,11.76-3,17.43-4.58,5.49-1.5,11.17-3.05,16.87-4.44,16.59-4.06,27.31-2.06,34.76,6.47,4.51,5.17,7.49,10.79,10.38,16.22.42.79.84,1.58,1.27,2.37,1.94,3.61,3.68,7.31,5.37,10.89a146.3,146.3,0,0,0,8.93,17c5.91,9.23,17.11,17.29,27.94,25.09l.77.56c20.33,14.64,37.15,30.89,50,48.31,1.45,2,3.08,3.94,4.64,5.85.75.9,1.49,1.81,2.22,2.71Zm-10.81-1h8.72l-1.55-1.9c-1.57-1.91-3.21-3.9-4.67-5.88-12.8-17.34-29.55-33.52-49.79-48.1l-.78-.56c-10.9-7.85-22.18-16-28.19-25.36a146,146,0,0,1-9-17.07c-1.68-3.57-3.42-7.26-5.35-10.85-.43-.79-.85-1.58-1.27-2.38-2.86-5.37-5.82-10.94-10.25-16C83.43,157.87,73,156,56.84,159.93c-5.69,1.39-11.36,2.94-16.85,4.44-5.68,1.55-11.55,3.15-17.45,4.59-4.86,1.18-10.06,2.08-15.09,2.95-2.15.38-4.31.75-6.45,1.15v4.71l9.6-2c7.73-1.59,15.73-3.23,23.55-4.89,2.93-.62,5.86-1.31,8.69-2,4.33-1,8.8-2.07,13.35-2.9,10.47-1.91,17.81-.55,23.11,4.27A65.72,65.72,0,0,1,90.51,184a81.63,81.63,0,0,1,7.6,15.19c4.53,11.89,15,23.55,33.09,36.71,15,10.94,30.51,22.25,41.84,34.91,4.81,5.38,9.37,10.92,13.78,16.28C188.78,289.44,190.74,291.83,192.73,294.21Z"/><path class="cls-1" d="M.5,184.12c14.58-2.91,29.1-5.91,43.76-8.7,15.3-2.92,23-1.51,30.05,6.2a62.51,62.51,0,0,1,11.08,16.12c7,15.55,19.42,29.58,38.37,42.19,25,16.64,44.18,35.05,58.74,54.78h-11a5.25,5.25,0,0,0-.52-1.26c-13.12-17.4-30.4-33.61-52.63-48.27-18.9-12.47-34-25.82-41.91-41.34-3-5.87-8.46-11.46-13.82-16.91-3.95-4-11.49-5.23-19.76-4-14.19,2.18-28.25,4.59-42.36,6.9Z"/><path class="cls-1" d="M183.49,295.21H171.16l-.12-.32c-.06-.14-.11-.29-.16-.44a2.06,2.06,0,0,0-.3-.69c-13.46-17.86-31.13-34.06-52.51-48.17S83.26,218.25,76,204.06c-3-5.87-8.71-11.67-13.74-16.78-3.63-3.69-10.86-5.12-19.33-3.82-10,1.53-20,3.2-29.79,4.81L.58,190.35l-.58.09v-6.73l.4-.08,13.41-2.7c9.93-2,20.19-4.07,30.36-6,15.73-3,23.43-1.4,30.51,6.35a62.78,62.78,0,0,1,11.17,16.26c7.16,15.9,19.65,29.63,38.18,42,23.93,15.92,43.73,34.39,58.87,54.9Zm-11.63-1h9.65c-15-20.1-34.52-38.22-58-53.87C104.78,227.9,92.18,214,84.94,198a61.87,61.87,0,0,0-11-16c-6.8-7.44-14.27-9-29.58-6.05-10.17,1.93-20.43,4-30.35,6L1,184.53v4.74l12-2c9.75-1.62,19.82-3.29,29.8-4.82,8.92-1.37,16.28.13,20.19,4.11,5.08,5.16,10.84,11,13.92,17,7.18,14,20.44,27.1,41.73,41.15,21.48,14.17,39.23,30.45,52.76,48.39a3.28,3.28,0,0,1,.46,1Z"/><path class="cls-1" d="M824.5,105.87c-19.14-5.37-40.25-7.67-61-10.28-43.75-5.49-79.72-17-109.14-34.92A652.59,652.59,0,0,1,587.6,14.19C582.85,10.41,577.83,6.73,573,3A26.64,26.64,0,0,1,570.5.5h12c2.33,2.08,4.56,4.2,7,6.24,22.52,18.71,47,36.6,77.11,52.3,24.75,12.89,51.87,23.7,85.55,29.22,23.92,3.92,48.21,7.24,72.33,10.83Z"/><path class="cls-1" d="M825,106.53l-.64-.18c-17.29-4.85-36.49-7.23-55.06-9.53l-5.9-.73c-44-5.53-79.8-17-109.34-35a656.93,656.93,0,0,1-66.77-46.52c-2.76-2.2-5.67-4.4-8.48-6.53-2-1.56-4.1-3.11-6.12-4.67a15.13,15.13,0,0,1-1.81-1.75l-.73-.78L569.3,0h13.39l.14.13,2.2,2c1.54,1.41,3.13,2.86,4.8,4.24,27.09,22.5,50.84,38.61,77,52.25,29,15.1,56.14,24.37,85.4,29.17,16.55,2.71,33.55,5.17,50,7.56q11.18,1.62,22.33,3.27l.43.06ZM571.66,1a13.83,13.83,0,0,0,1.65,1.59c2,1.56,4.05,3.11,6.1,4.66,2.82,2.14,5.73,4.34,8.5,6.55a656.56,656.56,0,0,0,66.67,46.45C684,78.19,719.64,89.58,763.52,95.09l5.9.74c18.38,2.27,37.38,4.63,54.58,9.38V99.52q-10.93-1.62-21.91-3.2c-16.44-2.39-33.45-4.85-50-7.57-29.37-4.81-56.6-14.11-85.7-29.27-26.25-13.67-50.06-29.81-77.2-52.36-1.68-1.4-3.28-2.86-4.83-4.27L582.31,1Z"/><path class="cls-1" d="M.5,195.07l20.36-2.39c4.71-.54,9.4-1.14,14.15-1.58,8.72-.82,16.25.49,20.59,4.57,4.73,4.45,9.45,9,12.29,13.88,8.62,14.67,24.53,27,42.64,38.84,21,13.71,37.87,28.74,50.3,45.08a8.3,8.3,0,0,1,.67,1.24h-11a30.26,30.26,0,0,0-1.7-2.7c-12.25-15.75-30-29.75-50.44-42.88-16.54-10.64-31.24-21.8-40.21-34.82a47.53,47.53,0,0,0-7.3-7.69c-7.13-6.41-13.64-8-27.68-7q-11.34.83-22.67,1.7Z"/><path class="cls-1" d="M162.33,295.21H150.22l-.14-.24c-.18-.29-.36-.58-.53-.87a14.59,14.59,0,0,0-1.15-1.78c-11-14.18-27-27.77-50.31-42.76-13.6-8.75-30.48-20.64-40.36-35a46.69,46.69,0,0,0-7.22-7.6c-7-6.26-13.34-7.87-27.31-6.86q-7.86.57-15.72,1.18L0,201.87v-7.24l6-.71,14.8-1.73,3.5-.42c3.48-.41,7.08-.84,10.65-1.17,9.5-.89,16.76.74,21,4.7,4.9,4.6,9.53,9.13,12.38,14C77.54,225,95,237.65,110.8,248c21.13,13.77,38.09,29,50.43,45.2a5.5,5.5,0,0,1,.53.93c.06.12.11.25.18.37Zm-11.55-1h9.92a4,4,0,0,0-.27-.44c-12.27-16.13-29.15-31.26-50.17-45-15.94-10.39-33.48-23.14-42.8-39-2.79-4.75-7.36-9.22-12.2-13.77-4-3.76-11-5.3-20.21-4.43-3.56.33-7.15.75-10.63,1.17l-3.5.41L6.13,194.91,1,195.52v5.27l6.4-.48q7.86-.6,15.73-1.18c14.29-1,20.84.64,28.05,7.12A48,48,0,0,1,58.56,214c9.78,14.19,26.55,26,40.07,34.69,23.4,15.06,39.47,28.72,50.56,43a16.77,16.77,0,0,1,1.23,1.88Z"/><path class="cls-1" d="M824.5,93.87C802,90.49,779.11,87.64,757,83.59c-29.13-5.35-53.16-15.2-76.46-25.58C644.11,41.77,616.75,21.8,592.5.5h11c.24.4.31.87.75,1.2C618,11.93,631.07,22.44,645.81,32.27,665.72,45.54,692.24,55,717.87,65.05,749.81,77.52,786,84.49,824.5,88.66Z"/><path class="cls-1" d="M825,94.45l-.57-.08c-6.93-1-14-2.05-20.84-3-15.41-2.2-31.35-4.46-46.64-7.27-30-5.51-54.26-15.67-76.57-25.61-31.75-14.14-59-31.91-88.21-57.59l-1-.88h12.61l.15.24a2.77,2.77,0,0,1,.22.46,1.38,1.38,0,0,0,.4.6c4.11,3.05,8.23,6.19,12.21,9.21,9.34,7.11,19,14.46,29.33,21.34C663.58,43.51,686.59,52.4,708.84,61q4.62,1.77,9.21,3.57c28.75,11.23,63.59,18.94,106.5,23.58l.45,0ZM593.83,1c28.79,25.15,55.66,42.62,86.95,56.56,22.26,9.91,46.49,20,76.35,25.54,15.27,2.8,31.2,5.07,46.6,7.26,6.65.94,13.53,1.92,20.27,2.93V89.11c-42.8-4.66-77.58-12.38-106.31-23.6l-9.21-3.57c-22.3-8.62-45.37-17.54-62.94-29.25-10.36-6.91-20-14.26-29.39-21.38-4-3-8.09-6.16-12.19-9.21a2.27,2.27,0,0,1-.72-1l0-.1Z"/><path class="cls-1" d="M824.5,84c-23.49-2.74-46.56-6.21-66.89-13.14-24.38-8.3-48.6-16.77-72.16-25.69C657,34.35,636,20,617.49,4.57a52.57,52.57,0,0,1-4-4.07h10a3.79,3.79,0,0,0,.67,1c16.92,14.07,36.13,27.17,62.26,36.93,18.11,6.77,37.5,12.6,55.64,19.34,25.4,9.44,51.66,17.78,82.43,21.54Z"/><path class="cls-1" d="M825,84.52l-.56-.06c-22.38-2.61-46-6-67-13.16-29.6-10.09-51.86-18-72.18-25.7-31.39-11.89-52.88-28-68.1-40.65a27.72,27.72,0,0,1-2.82-2.81c-.4-.43-.79-.86-1.21-1.29L612.32,0h11.45l.14.22c.08.12.15.24.21.35a1.68,1.68,0,0,0,.37.51C638.36,12.61,658,27.22,686.61,37.93c9.16,3.42,18.82,6.66,28.16,9.79,9.1,3.05,18.52,6.21,27.48,9.54,23.85,8.87,50.34,17.61,82.31,21.51l.44.06ZM614.66,1l.43.47a27.92,27.92,0,0,0,2.72,2.72C633,16.81,654.37,32.83,685.63,44.66c20.3,7.69,42.55,15.61,72.14,25.69C778.51,77.41,801.83,80.81,824,83.4V79.71C792.12,75.77,765.7,67,741.9,58.2c-8.95-3.32-18.35-6.48-27.45-9.53-9.35-3.14-19-6.38-28.19-9.81-28.79-10.75-48.48-25.43-62.41-37a2.54,2.54,0,0,1-.6-.79l0-.06Z"/><path class="cls-1" d="M.5,208.11c8-.17,15.92-.6,23.85-.46a27.6,27.6,0,0,1,16.07,5.17c3.19,2.33,6.49,4.69,8.75,7.27,9.94,11.33,24.06,21.18,39,30.77,19.18,12.3,36.87,25.12,49.13,39.75,1.13,1.35,2.12,2.73,3.18,4.1h-11c-8.54-7.94-16.19-16.18-25.8-23.75-20.87-16.43-48.17-30.37-67.87-47.3-8-6.89-20.7-8.82-35.33-8.24Z"/><path class="cls-1" d="M141.52,295.21H129.3l-.14-.14c-2.67-2.48-5.29-5-7.82-7.49a228.4,228.4,0,0,0-18-16.22c-9.51-7.5-20.57-14.6-31.25-21.46C59.4,241.72,46.23,233.25,35.5,224c-7.11-6.12-18.55-8.77-35-8.12l-.52,0v-8.32H.49c2.4-.05,4.81-.13,7.22-.2,5.46-.18,11.11-.36,16.65-.26a28.06,28.06,0,0,1,16.35,5.27l.44.31a52.17,52.17,0,0,1,8.4,7c10.09,11.51,24.67,21.55,38.91,30.68,16.94,10.86,36,24.09,49.24,39.85.79.93,1.51,1.89,2.21,2.82.33.43.65.86,1,1.29Zm-11.82-1h9.79l-.37-.49c-.7-.92-1.42-1.87-2.18-2.79-13.12-15.65-32.14-28.83-49-39.65C73.61,242.11,59,232,48.8,220.42a51.85,51.85,0,0,0-8.24-6.88l-.43-.31a27.13,27.13,0,0,0-15.78-5.08c-5.52-.1-11.16.08-16.61.26-2.25.07-4.49.14-6.74.19v6.3c16.41-.58,27.91,2.16,35.16,8.38,10.67,9.17,23.81,17.61,36.52,25.78,10.71,6.88,21.78,14,31.33,21.51a228.63,228.63,0,0,1,18,16.29C124.52,289.28,127.09,291.78,129.7,294.21Z"/><path class="cls-1" d="M824.5,69.36v5.21a271.67,271.67,0,0,1-52.11-13.32c-20.28-7.25-40.76-14.42-62-20.85C677.7,30.54,652.48,17,632.5.5h11c.68.6,1.29,1.22,2,1.79,19.13,14.27,43.14,25.61,73.06,33.53,22.73,6,44.62,12.8,64.46,21.22A205.5,205.5,0,0,0,824.5,69.36Z"/><path class="cls-1" d="M825,75.15l-.57-.08a273.13,273.13,0,0,1-52.21-13.35c-18.43-6.59-39.94-14.18-62-20.84-31.35-9.47-56.88-22.55-78-40L631.11,0h12.58l.14.12.64.58c.45.42.88.81,1.37,1.19,19.52,14.55,44,25.81,72.89,33.45,26.3,7,46.81,13.72,64.54,21.24a206.08,206.08,0,0,0,41.32,12.29l.41.07ZM633.9,1c20.85,16.91,45.92,29.65,76.61,38.92,22.08,6.67,43.61,14.26,62,20.85A272.14,272.14,0,0,0,824,74V69.77A206.64,206.64,0,0,1,782.88,57.5c-17.69-7.5-38.15-14.24-64.4-21.19-29-7.68-53.62-19-73.23-33.62-.54-.41-1-.84-1.46-1.25L643.31,1Z"/><path class="cls-1" d="M824.5,64.14c-8.08-2.56-17-4.6-24.07-7.79C779.39,46.83,756,39.28,731.09,33S683,19.23,664.87,8.06c-4-2.44-7.59-5-11.37-7.56h12c1.61,1.09,3.12,2.23,4.83,3.27,17.59,10.73,40.13,17.75,64.43,23.51,27.35,6.49,53.38,14.07,75.33,25,4.28,2.14,9.58,3.72,14.41,5.56Z"/><path class="cls-1" d="M825,64.82l-.65-.2c-2.53-.81-5.19-1.57-7.76-2.31a123.48,123.48,0,0,1-16.36-5.5c-19.66-8.9-42.32-16.54-69.26-23.33-30.22-7.62-50.68-15.33-66.36-25-2.72-1.67-5.32-3.45-7.84-5.16-1.18-.81-2.35-1.61-3.55-2.4L651.85,0h13.8l.13.09c.51.34,1,.69,1.51,1,1.05.73,2.14,1.5,3.3,2.2,15.2,9.28,35,16.51,64.28,23.45,33.24,7.88,56.51,15.62,75.45,25.08A87.7,87.7,0,0,0,820,55.72c1.57.55,3.14,1.11,4.67,1.69l.32.13ZM655.14,1l2.19,1.49c2.51,1.71,5.1,3.48,7.81,5.14,15.58,9.61,36,17.28,66.08,24.88,27,6.81,49.7,14.46,69.42,23.39a123.79,123.79,0,0,0,16.22,5.45c2.36.68,4.8,1.38,7.14,2.11V58.23c-1.42-.54-2.87-1-4.33-1.57a88.9,88.9,0,0,1-9.8-3.9c-18.87-9.42-42.07-17.13-75.23-25-29.36-7-49.27-14.24-64.57-23.57-1.19-.72-2.29-1.5-3.35-2.25L665.35,1Z"/><path class="cls-1" d="M.5,223.24c9.2.42,17.32,2.4,23.24,5.92,30.15,17.9,62.91,34.73,85.46,55.8,3.39,3.16,6.22,6.49,9.3,9.75h-12c-6.28-5.8-11.92-11.82-19-17.34C68.74,262.67,45.25,250.16,19.21,239c-5.7-2.45-12.45-4.24-18.71-6.33Z"/><path class="cls-1" d="M119.66,295.21H106.3l-.14-.14c-2-1.81-3.91-3.68-5.78-5.49a169.85,169.85,0,0,0-13.16-11.82C70,264.29,47.69,251.75,19,239.42A131.85,131.85,0,0,0,6.37,235c-2-.63-4.05-1.26-6-1.92L0,233V222.72l.52,0c9.5.44,17.62,2.51,23.48,6,6.13,3.64,12.48,7.3,18.62,10.84,24.05,13.87,48.92,28.21,66.93,45,2.33,2.18,4.42,4.46,6.44,6.67,1,1,1.9,2.07,2.87,3.1Zm-13-1h10.64c-.7-.76-1.39-1.52-2.09-2.27-2-2.2-4.08-4.47-6.39-6.62-17.92-16.73-42.74-31-66.74-44.88-6.14-3.54-12.49-7.21-18.63-10.85-5.61-3.33-13.38-5.34-22.49-5.82v8.5c1.86.62,3.76,1.21,5.67,1.8a134.07,134.07,0,0,1,12.74,4.43C48.17,250.86,70.55,263.45,87.83,277a168.45,168.45,0,0,1,13.24,11.89C102.9,290.62,104.78,292.44,106.7,294.21Z"/><path class="cls-1" d="M824.5,50.58c-2-.88-4.27-1.67-6.12-2.66-19.22-10.22-42.7-17-67.28-23-16.54-4-33.12-8.17-48.7-13.1C693.12,8.92,685.74,4.34,677.5.5h13c14.07,6.71,30.63,11.28,48,15.15,30.72,6.87,62,13.21,86,26.06Z"/><path class="cls-1" d="M825,51.34l-.7-.3c-.65-.28-1.31-.55-2-.82a44.15,44.15,0,0,1-4.17-1.86C798.07,37.69,772.93,30.79,751,25.44c-16.79-4.09-33.15-8.17-48.73-13.1a113.21,113.21,0,0,1-17.48-7.68c-2.43-1.24-4.93-2.52-7.48-3.71l-2-.95,15.47.05c12.07,5.75,26.83,10.42,47.86,15.12l6.78,1.5c28,6.23,57,12.66,79.38,24.6l.26.14ZM679.71,1c1.87.91,3.72,1.85,5.52,2.77a112.86,112.86,0,0,0,17.32,7.62c15.55,4.92,31.9,9,48.67,13.08,22,5.36,47.23,12.29,67.4,23a41.43,41.43,0,0,0,4.08,1.81l1.3.53V42c-22.18-11.78-51-18.18-78.86-24.36l-6.78-1.51c-21.05-4.7-35.85-9.37-48-15.14Z"/><path class="cls-1" d="M.5,242.54C35,252.6,63.27,266.13,83.92,283.81c4.14,3.54,7.73,7.26,11.58,10.9h-12c-9-7-17.33-14.38-27.26-21.06a112.41,112.41,0,0,0-35.31-15.8c-6.84-1.77-13.62-3.6-20.43-5.4Z"/><path class="cls-1" d="M96.76,295.21H83.33l-.14-.11c-2.74-2.14-5.47-4.35-8.1-6.49-6-4.87-12.24-9.91-19.13-14.55a112.27,112.27,0,0,0-35.15-15.73c-4.75-1.22-9.47-2.48-14.18-3.73L0,252.84v-11l.64.19c35.49,10.35,63.62,24.26,83.61,41.37,2.84,2.43,5.47,5,8,7.46,1.19,1.16,2.37,2.31,3.58,3.45Zm-13.09-1H94.25l-2.68-2.6c-2.53-2.46-5.15-5-8-7.42-19.76-16.91-47.55-30.7-82.6-41v8.86l5.88,1.56c4.72,1.26,9.43,2.51,14.18,3.73a113.23,113.23,0,0,1,35.46,15.87c6.92,4.67,13.16,9.72,19.2,14.61C78.3,289.93,81,292.1,83.67,294.21Z"/><path class="cls-1" d="M824.5,32.84C806,24,783.23,19.2,760.55,14.22c-16-3.52-31.64-7.54-47.37-11.42A37.86,37.86,0,0,1,707.5.5h21a38.11,38.11,0,0,0,4.16,1.32c14,2.93,28,5.92,42.13,8.69A372.47,372.47,0,0,1,824.5,23.45Z"/><path class="cls-1" d="M825,33.64l-.72-.35C806.71,24.84,784.75,20,763.52,15.38l-3.08-.67c-12.52-2.75-25-5.86-37.07-8.86L713.06,3.29a22.06,22.06,0,0,1-4-1.55c-.56-.27-1.13-.53-1.72-.78L705,0l23.66,0L730,.48a22.6,22.6,0,0,0,2.8.85l9.08,1.91c10.8,2.27,22,4.61,33,6.78a371.78,371.78,0,0,1,49.77,13l.34.12ZM709.82,1a18.81,18.81,0,0,0,3.48,1.32l10.31,2.56c12.06,3,24.53,6.1,37,8.85l3.08.67c21,4.6,42.7,9.36,60.26,17.65V23.81A371,371,0,0,0,774.69,11c-11.08-2.17-22.25-4.52-33.05-6.79l-9.08-1.9a21.87,21.87,0,0,1-2.93-.89c-.4-.14-.8-.29-1.21-.42Z"/><path class="cls-1" d="M.5,260.8a11.13,11.13,0,0,0,1.32.36c30,4.46,48.91,15.7,64.79,28.79,1.84,1.52,3.27,3.17,4.89,4.76h-12c-5.28-3.89-10.28-7.89-15.9-11.63C32.49,275.68,18.37,270.6.5,268.62Z"/><path class="cls-1" d="M72.72,295.21H59.34l-.14-.1q-2.46-1.82-4.87-3.65c-3.51-2.65-7.15-5.4-11-8C31.8,275.82,17.37,271,.45,269.12L0,269.07v-8.93l.63.18.44.13a5.2,5.2,0,0,0,.82.21c32.24,4.79,51,17.3,65,28.9a43.23,43.23,0,0,1,3.43,3.28c.49.51,1,1,1.49,1.51Zm-13.06-1H70.3l-.66-.67a39.52,39.52,0,0,0-3.35-3.21c-14-11.51-32.55-23.92-64.54-28.68a4.33,4.33,0,0,1-.75-.18v6.71c16.89,1.92,31.32,6.79,42.88,14.48,3.88,2.59,7.53,5.34,11,8C56.5,291.85,58.07,293,59.66,294.21Z"/><path class="cls-1" d="M824.5,15.11c-20.41-6-42.55-9.76-64.59-13.66A32.8,32.8,0,0,1,756.5.5h38l30,6.26Z"/><path class="cls-1" d="M825,15.77l-.64-.18c-19.18-5.64-40.26-9.36-60.65-13l-3.89-.69a18.68,18.68,0,0,1-2.4-.64L756.36,1l-3.44-1H794.6L825,6.35ZM760.22,1l3.66.65C784.07,5.21,804.94,8.89,824,14.44V7.17L794.45,1Z"/><path class="cls-1" d="M.5,275.41c10.12,1.25,19.68,3.28,26.89,7.25,6.85,3.78,12.78,8,19.11,12h-14a36.48,36.48,0,0,0-3-2.33c-7.69-4.91-17.6-8.13-29-10.19Z"/><path class="cls-1" d="M48.22,295.21H32.33l-.14-.11-.93-.75a22.33,22.33,0,0,0-2-1.55C22,288.2,12.59,284.89.41,282.68L0,282.6v-7.76l.56.07c12.15,1.51,20.75,3.84,27.07,7.31,4.78,2.64,9.18,5.54,13.43,8.34,1.89,1.25,3.78,2.5,5.71,3.72Zm-15.55-1H44.8l-4.29-2.81c-4.24-2.8-8.62-5.69-13.36-8.3C21,279.74,12.72,277.47,1,276v5.8C13.11,284,22.52,287.34,29.75,292a22.29,22.29,0,0,1,2.15,1.61C32.15,293.79,32.41,294,32.67,294.21Z"/><path class="cls-1" d="M.5,289.49l16,5.22H.5Z"/><path class="cls-1" d="M19.65,295.21H0V288.8ZM1,294.21H13.35L1,290.18Z"/></g></g></svg>